<svg width="114" height="43" viewBox="0 0 114 43" fill="none" xmlns="http://www.w3.org/2000/svg">
<path d="M2.90604 42.6793C19.1507 43.4648 36.5839 43.0418 51.3382 37.0374C55.6316 35.3344 59.5232 32.9763 62.8393 30.0685C65.5686 30.5125 68.3258 30.7565 71.082 30.7978C82.6046 31.0503 94.1793 27.6483 103.885 22.5341C101.936 25.4094 99.9873 28.2817 98.039 31.1507C97.8932 31.438 97.815 31.7503 97.8089 32.0694C97.8027 32.3886 97.8688 32.7084 98.0033 33.0103C98.1378 33.3122 98.338 33.5902 98.5924 33.8284C98.8468 34.0666 99.1503 34.2601 99.4854 34.3978C100.163 34.6637 100.921 34.6946 101.601 34.4841C102.281 34.2736 102.831 33.8378 103.138 33.2671L113.179 18.468C113.344 18.1312 113.417 17.7624 113.392 17.3899C113.367 17.0174 113.245 16.6513 113.035 16.3198C112.826 15.9884 112.534 15.7004 112.183 15.4782C111.832 15.2559 111.431 15.1054 111.011 15.0381L88.8535 12.8181C85.3024 12.4607 84.5199 17.2595 88.0989 17.5822L100.232 18.7908C93.673 22.1852 86.3994 24.4512 78.7822 25.4733C74.8125 26.0207 70.7573 26.1137 66.7164 25.7502C67.8988 24.0446 68.8092 22.1982 69.4234 20.26C71.3658 14.1505 69.1233 7.01689 62.9028 3.14056C57.7123 -0.0940475 51.1682 -0.583557 45.3698 0.656621C40.2724 1.71482 35.3745 4.76782 34.3139 9.48345C32.9225 15.6509 39.8446 20.8983 45.1399 23.8955C48.6365 25.8888 52.4032 27.471 56.3384 28.5994C53.0117 30.8699 49.2891 32.668 45.2981 33.932C32.3238 38.1769 17.5549 38.5433 3.66513 37.8866C2.93861 37.7865 2.20803 37.9352 1.62597 38.3017C1.0439 38.6681 0.655341 39.224 0.541441 39.8532C0.44098 40.4875 0.633668 41.1416 1.07712 41.6716C1.52056 42.2016 2.17845 42.564 2.90604 42.6793ZM43.0425 16.4821C42.0534 15.6656 41.2084 14.7245 40.5377 13.6924C40.2426 13.2002 40.0051 12.6847 39.829 12.1541C39.9225 12.4131 39.686 10.7934 39.6792 11.2611C39.6928 10.4827 39.9169 9.72612 40.3331 9.05345C40.7493 8.38078 41.3458 7.81123 42.0735 7.39159C43.9077 6.19071 46.0649 5.40978 48.3609 5.1154C53.3648 4.36471 58.9163 5.3905 62.2313 9.1485C62.4583 9.41009 62.6696 9.68157 62.8644 9.96177L62.9933 10.1385L63.0547 10.2459C63.3916 10.7854 63.6774 11.3469 63.9092 11.9244C63.9819 12.102 64.0437 12.2778 64.1055 12.4536C64.1055 12.4536 64.255 12.995 64.2886 13.137C64.4298 13.7987 64.5225 14.4659 64.566 15.1344C64.5479 15.2488 64.5753 15.7122 64.5776 15.8395C64.5798 15.9668 64.5613 16.296 64.536 16.5264C64.4791 17.2393 64.3672 17.946 64.201 18.6417C64.1799 18.7751 64.0064 19.3043 63.9789 19.4074C63.8929 19.6673 63.796 19.9254 63.6882 20.1818C63.3838 20.9285 63.0218 21.6543 62.6046 22.3543C62.4376 22.6306 62.2581 22.9148 62.0817 23.1798C61.9811 23.3202 61.8695 23.4588 61.7673 23.6086C61.4435 24.0262 61.0918 24.4784 60.7442 24.8335C58.6991 24.3813 56.6912 23.789 54.7393 23.062C50.4652 21.5188 46.5229 19.3012 43.1145 16.5228" fill="#1E2521"/>
</svg>
