<svg width="23" height="24" viewBox="0 0 23 24" fill="none" xmlns="http://www.w3.org/2000/svg">
<path d="M10.5663 19.987C5.54497 19.987 1.46631 15.9083 1.46631 10.887C1.46631 5.86565 5.54497 1.78699 10.5663 1.78699C10.949 1.78699 11.2663 2.10432 11.2663 2.48699C11.2663 2.86965 10.949 3.18699 10.5663 3.18699C6.31964 3.18699 2.86631 6.64032 2.86631 10.887C2.86631 15.1337 6.31964 18.587 10.5663 18.587C14.813 18.587 18.2663 15.1337 18.2663 10.887C18.2663 10.5043 18.5836 10.187 18.9663 10.187C19.349 10.187 19.6663 10.5043 19.6663 10.887C19.6663 15.9083 15.5876 19.987 10.5663 19.987Z" fill="#F3F4F6"/>
<path d="M18.9665 5.98699H13.3665C12.9838 5.98699 12.6665 5.66966 12.6665 5.28699C12.6665 4.90432 12.9838 4.58699 13.3665 4.58699H18.9665C19.3492 4.58699 19.6665 4.90432 19.6665 5.28699C19.6665 5.66966 19.3492 5.98699 18.9665 5.98699Z" fill="#F3F4F6"/>
<path d="M16.1665 8.78699H13.3665C12.9838 8.78699 12.6665 8.46966 12.6665 8.08699C12.6665 7.70433 12.9838 7.38699 13.3665 7.38699H16.1665C16.5492 7.38699 16.8665 7.70433 16.8665 8.08699C16.8665 8.46966 16.5492 8.78699 16.1665 8.78699Z" fill="#F3F4F6"/>
<path d="M19.1161 21.891C19.0414 21.891 18.9667 21.8817 18.9014 21.8723C18.4627 21.8163 17.6694 21.5177 17.2214 20.183C16.9881 19.483 17.0721 18.783 17.4547 18.251C17.8374 17.719 18.4814 17.4203 19.2187 17.4203C20.1707 17.4203 20.9174 17.7843 21.2534 18.4283C21.5894 19.0723 21.4961 19.8937 20.9641 20.687C20.3014 21.6857 19.5827 21.891 19.1161 21.891ZM18.5561 19.7443C18.7147 20.2297 18.9387 20.4723 19.0881 20.491C19.2374 20.5097 19.5174 20.3323 19.8067 19.9123C20.0774 19.511 20.0961 19.2217 20.0307 19.091C19.9654 18.9603 19.7041 18.8203 19.2187 18.8203C18.9294 18.8203 18.7147 18.9137 18.5934 19.0723C18.4814 19.231 18.4627 19.4737 18.5561 19.7443Z" fill="#F3F4F6"/>
</svg>
