<svg width="24" height="24" viewBox="0 0 24 24" fill="none" xmlns="http://www.w3.org/2000/svg">
<path d="M13.3066 16.879H10.964C9.43328 16.879 8.19195 15.591 8.19195 14.0043C8.19195 13.6216 8.50928 13.3043 8.89195 13.3043C9.27462 13.3043 9.59195 13.6216 9.59195 14.0043C9.59195 14.8163 10.208 15.479 10.964 15.479H13.3066C13.9133 15.479 14.4173 14.9376 14.4173 14.2843C14.4173 13.4723 14.128 13.3136 13.652 13.1456L9.89062 11.8203C9.16262 11.5683 8.18262 11.027 8.18262 9.35631C8.18262 7.91898 9.31195 6.76164 10.6933 6.76164H13.036C14.5666 6.76164 15.808 8.04964 15.808 9.63631C15.808 10.019 15.4906 10.3363 15.108 10.3363C14.7253 10.3363 14.408 10.019 14.408 9.63631C14.408 8.82431 13.792 8.16164 13.036 8.16164H10.6933C10.0866 8.16164 9.58262 8.70298 9.58262 9.35631C9.58262 10.1683 9.87195 10.327 10.348 10.495L14.1093 11.8203C14.8373 12.0723 15.8173 12.6136 15.8173 14.2843C15.808 15.7123 14.688 16.879 13.3066 16.879Z" fill="#F3F4F6"/>
<path d="M11.9998 18.1203C11.6171 18.1203 11.2998 17.803 11.2998 17.4203V6.22031C11.2998 5.83764 11.6171 5.52031 11.9998 5.52031C12.3825 5.52031 12.6998 5.83764 12.6998 6.22031V17.4203C12.6998 17.803 12.3825 18.1203 11.9998 18.1203Z" fill="#F3F4F6"/>
<path d="M14.7996 21.8537H9.19964C4.13164 21.8537 1.96631 19.6883 1.96631 14.6203V9.02032C1.96631 3.95232 4.13164 1.78699 9.19964 1.78699H14.7996C19.8676 1.78699 22.033 3.95232 22.033 9.02032V14.6203C22.033 19.6883 19.8676 21.8537 14.7996 21.8537ZM9.19964 3.18699C4.89697 3.18699 3.36631 4.71765 3.36631 9.02032V14.6203C3.36631 18.923 4.89697 20.4537 9.19964 20.4537H14.7996C19.1023 20.4537 20.633 18.923 20.633 14.6203V9.02032C20.633 4.71765 19.1023 3.18699 14.7996 3.18699H9.19964Z" fill="#F3F4F6"/>
</svg>
