<svg width="23" height="24" viewBox="0 0 23 24" fill="none" xmlns="http://www.w3.org/2000/svg">
<path d="M6.8333 14.331C6.45063 14.331 6.1333 14.0136 6.1333 13.631V10.635C6.1333 10.2523 6.45063 9.93498 6.8333 9.93498C7.21597 9.93498 7.5333 10.2523 7.5333 10.635V13.631C7.5333 14.023 7.21597 14.331 6.8333 14.331Z" fill="#F3F4F6"/>
<path d="M11.4998 15.955C11.1171 15.955 10.7998 15.6376 10.7998 15.255V9.02031C10.7998 8.63765 11.1171 8.32031 11.4998 8.32031C11.8825 8.32031 12.1998 8.63765 12.1998 9.02031V15.255C12.1998 15.6376 11.8825 15.955 11.4998 15.955Z" fill="#F3F4F6"/>
<path d="M16.1663 14.331C15.7836 14.331 15.4663 14.0136 15.4663 13.631V10.635C15.4663 10.2523 15.7836 9.93498 16.1663 9.93498C16.549 9.93498 16.8663 10.2523 16.8663 10.635V13.631C16.8663 14.023 16.549 14.331 16.1663 14.331Z" fill="#F3F4F6"/>
<path d="M14.2996 21.8536H8.69964C3.63164 21.8536 1.46631 19.6883 1.46631 14.6203V9.02031C1.46631 3.95231 3.63164 1.78698 8.69964 1.78698H14.2996C19.3676 1.78698 21.533 3.95231 21.533 9.02031V14.6203C21.533 19.6883 19.3676 21.8536 14.2996 21.8536ZM8.69964 3.18698C4.39698 3.18698 2.86631 4.71765 2.86631 9.02031V14.6203C2.86631 18.923 4.39698 20.4536 8.69964 20.4536H14.2996C18.6023 20.4536 20.133 18.923 20.133 14.6203V9.02031C20.133 4.71765 18.6023 3.18698 14.2996 3.18698H8.69964Z" fill="#F3F4F6"/>
</svg>
