<svg width="50" height="50" viewBox="0 0 50 50" fill="none" xmlns="http://www.w3.org/2000/svg">
<line x1="10.4902" y1="-2.14271e-08" x2="10.4902" y2="50" stroke="#153E3B" stroke-opacity="0.2" stroke-width="0.980392"/>
<line x1="25.1953" y1="-2.14271e-08" x2="25.1953" y2="50" stroke="#153E3B" stroke-opacity="0.2" stroke-width="0.980392"/>
<line x1="39.9023" y1="-2.14271e-08" x2="39.9023" y2="50" stroke="#153E3B" stroke-opacity="0.2" stroke-width="0.980392"/>
<line x1="-4.28543e-08" y1="38.5098" x2="50" y2="38.5098" stroke="#153E3B" stroke-opacity="0.2" stroke-width="0.980392"/>
<line x1="-4.28543e-08" y1="23.8028" x2="50" y2="23.8028" stroke="#153E3B" stroke-opacity="0.2" stroke-width="0.980392"/>
<line x1="-4.28543e-08" y1="9.09965" x2="50" y2="9.09964" stroke="#153E3B" stroke-opacity="0.2" stroke-width="0.980392"/>
<path d="M24.9988 9.6858C24.3516 9.6858 23.827 10.2105 23.827 10.8577C23.827 11.5049 24.3516 12.0295 24.9988 12.0295C28.8765 12.0295 32.0312 15.1838 32.0312 19.0608C32.0312 19.708 32.5559 20.2327 33.2031 20.2327C33.8503 20.2327 34.375 19.708 34.375 19.0608C34.375 13.8914 30.1689 9.6858 24.9988 9.6858Z" fill="black"/>
<path d="M21.9793 5.31392C16.6848 6.42025 12.3918 10.6721 11.2622 15.9995C10.3084 20.4981 11.4837 25.0145 14.487 28.3907C15.955 30.041 16.7969 32.2193 16.7969 34.3733V36.717C16.7969 38.2764 17.8177 39.6012 19.226 40.06C19.6891 42.7963 22.0641 44.9982 25 44.9982C27.9351 44.9982 30.3107 42.797 30.774 40.06C32.1823 39.6012 33.2031 38.2764 33.2031 36.717V34.3732C33.2031 32.215 34.0478 30.0628 35.5814 28.3131C37.8263 25.7522 39.0625 22.4663 39.0625 19.0608C39.0625 10.1885 30.9415 3.44158 21.9793 5.31392ZM25 42.6545C23.4936 42.6545 22.1728 41.618 21.6851 40.2249H28.3148C27.8272 41.618 26.5064 42.6545 25 42.6545ZM30.8594 36.717C30.8594 37.3632 30.3337 37.8889 29.6875 37.8889H20.3125C19.6663 37.8889 19.1406 37.3632 19.1406 36.717V35.5452H30.8594V36.717ZM33.8189 26.7684C32.1845 28.633 31.179 30.8814 30.9238 33.2014H19.0764C18.8216 30.8802 17.8186 28.6096 16.2383 26.833C13.7353 24.0192 12.7573 20.2477 13.555 16.4857C14.4862 12.094 18.0643 8.52642 22.4587 7.60822C29.9606 6.04048 36.7188 11.6742 36.7188 19.0608C36.7188 21.8977 35.6889 24.6349 33.8189 26.7684Z" fill="black"/>
<path d="M8.51562 19.0608H6.17188C5.52469 19.0608 5 19.5855 5 20.2327C5 20.8799 5.52469 21.4045 6.17188 21.4045H8.51562C9.16281 21.4045 9.6875 20.8799 9.6875 20.2327C9.6875 19.5855 9.16281 19.0608 8.51562 19.0608Z" fill="black"/>
<path d="M9.00102 13.2014L7.34375 11.5442C6.88617 11.0865 6.14414 11.0865 5.68648 11.5442C5.22883 12.0018 5.22883 12.7438 5.68648 13.2014L7.34375 14.8587C7.80133 15.3163 8.54336 15.3164 9.00102 14.8587C9.45867 14.401 9.45867 13.6591 9.00102 13.2014Z" fill="black"/>
<path d="M9.00102 25.6067C8.54336 25.149 7.80133 25.149 7.34375 25.6067L5.68648 27.2639C5.22883 27.7216 5.22883 28.4635 5.68648 28.9212C6.14406 29.3788 6.88609 29.3789 7.34375 28.9212L9.00102 27.2639C9.45867 26.8063 9.45867 26.0643 9.00102 25.6067Z" fill="black"/>
<path d="M43.8281 19.0608H41.4844C40.8372 19.0608 40.3125 19.5855 40.3125 20.2327C40.3125 20.8799 40.8372 21.4045 41.4844 21.4045H43.8281C44.4753 21.4045 45 20.8799 45 20.2327C45 19.5855 44.4753 19.0608 43.8281 19.0608Z" fill="black"/>
<path d="M44.3135 11.5442C43.8559 11.0865 43.1139 11.0865 42.6562 11.5442L40.999 13.2014C40.5413 13.6591 40.5413 14.401 40.999 14.8587C41.4566 15.3163 42.1986 15.3163 42.6562 14.8587L44.3135 13.2014C44.7712 12.7438 44.7712 12.0018 44.3135 11.5442Z" fill="black"/>
<path d="M44.3135 27.2639L42.6562 25.6067C42.1987 25.149 41.4566 25.149 40.999 25.6067C40.5413 26.0643 40.5413 26.8063 40.999 27.2639L42.6562 28.9212C43.1138 29.3788 43.8559 29.3788 44.3135 28.9212C44.7712 28.4635 44.7712 27.7216 44.3135 27.2639Z" fill="black"/>
</svg>
