<svg width="50" height="50" viewBox="0 0 50 50" fill="none" xmlns="http://www.w3.org/2000/svg">
<line x1="10.4902" y1="-2.14271e-08" x2="10.4902" y2="50" stroke="#153E3B" stroke-opacity="0.2" stroke-width="0.980392"/>
<line x1="25.1953" y1="-2.14271e-08" x2="25.1953" y2="50" stroke="#153E3B" stroke-opacity="0.2" stroke-width="0.980392"/>
<line x1="39.9023" y1="-2.14271e-08" x2="39.9023" y2="50" stroke="#153E3B" stroke-opacity="0.2" stroke-width="0.980392"/>
<line x1="-4.28543e-08" y1="38.5098" x2="50" y2="38.5098" stroke="#153E3B" stroke-opacity="0.2" stroke-width="0.980392"/>
<line x1="-4.28543e-08" y1="23.8028" x2="50" y2="23.8028" stroke="#153E3B" stroke-opacity="0.2" stroke-width="0.980392"/>
<line x1="-4.28543e-08" y1="9.09965" x2="50" y2="9.09964" stroke="#153E3B" stroke-opacity="0.2" stroke-width="0.980392"/>
<path d="M18.334 14.582C17.6507 14.582 17.084 14.0154 17.084 13.332V8.33203C17.084 7.6487 17.6507 7.08203 18.334 7.08203C19.0173 7.08203 19.584 7.6487 19.584 8.33203V13.332C19.584 14.0154 19.0173 14.582 18.334 14.582Z" fill="#292D32"/>
<path d="M31.666 14.582C30.9827 14.582 30.416 14.0154 30.416 13.332V8.33203C30.416 7.6487 30.9827 7.08203 31.666 7.08203C32.3493 7.08203 32.916 7.6487 32.916 8.33203V13.332C32.916 14.0154 32.3493 14.582 31.666 14.582Z" fill="#292D32"/>
<path d="M19.1667 29.1678C18.95 29.1678 18.7333 29.1345 18.5333 29.0345C18.3333 28.9512 18.15 28.8345 17.9833 28.6845C17.6833 28.3678 17.5 27.9345 17.5 27.5012C17.5 27.2845 17.55 27.0678 17.6333 26.8678C17.7167 26.6678 17.8333 26.4845 17.9833 26.3179C18.15 26.1679 18.3333 26.0511 18.5333 25.9678C19.1333 25.7178 19.8833 25.8512 20.35 26.3179C20.5 26.4845 20.6167 26.6678 20.7 26.8678C20.7833 27.0678 20.8333 27.2845 20.8333 27.5012C20.8333 27.9345 20.65 28.3678 20.35 28.6845C20.0333 28.9845 19.6 29.1678 19.1667 29.1678Z" fill="#292D32"/>
<path d="M25.0007 29.1674C24.5673 29.1674 24.134 28.9841 23.8173 28.6841C23.6673 28.5174 23.5507 28.3341 23.4673 28.1341C23.384 27.9341 23.334 27.7174 23.334 27.5008C23.334 27.0674 23.5173 26.6341 23.8173 26.3174C24.284 25.8508 25.0173 25.7007 25.634 25.9674C25.834 26.0507 26.0173 26.1674 26.184 26.3174C26.484 26.6341 26.6673 27.0674 26.6673 27.5008C26.6673 27.7174 26.634 27.9341 26.534 28.1341C26.4506 28.3341 26.334 28.5174 26.184 28.6841C26.0173 28.8341 25.834 28.9508 25.634 29.0341C25.434 29.1341 25.2173 29.1674 25.0007 29.1674Z" fill="#292D32"/>
<path d="M19.1667 34.9995C18.95 34.9995 18.7333 34.9495 18.5333 34.8662C18.3333 34.7828 18.15 34.6661 17.9833 34.5161C17.6833 34.1994 17.5 33.7828 17.5 33.3328C17.5 33.1161 17.55 32.8995 17.6333 32.6995C17.7167 32.4828 17.8333 32.3161 17.9833 32.1495C18.15 31.9995 18.3333 31.8828 18.5333 31.7994C19.1333 31.5328 19.8833 31.6828 20.35 32.1495C20.5 32.3161 20.6167 32.4828 20.7 32.6995C20.7833 32.8995 20.8333 33.1161 20.8333 33.3328C20.8333 33.7828 20.65 34.1994 20.35 34.5161C20.0333 34.8161 19.6 34.9995 19.1667 34.9995Z" fill="#292D32"/>
<path d="M39.1673 21.3984H10.834C10.1507 21.3984 9.58398 20.8318 9.58398 20.1484C9.58398 19.4651 10.1507 18.8984 10.834 18.8984H39.1673C39.8507 18.8984 40.4173 19.4651 40.4173 20.1484C40.4173 20.8318 39.8507 21.3984 39.1673 21.3984Z" fill="#292D32"/>
<path d="M35.0007 44.5833C30.634 44.5833 27.084 41.0333 27.084 36.6667C27.084 32.3 30.634 28.75 35.0007 28.75C39.3673 28.75 42.9173 32.3 42.9173 36.6667C42.9173 41.0333 39.3673 44.5833 35.0007 44.5833ZM35.0007 31.25C32.0173 31.25 29.584 33.6833 29.584 36.6667C29.584 39.65 32.0173 42.0833 35.0007 42.0833C37.984 42.0833 40.4173 39.65 40.4173 36.6667C40.4173 33.6833 37.984 31.25 35.0007 31.25Z" fill="#292D32"/>
<path d="M37.4833 38H32.5C31.8167 38 31.25 37.4333 31.25 36.75C31.25 36.0667 31.8167 35.5 32.5 35.5H37.4833C38.1667 35.5 38.7333 36.0667 38.7333 36.75C38.7333 37.4333 38.1833 38 37.4833 38Z" fill="#292D32"/>
<path d="M35 40.5497C34.3167 40.5497 33.75 39.9831 33.75 39.2997V34.3164C33.75 33.6331 34.3167 33.0664 35 33.0664C35.6833 33.0664 36.25 33.6331 36.25 34.3164V39.2997C36.25 39.9831 35.6833 40.5497 35 40.5497Z" fill="#292D32"/>
<path d="M30.6167 42.9154H18.3333C12.25 42.9154 8.75 39.4154 8.75 33.332V19.1654C8.75 13.082 12.25 9.58203 18.3333 9.58203H31.6667C37.75 9.58203 41.25 13.082 41.25 19.1654V32.2653C41.25 32.782 40.9333 33.2487 40.4333 33.432C39.95 33.6154 39.4 33.482 39.05 33.082C38.0167 31.9154 36.5333 31.2487 34.9833 31.2487C32 31.2487 29.5667 33.682 29.5667 36.6654C29.5667 37.6487 29.8333 38.6154 30.35 39.4487C30.6333 39.9487 31 40.3654 31.4 40.7154C31.8 41.0487 31.95 41.5987 31.7667 42.0987C31.6167 42.582 31.15 42.9154 30.6167 42.9154ZM18.3333 12.082C13.5667 12.082 11.25 14.3987 11.25 19.1654V33.332C11.25 38.0987 13.5667 40.4154 18.3333 40.4154H28.0333C27.4167 39.282 27.0833 37.9987 27.0833 36.6654C27.0833 32.2987 30.6333 28.7487 35 28.7487C36.3167 28.7487 37.6167 29.082 38.75 29.6987V19.1654C38.75 14.3987 36.4333 12.082 31.6667 12.082H18.3333Z" fill="#292D32"/>
</svg>
