<svg width="50" height="50" viewBox="0 0 50 50" fill="none" xmlns="http://www.w3.org/2000/svg">
<line x1="10.2929" y1="-2.14271e-08" x2="10.2929" y2="50" stroke="#153E3B" stroke-opacity="0.2" stroke-width="0.980392"/>
<line x1="24.998" y1="-2.14271e-08" x2="24.998" y2="50" stroke="#153E3B" stroke-opacity="0.2" stroke-width="0.980392"/>
<line x1="39.705" y1="-2.14271e-08" x2="39.705" y2="50" stroke="#153E3B" stroke-opacity="0.2" stroke-width="0.980392"/>
<line x1="-4.28543e-08" y1="38.7286" x2="50" y2="38.7285" stroke="#153E3B" stroke-opacity="0.2" stroke-width="0.980392"/>
<line x1="-4.28543e-08" y1="24.0215" x2="50" y2="24.0215" stroke="#153E3B" stroke-opacity="0.2" stroke-width="0.980392"/>
<line x1="-4.28543e-08" y1="9.3184" x2="50" y2="9.31839" stroke="#153E3B" stroke-opacity="0.2" stroke-width="0.980392"/>
<path d="M16.1415 36.7552C15.4716 36.7552 14.916 36.1997 14.916 35.5297V32.1474C14.916 31.4774 15.4716 30.9219 16.1415 30.9219C16.8114 30.9219 17.367 31.4774 17.367 32.1474V35.5297C17.367 36.216 16.8114 36.7552 16.1415 36.7552Z" fill="#292D32"/>
<path d="M24.5106 36.7828C23.8407 36.7828 23.2852 36.2273 23.2852 35.5573V28.7763C23.2852 28.1063 23.8407 27.5508 24.5106 27.5508C25.1806 27.5508 25.7361 28.1063 25.7361 28.7763V35.5573C25.7361 36.2436 25.1806 36.7828 24.5106 36.7828Z" fill="#292D32"/>
<path d="M32.8778 36.7941C32.2079 36.7941 31.6523 36.2385 31.6523 35.5686V25.4052C31.6523 24.7352 32.2079 24.1797 32.8778 24.1797C33.5478 24.1797 34.1033 24.7352 34.1033 25.4052V35.5686C34.1033 36.2549 33.5641 36.7941 32.8778 36.7941Z" fill="#292D32"/>
<path d="M16.1419 27.425C15.5863 27.425 15.0961 27.0492 14.9491 26.4936C14.7857 25.84 15.1778 25.1701 15.8478 25.0067C21.8609 23.5034 27.155 20.2191 31.1909 15.5296L31.9426 14.6472C32.3837 14.1407 33.1517 14.0753 33.6746 14.5165C34.1811 14.9577 34.2465 15.7256 33.8053 16.2485L33.0537 17.1309C28.6909 22.2289 22.9393 25.7747 16.436 27.3923C16.338 27.425 16.2399 27.425 16.1419 27.425Z" fill="#292D32"/>
<path d="M32.8744 21.4449C32.2045 21.4449 31.6489 20.8893 31.6489 20.2194V16.6736H28.0868C27.4169 16.6736 26.8613 16.1181 26.8613 15.4481C26.8613 14.7782 27.4169 14.2227 28.0868 14.2227H32.8744C33.5443 14.2227 34.0999 14.7782 34.0999 15.4481V20.2357C34.0999 20.9057 33.5607 21.4449 32.8744 21.4449Z" fill="#292D32"/>
<path d="M29.4107 43.0721H19.6068C10.7342 43.0721 6.94336 39.2813 6.94336 30.4087V20.6048C6.94336 11.7323 10.7342 7.94141 19.6068 7.94141H29.4107C38.2832 7.94141 42.0741 11.7323 42.0741 20.6048V30.4087C42.0741 39.2813 38.2832 43.0721 29.4107 43.0721ZM19.6068 10.3924C12.0741 10.3924 9.39434 13.0721 9.39434 20.6048V30.4087C9.39434 37.9414 12.0741 40.6211 19.6068 40.6211H29.4107C36.9434 40.6211 39.6231 37.9414 39.6231 30.4087V20.6048C39.6231 13.0721 36.9434 10.3924 29.4107 10.3924H19.6068Z" fill="#292D32"/>
</svg>
