<svg width="50" height="50" viewBox="0 0 50 50" fill="none" xmlns="http://www.w3.org/2000/svg">
<line x1="10.4902" y1="-2.14271e-08" x2="10.4902" y2="50" stroke="#153E3B" stroke-opacity="0.2" stroke-width="0.980392"/>
<line x1="25.1953" y1="-2.14271e-08" x2="25.1953" y2="50" stroke="#153E3B" stroke-opacity="0.2" stroke-width="0.980392"/>
<line x1="39.9023" y1="-2.14271e-08" x2="39.9023" y2="50" stroke="#153E3B" stroke-opacity="0.2" stroke-width="0.980392"/>
<line x1="-4.28543e-08" y1="38.5098" x2="50" y2="38.5098" stroke="#153E3B" stroke-opacity="0.2" stroke-width="0.980392"/>
<line x1="-4.28543e-08" y1="23.8028" x2="50" y2="23.8028" stroke="#153E3B" stroke-opacity="0.2" stroke-width="0.980392"/>
<line x1="-4.28543e-08" y1="9.09965" x2="50" y2="9.09964" stroke="#153E3B" stroke-opacity="0.2" stroke-width="0.980392"/>
<path d="M20.8064 35.9693C20.1812 35.9693 19.6724 35.4605 19.6724 34.8353C19.6724 34.2089 19.1647 33.7012 18.5383 33.7012C17.9119 33.7012 17.4042 34.2089 17.4042 34.8353C17.4042 36.3181 18.3581 37.5816 19.6845 38.0464V39.0393C19.6845 39.6657 20.1922 40.1734 20.8185 40.1734C21.4449 40.1734 21.9526 39.6657 21.9526 39.0393V38.0381C23.2663 37.5668 24.2087 36.3093 24.2087 34.8353C24.2087 32.9593 22.6824 31.4331 20.8064 31.4331C20.1812 31.4331 19.6724 30.9242 19.6724 30.299C19.6724 29.6735 20.1812 29.1649 20.8064 29.1649C21.4317 29.1649 21.9405 29.6735 21.9405 30.299C21.9405 30.9254 22.4482 31.4331 23.0746 31.4331C23.701 31.4331 24.2087 30.9254 24.2087 30.299C24.2087 28.825 23.2663 27.5675 21.9526 27.0958V25.4304C21.9526 24.804 21.4449 24.2964 20.8185 24.2964C20.1922 24.2964 19.6845 24.804 19.6845 25.4304V27.0875C18.3581 27.5524 17.4042 28.8158 17.4042 30.299C17.4042 32.1749 18.9305 33.7012 20.8064 33.7012C21.4317 33.7012 21.9405 34.2098 21.9405 34.8353C21.9405 35.4605 21.4317 35.9693 20.8064 35.9693Z" fill="black"/>
<path d="M10.6225 42.8577C12.9825 44.1211 16.2226 44.7097 20.8185 44.7097C24.558 44.7097 27.3725 44.3222 29.5592 43.4982C30.1838 44.2383 31.1173 44.7097 32.1593 44.7097H41.3075C43.1834 44.7097 44.7097 43.1834 44.7097 41.3075C44.7097 40.4368 44.3804 39.6418 43.8405 39.0393C44.3807 38.4368 44.7097 37.6418 44.7097 36.7712C44.7097 35.9005 44.3804 35.1055 43.8405 34.503C44.3807 33.9005 44.7097 33.1055 44.7097 32.2349C44.7097 31.3642 44.3804 30.5692 43.8405 29.9667C44.3807 29.3643 44.7097 28.5692 44.7097 27.6986C44.7097 25.8226 43.1834 24.2964 41.3075 24.2964H32.1593C32.0488 24.2964 31.9395 24.302 31.8318 24.3126C30.6935 22.934 29.3598 21.7781 27.8903 20.8915C28.4286 20.2896 28.7571 19.4955 28.7571 18.626C28.7571 17.2707 27.9603 16.0983 26.8105 15.5516L28.7012 9.75396C28.8138 9.40842 28.7541 9.0301 28.5409 8.73625C28.3273 8.4421 27.9862 8.26815 27.623 8.26815H24.0258C23.5575 6.94801 22.297 6 20.8185 6C19.3398 6 18.0788 6.94801 17.6107 8.26815H14.0141C13.6509 8.26815 13.3097 8.4421 13.0962 8.73625C12.883 9.0301 12.8233 9.40842 12.9359 9.75396L14.8266 15.5516C13.6768 16.0983 12.88 17.2707 12.88 18.626C12.88 19.4961 13.2087 20.2908 13.748 20.893C9.19785 23.6393 6 28.8551 6 34.503C6 38.4046 7.55522 41.2153 10.6225 42.8577ZM42.4415 32.2349C42.4415 32.8601 41.9327 33.369 41.3075 33.369H32.1593C31.5341 33.369 31.0252 32.8601 31.0252 32.2349C31.0252 31.6097 31.5341 31.1008 32.1593 31.1008H41.3075C41.9327 31.1008 42.4415 31.6097 42.4415 32.2349ZM42.4415 36.7712C42.4415 37.3964 41.9327 37.9052 41.3075 37.9052H32.1593C31.5341 37.9052 31.0252 37.3964 31.0252 36.7712C31.0252 36.146 31.5341 35.6371 32.1593 35.6371H41.3075C41.9327 35.6371 42.4415 36.146 42.4415 36.7712ZM41.3075 42.4415H32.1593C31.5341 42.4415 31.0252 41.9327 31.0252 41.3075C31.0252 40.6822 31.5341 40.1734 32.1593 40.1734H41.3075C41.9327 40.1734 42.4415 40.6822 42.4415 41.3075C42.4415 41.9327 41.9327 42.4415 41.3075 42.4415ZM42.4415 27.6986C42.4415 28.3238 41.9327 28.8327 41.3075 28.8327H32.1593C31.5341 28.8327 31.0252 28.3238 31.0252 27.6986C31.0252 27.0734 31.5341 26.5645 32.1593 26.5645H41.3075C41.9327 26.5645 42.4415 27.0734 42.4415 27.6986ZM25.3224 19.7601H16.315C16.305 19.7598 16.295 19.7601 16.2849 19.7601H16.2823C15.657 19.7601 15.1482 19.2512 15.1482 18.626C15.1482 18.002 15.655 17.494 16.2787 17.4922H16.282C16.2846 17.4922 16.2873 17.4919 16.2899 17.4919H25.3469C25.3495 17.4919 25.3525 17.4922 25.3551 17.4922H25.3584C25.9821 17.494 26.4889 18.002 26.4889 18.626C26.4889 19.2512 25.9801 19.7601 25.3548 19.7601H25.3513C25.3418 19.7601 25.3321 19.7598 25.3224 19.7601ZM18.5504 10.5363C19.1768 10.5363 19.6845 10.0286 19.6845 9.40222C19.6845 8.777 20.1933 8.26815 20.8185 8.26815C21.4438 8.26815 21.9526 8.777 21.9526 9.40222V11.6704C21.9526 12.2968 22.4603 12.8044 23.0867 12.8044C23.7131 12.8044 24.2208 12.2968 24.2208 11.6704V10.5363H26.0604L24.5318 15.2238H17.1053L15.5767 10.5363H18.5504ZM16.5035 22.0282H25.1292C26.8466 22.7456 28.4118 23.8752 29.7172 25.3333C29.1236 25.9461 28.7571 26.7801 28.7571 27.6986C28.7571 28.5692 29.0864 29.3643 29.6262 29.9667C29.0864 30.5692 28.7571 31.3642 28.7571 32.2349C28.7571 33.1055 29.0864 33.9005 29.6262 34.503C29.0864 35.1055 28.7571 35.9005 28.7571 36.7712C28.7571 37.6418 29.0864 38.4368 29.6262 39.0393C29.0864 39.6418 28.7571 40.4368 28.7571 41.3075C28.7571 41.3308 28.7582 41.3538 28.7588 41.3769C26.8404 42.1013 24.2851 42.4415 20.8185 42.4415C16.6107 42.4415 13.7108 41.9383 11.6931 40.858C9.35644 39.6069 8.26815 37.5878 8.26815 34.503C8.26815 29.154 11.6444 24.0566 16.5035 22.0282Z" fill="#153E3B"/>
</svg>
