<svg width="18" height="16" viewBox="0 0 18 16" fill="none" xmlns="http://www.w3.org/2000/svg">
<path d="M16.5 11.5548V2.50228C16.5 1.60228 15.765 0.934775 14.8725 1.00978H14.8275C13.2525 1.14478 10.86 1.94728 9.525 2.78728L9.3975 2.86978C9.18 3.00478 8.82 3.00478 8.6025 2.86978L8.415 2.75728C7.08 1.92478 4.695 1.12978 3.12 1.00228C2.2275 0.927275 1.5 1.60228 1.5 2.49478L1.5 11.5548C1.5 12.2748 2.085 12.9498 2.805 13.0398L3.0225 13.0698C4.65 13.2873 7.1625 14.1123 8.6025 14.8998L8.6325 14.9148C8.835 15.0273 9.1575 15.0273 9.3525 14.9148C10.7925 14.1198 13.3125 13.2873 14.9475 13.0698L15.195 13.0398C15.915 12.9498 16.5 12.2748 16.5 11.5548Z" stroke="#5A5555" stroke-width="1.5" stroke-linecap="round" stroke-linejoin="round"/>
<path d="M9 3.11768V14.3677" stroke="#5A5555" stroke-width="1.5" stroke-linecap="round" stroke-linejoin="round"/>
<path d="M5.8125 5.36768H4.125" stroke="#5A5555" stroke-width="1.5" stroke-linecap="round" stroke-linejoin="round"/>
<path d="M6.375 7.61768H4.125" stroke="#5A5555" stroke-width="1.5" stroke-linecap="round" stroke-linejoin="round"/>
</svg>
