<svg width="30" height="30" viewBox="0 0 30 30" fill="none" xmlns="http://www.w3.org/2000/svg">
<g filter="url(#filter0_b_7144_53373)">
<rect width="30" height="30" rx="6" fill="white"/>
<rect x="0.5" y="0.5" width="29" height="29" rx="5.5" stroke="#B5B3B3"/>
<path d="M9.70898 22.5898H20.0144" stroke="#EF7717" stroke-width="1.5" stroke-linecap="round" stroke-linejoin="round"/>
<path d="M15.6113 7.86804C15.6113 7.45383 15.2755 7.11804 14.8613 7.11804C14.4471 7.11804 14.1113 7.45383 14.1113 7.86804H15.6113ZM14.1113 7.86804V21.8539H15.6113V7.86804H14.1113Z" fill="#EF7717"/>
<path d="M7.65207 17.1626L10.0763 11.5485L12.5006 17.1626C12.5907 17.3712 12.5322 17.6143 12.3571 17.7592C11.0336 18.8538 9.11908 18.8538 7.79558 17.7592C7.62044 17.6143 7.56196 17.3712 7.65207 17.1626Z" fill="#EF7717" stroke="#EF7717" stroke-width="1.5" stroke-linejoin="round"/>
<path d="M17.2224 15.6904L19.6467 10.0763L22.0709 15.6904C22.161 15.8991 22.1026 16.1422 21.9274 16.287C20.6039 17.3816 18.6894 17.3816 17.3659 16.287C17.1907 16.1422 17.1323 15.8991 17.2224 15.6904Z" fill="#EF7717" stroke="#EF7717" stroke-width="1.5" stroke-linejoin="round"/>
<path d="M9.70898 11.5485L19.6463 9.70825" stroke="#EF7717" stroke-width="1.5" stroke-linecap="round" stroke-linejoin="round"/>
<path d="M14.8613 7.5V22.222" stroke="#EF7717" stroke-width="1.5" stroke-linecap="round" stroke-linejoin="round"/>
<path d="M16.3199 10.8124C16.3199 11.6178 15.667 12.2707 14.8616 12.2707C14.0562 12.2707 13.4033 11.6178 13.4033 10.8124C13.4033 10.007 14.0562 9.35413 14.8616 9.35413C15.667 9.35413 16.3199 10.007 16.3199 10.8124Z" fill="#FAFAFA" stroke="#EF7717" stroke-width="1.5"/>
</g>
<defs>
<filter id="filter0_b_7144_53373" x="-4" y="-4" width="38" height="38" filterUnits="userSpaceOnUse" color-interpolation-filters="sRGB">
<feFlood flood-opacity="0" result="BackgroundImageFix"/>
<feGaussianBlur in="BackgroundImageFix" stdDeviation="2"/>
<feComposite in2="SourceAlpha" operator="in" result="effect1_backgroundBlur_7144_53373"/>
<feBlend mode="normal" in="SourceGraphic" in2="effect1_backgroundBlur_7144_53373" result="shape"/>
</filter>
</defs>
</svg>
