<svg width="17" height="18" viewBox="0 0 17 18" fill="none" xmlns="http://www.w3.org/2000/svg">
<path d="M3.70898 16.5898H14.0144" stroke="#5A5555" stroke-width="1.5" stroke-linecap="round" stroke-linejoin="round"/>
<path d="M9.61084 1.86816C9.61084 1.45395 9.27505 1.11816 8.86084 1.11816C8.44663 1.11816 8.11084 1.45395 8.11084 1.86816H9.61084ZM8.11084 1.86816V15.854H9.61084V1.86816H8.11084Z" fill="#5A5555"/>
<path d="M1.65213 11.1625L4.0764 5.54834L6.50068 11.1625C6.59078 11.3711 6.53231 11.6142 6.35716 11.7591C5.03366 12.8537 3.11914 12.8537 1.79564 11.7591C1.6205 11.6142 1.56202 11.3711 1.65213 11.1625Z" stroke="#5A5555" stroke-width="1.5" stroke-linejoin="round"/>
<path d="M11.2219 9.69028L13.6462 4.07617L16.0704 9.69028C16.1605 9.89895 16.1021 10.142 15.9269 10.2869C14.6034 11.3815 12.6889 11.3815 11.3654 10.2869C11.1903 10.142 11.1318 9.89895 11.2219 9.69028Z" stroke="#5A5555" stroke-width="1.5" stroke-linejoin="round"/>
<path d="M3.70898 5.54825L13.6463 3.70801" stroke="#5A5555" stroke-width="1.5" stroke-linecap="round" stroke-linejoin="round"/>
<path d="M8.86084 1.5L8.86084 16.222" stroke="#5A5555" stroke-width="1.5" stroke-linecap="round" stroke-linejoin="round"/>
<path d="M10.3199 4.8123C10.3199 5.61769 9.66701 6.27059 8.86161 6.27059C8.05622 6.27059 7.40332 5.61769 7.40332 4.8123C7.40332 4.0069 8.05622 3.354 8.86161 3.354C9.66701 3.354 10.3199 4.0069 10.3199 4.8123Z" fill="#D9D9D9" stroke="#5A5555" stroke-width="1.5"/>
</svg>
