<svg width="16" height="17" viewBox="0 0 16 17" fill="none" xmlns="http://www.w3.org/2000/svg">
<path d="M5.71338 10.2917L10.0734 5.93176" stroke="#5A5555" stroke-width="1.5" stroke-linecap="round" stroke-linejoin="round"/>
<path d="M5.98663 7.02508C6.43951 7.02508 6.80662 6.65797 6.80662 6.20509C6.80662 5.75222 6.43951 5.38509 5.98663 5.38509C5.53376 5.38509 5.16663 5.75222 5.16663 6.20509C5.16663 6.65797 5.53376 7.02508 5.98663 7.02508Z" stroke="#5A5555" stroke-width="1.5" stroke-linecap="round" stroke-linejoin="round"/>
<path d="M10.3467 10.8384C10.7996 10.8384 11.1667 10.4713 11.1667 10.0184C11.1667 9.56554 10.7996 9.19843 10.3467 9.19843C9.89385 9.19843 9.52673 9.56554 9.52673 10.0184C9.52673 10.4713 9.89385 10.8384 10.3467 10.8384Z" stroke="#5A5555" stroke-width="1.5" stroke-linecap="round" stroke-linejoin="round"/>
<path d="M8.00004 14.7784C11.6819 14.7784 14.6667 11.7936 14.6667 8.11175C14.6667 4.42985 11.6819 1.44508 8.00004 1.44508C4.31814 1.44508 1.33337 4.42985 1.33337 8.11175C1.33337 11.7936 4.31814 14.7784 8.00004 14.7784Z" stroke="#5A5555" stroke-width="1.5" stroke-linecap="round" stroke-linejoin="round"/>
</svg>
