<svg width="25" height="24" viewBox="0 0 25 24" fill="none" xmlns="http://www.w3.org/2000/svg">
<path d="M12.5001 7.89001L11.4301 9.75001C11.1901 10.16 11.3901 10.5 11.8601 10.5H13.1301C13.6101 10.5 13.8001 10.84 13.5601 11.25L12.5001 13.11" stroke="#2B2928" stroke-width="1.5" stroke-linecap="round" stroke-linejoin="round"/>
<path d="M8.79986 18.0401V16.8801C6.49986 15.4901 4.60986 12.7801 4.60986 9.90005C4.60986 4.95005 9.15986 1.07005 14.2999 2.19005C16.5599 2.69005 18.5399 4.19005 19.5699 6.26005C21.6599 10.4601 19.4599 14.9201 16.2299 16.8701V18.0301C16.2299 18.3201 16.3399 18.9901 15.2699 18.9901H9.75986C8.65986 19.0001 8.79986 18.5701 8.79986 18.0401Z" stroke="#2B2928" stroke-width="1.5" stroke-linecap="round" stroke-linejoin="round"/>
<path d="M9 22C11.29 21.35 13.71 21.35 16 22" stroke="#292D32" stroke-width="1.5" stroke-linecap="round" stroke-linejoin="round"/>
</svg>
