<svg width="24" height="24" viewBox="0 0 24 24" fill="none" xmlns="http://www.w3.org/2000/svg">
<path d="M10 6H14C16 6 16 5 16 4C16 2 15 2 14 2H10C9 2 8 2 8 4C8 6 9 6 10 6Z" stroke="#2B2928" stroke-width="1.5" stroke-miterlimit="10" stroke-linecap="round" stroke-linejoin="round"/>
<path d="M11 22L9 22C4 22 3 20 3 16V10C3 5.44002 4.67 4.20002 8 4.02002" stroke="#2B2928" stroke-width="1.5" stroke-miterlimit="10" stroke-linecap="round" stroke-linejoin="round"/>
<path d="M16 4.02002C19.33 4.20002 21 5.43002 21 10V12.5" stroke="#2B2928" stroke-width="1.5" stroke-miterlimit="10" stroke-linecap="round" stroke-linejoin="round"/>
<path d="M15.28 15.5499C15.0338 15.6976 14.804 15.8782 14.5988 16.0834C13.0888 17.5934 13.0888 20.0471 14.5988 21.5654C15.2143 22.1809 15.994 22.5337 16.79 22.6486" stroke="#2B2928" stroke-width="1.5" stroke-linecap="round" stroke-linejoin="round"/>
<path d="M17.8897 15.0001C18.6939 15.115 19.4654 15.4679 20.0809 16.0834C21.5909 17.5934 21.5909 20.0472 20.0809 21.5654C19.8675 21.7788 19.6377 21.9511 19.3997 22.0988" stroke="#2B2928" stroke-width="1.5" stroke-linecap="round" stroke-linejoin="round"/>
<path d="M13.0886 15.394L15.2798 15.394L15.2798 17.5852" stroke="#2B2928" stroke-width="1.5" stroke-linecap="round" stroke-linejoin="round"/>
<path d="M21.5908 22.2546L19.3997 22.2546L19.3997 20.0635" stroke="#2B2928" stroke-width="1.5" stroke-linecap="round" stroke-linejoin="round"/>
</svg>
