<svg width="24" height="24" viewBox="0 0 24 24" fill="none" xmlns="http://www.w3.org/2000/svg">
<path d="M22 10V15C22 20 20 22 15 22H9C4 22 2 20 2 15V9C2 4 4 2 9 2H14" stroke="#292D32" stroke-width="1.5" stroke-linecap="round" stroke-linejoin="round"/>
<path d="M7 13H13" stroke="#292D32" stroke-width="1.5" stroke-linecap="round" stroke-linejoin="round"/>
<path d="M7 17H11" stroke="#292D32" stroke-width="1.5" stroke-linecap="round" stroke-linejoin="round"/>
<path d="M19.2287 2.59613L15.5187 6.30613C15.3787 6.44613 15.2387 6.72613 15.2087 6.92613L15.0087 8.34613C14.9387 8.85613 15.2987 9.21613 15.8087 9.14613L17.2287 8.94613C17.4287 8.91613 17.7087 8.77613 17.8487 8.63613L21.5587 4.92613C22.1987 4.28613 22.4987 3.54613 21.5587 2.60613C20.6087 1.65613 19.8687 1.95613 19.2287 2.59613Z" stroke="#292D32" stroke-width="1.5" stroke-miterlimit="10" stroke-linecap="round" stroke-linejoin="round"/>
<path d="M18.6992 3.12598C19.0192 4.25598 19.8992 5.13598 21.0192 5.44598" stroke="#292D32" stroke-width="1.5" stroke-miterlimit="10" stroke-linecap="round" stroke-linejoin="round"/>
</svg>
