<svg width="24" height="24" viewBox="0 0 24 24" fill="none" xmlns="http://www.w3.org/2000/svg">
<path d="M11.998 2C9.14805 2 7.30105 4.02 5.11605 4.755C4.22805 5.055 3.78305 5.204 3.60405 5.415C3.42405 5.625 3.37105 5.934 3.26605 6.55C2.13905 13.146 4.60205 19.244 10.475 21.618C11.106 21.873 11.422 22 12.001 22C12.58 22 12.897 21.873 13.528 21.618C19.401 19.244 21.861 13.146 20.734 6.55C20.628 5.934 20.576 5.626 20.396 5.415C20.216 5.204 19.772 5.055 18.884 4.755C16.698 4.02 14.848 2 11.998 2Z" stroke="#2B2928" stroke-width="1.5" stroke-linecap="round" stroke-linejoin="round"/>
<path d="M11.833 12.167C12.888 13.222 14.278 14.294 14.278 14.294L16.183 12.389C16.183 12.389 15.111 10.999 14.056 9.944C13.001 8.889 11.611 7.817 11.611 7.817L9.706 9.722C9.706 9.722 10.778 11.112 11.833 12.167ZM11.833 12.167L8.5 15.5M16.5 12.071L13.96 14.611M11.93 7.5L9.39 10.04" stroke="#2B2928" stroke-width="1.5" stroke-linecap="round" stroke-linejoin="round"/>
</svg>
