<svg width="16" height="16" viewBox="0 0 16 16" fill="none" xmlns="http://www.w3.org/2000/svg">
<path d="M2.23989 3.45651C2.78206 2.5529 3.75858 2 4.81237 2H11.2044C12.2582 2 13.2347 2.5529 13.7769 3.45651L14.2127 4.18279C14.8891 5.31024 14.7526 6.7468 13.8759 7.72666L8.41628 13.8286C8.36311 13.8829 8.29965 13.926 8.22961 13.9554C8.15957 13.9848 8.08437 14 8.0084 14C7.93243 14 7.85722 13.9848 7.78718 13.9554C7.71714 13.926 7.65368 13.8829 7.60051 13.8286L2.14088 7.72666C1.26416 6.7468 1.12766 5.31024 1.80413 4.18279L2.23989 3.45651Z" stroke="#2B2928" stroke-width="1.25" stroke-linecap="round" stroke-linejoin="round"/>
<path d="M6.37714 7.71037L4.74561 5.91568L5.23507 5.09991" stroke="#2B2928" stroke-width="1.25" stroke-linecap="round" stroke-linejoin="round"/>
</svg>
