<svg width="18" height="15" viewBox="0 0 18 15" fill="none" xmlns="http://www.w3.org/2000/svg">
<g id="Group">
<path id="Vector" d="M15.587 0.75H2.67391C2.36257 0.75 2.06398 0.87368 1.84383 1.09383C1.62368 1.31398 1.5 1.61257 1.5 1.92391V13.0761C1.5 13.3874 1.62368 13.686 1.84383 13.9062C2.06398 14.1263 2.36257 14.25 2.67391 14.25H15.587C15.8983 14.25 16.1969 14.1263 16.417 13.9062C16.6372 13.686 16.7609 13.3874 16.7609 13.0761V1.92391C16.7609 1.61257 16.6372 1.31398 16.417 1.09383C16.1969 0.87368 15.8983 0.75 15.587 0.75Z" stroke="#2B2928" stroke-width="1.5" stroke-linecap="round" stroke-linejoin="round"/>
<path id="Vector_2" d="M9 9.6875C9.58016 9.6875 10.1366 9.45703 10.5468 9.0468C10.957 8.63656 11.1875 8.08016 11.1875 7.5M9 9.6875C8.41984 9.6875 7.86344 9.45703 7.4532 9.0468C7.04297 8.63656 6.8125 8.08016 6.8125 7.5M9 9.6875V11.25M11.1875 7.5C11.1875 6.91984 10.957 6.36344 10.5468 5.9532C10.1366 5.54297 9.58016 5.3125 9 5.3125M11.1875 7.5H12.75M9 5.3125C8.41984 5.3125 7.86344 5.54297 7.4532 5.9532C7.04297 6.36344 6.8125 6.91984 6.8125 7.5M9 5.3125V3.75M6.8125 7.5H5.25M11.65 4.85L10.55 5.95M7.45 9.05L6.35 10.15M11.65 10.15L10.55 9.05M7.45 5.95L6.35 4.85" stroke="#2B2928" stroke-width="1.5" stroke-linecap="round" stroke-linejoin="round"/>
</g>
</svg>
