<svg width="18" height="18" viewBox="0 0 18 18" fill="none" xmlns="http://www.w3.org/2000/svg">
<path d="M10.2982 2.63248L11.6182 5.27248C11.7982 5.63998 12.2782 5.99248 12.6832 6.05998L15.0757 6.45748C16.6057 6.71248 16.9657 7.82248 15.8632 8.91748L14.0032 10.7775C13.6882 11.0925 13.5157 11.7 13.6132 12.135L14.1457 14.4375C14.5657 16.26 13.5982 16.965 11.9857 16.0125L9.74316 14.685C9.33816 14.445 8.67066 14.445 8.25816 14.685L6.01566 16.0125C4.41066 16.965 3.43566 16.2525 3.85566 14.4375L4.38816 12.135C4.48566 11.7 4.31316 11.0925 3.99816 10.7775L2.13816 8.91748C1.04316 7.82248 1.39566 6.71248 2.92566 6.45748L5.31816 6.05998C5.71566 5.99248 6.19566 5.63998 6.37566 5.27248L7.69566 2.63248C8.41566 1.19998 9.58566 1.19998 10.2982 2.63248Z" stroke="#5A5555" stroke-width="1.5" stroke-linecap="round" stroke-linejoin="round"/>
</svg>
