<svg width="26" height="26" viewBox="0 0 26 26" fill="none" xmlns="http://www.w3.org/2000/svg">
<path d="M19.7874 25.25C18.5236 25.25 17.1928 24.9486 15.8172 24.3681C14.4751 23.7988 13.1219 23.0174 11.8023 22.0686C10.4938 21.1086 9.23003 20.037 8.03339 18.8649C6.84793 17.6705 5.7743 16.4091 4.8237 15.1142C3.86191 13.7747 3.09024 12.4351 2.54224 11.1402C1.9607 9.75605 1.66992 8.41651 1.66992 7.15512C1.66992 6.28442 1.82649 5.45837 2.12845 4.68814C2.44159 3.89558 2.94485 3.15884 3.62705 2.52256C4.48819 1.67419 5.47235 1.25 6.5236 1.25C6.95976 1.25 7.40711 1.35047 7.78735 1.52907C8.22351 1.73 8.59257 2.0314 8.86098 2.43326L11.4556 6.08349C11.6904 6.40721 11.8694 6.71977 11.9924 7.03233C12.1378 7.36721 12.2161 7.70209 12.2161 8.02581C12.2161 8.45 12.093 8.86302 11.8582 9.25372C11.6904 9.55512 11.4332 9.87884 11.1089 10.2026L10.3484 10.9951C10.3596 11.0286 10.3708 11.0509 10.3819 11.0733C10.5161 11.3077 10.7846 11.7095 11.299 12.3123C11.847 12.9374 12.3614 13.5067 12.8759 14.0314C13.5357 14.6788 14.0837 15.1923 14.5982 15.6165C15.2356 16.1523 15.6494 16.4202 15.8955 16.543L15.8731 16.5988L16.6895 15.7951C17.0362 15.4491 17.3717 15.1923 17.696 15.0249C18.3111 14.6453 19.094 14.5784 19.8768 14.9021C20.1676 15.0249 20.4807 15.1923 20.8162 15.4267L24.5292 18.0612C24.943 18.3402 25.2449 18.6974 25.4239 19.1216C25.5916 19.5458 25.6699 19.9365 25.6699 20.3272C25.6699 20.863 25.5469 21.3988 25.312 21.9012C25.0772 22.4035 24.7864 22.8388 24.4174 23.2407C23.7799 23.944 23.0865 24.4463 22.2813 24.77C21.5096 25.0826 20.6709 25.25 19.7874 25.25ZM6.5236 2.92442C5.90851 2.92442 5.33814 3.19233 4.79015 3.72814C4.2757 4.20814 3.91782 4.73279 3.69415 5.30209C3.4593 5.88256 3.34746 6.49651 3.34746 7.15512C3.34746 8.19326 3.5935 9.3207 4.08558 10.4816C4.58884 11.6649 5.29341 12.8928 6.1881 14.1207C7.08278 15.3486 8.10049 16.543 9.21885 17.6705C10.3372 18.7756 11.545 19.8026 12.7864 20.7067C13.9942 21.5886 15.2356 22.303 16.4658 22.8165C18.3782 23.6314 20.1676 23.8212 21.6438 23.2072C22.2142 22.9728 22.7175 22.6156 23.176 22.1021C23.4332 21.823 23.6345 21.5216 23.8023 21.1644C23.9365 20.8853 24.0036 20.5951 24.0036 20.3049C24.0036 20.1263 23.97 19.9477 23.8805 19.7467C23.847 19.6798 23.7799 19.557 23.5674 19.4119L19.8545 16.7774C19.6308 16.6212 19.4295 16.5095 19.2394 16.4314C18.9933 16.3309 18.8927 16.2305 18.5124 16.4649C18.2887 16.5765 18.0874 16.744 17.8638 16.9672L17.0138 17.8044C16.5777 18.2286 15.9066 18.3291 15.3922 18.1393L15.0902 18.0054C14.6317 17.7598 14.0949 17.3802 13.5022 16.8779C12.9654 16.4202 12.3838 15.8844 11.6792 15.1923C11.1312 14.6342 10.5832 14.0426 10.0129 13.384C9.48726 12.77 9.10701 12.2453 8.87216 11.81L8.73796 11.4751C8.67085 11.2184 8.64849 11.0733 8.64849 10.917C8.64849 10.5151 8.79387 10.1579 9.07346 9.87884L9.91223 9.00814C10.1359 8.78488 10.3037 8.57279 10.4155 8.38302C10.505 8.23791 10.5385 8.11512 10.5385 8.00349C10.5385 7.91419 10.505 7.78023 10.449 7.64628C10.3708 7.46767 10.2477 7.26674 10.0912 7.05465L7.49658 3.39326C7.38474 3.23698 7.25054 3.12535 7.08278 3.04721C6.90385 2.96907 6.71372 2.92442 6.5236 2.92442ZM15.8731 16.61L15.6942 17.3691L15.9961 16.5877C15.9402 16.5765 15.8955 16.5877 15.8731 16.61Z" fill="#292D32"/>
</svg>
