<svg width="20" height="21" viewBox="0 0 20 21" fill="none" xmlns="http://www.w3.org/2000/svg">
<path d="M10 17.0742C6.20833 17.0742 3.125 13.9909 3.125 10.1992C3.125 6.40755 6.20833 3.32422 10 3.32422C13.7917 3.32422 16.875 6.40755 16.875 10.1992C16.875 13.9909 13.7917 17.0742 10 17.0742ZM10 4.57422C6.9 4.57422 4.375 7.09922 4.375 10.1992C4.375 13.2992 6.9 15.8242 10 15.8242C13.1 15.8242 15.625 13.2992 15.625 10.1992C15.625 7.09922 13.1 4.57422 10 4.57422Z" fill="#153E3B"/>
<path d="M10 13.3242C8.275 13.3242 6.875 11.9242 6.875 10.1992C6.875 8.47422 8.275 7.07422 10 7.07422C11.725 7.07422 13.125 8.47422 13.125 10.1992C13.125 11.9242 11.725 13.3242 10 13.3242ZM10 8.32422C8.96667 8.32422 8.125 9.16589 8.125 10.1992C8.125 11.2326 8.96667 12.0742 10 12.0742C11.0333 12.0742 11.875 11.2326 11.875 10.1992C11.875 9.16589 11.0333 8.32422 10 8.32422Z" fill="#153E3B"/>
<path d="M10 4.15885C9.65833 4.15885 9.375 3.87552 9.375 3.53385V1.86719C9.375 1.52552 9.65833 1.24219 10 1.24219C10.3417 1.24219 10.625 1.52552 10.625 1.86719V3.53385C10.625 3.87552 10.3417 4.15885 10 4.15885Z" fill="#153E3B"/>
<path d="M3.33268 10.8242H1.66602C1.32435 10.8242 1.04102 10.5409 1.04102 10.1992C1.04102 9.85755 1.32435 9.57422 1.66602 9.57422H3.33268C3.67435 9.57422 3.95768 9.85755 3.95768 10.1992C3.95768 10.5409 3.67435 10.8242 3.33268 10.8242Z" fill="#153E3B"/>
<path d="M10 19.1589C9.65833 19.1589 9.375 18.8755 9.375 18.5339V16.8672C9.375 16.5255 9.65833 16.2422 10 16.2422C10.3417 16.2422 10.625 16.5255 10.625 16.8672V18.5339C10.625 18.8755 10.3417 19.1589 10 19.1589Z" fill="#153E3B"/>
<path d="M18.3327 10.8242H16.666C16.3243 10.8242 16.041 10.5409 16.041 10.1992C16.041 9.85755 16.3243 9.57422 16.666 9.57422H18.3327C18.6743 9.57422 18.9577 9.85755 18.9577 10.1992C18.9577 10.5409 18.6743 10.8242 18.3327 10.8242Z" fill="#153E3B"/>
</svg>
