<svg width="25" height="24" viewBox="0 0 25 24" fill="none" xmlns="http://www.w3.org/2000/svg">
<path d="M17.9799 17.97H6.85992C2.87992 17.97 1.66992 16.76 1.66992 12.78V6.44C1.66992 2.46 2.87992 1.25 6.85992 1.25H8.41992C8.82992 1.25 9.16992 1.59 9.16992 2C9.16992 2.41 8.82992 2.75 8.41992 2.75H6.85992C3.71992 2.75 3.16992 3.3 3.16992 6.44V12.77C3.16992 15.91 3.71992 16.46 6.85992 16.46H17.9699C21.1099 16.46 21.6599 15.91 21.6599 12.77V11.88C21.6599 11.47 21.9999 11.13 22.4099 11.13C22.8199 11.13 23.1599 11.47 23.1599 11.88V12.77C23.1699 16.76 21.9599 17.97 17.9799 17.97Z" fill="#292D32"/>
<path d="M12.4199 22.7488C12.0099 22.7488 11.6699 22.4088 11.6699 21.9988V17.2188C11.6699 16.8088 12.0099 16.4688 12.4199 16.4688C12.8299 16.4688 13.1699 16.8088 13.1699 17.2188V21.9988C13.1699 22.4088 12.8299 22.7488 12.4199 22.7488Z" fill="#292D32"/>
<path d="M22.4199 13.75H2.41992C2.00992 13.75 1.66992 13.41 1.66992 13C1.66992 12.59 2.00992 12.25 2.41992 12.25H22.4199C22.8299 12.25 23.1699 12.59 23.1699 13C23.1699 13.41 22.8299 13.75 22.4199 13.75Z" fill="#292D32"/>
<path d="M16.9199 22.75H7.91992C7.50992 22.75 7.16992 22.41 7.16992 22C7.16992 21.59 7.50992 21.25 7.91992 21.25H16.9199C17.3299 21.25 17.6699 21.59 17.6699 22C17.6699 22.41 17.3299 22.75 16.9199 22.75Z" fill="#292D32"/>
<path d="M18.2797 10.1217H13.5197C11.9497 10.1217 10.9297 9.10172 10.9297 7.53172V4.01172C10.9297 2.49172 12.1597 1.26172 13.6797 1.26172H18.2797C19.7097 1.26172 20.8697 2.42172 20.8697 3.85172V7.53172C20.8697 8.96172 19.7097 10.1217 18.2797 10.1217ZM13.6797 2.76172C12.9897 2.76172 12.4297 3.32172 12.4297 4.01172V7.53172C12.4297 8.51172 13.0497 8.62172 13.5197 8.62172H18.2797C18.8797 8.62172 19.3697 8.13172 19.3697 7.53172V3.85172C19.3697 3.25172 18.8797 2.76172 18.2797 2.76172H13.6797Z" fill="#292D32"/>
<path d="M21.8691 8.87166C21.5491 8.87166 21.2191 8.76166 20.8991 8.53166L19.6891 7.68166C19.4891 7.54166 19.3691 7.31166 19.3691 7.07166V4.31166C19.3691 4.07166 19.4891 3.84166 19.6891 3.70166L20.8991 2.85166C21.4191 2.48166 21.9791 2.41166 22.4391 2.65166C22.8991 2.89166 23.1591 3.39166 23.1591 4.03166V7.36166C23.1591 8.00166 22.8991 8.50166 22.4391 8.74166C22.2691 8.83166 22.0791 8.87166 21.8691 8.87166ZM20.8691 6.68166L21.6691 7.24166V4.14166L20.8691 4.70166V6.68166Z" fill="#292D32"/>
</svg>
