<svg width="26" height="25" viewBox="0 0 26 25" fill="none" xmlns="http://www.w3.org/2000/svg">
<path d="M18.1309 22.1341H7.71419C3.91211 22.1341 1.72461 19.9466 1.72461 16.1445V8.85287C1.72461 5.05078 3.91211 2.86328 7.71419 2.86328H18.1309C21.9329 2.86328 24.1204 5.05078 24.1204 8.85287V16.1445C24.1204 19.9466 21.9329 22.1341 18.1309 22.1341ZM7.71419 4.42578C4.73503 4.42578 3.28711 5.8737 3.28711 8.85287V16.1445C3.28711 19.1237 4.73503 20.5716 7.71419 20.5716H18.1309C21.11 20.5716 22.5579 19.1237 22.5579 16.1445V8.85287C22.5579 5.8737 21.11 4.42578 18.1309 4.42578H7.71419Z" fill="#292D32"/>
<path d="M12.9201 13.4045C12.0451 13.4045 11.1597 13.1337 10.4826 12.5816L7.22222 9.97743C6.88889 9.70659 6.82639 9.21701 7.09723 8.88368C7.36806 8.55034 7.85765 8.48785 8.19098 8.75868L11.4514 11.3628C12.2431 11.9983 13.5868 11.9983 14.3785 11.3628L17.6389 8.75868C17.9722 8.48785 18.4722 8.53993 18.7326 8.88368C19.0035 9.21701 18.9514 9.71701 18.6076 9.97743L15.3472 12.5816C14.6806 13.1337 13.7951 13.4045 12.9201 13.4045Z" fill="#292D32"/>
</svg>
