<svg width="16" height="17" viewBox="0 0 16 17" fill="none" xmlns="http://www.w3.org/2000/svg">
<circle cx="10" cy="10" r="3" fill="#BFE9E6"/>
<path d="M12.041 15.2732H3.96096C2.66096 15.2732 1.66763 14.7999 1.16096 13.9466C0.660961 13.0932 0.727627 11.9932 1.36096 10.8599L5.40096 3.58656C6.06763 2.38656 6.98763 1.72656 8.00096 1.72656C9.01429 1.72656 9.93429 2.38656 10.601 3.58656L14.641 10.8599C15.2743 11.9999 15.3476 13.0932 14.841 13.9466C14.3343 14.7999 13.341 15.2732 12.041 15.2732ZM8.00096 2.72656C7.37429 2.72656 6.76096 3.20656 6.27429 4.07323L2.24096 11.3466C1.78763 12.1599 1.71429 12.9066 2.02763 13.4466C2.34096 13.9799 3.03429 14.2799 3.96763 14.2799H12.0476C12.981 14.2799 13.6676 13.9866 13.9876 13.4466C14.301 12.9066 14.2276 12.1666 13.7743 11.3466L9.72763 4.07323C9.24096 3.20656 8.62763 2.72656 8.00096 2.72656Z" fill="#6F6D6A"/>
<path d="M14.2926 14.333C14.1926 14.333 14.0926 14.3064 14.0059 14.2397L7.99926 10.033L1.99259 14.2397C1.76593 14.3997 1.45259 14.3464 1.29926 14.1197C1.13926 13.893 1.19259 13.5797 1.41926 13.4264L7.71259 9.01969C7.88593 8.89969 8.11259 8.89969 8.28593 9.01969L14.5793 13.4264C14.8059 13.5864 14.8593 13.8997 14.6993 14.1197C14.6059 14.2597 14.4526 14.333 14.2926 14.333Z" fill="#6F6D6A"/>
<path d="M8 9.92667C7.72667 9.92667 7.5 9.7 7.5 9.42667V2.5C7.5 2.22667 7.72667 2 8 2C8.27333 2 8.5 2.22667 8.5 2.5V9.42667C8.5 9.7 8.27333 9.92667 8 9.92667Z" fill="#6F6D6A"/>
</svg>
