<svg width="17" height="17" viewBox="0 0 17 17" fill="none" xmlns="http://www.w3.org/2000/svg">
<circle cx="10.3008" cy="10" r="3" fill="#BFE9E6"/>
<ellipse cx="8.80078" cy="12" rx="5.5" ry="3" fill="#BFE9E6"/>
<path d="M8.30013 8.66771C8.0068 8.66771 7.71346 8.59437 7.4468 8.45437L3.1068 6.11437C2.71346 5.90104 2.4668 5.48104 2.4668 5.01437C2.4668 4.54771 2.71346 4.12771 3.1068 3.91437L7.4468 1.57437C7.98013 1.28771 8.62013 1.28771 9.1468 1.57437L13.4868 3.91437C13.8801 4.12771 14.1268 4.54771 14.1268 5.01437C14.1268 5.48104 13.8801 5.90104 13.4868 6.11437L9.1468 8.45437C8.8868 8.60104 8.59346 8.66771 8.30013 8.66771ZM8.30013 2.35437C8.17346 2.35437 8.04013 2.38771 7.92013 2.45437L3.5868 4.78771C3.47346 4.84771 3.4668 4.97437 3.4668 5.01437C3.4668 5.05437 3.47346 5.18104 3.5868 5.23437L7.9268 7.57437C8.1668 7.70104 8.44013 7.70104 8.68013 7.57437L13.0201 5.23437C13.1268 5.17437 13.1401 5.04771 13.1401 5.01437C13.1401 4.97437 13.1335 4.84771 13.0201 4.79437L8.68013 2.45437C8.56013 2.38771 8.4268 2.35437 8.30013 2.35437Z" fill="#6F6D6A"/>
<path d="M6.82143 15.6478C6.63477 15.6478 6.44143 15.6011 6.2681 15.5145L2.2281 13.5011C1.55477 13.1611 1.13477 12.4811 1.13477 11.7278V7.91448C1.13477 7.48115 1.35477 7.08781 1.72143 6.86115C2.09477 6.63448 2.54143 6.61448 2.9281 6.80781L6.9681 8.82115C7.64143 9.16115 8.06143 9.83448 8.06143 10.5945V14.4078C8.06143 14.8411 7.84143 15.2345 7.47477 15.4611C7.27477 15.5878 7.0481 15.6478 6.82143 15.6478ZM2.37477 7.67448C2.32143 7.67448 2.27477 7.69448 2.2481 7.70781C2.2081 7.73448 2.13477 7.79448 2.13477 7.91448V11.7278C2.13477 12.1011 2.34143 12.4411 2.67477 12.6078L6.7081 14.6278C6.81477 14.6811 6.90143 14.6411 6.94143 14.6211C6.98143 14.5945 7.05477 14.5345 7.05477 14.4145V10.6011C7.05477 10.2278 6.8481 9.88781 6.51477 9.72115L2.48143 7.70115C2.44143 7.68115 2.4081 7.67448 2.37477 7.67448Z" fill="#6F6D6A"/>
<path d="M9.78102 15.6467C9.55435 15.6467 9.32768 15.5867 9.12768 15.46C8.76102 15.2333 8.54102 14.84 8.54102 14.4067V10.5933C8.54102 9.84 8.96102 9.16 9.63435 8.82L13.6677 6.8C14.0543 6.60667 14.5077 6.62667 14.8743 6.85334C15.241 7.08 15.461 7.47334 15.461 7.90667V11.72C15.461 12.4733 15.041 13.1533 14.3677 13.4933L10.3343 15.5133C10.161 15.6067 9.96768 15.6467 9.78102 15.6467ZM14.2277 7.67334C14.1943 7.67334 14.161 7.68 14.121 7.7L10.0877 9.72C9.75435 9.88667 9.54768 10.22 9.54768 10.6V14.4133C9.54768 14.5333 9.62102 14.5933 9.66102 14.62C9.70102 14.6467 9.78768 14.68 9.89435 14.6267L13.9277 12.6067C14.261 12.44 14.4677 12.1 14.4677 11.7267V7.91334C14.4677 7.79334 14.3943 7.73334 14.3543 7.70667C14.3277 7.69334 14.281 7.67334 14.2277 7.67334Z" fill="#6F6D6A"/>
</svg>
