<svg id="Layer_1" viewBox="0 0 512 512" xmlns="http://www.w3.org/2000/svg" data-name="Layer 1"><path d="m255.986 8c-99.086 0-179.699 80.612-179.699 179.698 0 28.837 6.998 57.512 20.236 82.924 12.81 24.588 31.46 46.213 53.929 62.534 13.642 9.919 20.853 24.069 20.853 40.922v28.194c-6.371.289-11.452 5.53-11.452 11.973s5.081 11.684 11.452 11.972v8.38c0 17.325 13.922 31.449 31.164 31.798l3.179 12.603c4.133 16.589 12.104 25.001 23.691 25.001h53.32c11.53 0 19.498-8.399 23.682-24.967l3.188-12.638c17.242-.349 31.164-14.473 31.164-31.798v-8.38c6.371-.289 11.452-5.53 11.452-11.972s-5.081-11.684-11.452-11.973v-28.194c0-16.866 7.201-31.017 20.819-40.918 22.477-16.326 41.131-37.951 53.947-62.535 13.249-25.417 20.252-54.092 20.252-82.927 0-99.086-80.625-179.698-179.727-179.698zm-60.681 378.078h121.39v16.167h-121.39zm75.297-171.971c-3.936-5.333-11.448-6.466-16.781-2.53s-6.465 11.448-2.53 16.781c20.536 27.828 14.014 49.199 4.475 75.443-30.258-1.465-53.809-26.23-60.15-63.445-7.26-42.614 9.523-94.847 61.461-123.348.452 27.948 13.146 48.645 25.919 59.022 30.324 24.667 41.707 55.725 31.229 85.209-5.688 16.007-16.956 28.71-30.86 35.95 7.495-24.463 10.382-51.718-12.765-83.083zm12.471 259.052c-.952 3.769-1.826 5.807-2.38 6.841h-49.398c-.553-1.03-1.427-3.066-2.367-6.838l-1.703-6.75h57.549l-1.702 6.747zm25.808-30.747h-105.761c-4.236 0-7.814-3.578-7.814-7.814v-8.353h121.39v8.353c0 4.236-3.579 7.814-7.814 7.814zm38.524-128.667c-16.496 11.995-26.812 28.868-29.8 48.333h-51.083c-.557-12.236 2.6-23.996 6.726-35.986 28.668-6.064 53.131-27.379 63.592-56.814 13.876-39.047-.591-80.865-38.705-111.869-8.643-7.022-21.622-27.059-15.449-57.618.867-4.292-.673-8.717-4.018-11.543s-7.965-3.605-12.052-2.033c-35.838 13.785-63.54 37.608-80.111 68.895-14.52 27.413-19.686 59.119-14.548 89.278 3.884 22.8 13.29 42.692 27.2 57.524 13.314 14.196 29.963 22.823 48.539 25.257-3.249 10.911-5.587 22.527-5.191 34.91h-48.112c-2.992-19.456-13.317-36.329-29.831-48.336-40.247-29.234-64.275-76.353-64.275-126.043 0-85.853 69.846-155.698 155.699-155.698s155.727 69.846 155.727 155.698c0 49.678-24.039 96.797-64.308 126.047z"/></svg>