<svg id="Layer_1" viewBox="0 0 512 512" xmlns="http://www.w3.org/2000/svg" data-name="Layer 1"><path d="m503.994 118.236c0-51.333-41.762-93.094-93.094-93.094-46.227 0-84.685 33.869-91.88 78.094h-179.663l-2.292-17.533c-2.173-16.595-10.242-31.763-22.723-42.711-12.477-10.945-28.564-16.972-45.3-16.972h-46.036c-8.284 0-15 6.716-15 15s6.716 15 15 15h46.035c19.631 0 35.729 14.122 38.276 33.575l30.879 236.176-.472.041c-25.958 2.267-45.389 24.424-44.238 50.444 1.152 26.016 22.387 46.342 48.357 46.34h.157l14.451-.022c-2.074 5.309-3.226 11.076-3.226 17.11 0 26.011 21.162 47.173 47.173 47.173s47.173-21.162 47.173-47.173c0-6.086-1.171-11.9-3.279-17.246l91.888-.142c-2.065 5.3-3.21 11.055-3.21 17.077 0 26.011 21.149 47.173 47.145 47.173s47.173-21.162 47.173-47.173-21.162-47.173-47.173-47.173c-.398 0-.791.02-1.186.03l-237 .367h-.06c-9.891 0-17.973-7.749-18.413-17.667-.439-9.919 6.974-18.367 16.868-19.23l271.864-23.584c26.438-2.28 47.034-21.432 51.253-47.675l16.57-103.903c14.898-16.511 23.982-38.365 23.982-62.302zm-303.596 338.622c-9.469 0-17.173-7.704-17.173-17.173s7.704-17.173 17.173-17.173 17.173 7.704 17.173 17.173-7.704 17.173-17.173 17.173zm196.89-17.485c0 9.469-7.704 17.173-17.173 17.173s-17.145-7.704-17.145-17.173c0-9.274 7.383-16.836 16.569-17.144h.599v-.028c9.458.013 17.15 7.711 17.15 17.172zm13.611-384.231c34.791 0 63.094 28.304 63.094 63.094s-28.304 63.095-63.094 63.095-63.095-28.304-63.095-63.095 28.304-63.094 63.095-63.094zm-1.296 247.086-241.491 20.949-24.834-189.941h175.741c7.195 44.225 45.654 78.095 91.88 78.095 12.338 0 24.121-2.419 34.906-6.797l-11.987 75.164c-1.993 12.398-11.722 21.452-24.215 22.53zm-39.698-174.207c-5.858-5.858-5.858-15.355 0-21.213s15.356-5.858 21.213 0l9.875 9.875 29.905-28.712c5.976-5.737 15.472-5.544 21.209.432s5.544 15.471-.432 21.209l-40.507 38.891c-2.905 2.789-6.648 4.18-10.388 4.18-3.842 0-7.682-1.467-10.607-4.393l-20.268-20.268z"/></svg>