<svg id="Layer_1" viewBox="0 0 512 512" xmlns="http://www.w3.org/2000/svg" data-name="Layer 1"><path d="m433.177 371.483-10.325-6.354-6.833-16.488 2.813-11.808c.965-4.054-.241-8.319-3.188-11.266l-17.773-17.773c-2.947-2.947-7.212-4.153-11.266-3.188l-11.815 2.814-16.479-6.808-6.351-10.341c-1.521-2.476-3.869-4.256-6.558-5.122 6.03-15.505 16.806-27.966 32.699-37.812 3.532-2.188 5.681-6.047 5.681-10.201v-90.312c0-76.547-62.275-138.823-138.822-138.823-41.828 0-83.217 16.578-110.716 44.347-4.649 4.695-4.629 12.264.046 16.934l19.428 19.408-77.712 90.573c-1.866 2.176-2.893 4.947-2.893 7.814 0 32.094 26.11 58.205 58.205 58.205 27.969 0 51.392-19.847 56.934-46.205h35.106c-4.527 23.689-22.549 38.628-44.562 56.875-30.568 25.338-68.188 56.535-72.286 122.284h-14.339c-6.627 0-12 5.373-12 12v53.717c0 6.627 5.373 12 12 12h147.101c.321 2.621 1.487 5.107 3.409 7.03l17.772 17.773c2.946 2.947 7.213 4.155 11.266 3.188l11.809-2.812 16.488 6.832 6.354 10.325c2.184 3.549 6.053 5.711 10.22 5.711h25.144c4.167 0 8.036-2.162 10.22-5.711l6.354-10.325 16.487-6.832 11.809 2.812c4.054.966 8.319-.241 11.266-3.188l17.773-17.773c2.947-2.947 4.153-7.212 3.188-11.266l-2.812-11.805 6.833-16.47 10.34-6.384c3.54-2.186 5.695-6.05 5.695-10.211v-25.144c0-4.167-2.162-8.036-5.711-10.22zm-188.218-339.483c63.313 0 114.822 51.51 114.822 114.823v83.845c-5.435 3.791-10.363 7.912-14.807 12.34v-96.186c0-26.569-10.44-51.64-29.399-70.594-18.959-18.955-44.038-29.394-70.616-29.394-27.507 0-54.461 9.108-74.393 24.762l-10.402-10.392c22.688-18.445 53.53-29.206 84.795-29.206zm-50.847 242.428c24.209-20.067 49.164-40.75 53.636-75.933 28.195-4.011 49.945-28.312 49.945-57.597 0-6.627-5.373-12-12-12s-12 5.373-12 12c0 18.845-15.332 34.177-34.178 34.177h-62.021c-6.627 0-12 5.373-12 12 0 18.861-15.332 34.205-34.177 34.205-17.456 0-31.9-13.144-33.955-30.054l81.485-94.97c15.688-15.686 40.978-25.421 66.112-25.421 41.915 0 76.016 34.088 76.016 75.989v135.472c-.241.752-.499 1.493-.723 2.254h-3.661c-4.171 0-8.043 2.166-10.226 5.72l-6.351 10.341-16.479 6.809-11.815-2.814c-4.054-.965-8.318.241-11.266 3.188l-17.772 17.773c-2.946 2.947-4.153 7.211-3.188 11.265l2.812 11.809-6.832 16.488-10.325 6.354c-2.532 1.558-4.34 3.981-5.178 6.752h-89.407c3.885-54.332 34.179-79.462 63.549-103.807zm-89.941 127.807h115.267v4.611c0 4.161 2.155 8.025 5.695 10.211l10.34 6.384 3.531 8.511h-134.833zm310.717-2.083-7.939 4.902c-2.143 1.323-3.814 3.286-4.779 5.612l-9.809 23.641c-.969 2.336-1.176 4.919-.59 7.379l2.16 9.067-8.289 8.289-9.067-2.159c-2.457-.585-5.038-.38-7.374.587l-23.669 9.808c-2.334.967-4.303 2.646-5.626 4.797l-4.876 7.924h-11.733l-4.876-7.924c-1.323-2.151-3.293-3.83-5.626-4.797l-23.67-9.808c-2.335-.967-4.916-1.174-7.374-.587l-9.067 2.159-8.289-8.289 2.16-9.067c.586-2.46.379-5.042-.59-7.378l-9.808-23.641c-.965-2.326-2.637-4.29-4.779-5.613l-7.939-4.902v-11.744l7.924-4.876c2.151-1.324 3.83-3.293 4.797-5.626l9.808-23.669c.968-2.335 1.173-4.915.588-7.374l-2.159-9.067 8.288-8.289 9.067 2.159c2.454.584 5.032.38 7.362-.583l23.67-9.78c2.342-.968 4.317-2.652 5.644-4.811l4.878-7.943h11.718l4.878 7.943c1.326 2.159 3.302 3.844 5.644 4.811l23.669 9.779c2.331.963 4.906 1.167 7.362.583l9.067-2.159 8.289 8.289-2.16 9.067c-.585 2.459-.38 5.04.588 7.375l9.809 23.669c.967 2.333 2.646 4.302 4.797 5.626l7.924 4.877v11.744zm-85.739-62.765c-31.36 0-56.873 25.526-56.873 56.901s25.513 56.901 56.873 56.901 56.901-25.526 56.901-56.901-25.525-56.901-56.901-56.901zm0 89.802c-18.126 0-32.873-14.759-32.873-32.901s14.747-32.901 32.873-32.901 32.901 14.759 32.901 32.901-14.76 32.901-32.901 32.901z"/></svg>