<svg id="Layer_1" viewBox="0 0 512 512" xmlns="http://www.w3.org/2000/svg" data-name="Layer 1"><path d="m376.706 279.977c-11.183-13.714-25.706-28.559-40.891-40.072 9.807-5.411 16.467-15.853 16.467-27.824 0-12.918-7.77-24.049-18.883-28.994l8.943-17.854c4.972-9.944 5.232-18.339.772-24.951-7.386-10.949-22.502-9.741-34.649-8.771-2.619.209-5.092.407-6.914.426-.155.002-.308.002-.46.002-8.718 0-13.823-2.583-19.717-5.566-3.477-1.76-7.209-3.645-11.581-4.96v-19.419c3.714.451 7.435.69 11.149.69 16.699 0 33.246-4.543 48.278-13.456 22.612-13.407 39.715-35.509 48.158-62.234.97-3.071.666-6.402-.846-9.247-1.512-2.844-4.103-4.96-7.19-5.875-25.246-7.474-51.829-4.067-74.856 9.589-14.958 8.871-27.48 21.562-36.698 36.859-9.224-15.297-21.75-27.988-36.708-36.859-23.028-13.657-49.605-17.062-74.836-9.589-3.086.914-5.676 3.03-7.187 5.873-1.511 2.842-1.817 6.172-.849 9.242 8.428 26.728 25.524 48.832 48.138 62.24 15.033 8.913 31.581 13.456 48.287 13.456 3.717 0 7.442-.239 11.161-.691v19.417c-4.379 1.315-8.116 3.202-11.597 4.963-5.997 3.035-11.169 5.681-20.184 5.562-1.827-.02-4.3-.217-6.919-.426-12.147-.969-27.263-2.178-34.648 8.771-4.46 6.612-4.2 15.007.776 24.959l8.36 16.692c-12.687 4.161-21.877 16.099-21.877 30.148 0 11.973 6.662 22.416 16.472 27.827-15.182 11.512-29.702 26.356-40.884 40.069-32.34 39.66-50.888 83.166-50.888 119.363 0 31.443 13.835 57.439 40.01 75.177 28.87 19.565 73.144 29.486 131.591 29.486s102.712-9.92 131.58-29.485c26.173-17.739 40.007-43.734 40.007-75.177 0-36.199-18.548-79.705-50.889-119.364zm-27.168-247.607c-14.848 31.164-44.382 49.146-75.333 46.001 14.811-30.664 44.732-48.893 75.333-46.001zm-183.497 0c30.584-2.884 60.506 15.339 75.332 46.002-30.961 3.15-60.5-14.84-75.332-46.002zm39.141 123.065c3.043.243 5.918.473 8.579.501 14.855.14 23.965-4.45 31.271-8.147 5.377-2.721 8.361-4.148 12.569-4.071l.191.003.192-.003c4.174-.061 7.176 1.35 12.552 4.07 7.308 3.699 16.397 8.292 31.265 8.148 2.656-.029 5.53-.258 8.574-.501 2.735-.218 6.975-.546 10.297-.531l-12.747 25.449h-100.294l-12.746-25.449c3.328-.029 7.562.313 10.296.531zm-13.72 64.404c-4.278 0-7.758-3.48-7.758-7.757 0-4.189 3.553-7.729 7.758-7.729h129.062c4.205 0 7.757 3.54 7.757 7.729 0 4.277-3.48 7.757-7.757 7.757zm182.66 234.812c-24.822 16.823-64.562 25.353-118.115 25.353s-93.303-8.53-118.127-25.353c-19.558-13.254-29.474-31.863-29.474-55.31 0-30.314 17.005-69.266 45.488-104.196 27.174-33.324 55.367-51.305 68.098-51.305h68.003c12.736 0 40.936 17.981 68.111 51.306 28.483 34.928 45.488 73.88 45.488 104.196 0 23.446-9.916 42.055-29.472 55.31zm-78.846-68.606c0 16.056-11.468 29.691-27.269 34.364v4.583c0 6.627-5.373 12-12 12s-12-5.373-12-12v-4.605c-8.912-2.642-16.693-8.149-21.618-15.655-3.636-5.541-2.091-12.98 3.45-16.616 5.541-3.634 12.98-2.091 16.616 3.45 2.66 4.055 7.853 6.573 13.551 6.573 8.277 0 15.269-5.539 15.269-12.094 0-7.235-1.421-8.952-17.724-12.377-.002 0-.004 0-.006 0-13.777-2.887-36.837-7.718-36.837-35.839 0-16.072 11.481-29.72 27.298-34.395v-4.554c0-6.627 5.373-12 12-12s12 5.373 12 12v4.532c8.9 2.595 16.57 8.054 21.599 15.673 3.651 5.531 2.126 12.975-3.405 16.625s-12.975 2.127-16.625-3.405c-2.688-4.072-7.887-6.601-13.569-6.601-8.292 0-15.298 5.552-15.298 12.123 0 7.214 1.423 8.926 17.759 12.349.002 0 .004.001.006.002 13.765 2.891 36.802 7.729 36.802 35.866z"/></svg>