<svg width="11" height="12" viewBox="0 0 11 12" fill="none" xmlns="http://www.w3.org/2000/svg">
<g id="TruEstate Logo">
<path id="Vector" d="M10.214 2.93427V5.06367L5.49349 2.55811H5.49271L0.7854 5.05726V2.92715L5.49271 0.428711L10.214 2.93427Z" fill="#22514D"/>
<path id="Vector_2" d="M10.214 6.82636V9.7273H8.20751V7.8907L8.19434 7.88358L6.50253 6.98594V11.571H4.49684V6.97881L2.79108 7.88358V9.7273H0.7854V6.81923L2.79108 5.75418L5.49194 4.3208L5.49968 4.32436L8.20751 5.7613L10.214 6.82636Z" fill="#22514D"/>
<path id="Vector_3" opacity="0.4" d="M10.2137 2.9369V5.07157L5.49976 2.56338V0.428711L10.2137 2.9369Z" fill="#252626"/>
<path id="Vector_4" opacity="0.4" d="M10.2148 6.82621V9.72716H8.20831V7.89056L8.19514 7.88344L6.50333 6.9858V11.5709H5.50049V4.32422L8.20831 5.76116L10.2148 6.82621Z" fill="#252626"/>
</g>
</svg>
