<svg width="91" height="26" viewBox="0 0 91 26" fill="none" xmlns="http://www.w3.org/2000/svg">
<rect width="91" height="26" rx="4" fill="#12A858"/>
<path d="M11.1672 6.63289C11.6272 6.23956 12.3805 6.23956 12.8472 6.63289L13.9005 7.53956C14.1005 7.71289 14.4738 7.85289 14.7405 7.85289H15.8738C16.5805 7.85289 17.1605 8.43289 17.1605 9.13956V10.2729C17.1605 10.5329 17.3005 10.9129 17.4738 11.1129L18.3805 12.1662C18.7738 12.6262 18.7738 13.3796 18.3805 13.8462L17.4738 14.8996C17.3005 15.0996 17.1605 15.4729 17.1605 15.7396V16.8729C17.1605 17.5796 16.5805 18.1596 15.8738 18.1596H14.7405C14.4805 18.1596 14.1005 18.2996 13.9005 18.4729L12.8472 19.3796C12.3872 19.7729 11.6338 19.7729 11.1672 19.3796L10.1138 18.4729C9.91382 18.2996 9.54049 18.1596 9.27382 18.1596H8.12049C7.41382 18.1596 6.83382 17.5796 6.83382 16.8729V15.7329C6.83382 15.4729 6.69382 15.0996 6.52716 14.8996L5.62716 13.8396C5.24049 13.3796 5.24049 12.6329 5.62716 12.1729L6.52716 11.1129C6.69382 10.9129 6.83382 10.5396 6.83382 10.2796V9.13289C6.83382 8.42622 7.41382 7.84622 8.12049 7.84622H9.27382C9.53382 7.84622 9.91382 7.70622 10.1138 7.53289L11.1672 6.63289Z" stroke="white" stroke-width="1.5" stroke-linecap="round" stroke-linejoin="round"/>
<path d="M9.58716 13.0001L11.1938 14.6134L14.4138 11.3867" stroke="white" stroke-width="1.5" stroke-linecap="round" stroke-linejoin="round"/>
<path d="M36.6979 8.7L32.4279 18.5H30.6359L26.3519 8.7H28.3259L31.5879 16.26L34.8779 8.7H36.6979ZM44.2815 14.804C44.2815 14.9253 44.2721 15.098 44.2535 15.322H38.3875C38.4901 15.8727 38.7561 16.3113 39.1855 16.638C39.6241 16.9553 40.1655 17.114 40.8095 17.114C41.6308 17.114 42.3075 16.8433 42.8395 16.302L43.7775 17.38C43.4415 17.7813 43.0168 18.0847 42.5035 18.29C41.9901 18.4953 41.4115 18.598 40.7675 18.598C39.9461 18.598 39.2228 18.4347 38.5975 18.108C37.9721 17.7813 37.4868 17.3287 37.1415 16.75C36.8055 16.162 36.6375 15.4993 36.6375 14.762C36.6375 14.034 36.8008 13.3807 37.1275 12.802C37.4635 12.214 37.9255 11.7567 38.5135 11.43C39.1015 11.1033 39.7641 10.94 40.5015 10.94C41.2295 10.94 41.8781 11.1033 42.4475 11.43C43.0261 11.7473 43.4741 12.2 43.7915 12.788C44.1181 13.3667 44.2815 14.0387 44.2815 14.804ZM40.5015 12.34C39.9415 12.34 39.4655 12.508 39.0735 12.844C38.6908 13.1707 38.4575 13.6093 38.3735 14.16H42.6155C42.5408 13.6187 42.3121 13.18 41.9295 12.844C41.5468 12.508 41.0708 12.34 40.5015 12.34ZM47.8785 12.116C48.3825 11.332 49.2691 10.94 50.5385 10.94V12.606C50.3891 12.578 50.2538 12.564 50.1325 12.564C49.4511 12.564 48.9191 12.7647 48.5365 13.166C48.1538 13.558 47.9625 14.1273 47.9625 14.874V18.5H46.2125V11.024H47.8785V12.116ZM52.273 11.024H54.023V18.5H52.273V11.024ZM53.155 9.792C52.8377 9.792 52.5717 9.694 52.357 9.498C52.1423 9.29267 52.035 9.04067 52.035 8.742C52.035 8.44333 52.1423 8.196 52.357 8C52.5717 7.79467 52.8377 7.692 53.155 7.692C53.4723 7.692 53.7383 7.79 53.953 7.986C54.1677 8.17267 54.275 8.41067 54.275 8.7C54.275 9.008 54.1677 9.26933 53.953 9.484C53.7477 9.68933 53.4817 9.792 53.155 9.792ZM59.6079 9.428C58.8705 9.428 58.5019 9.82933 58.5019 10.632V11.08H60.5599V12.48H58.5579V18.5H56.8079V12.48H55.5759V11.08H56.8079V10.604C56.8079 9.80133 57.0412 9.17133 57.5079 8.714C57.9745 8.24733 58.6325 8.014 59.4819 8.014C60.1539 8.014 60.6812 8.14933 61.0639 8.42L60.5739 9.736C60.2752 9.53067 59.9532 9.428 59.6079 9.428ZM62.8559 11.024H64.6059V18.5H62.8559V11.024ZM63.7379 9.792C63.4205 9.792 63.1545 9.694 62.9399 9.498C62.7252 9.29267 62.6179 9.04067 62.6179 8.742C62.6179 8.44333 62.7252 8.196 62.9399 8C63.1545 7.79467 63.4205 7.692 63.7379 7.692C64.0552 7.692 64.3212 7.79 64.5359 7.986C64.7505 8.17267 64.8579 8.41067 64.8579 8.7C64.8579 9.008 64.7505 9.26933 64.5359 9.484C64.3305 9.68933 64.0645 9.792 63.7379 9.792ZM74.1838 14.804C74.1838 14.9253 74.1745 15.098 74.1558 15.322H68.2898C68.3925 15.8727 68.6585 16.3113 69.0878 16.638C69.5265 16.9553 70.0678 17.114 70.7118 17.114C71.5331 17.114 72.2098 16.8433 72.7418 16.302L73.6798 17.38C73.3438 17.7813 72.9191 18.0847 72.4058 18.29C71.8925 18.4953 71.3138 18.598 70.6698 18.598C69.8485 18.598 69.1251 18.4347 68.4998 18.108C67.8745 17.7813 67.3891 17.3287 67.0438 16.75C66.7078 16.162 66.5398 15.4993 66.5398 14.762C66.5398 14.034 66.7031 13.3807 67.0298 12.802C67.3658 12.214 67.8278 11.7567 68.4158 11.43C69.0038 11.1033 69.6665 10.94 70.4038 10.94C71.1318 10.94 71.7805 11.1033 72.3498 11.43C72.9285 11.7473 73.3765 12.2 73.6938 12.788C74.0205 13.3667 74.1838 14.0387 74.1838 14.804ZM70.4038 12.34C69.8438 12.34 69.3678 12.508 68.9758 12.844C68.5931 13.1707 68.3598 13.6093 68.2758 14.16H72.5178C72.4431 13.6187 72.2145 13.18 71.8318 12.844C71.4491 12.508 70.9731 12.34 70.4038 12.34ZM83.4368 8.112V18.5H81.7568V17.534C81.4675 17.8887 81.1081 18.1547 80.6788 18.332C80.2588 18.5093 79.7921 18.598 79.2788 18.598C78.5601 18.598 77.9115 18.4393 77.3328 18.122C76.7635 17.8047 76.3155 17.3567 75.9888 16.778C75.6621 16.19 75.4988 15.518 75.4988 14.762C75.4988 14.006 75.6621 13.3387 75.9888 12.76C76.3155 12.1813 76.7635 11.7333 77.3328 11.416C77.9115 11.0987 78.5601 10.94 79.2788 10.94C79.7735 10.94 80.2261 11.024 80.6368 11.192C81.0475 11.36 81.3975 11.612 81.6868 11.948V8.112H83.4368ZM79.4888 17.1C79.9088 17.1 80.2868 17.0067 80.6228 16.82C80.9588 16.624 81.2248 16.3487 81.4208 15.994C81.6168 15.6393 81.7148 15.2287 81.7148 14.762C81.7148 14.2953 81.6168 13.8847 81.4208 13.53C81.2248 13.1753 80.9588 12.9047 80.6228 12.718C80.2868 12.522 79.9088 12.424 79.4888 12.424C79.0688 12.424 78.6908 12.522 78.3548 12.718C78.0188 12.9047 77.7528 13.1753 77.5568 13.53C77.3608 13.8847 77.2628 14.2953 77.2628 14.762C77.2628 15.2287 77.3608 15.6393 77.5568 15.994C77.7528 16.3487 78.0188 16.624 78.3548 16.82C78.6908 17.0067 79.0688 17.1 79.4888 17.1Z" fill="white"/>
</svg>
