<svg width="22" height="22" viewBox="0 0 22 22" fill="none" xmlns="http://www.w3.org/2000/svg">
<path d="M21.7861 8.84565H20.9V8.8H11V13.2H17.2167C16.3097 15.7614 13.8727 17.6 11 17.6C7.35515 17.6 4.4 14.6449 4.4 11C4.4 7.35515 7.35515 4.4 11 4.4C12.6825 4.4 14.2131 5.0347 15.3786 6.07145L18.4899 2.9601C16.5253 1.12915 13.8974 0 11 0C4.92525 0 0 4.92525 0 11C0 17.0748 4.92525 22 11 22C17.0748 22 22 17.0748 22 11C22 10.2625 21.9241 9.5425 21.7861 8.84565Z" fill="#FFC107"/>
<path d="M1.26758 5.88005L4.88163 8.5305C5.85953 6.1094 8.22783 4.4 10.9993 4.4C12.6817 4.4 14.2124 5.0347 15.3778 6.07145L18.4892 2.9601C16.5246 1.12915 13.8967 0 10.9993 0C6.77418 0 3.11008 2.38535 1.26758 5.88005Z" fill="#FF3D00"/>
<path d="M11.0017 21.9988C13.843 21.9988 16.4247 20.9115 18.3767 19.1432L14.9722 16.2623C13.8307 17.1304 12.4358 17.6 11.0017 17.5988C8.14063 17.5988 5.71128 15.7745 4.79608 13.2285L1.20898 15.9923C3.02948 19.5546 6.72658 21.9988 11.0017 21.9988Z" fill="#4CAF50"/>
<path d="M21.7861 8.84448H20.9V8.79883H11V13.1988H17.2167C16.7828 14.4179 16.0013 15.4831 14.9688 16.2629L14.9705 16.2618L18.375 19.1427C18.1341 19.3616 22 16.4988 22 10.9988C22 10.2613 21.9241 9.54133 21.7861 8.84448Z" fill="#1976D2"/>
</svg>
