<?xml version="1.0" encoding="UTF-8" standalone="no"?>
<!-- Created with Inkscape (http://www.inkscape.org/) -->

<svg
   version="1.1"
   id="svg4143"
   xml:space="preserve"
   width="682.66669"
   height="682.66669"
   viewBox="0 0 682.66669 682.66669"
   xmlns="http://www.w3.org/2000/svg"
   xmlns:svg="http://www.w3.org/2000/svg"><defs
     id="defs4147"><clipPath
       clipPathUnits="userSpaceOnUse"
       id="clipPath4157"><path
         d="M 0,512 H 512 V 0 H 0 Z"
         id="path4155" /></clipPath></defs><g
     id="g4149"
     transform="matrix(1.3333333,0,0,-1.3333333,0,682.66667)"><g
       id="g4151"><g
         id="g4153"
         clip-path="url(#clipPath4157)"><g
           id="g4159"
           transform="translate(55.2598,110.1328)"><path
             d="m 0,0 c 11.566,-16.294 31.284,-27.735 54.198,-30.028 -0.423,-2.781 -0.717,-5.596 -0.717,-8.476 0,-35.417 32.966,-64.129 73.629,-64.129 30.279,0 56.287,15.917 67.599,38.668 1.162,2.336 3.596,3.504 6.031,3.504 2.436,0 4.869,-1.168 6.031,-3.504 11.312,-22.751 37.321,-38.668 67.599,-38.668 40.663,0 73.629,28.712 73.629,64.129 0,2.88 -0.294,5.695 -0.717,8.476 10.668,1.067 20.644,4.118 29.426,8.718"
             style="fill:none;stroke:#000000;stroke-width:15;stroke-linecap:round;stroke-linejoin:round;stroke-miterlimit:10;stroke-dasharray:none;stroke-opacity:1"
             id="path4161" /></g><g
           id="g4163"
           transform="translate(83.9863,438.2207)"><path
             d="m 0,0 c -12.942,-8.803 -21.264,-22.521 -21.264,-37.931 0,-8.801 2.76,-17.026 7.501,-24.123 -29.703,-0.791 -53.518,-21.96 -53.518,-48.021 0,-12.359 5.367,-23.616 14.161,-32.136 -15.754,-13.515 -23.366,-30.901 -23.366,-48.025 0,-29.684 23.2,-54.544 54.638,-61.846 -11.588,-11.654 -17.823,-27.162 -17.823,-42.364"
             style="fill:none;stroke:#000000;stroke-width:15;stroke-linecap:round;stroke-linejoin:round;stroke-miterlimit:10;stroke-dasharray:none;stroke-opacity:1"
             id="path4165" /></g><g
           id="g4167"
           transform="translate(458.3936,112.582)"><path
             d="m 0,0 c 5.918,9.229 9.291,19.865 9.291,31.192 0,15.203 -6.236,30.71 -17.823,42.365 31.436,7.3 54.638,32.162 54.638,61.845 0,17.125 -7.611,34.512 -23.366,48.026 8.794,8.519 14.161,19.777 14.161,32.135 0,26.062 -23.815,47.231 -53.518,48.022 4.74,7.097 7.501,15.321 7.501,24.123 0,26.563 -24.724,48.097 -55.222,48.097 -2.857,0 -6.445,-0.295 -9.313,-0.673 0.042,0.52 0.11,1.034 0.101,1.566 -0.531,29.762 -29.318,54.795 -63.489,55.214 -26.293,0.323 -49.036,-13.076 -59.394,-32.501 -1.195,-2.242 -3.578,-3.363 -5.961,-3.363 -2.382,0 -4.765,1.121 -5.96,3.363 -10.357,19.425 -33.101,32.824 -59.394,32.501 -34.173,-0.419 -62.958,-25.452 -63.489,-55.214 -0.009,-0.531 0.059,-1.046 0.1,-1.566 -2.867,0.378 -6.455,0.673 -9.312,0.673"
             style="fill:none;stroke:#000000;stroke-width:15;stroke-linecap:round;stroke-linejoin:round;stroke-miterlimit:10;stroke-dasharray:none;stroke-opacity:1"
             id="path4169" /></g><g
           id="g4171"
           transform="translate(70.2236,376.167)"><path
             d="M 0,0 C 0,0 14.374,0.009 24.763,-9.179"
             style="fill:none;stroke:#000000;stroke-width:15;stroke-linecap:round;stroke-linejoin:round;stroke-miterlimit:10;stroke-dasharray:none;stroke-opacity:1"
             id="path4173" /></g><g
           id="g4175"
           transform="translate(109.458,80.1045)"><path
             d="M 0,0 C 0,0 1.936,14.787 12.595,25.069"
             style="fill:none;stroke:#000000;stroke-width:15;stroke-linecap:round;stroke-linejoin:round;stroke-miterlimit:10;stroke-dasharray:none;stroke-opacity:1"
             id="path4177" /></g><g
           id="g4179"
           transform="translate(481.1338,296.0098)"><path
             d="M 0,0 C 0,0 -9.61,-9.904 -23.184,-10.983"
             style="fill:none;stroke:#000000;stroke-width:15;stroke-linecap:round;stroke-linejoin:round;stroke-miterlimit:10;stroke-dasharray:none;stroke-opacity:1"
             id="path4181" /></g><g
           id="g4183"
           transform="translate(384.8437,449.2803)"><path
             d="M 0,0 C 0,0 0.016,-17.548 -10.023,-29.546"
             style="fill:none;stroke:#000000;stroke-width:15;stroke-linecap:round;stroke-linejoin:round;stroke-miterlimit:10;stroke-dasharray:none;stroke-opacity:1"
             id="path4185" /></g><g
           id="g4187"
           transform="translate(256,382.1055)"><path
             d="M 0,0 V -332.434"
             style="fill:none;stroke:#000000;stroke-width:15;stroke-linecap:round;stroke-linejoin:round;stroke-miterlimit:10;stroke-dasharray:none;stroke-opacity:1"
             id="path4189" /></g><g
           id="g4191"
           transform="translate(256,468.6299)"><path
             d="M 0,0 V -51.9"
             style="fill:none;stroke:#000000;stroke-width:15;stroke-linecap:round;stroke-linejoin:round;stroke-miterlimit:10;stroke-dasharray:none;stroke-opacity:1"
             id="path4193" /></g><g
           id="g4195"
           transform="translate(325.1055,111.79)"><path
             d="m 0,0 c 8.295,0 15.02,-6.714 15.02,-14.997 0,-8.283 -6.725,-14.998 -15.02,-14.998 -8.295,0 -15.02,6.715 -15.02,14.998 C -15.02,-6.714 -8.295,0 0,0 Z"
             style="fill:none;stroke:#000000;stroke-width:15;stroke-linecap:round;stroke-linejoin:round;stroke-miterlimit:10;stroke-dasharray:none;stroke-opacity:1"
             id="path4197" /></g><g
           id="g4199"
           transform="translate(325.1055,111.79)"><path
             d="M 0,0 C 0,53.911 -44.676,45.455 -69.105,45.455"
             style="fill:none;stroke:#000000;stroke-width:15;stroke-linecap:butt;stroke-linejoin:round;stroke-miterlimit:10;stroke-dasharray:none;stroke-opacity:1"
             id="path4201" /></g><g
           id="g4203"
           transform="translate(325.1055,387.7314)"><path
             d="m 0,0 c 8.295,0 15.02,6.715 15.02,14.998 0,8.283 -6.725,14.997 -15.02,14.997 -8.295,0 -15.02,-6.714 -15.02,-14.997 C -15.02,6.715 -8.295,0 0,0 Z"
             style="fill:none;stroke:#000000;stroke-width:15;stroke-linecap:round;stroke-linejoin:round;stroke-miterlimit:10;stroke-dasharray:none;stroke-opacity:1"
             id="path4205" /></g><g
           id="g4207"
           transform="translate(325.1055,387.7314)"><path
             d="M 0,0 C 0,-53.91 -44.676,-45.454 -69.105,-45.454"
             style="fill:none;stroke:#000000;stroke-width:15;stroke-linecap:butt;stroke-linejoin:round;stroke-miterlimit:10;stroke-dasharray:none;stroke-opacity:1"
             id="path4209" /></g><g
           id="g4211"
           transform="translate(389.709,161.4287)"><path
             d="m 0,0 c 8.295,0 15.02,-6.714 15.02,-14.997 0,-8.283 -6.725,-14.998 -15.02,-14.998 -8.295,0 -15.02,6.715 -15.02,14.998 C -15.02,-6.714 -8.295,0 0,0 Z"
             style="fill:none;stroke:#000000;stroke-width:15;stroke-linecap:round;stroke-linejoin:round;stroke-miterlimit:10;stroke-dasharray:none;stroke-opacity:1"
             id="path4213" /></g><g
           id="g4215"
           transform="translate(389.709,161.4287)"><path
             d="M 0,0 C 0,58.148 -54.903,58.148 -133.709,58.148"
             style="fill:none;stroke:#000000;stroke-width:15;stroke-linecap:butt;stroke-linejoin:round;stroke-miterlimit:10;stroke-dasharray:none;stroke-opacity:1"
             id="path4217" /></g><g
           id="g4219"
           transform="translate(389.709,339.582)"><path
             d="m 0,0 c 8.295,0 15.02,6.715 15.02,14.998 0,8.283 -6.725,14.997 -15.02,14.997 -8.295,0 -15.02,-6.714 -15.02,-14.997 C -15.02,6.715 -8.295,0 0,0 Z"
             style="fill:none;stroke:#000000;stroke-width:15;stroke-linecap:round;stroke-linejoin:round;stroke-miterlimit:10;stroke-dasharray:none;stroke-opacity:1"
             id="path4221" /></g><g
           id="g4223"
           transform="translate(389.709,339.582)"><path
             d="M 0,0 C 0,-58.148 -54.903,-58.148 -133.709,-58.148"
             style="fill:none;stroke:#000000;stroke-width:15;stroke-linecap:butt;stroke-linejoin:round;stroke-miterlimit:10;stroke-dasharray:none;stroke-opacity:1"
             id="path4225" /></g><g
           id="g4227"
           transform="translate(413.8359,249.7607)"><path
             d="M 0,0 V 0"
             style="fill:none;stroke:#000000;stroke-width:15;stroke-linecap:round;stroke-linejoin:round;stroke-miterlimit:10;stroke-dasharray:none;stroke-opacity:1"
             id="path4229" /></g><g
           id="g4231"
           transform="translate(362.8359,249.7607)"><path
             d="M 0,0 V 0"
             style="fill:none;stroke:#000000;stroke-width:15;stroke-linecap:round;stroke-linejoin:round;stroke-miterlimit:10;stroke-dasharray:none;stroke-opacity:1"
             id="path4233" /></g><g
           id="g4235"
           transform="translate(325.1055,456.2607)"><path
             d="M 0,0 V 0"
             style="fill:none;stroke:#000000;stroke-width:15;stroke-linecap:round;stroke-linejoin:round;stroke-miterlimit:10;stroke-dasharray:none;stroke-opacity:1"
             id="path4237" /></g><g
           id="g4239"
           transform="translate(325.1055,43.2607)"><path
             d="M 0,0 V 0"
             style="fill:none;stroke:#000000;stroke-width:15;stroke-linecap:round;stroke-linejoin:round;stroke-miterlimit:10;stroke-dasharray:none;stroke-opacity:1"
             id="path4241" /></g><g
           id="g4243"
           transform="translate(92.2012,254.9932)"><path
             d="M 0,0 C 0,0 2.426,43.202 46.098,53.825"
             style="fill:none;stroke:#000000;stroke-width:15;stroke-linecap:round;stroke-linejoin:round;stroke-miterlimit:10;stroke-dasharray:none;stroke-opacity:1"
             id="path4245" /></g><g
           id="g4247"
           transform="translate(167.5215,382.1055)"><path
             d="M 0,0 C 0,0 29.909,10.481 32.628,39.303"
             style="fill:none;stroke:#000000;stroke-width:15;stroke-linecap:round;stroke-linejoin:round;stroke-miterlimit:10;stroke-dasharray:none;stroke-opacity:1"
             id="path4249" /></g><g
           id="g4251"
           transform="translate(167.5215,156.6777)"><path
             d="M 0,0 C 0,0 -3.651,-38.986 30.518,-55.244"
             style="fill:none;stroke:#000000;stroke-width:15;stroke-linecap:round;stroke-linejoin:round;stroke-miterlimit:10;stroke-dasharray:none;stroke-opacity:1"
             id="path4253" /></g><g
           id="g4255"
           transform="translate(197.9727,259.1514)"><path
             d="M 0,0 C 0,0 2.119,-22.622 -17.707,-32.055"
             style="fill:none;stroke:#000000;stroke-width:15;stroke-linecap:round;stroke-linejoin:round;stroke-miterlimit:10;stroke-dasharray:none;stroke-opacity:1"
             id="path4257" /></g></g></g></g></svg>
