<svg width="24" height="24" viewBox="0 0 24 24" fill="none" xmlns="http://www.w3.org/2000/svg">
<ellipse cx="13.5" cy="12" rx="8.5" ry="8" fill="#B6F7D4"/>
<path d="M20.7826 3H3.56522C3.1501 3 2.75198 3.16491 2.45844 3.45844C2.16491 3.75198 2 4.1501 2 4.56522V19.4348C2 19.8499 2.16491 20.248 2.45844 20.5416C2.75198 20.8351 3.1501 21 3.56522 21H20.7826C21.1977 21 21.5958 20.8351 21.8894 20.5416C22.1829 20.248 22.3478 19.8499 22.3478 19.4348V4.56522C22.3478 4.1501 22.1829 3.75198 21.8894 3.45844C21.5958 3.16491 21.1977 3 20.7826 3Z" stroke="#2B2928" stroke-width="1.5" stroke-linecap="round" stroke-linejoin="round"/>
<path d="M12 14.9167C12.7735 14.9167 13.5154 14.6094 14.0624 14.0624C14.6094 13.5154 14.9167 12.7735 14.9167 12M12 14.9167C11.2265 14.9167 10.4846 14.6094 9.9376 14.0624C9.39062 13.5154 9.08333 12.7735 9.08333 12M12 14.9167V17M14.9167 12C14.9167 11.2265 14.6094 10.4846 14.0624 9.93761C13.5154 9.39062 12.7735 9.08333 12 9.08333M14.9167 12H17M12 9.08333C11.2265 9.08333 10.4846 9.39062 9.9376 9.93761C9.39062 10.4846 9.08333 11.2265 9.08333 12M12 9.08333V7M9.08333 12H7M15.5333 8.46667L14.0667 9.93333M9.93333 14.0667L8.46667 15.5333M15.5333 15.5333L14.0667 14.0667M9.93333 9.93333L8.46667 8.46667" stroke="#2B2928" stroke-width="1.5" stroke-linecap="round" stroke-linejoin="round"/>
</svg>
