<svg width="20" height="21" viewBox="0 0 20 21" fill="none" xmlns="http://www.w3.org/2000/svg">
<g clip-path="url(#clip0_1777_13193)">
<path d="M18.125 0.972728H1.875C1.5063 0.968976 1.15117 1.11164 0.887529 1.36942C0.623892 1.6272 0.473283 1.97904 0.46875 2.34773V18.6634C0.474103 19.0315 0.625072 19.3825 0.88862 19.6396C1.15217 19.8967 1.50683 20.039 1.875 20.0352H18.125C18.4937 20.0382 18.8486 19.895 19.1121 19.6371C19.3756 19.3791 19.5263 19.0274 19.5312 18.6587V2.34304C19.5247 1.97543 19.3733 1.62527 19.1099 1.36867C18.8466 1.11208 18.4927 0.969788 18.125 0.972728Z" fill="#0076B2"/>
<path d="M3.29141 8.11719H6.12109V17.2219H3.29141V8.11719ZM4.70703 3.58594C5.03158 3.58594 5.34884 3.6822 5.61868 3.86254C5.88851 4.04288 6.09879 4.29921 6.22292 4.59908C6.34705 4.89896 6.37945 5.22891 6.31602 5.54721C6.25259 5.8655 6.09618 6.15783 5.86658 6.38721C5.63697 6.6166 5.3445 6.77273 5.02614 6.83585C4.70779 6.89898 4.37787 6.86627 4.07811 6.74185C3.77835 6.61744 3.52223 6.40691 3.34214 6.13691C3.16206 5.8669 3.0661 5.54955 3.06641 5.225C3.06682 4.79015 3.23985 4.37325 3.54749 4.06591C3.85512 3.75857 4.27218 3.58594 4.70703 3.58594ZM7.89609 8.11719H10.6086V9.36719H10.6461C11.0242 8.65156 11.9461 7.89687 13.3227 7.89687C16.1883 7.89062 16.7195 9.77656 16.7195 12.2219V17.2219H13.8898V12.7922C13.8898 11.7375 13.8711 10.3797 12.4195 10.3797C10.968 10.3797 10.7211 11.5297 10.7211 12.7234V17.2219H7.89609V8.11719Z" fill="white"/>
</g>
<defs>
<clipPath id="clip0_1777_13193">
<rect width="20" height="20" fill="white" transform="translate(0 0.503906)"/>
</clipPath>
</defs>
</svg>
