<svg width="214" height="148" viewBox="0 0 214 148" fill="none" xmlns="http://www.w3.org/2000/svg">
<path d="M262.257 -151.5L207.29 -151.5L271.967 -38.3518L271.967 -38.3326L207.455 74.5L262.441 74.5L326.934 -38.3326L262.257 -151.5Z" fill="#F6EAB4"/>
<path d="M158.612 -151.5L103.645 -151.5L168.322 -38.3518L168.322 -38.3326L103.81 74.5L158.796 74.5L223.29 -38.3326L158.612 -151.5Z" fill="#F6EAB4"/>
<path d="M54.9674 -151.5L-7.40446e-05 -151.5L64.6773 -38.3518L64.6773 -38.3326L0.165298 74.5L55.1513 74.5L119.645 -38.3326L54.9674 -151.5Z" fill="#F6EAB4"/>
<path d="M262.257 74.5L207.29 74.5L271.967 187.648L271.967 187.667L207.455 300.5L262.441 300.5L326.934 187.667L262.257 74.5Z" fill="#F6EAB4"/>
<path d="M158.612 74.5L103.645 74.5L168.322 187.648L168.322 187.667L103.81 300.5L158.796 300.5L223.29 187.667L158.612 74.5Z" fill="#F6EAB4"/>
<path d="M54.9674 74.5L-7.40446e-05 74.5L64.6773 187.648L64.6773 187.667L0.165298 300.5L55.1513 300.5L119.645 187.667L54.9674 74.5Z" fill="#F6EAB4"/>
</svg>
