<svg xmlns="http://www.w3.org/2000/svg" width="184" height="164" viewBox="0 0 184 164" fill="none">
<rect width="184" height="164" rx="16" fill="white"/>
<g clip-path="url(#clip0_356_709)">
<path d="M117.809 12H66.1948C55.5936 12 46.9995 20.594 46.9995 31.1953V82.8092C46.9995 93.4104 55.5936 102.004 66.1948 102.004H117.809C128.41 102.004 137.004 93.4104 137.004 82.8092V31.1953C137.004 20.594 128.41 12 117.809 12Z" fill="#2CB742"/>
<path fill-rule="evenodd" clip-rule="evenodd" d="M90.7212 30.6652C76.7935 31.3276 65.8035 42.9267 65.8453 56.8693C65.8585 61.1153 66.8834 65.1244 68.6926 68.6662L65.916 82.1443C65.7652 82.8739 66.4232 83.5127 67.1474 83.3409L80.3545 80.2122C83.7473 81.902 87.5593 82.8781 91.5929 82.9402C105.827 83.157 117.697 71.8552 118.141 57.625C118.616 42.3716 106.027 29.9357 90.7212 30.6652ZM106.48 71.2694C102.612 75.1373 97.4695 77.2674 91.9999 77.2674C88.797 77.2674 85.7301 76.5483 82.8846 75.1313L81.0466 74.2152L72.9483 76.1335L74.6522 67.8592L73.7466 66.0849C72.2694 63.1922 71.5209 60.0642 71.5209 56.7883C71.5209 51.3176 73.6509 46.1756 77.5187 42.3069C81.3515 38.4741 86.5781 36.3093 92 36.3093C97.4696 36.3093 102.612 38.44 106.48 42.3069C110.348 46.1748 112.478 51.3177 112.478 56.7874C112.479 62.2092 110.314 67.4355 106.48 71.2694Z" fill="white"/>
<path fill-rule="evenodd" clip-rule="evenodd" d="M104.692 62.4599L99.6263 61.0053C98.9606 60.8145 98.2433 61.0035 97.7577 61.4977L96.5195 62.7596C95.9965 63.2922 95.2043 63.4631 94.5131 63.1833C92.1165 62.2141 87.0748 57.731 85.7884 55.4893C85.4162 54.8428 85.478 54.0349 85.9338 53.4439L87.0155 52.0452C87.439 51.497 87.528 50.7605 87.2481 50.1269L85.1173 45.3057C84.6066 44.1518 83.1311 43.8154 82.1671 44.6304C80.7537 45.8269 79.0759 47.643 78.872 49.6564C78.5121 53.206 80.0346 57.6806 85.7901 63.0535C92.4407 69.2604 97.7658 70.0806 101.234 69.2403C103.201 68.7644 104.772 66.855 105.764 65.2915C106.44 64.2239 105.906 62.8085 104.692 62.4599Z" fill="white"/>
</g>
<path d="M58.8654 129.192C58.1081 129.192 57.4094 129.053 56.7694 128.776C56.1401 128.488 55.6228 128.083 55.2174 127.56L56.6574 125.832C57.2654 126.653 57.9588 127.064 58.7374 127.064C59.7934 127.064 60.3214 126.445 60.3214 125.208V119.88H56.3854V117.8H62.8974V125.064C62.8974 126.44 62.5561 127.475 61.8734 128.168C61.1908 128.851 60.1881 129.192 58.8654 129.192ZM69.0777 129.128C68.171 129.128 67.355 128.941 66.6297 128.568C65.915 128.184 65.355 127.656 64.9497 126.984C64.5444 126.312 64.3417 125.549 64.3417 124.696C64.3417 123.843 64.5444 123.08 64.9497 122.408C65.355 121.736 65.915 121.213 66.6297 120.84C67.355 120.456 68.171 120.264 69.0777 120.264C69.9844 120.264 70.795 120.456 71.5097 120.84C72.2244 121.213 72.7844 121.736 73.1897 122.408C73.595 123.08 73.7977 123.843 73.7977 124.696C73.7977 125.549 73.595 126.312 73.1897 126.984C72.7844 127.656 72.2244 128.184 71.5097 128.568C70.795 128.941 69.9844 129.128 69.0777 129.128ZM69.0777 127.08C69.7177 127.08 70.2404 126.867 70.6457 126.44C71.0617 126.003 71.2697 125.421 71.2697 124.696C71.2697 123.971 71.0617 123.395 70.6457 122.968C70.2404 122.531 69.7177 122.312 69.0777 122.312C68.4377 122.312 67.9097 122.531 67.4937 122.968C67.0777 123.395 66.8697 123.971 66.8697 124.696C66.8697 125.421 67.0777 126.003 67.4937 126.44C67.9097 126.867 68.4377 127.08 69.0777 127.08ZM75.1661 120.392H77.6621V129H75.1661V120.392ZM76.4141 119.192C75.9554 119.192 75.5821 119.059 75.2941 118.792C75.0061 118.525 74.8621 118.195 74.8621 117.8C74.8621 117.405 75.0061 117.075 75.2941 116.808C75.5821 116.541 75.9554 116.408 76.4141 116.408C76.8727 116.408 77.2461 116.536 77.5341 116.792C77.8221 117.048 77.9661 117.368 77.9661 117.752C77.9661 118.168 77.8221 118.515 77.5341 118.792C77.2461 119.059 76.8727 119.192 76.4141 119.192ZM84.9106 120.264C85.9772 120.264 86.8359 120.584 87.4866 121.224C88.1479 121.864 88.4786 122.813 88.4786 124.072V129H85.9826V124.456C85.9826 123.773 85.8332 123.267 85.5346 122.936C85.2359 122.595 84.8039 122.424 84.2386 122.424C83.6092 122.424 83.1079 122.621 82.7346 123.016C82.3612 123.4 82.1746 123.976 82.1746 124.744V129H79.6786V120.392H82.0626V121.4C82.3932 121.037 82.8039 120.76 83.2946 120.568C83.7852 120.365 84.3239 120.264 84.9106 120.264ZM100.272 129.192C99.1096 129.192 98.059 128.941 97.1203 128.44C96.1923 127.939 95.4616 127.251 94.9283 126.376C94.4056 125.491 94.1443 124.499 94.1443 123.4C94.1443 122.301 94.4056 121.315 94.9283 120.44C95.4616 119.555 96.1923 118.861 97.1203 118.36C98.059 117.859 99.1096 117.608 100.272 117.608C101.435 117.608 102.48 117.859 103.408 118.36C104.336 118.861 105.067 119.555 105.6 120.44C106.134 121.315 106.4 122.301 106.4 123.4C106.4 124.499 106.134 125.491 105.6 126.376C105.067 127.251 104.336 127.939 103.408 128.44C102.48 128.941 101.435 129.192 100.272 129.192ZM100.272 126.984C100.934 126.984 101.531 126.835 102.064 126.536C102.598 126.227 103.014 125.8 103.312 125.256C103.622 124.712 103.776 124.093 103.776 123.4C103.776 122.707 103.622 122.088 103.312 121.544C103.014 121 102.598 120.579 102.064 120.28C101.531 119.971 100.934 119.816 100.272 119.816C99.611 119.816 99.0136 119.971 98.4803 120.28C97.947 120.579 97.5256 121 97.2163 121.544C96.9176 122.088 96.7683 122.707 96.7683 123.4C96.7683 124.093 96.9176 124.712 97.2163 125.256C97.5256 125.8 97.947 126.227 98.4803 126.536C99.0136 126.835 99.611 126.984 100.272 126.984ZM116.544 120.392V129H114.176V127.976C113.846 128.349 113.451 128.637 112.992 128.84C112.534 129.032 112.038 129.128 111.504 129.128C110.374 129.128 109.478 128.803 108.816 128.152C108.155 127.501 107.824 126.536 107.824 125.256V120.392H110.32V124.888C110.32 126.275 110.902 126.968 112.064 126.968C112.662 126.968 113.142 126.776 113.504 126.392C113.867 125.997 114.048 125.416 114.048 124.648V120.392H116.544ZM120.941 121.528C121.239 121.112 121.639 120.797 122.141 120.584C122.653 120.371 123.239 120.264 123.901 120.264V122.568C123.623 122.547 123.437 122.536 123.341 122.536C122.626 122.536 122.066 122.739 121.661 123.144C121.255 123.539 121.053 124.136 121.053 124.936V129H118.557V120.392H120.941V121.528ZM50.5364 148.192C49.3951 148.192 48.3604 147.947 47.4324 147.456C46.5151 146.955 45.7898 146.267 45.2564 145.392C44.7338 144.507 44.4724 143.509 44.4724 142.4C44.4724 141.291 44.7338 140.299 45.2564 139.424C45.7898 138.539 46.5151 137.851 47.4324 137.36C48.3604 136.859 49.4004 136.608 50.5524 136.608C51.5231 136.608 52.3978 136.779 53.1764 137.12C53.9658 137.461 54.6271 137.952 55.1604 138.592L53.4964 140.128C52.7391 139.253 51.8004 138.816 50.6804 138.816C49.9871 138.816 49.3684 138.971 48.8244 139.28C48.2804 139.579 47.8538 140 47.5444 140.544C47.2458 141.088 47.0964 141.707 47.0964 142.4C47.0964 143.093 47.2458 143.712 47.5444 144.256C47.8538 144.8 48.2804 145.227 48.8244 145.536C49.3684 145.835 49.9871 145.984 50.6804 145.984C51.8004 145.984 52.7391 145.541 53.4964 144.656L55.1604 146.192C54.6271 146.843 53.9658 147.339 53.1764 147.68C52.3871 148.021 51.5071 148.192 50.5364 148.192ZM60.2339 148.128C59.3273 148.128 58.5113 147.941 57.7859 147.568C57.0713 147.184 56.5113 146.656 56.1059 145.984C55.7006 145.312 55.4979 144.549 55.4979 143.696C55.4979 142.843 55.7006 142.08 56.1059 141.408C56.5113 140.736 57.0713 140.213 57.7859 139.84C58.5113 139.456 59.3273 139.264 60.2339 139.264C61.1406 139.264 61.9513 139.456 62.6659 139.84C63.3806 140.213 63.9406 140.736 64.3459 141.408C64.7513 142.08 64.9539 142.843 64.9539 143.696C64.9539 144.549 64.7513 145.312 64.3459 145.984C63.9406 146.656 63.3806 147.184 62.6659 147.568C61.9513 147.941 61.1406 148.128 60.2339 148.128ZM60.2339 146.08C60.8739 146.08 61.3966 145.867 61.8019 145.44C62.2179 145.003 62.4259 144.421 62.4259 143.696C62.4259 142.971 62.2179 142.395 61.8019 141.968C61.3966 141.531 60.8739 141.312 60.2339 141.312C59.5939 141.312 59.0659 141.531 58.6499 141.968C58.2339 142.395 58.0259 142.971 58.0259 143.696C58.0259 144.421 58.2339 145.003 58.6499 145.44C59.0659 145.867 59.5939 146.08 60.2339 146.08ZM77.3463 139.264C78.4236 139.264 79.277 139.584 79.9063 140.224C80.5463 140.853 80.8663 141.803 80.8663 143.072V148H78.3703V143.456C78.3703 142.773 78.2263 142.267 77.9383 141.936C77.661 141.595 77.261 141.424 76.7383 141.424C76.1516 141.424 75.6876 141.616 75.3463 142C75.005 142.373 74.8343 142.933 74.8343 143.68V148H72.3383V143.456C72.3383 142.101 71.7943 141.424 70.7063 141.424C70.1303 141.424 69.6716 141.616 69.3303 142C68.989 142.373 68.8183 142.933 68.8183 143.68V148H66.3223V139.392H68.7063V140.384C69.0263 140.021 69.4156 139.744 69.8743 139.552C70.3436 139.36 70.8556 139.264 71.4103 139.264C72.0183 139.264 72.5676 139.387 73.0583 139.632C73.549 139.867 73.9436 140.213 74.2423 140.672C74.5943 140.224 75.037 139.877 75.5703 139.632C76.1143 139.387 76.7063 139.264 77.3463 139.264ZM93.8276 139.264C94.9049 139.264 95.7582 139.584 96.3876 140.224C97.0276 140.853 97.3476 141.803 97.3476 143.072V148H94.8516V143.456C94.8516 142.773 94.7076 142.267 94.4196 141.936C94.1422 141.595 93.7422 141.424 93.2196 141.424C92.6329 141.424 92.1689 141.616 91.8276 142C91.4862 142.373 91.3156 142.933 91.3156 143.68V148H88.8196V143.456C88.8196 142.101 88.2756 141.424 87.1876 141.424C86.6116 141.424 86.1529 141.616 85.8116 142C85.4702 142.373 85.2996 142.933 85.2996 143.68V148H82.8036V139.392H85.1876V140.384C85.5076 140.021 85.8969 139.744 86.3556 139.552C86.8249 139.36 87.3369 139.264 87.8916 139.264C88.4996 139.264 89.0489 139.387 89.5396 139.632C90.0302 139.867 90.4249 140.213 90.7236 140.672C91.0756 140.224 91.5182 139.877 92.0516 139.632C92.5956 139.387 93.1876 139.264 93.8276 139.264ZM107.957 139.392V148H105.589V146.976C105.258 147.349 104.863 147.637 104.405 147.84C103.946 148.032 103.45 148.128 102.917 148.128C101.786 148.128 100.89 147.803 100.229 147.152C99.5675 146.501 99.2368 145.536 99.2368 144.256V139.392H101.733V143.888C101.733 145.275 102.314 145.968 103.477 145.968C104.074 145.968 104.554 145.776 104.917 145.392C105.279 144.997 105.461 144.416 105.461 143.648V139.392H107.957ZM115.201 139.264C116.268 139.264 117.127 139.584 117.777 140.224C118.439 140.864 118.769 141.813 118.769 143.072V148H116.273V143.456C116.273 142.773 116.124 142.267 115.825 141.936C115.527 141.595 115.095 141.424 114.529 141.424C113.9 141.424 113.399 141.621 113.025 142.016C112.652 142.4 112.465 142.976 112.465 143.744V148H109.969V139.392H112.353V140.4C112.684 140.037 113.095 139.76 113.585 139.568C114.076 139.365 114.615 139.264 115.201 139.264ZM120.732 139.392H123.228V148H120.732V139.392ZM121.98 138.192C121.521 138.192 121.148 138.059 120.86 137.792C120.572 137.525 120.428 137.195 120.428 136.8C120.428 136.405 120.572 136.075 120.86 135.808C121.148 135.541 121.521 135.408 121.98 135.408C122.438 135.408 122.812 135.536 123.1 135.792C123.388 136.048 123.532 136.368 123.532 136.752C123.532 137.168 123.388 137.515 123.1 137.792C122.812 138.059 122.438 138.192 121.98 138.192ZM130.796 147.584C130.551 147.765 130.247 147.904 129.884 148C129.532 148.085 129.159 148.128 128.764 148.128C127.74 148.128 126.946 147.867 126.38 147.344C125.826 146.821 125.548 146.053 125.548 145.04V141.504H124.22V139.584H125.548V137.488H128.044V139.584H130.188V141.504H128.044V145.008C128.044 145.371 128.135 145.653 128.316 145.856C128.508 146.048 128.775 146.144 129.116 146.144C129.511 146.144 129.847 146.037 130.124 145.824L130.796 147.584ZM140.285 139.392L136.397 148.528C136.002 149.52 135.512 150.219 134.925 150.624C134.349 151.029 133.65 151.232 132.829 151.232C132.381 151.232 131.938 151.163 131.501 151.024C131.064 150.885 130.706 150.693 130.429 150.448L131.341 148.672C131.533 148.843 131.752 148.976 131.997 149.072C132.253 149.168 132.504 149.216 132.749 149.216C133.09 149.216 133.368 149.131 133.581 148.96C133.794 148.8 133.986 148.528 134.157 148.144L134.189 148.064L130.461 139.392H133.037L135.453 145.232L137.885 139.392H140.285Z" fill="black"/>
<defs>
<clipPath id="clip0_356_709">
<rect x="47" y="12" width="90" height="90" rx="45" fill="white"/>
</clipPath>
</defs>
</svg>