<svg width="31" height="40" viewBox="0 0 31 40" fill="none" xmlns="http://www.w3.org/2000/svg">
<mask id="mask0_174_7211" style="mask-type:luminance" maskUnits="userSpaceOnUse" x="0" y="0" width="31" height="40">
<path d="M30.5772 0.541748H0V39.4582H30.5772V0.541748Z" fill="white"/>
</mask>
<g mask="url(#mask0_174_7211)">
<path d="M30.5772 9.29241V16.7294L15.2685 7.97869H15.2659L0 16.707V9.26753L15.2659 0.541748L30.5772 9.29241Z" fill="#153E3B"/>
<path d="M30.5803 22.8852V33.0168H24.0734V26.6025L24.0306 26.5775L18.544 23.4426V39.4559H12.0396V23.4176L6.50768 26.5775V33.0168H0.00317383V22.8603L6.50768 19.1406L15.2666 14.1345L15.2918 14.147L24.0734 19.1654L30.5803 22.8852Z" fill="#153E3B"/>
<path d="M30.579 9.27997V16.7169L15.2904 7.97869V0.541748L30.579 9.27997Z" fill="black" fill-opacity="0.3"/>
<path d="M30.579 22.8855V33.017H24.072V26.6027L24.0293 26.5778L18.5427 23.4428V39.4563H15.2904V14.1472L24.072 19.1658L30.579 22.8855Z" fill="black" fill-opacity="0.3"/>
</g>
</svg>
