<svg width="627" height="562" viewBox="0 0 627 562" fill="none" xmlns="http://www.w3.org/2000/svg">
<g clip-path="url(#clip0_1199_8426)">
<ellipse cx="313.827" cy="280.54" rx="312.827" ry="302.87" stroke="#CFCECE" stroke-width="23.5267" stroke-linecap="round" stroke-dasharray="1.96 78.42"/>
<ellipse cx="314.023" cy="280.171" rx="362.023" ry="350.501" stroke="#CFCECE" stroke-width="27.2266" stroke-linecap="round" stroke-dasharray="2.27 90.76"/>
<ellipse cx="314.025" cy="280.17" rx="177.001" ry="171.368" stroke="#CFCECE" stroke-width="13.3117" stroke-linecap="round" stroke-dasharray="1.11 44.37"/>
<ellipse cx="314.024" cy="280.172" rx="203.738" ry="197.254" stroke="#CFCECE" stroke-width="15.3225" stroke-linecap="round" stroke-dasharray="1.28 51.08"/>
<ellipse cx="314.026" cy="280.171" rx="236.893" ry="229.353" stroke="#CFCECE" stroke-width="17.8159" stroke-linecap="round" stroke-dasharray="1.48 59.39"/>
<ellipse cx="314.021" cy="280.17" rx="273.255" ry="264.558" stroke="#CFCECE" stroke-width="20.5507" stroke-linecap="round" stroke-dasharray="1.71 68.5"/>
<ellipse cx="314.023" cy="280.17" rx="141.601" ry="137.094" stroke="#CFCECE" stroke-width="12.2024" stroke-linecap="round" stroke-dasharray="0.89 35.5"/>
<ellipse cx="314.02" cy="280.171" rx="110.692" ry="107.169" stroke="#CFCECE" stroke-width="11.4242" stroke-linecap="round" stroke-dasharray="0.73 29.25"/>
<ellipse cx="314.021" cy="280.171" rx="79.6768" ry="77.1413" stroke="#CFCECE" stroke-width="11.0931" stroke-linecap="round" stroke-dasharray="0.71 28.4"/>
<ellipse cx="51.8385" cy="50.2519" rx="51.8385" ry="50.2519" transform="matrix(0.990869 -0.134825 0.143655 0.989628 255.441 237.428)" stroke="#CFCECE" stroke-width="11.0931" stroke-linecap="round" stroke-dasharray="0.71 28.4"/>
<g opacity="0.5" filter="url(#filter0_f_1199_8426)">
<circle cx="327.5" cy="305.17" r="128.5" fill="url(#paint0_linear_1199_8426)" fill-opacity="0.7"/>
</g>
<ellipse cx="314.022" cy="280.171" rx="50.6154" ry="49.0048" fill="url(#paint1_linear_1199_8426)"/>
<path d="M290.704 290.838L285.208 277.998C284.984 277.454 284.8 276.958 284.656 276.51C284.512 276.046 284.432 275.67 284.416 275.382C284.16 275.398 283.92 275.414 283.696 275.43C283.488 275.43 283.288 275.438 283.096 275.454V273.87H289.672V275.19C289 275.206 288.536 275.382 288.28 275.718C288.024 276.038 288.04 276.566 288.328 277.302C288.712 278.214 289.08 279.118 289.432 280.014C289.8 280.91 290.176 281.83 290.56 282.774C290.88 283.526 291.16 284.206 291.4 284.814C291.656 285.422 291.896 286.022 292.12 286.614H292.168C292.344 286.102 292.528 285.566 292.72 285.006C292.912 284.43 293.112 283.846 293.32 283.254C293.624 282.438 293.896 281.686 294.136 280.998C294.376 280.31 294.608 279.678 294.832 279.102C295.056 278.51 295.256 277.95 295.432 277.422C295.528 277.102 295.656 276.742 295.816 276.342C295.976 275.926 296.144 275.606 296.32 275.382C296.048 275.398 295.728 275.414 295.36 275.43C294.992 275.43 294.696 275.438 294.472 275.454V273.87H299.704V275.19C299.096 275.206 298.592 275.398 298.192 275.766C297.808 276.134 297.448 276.774 297.112 277.686C296.92 278.182 296.728 278.694 296.536 279.222C296.344 279.734 296.144 280.278 295.936 280.854C295.728 281.43 295.496 282.054 295.24 282.726C294.984 283.398 294.704 284.134 294.4 284.934C294.112 285.734 293.784 286.622 293.416 287.598C293.064 288.574 292.672 289.654 292.24 290.838H290.704ZM305.966 290.67C305.918 290.43 305.886 290.23 305.87 290.07C305.87 289.894 305.862 289.694 305.846 289.47C305.302 290.014 304.718 290.414 304.094 290.67C303.486 290.926 302.854 291.054 302.198 291.054C301.11 291.054 300.27 290.758 299.678 290.166C299.102 289.574 298.814 288.846 298.814 287.982C298.814 287.214 299.022 286.566 299.438 286.038C299.854 285.494 300.398 285.054 301.07 284.718C301.742 284.366 302.486 284.102 303.302 283.926C304.118 283.734 304.926 283.63 305.726 283.614V282.294C305.726 281.83 305.67 281.406 305.558 281.022C305.462 280.622 305.278 280.31 305.006 280.086C304.734 279.846 304.334 279.726 303.806 279.726C303.454 279.742 303.094 279.822 302.726 279.966C302.374 280.094 302.094 280.302 301.886 280.59C302.014 280.734 302.094 280.894 302.126 281.07C302.158 281.23 302.174 281.374 302.174 281.502C302.174 281.79 302.062 282.094 301.838 282.414C301.614 282.718 301.254 282.862 300.758 282.846C300.326 282.83 299.99 282.678 299.75 282.39C299.526 282.102 299.414 281.758 299.414 281.358C299.414 280.75 299.63 280.222 300.062 279.774C300.51 279.31 301.11 278.95 301.862 278.694C302.614 278.422 303.454 278.286 304.382 278.286C305.758 278.286 306.814 278.646 307.55 279.366C308.286 280.086 308.646 281.238 308.63 282.822C308.63 283.382 308.63 283.894 308.63 284.358C308.63 284.806 308.622 285.262 308.606 285.726C308.606 286.174 308.606 286.678 308.606 287.238C308.606 287.478 308.598 287.782 308.582 288.15C308.566 288.502 308.542 288.854 308.51 289.206C308.798 289.174 309.086 289.158 309.374 289.158C309.678 289.142 309.926 289.126 310.118 289.11V290.67H305.966ZM305.702 285.03C305.222 285.062 304.75 285.142 304.286 285.27C303.822 285.382 303.406 285.542 303.038 285.75C302.67 285.958 302.374 286.222 302.15 286.542C301.942 286.846 301.846 287.198 301.862 287.598C301.878 288.094 302.038 288.462 302.342 288.702C302.646 288.926 302.998 289.038 303.398 289.038C303.862 289.038 304.278 288.942 304.646 288.75C305.03 288.558 305.382 288.302 305.702 287.982C305.702 287.822 305.702 287.654 305.702 287.478C305.702 287.302 305.702 287.126 305.702 286.95C305.702 286.726 305.702 286.446 305.702 286.11C305.702 285.774 305.702 285.414 305.702 285.03ZM316.539 291.054C315.611 291.054 314.851 290.878 314.259 290.526C313.683 290.174 313.259 289.614 312.987 288.846C312.715 288.062 312.579 287.038 312.579 285.774V282.51C312.579 282.238 312.587 281.934 312.603 281.598C312.619 281.262 312.635 280.926 312.651 280.59C312.395 280.606 312.107 280.622 311.787 280.638C311.467 280.638 311.203 280.646 310.995 280.662V279.126H311.403C312.283 279.126 312.963 279.054 313.443 278.91C313.939 278.75 314.275 278.59 314.451 278.43H315.555V285.774C315.555 286.926 315.707 287.782 316.011 288.342C316.331 288.902 316.843 289.182 317.547 289.182C318.027 289.166 318.499 289.022 318.963 288.75C319.443 288.478 319.827 288.158 320.115 287.79V282.606C320.115 282.286 320.123 281.958 320.139 281.622C320.155 281.27 320.179 280.926 320.211 280.59C319.955 280.606 319.659 280.622 319.323 280.638C319.003 280.638 318.739 280.646 318.531 280.662V279.126H319.155C319.891 279.126 320.499 279.046 320.979 278.886C321.475 278.726 321.803 278.574 321.963 278.43H323.067V287.046C323.067 287.27 323.059 287.598 323.043 288.03C323.027 288.462 323.003 288.854 322.971 289.206C323.243 289.174 323.531 289.158 323.835 289.158C324.139 289.142 324.387 289.126 324.579 289.11V290.67H320.403C320.371 290.446 320.339 290.222 320.307 289.998C320.291 289.774 320.275 289.558 320.259 289.35C319.763 289.798 319.203 290.198 318.579 290.55C317.971 290.886 317.291 291.054 316.539 291.054ZM325.883 289.398C326.347 289.398 326.675 289.302 326.867 289.11C327.075 288.902 327.195 288.614 327.227 288.246C327.275 287.878 327.299 287.462 327.299 286.998V276.63C327.299 276.358 327.307 276.062 327.323 275.742C327.339 275.406 327.363 275.062 327.395 274.71C327.123 274.726 326.827 274.742 326.507 274.758C326.187 274.774 325.915 274.79 325.691 274.806V273.246C326.427 273.246 327.027 273.214 327.491 273.15C327.971 273.07 328.339 272.974 328.595 272.862C328.867 272.75 329.059 272.646 329.171 272.55H330.251L330.275 287.238C330.275 287.494 330.267 287.806 330.251 288.174C330.235 288.526 330.203 288.87 330.155 289.206C330.427 289.174 330.707 289.158 330.995 289.158C331.283 289.142 331.523 289.134 331.715 289.134V290.67H325.883V289.398ZM338.001 291.054C337.553 291.054 337.113 290.998 336.681 290.886C336.265 290.774 335.881 290.566 335.529 290.262C335.193 289.958 334.921 289.51 334.713 288.918C334.505 288.31 334.401 287.51 334.401 286.518L334.449 280.326L332.745 280.35V278.67C333.225 278.654 333.689 278.494 334.137 278.19C334.585 277.87 334.977 277.454 335.312 276.942C335.649 276.43 335.873 275.886 335.985 275.31H337.449L337.425 278.67H340.809V280.206L337.425 280.278L337.401 286.446C337.401 286.926 337.441 287.374 337.521 287.79C337.617 288.19 337.777 288.51 338.001 288.75C338.241 288.99 338.561 289.11 338.961 289.11C339.265 289.11 339.609 289.014 339.993 288.822C340.393 288.63 340.793 288.246 341.193 287.67L342.177 288.558C341.777 289.166 341.361 289.638 340.929 289.974C340.513 290.31 340.105 290.558 339.705 290.718C339.321 290.878 338.977 290.974 338.673 291.006C338.369 291.038 338.145 291.054 338.001 291.054Z" fill="white"/>
<rect x="-136" y="-169.33" width="900" height="900" fill="url(#paint2_radial_1199_8426)"/>
</g>
<rect x="383.5" y="146.5" width="165" height="50" rx="25" fill="#FAFBFC"/>
<rect x="383.5" y="146.5" width="165" height="50" rx="25" stroke="#F0F1F2"/>
<path d="M419 163.75C419 164.99 417.99 166 416.75 166H413.25C412.63 166 412.07 165.75 411.66 165.34C411.25 164.93 411 164.37 411 163.75C411 162.51 412.01 161.5 413.25 161.5H416.75C417.37 161.5 417.93 161.75 418.34 162.16C418.75 162.57 419 163.13 419 163.75Z" fill="#22514D"/>
<path d="M421.83 164.531C421.6 164.341 421.34 164.191 421.06 164.081C420.77 163.971 420.48 164.201 420.42 164.501C420.08 166.211 418.57 167.501 416.75 167.501H413.25C412.25 167.501 411.31 167.111 410.6 166.401C410.08 165.881 409.72 165.221 409.58 164.511C409.52 164.211 409.22 163.971 408.93 164.091C407.77 164.561 407 165.621 407 167.751V177.501C407 180.501 408.79 181.501 411 181.501H419C421.21 181.501 423 180.501 423 177.501V167.751C423 166.121 422.55 165.121 421.83 164.531ZM411 171.751H415C415.41 171.751 415.75 172.091 415.75 172.501C415.75 172.911 415.41 173.251 415 173.251H411C410.59 173.251 410.25 172.911 410.25 172.501C410.25 172.091 410.59 171.751 411 171.751ZM419 177.251H411C410.59 177.251 410.25 176.911 410.25 176.501C410.25 176.091 410.59 175.751 411 175.751H419C419.41 175.751 419.75 176.091 419.75 176.501C419.75 176.911 419.41 177.251 419 177.251Z" fill="#22514D"/>
<path d="M440.598 178.18C439.626 178.18 438.684 178.042 437.772 177.766C436.872 177.49 436.158 177.124 435.63 176.668L436.44 174.85C436.956 175.258 437.586 175.594 438.33 175.858C439.086 176.11 439.842 176.236 440.598 176.236C441.534 176.236 442.23 176.086 442.686 175.786C443.154 175.486 443.388 175.09 443.388 174.598C443.388 174.238 443.256 173.944 442.992 173.716C442.74 173.476 442.416 173.29 442.02 173.158C441.624 173.026 441.084 172.876 440.4 172.708C439.44 172.48 438.66 172.252 438.06 172.024C437.472 171.796 436.962 171.442 436.53 170.962C436.11 170.47 435.9 169.81 435.9 168.982C435.9 168.286 436.086 167.656 436.458 167.092C436.842 166.516 437.412 166.06 438.168 165.724C438.936 165.388 439.872 165.22 440.976 165.22C441.744 165.22 442.5 165.316 443.244 165.508C443.988 165.7 444.63 165.976 445.17 166.336L444.432 168.154C443.88 167.83 443.304 167.584 442.704 167.416C442.104 167.248 441.522 167.164 440.958 167.164C440.034 167.164 439.344 167.32 438.888 167.632C438.444 167.944 438.222 168.358 438.222 168.874C438.222 169.234 438.348 169.528 438.6 169.756C438.864 169.984 439.194 170.164 439.59 170.296C439.986 170.428 440.526 170.578 441.21 170.746C442.146 170.962 442.914 171.19 443.514 171.43C444.114 171.658 444.624 172.012 445.044 172.492C445.476 172.972 445.692 173.62 445.692 174.436C445.692 175.132 445.5 175.762 445.116 176.326C444.744 176.89 444.174 177.34 443.406 177.676C442.638 178.012 441.702 178.18 440.598 178.18ZM451.468 168.28C452.884 168.28 453.964 168.622 454.708 169.306C455.464 169.978 455.842 170.998 455.842 172.366V178H453.718V176.83C453.442 177.25 453.046 177.574 452.53 177.802C452.026 178.018 451.414 178.126 450.694 178.126C449.974 178.126 449.344 178.006 448.804 177.766C448.264 177.514 447.844 177.172 447.544 176.74C447.256 176.296 447.112 175.798 447.112 175.246C447.112 174.382 447.43 173.692 448.066 173.176C448.714 172.648 449.728 172.384 451.108 172.384H453.592V172.24C453.592 171.568 453.388 171.052 452.98 170.692C452.584 170.332 451.99 170.152 451.198 170.152C450.658 170.152 450.124 170.236 449.596 170.404C449.08 170.572 448.642 170.806 448.282 171.106L447.4 169.468C447.904 169.084 448.51 168.79 449.218 168.586C449.926 168.382 450.676 168.28 451.468 168.28ZM451.162 176.488C451.726 176.488 452.224 176.362 452.656 176.11C453.1 175.846 453.412 175.474 453.592 174.994V173.878H451.27C449.974 173.878 449.326 174.304 449.326 175.156C449.326 175.564 449.488 175.888 449.812 176.128C450.136 176.368 450.586 176.488 451.162 176.488ZM458.73 164.644H460.98V178H458.73V164.644ZM472.969 173.248C472.969 173.404 472.957 173.626 472.933 173.914H465.391C465.523 174.622 465.865 175.186 466.417 175.606C466.981 176.014 467.677 176.218 468.505 176.218C469.561 176.218 470.431 175.87 471.115 175.174L472.321 176.56C471.889 177.076 471.343 177.466 470.683 177.73C470.023 177.994 469.279 178.126 468.451 178.126C467.395 178.126 466.465 177.916 465.661 177.496C464.857 177.076 464.233 176.494 463.789 175.75C463.357 174.994 463.141 174.142 463.141 173.194C463.141 172.258 463.351 171.418 463.771 170.674C464.203 169.918 464.797 169.33 465.553 168.91C466.309 168.49 467.161 168.28 468.109 168.28C469.045 168.28 469.879 168.49 470.611 168.91C471.355 169.318 471.931 169.9 472.339 170.656C472.759 171.4 472.969 172.264 472.969 173.248ZM468.109 170.08C467.389 170.08 466.777 170.296 466.273 170.728C465.781 171.148 465.481 171.712 465.373 172.42H470.827C470.731 171.724 470.437 171.16 469.945 170.728C469.453 170.296 468.841 170.08 468.109 170.08ZM480.321 165.4H485.829C487.173 165.4 488.367 165.664 489.411 166.192C490.455 166.708 491.265 167.446 491.841 168.406C492.417 169.354 492.705 170.452 492.705 171.7C492.705 172.948 492.417 174.052 491.841 175.012C491.265 175.96 490.455 176.698 489.411 177.226C488.367 177.742 487.173 178 485.829 178H480.321V165.4ZM485.721 176.02C486.645 176.02 487.455 175.846 488.151 175.498C488.859 175.138 489.399 174.634 489.771 173.986C490.155 173.326 490.347 172.564 490.347 171.7C490.347 170.836 490.155 170.08 489.771 169.432C489.399 168.772 488.859 168.268 488.151 167.92C487.455 167.56 486.645 167.38 485.721 167.38H482.661V176.02H485.721ZM504.012 173.248C504.012 173.404 504 173.626 503.976 173.914H496.434C496.566 174.622 496.908 175.186 497.46 175.606C498.024 176.014 498.72 176.218 499.548 176.218C500.604 176.218 501.474 175.87 502.158 175.174L503.364 176.56C502.932 177.076 502.386 177.466 501.726 177.73C501.066 177.994 500.322 178.126 499.494 178.126C498.438 178.126 497.508 177.916 496.704 177.496C495.9 177.076 495.276 176.494 494.832 175.75C494.4 174.994 494.184 174.142 494.184 173.194C494.184 172.258 494.394 171.418 494.814 170.674C495.246 169.918 495.84 169.33 496.596 168.91C497.352 168.49 498.204 168.28 499.152 168.28C500.088 168.28 500.922 168.49 501.654 168.91C502.398 169.318 502.974 169.9 503.382 170.656C503.802 171.4 504.012 172.264 504.012 173.248ZM499.152 170.08C498.432 170.08 497.82 170.296 497.316 170.728C496.824 171.148 496.524 171.712 496.416 172.42H501.87C501.774 171.724 501.48 171.16 500.988 170.728C500.496 170.296 499.884 170.08 499.152 170.08ZM515.209 173.248C515.209 173.404 515.197 173.626 515.173 173.914H507.631C507.763 174.622 508.105 175.186 508.657 175.606C509.221 176.014 509.917 176.218 510.745 176.218C511.801 176.218 512.671 175.87 513.355 175.174L514.561 176.56C514.129 177.076 513.583 177.466 512.923 177.73C512.263 177.994 511.519 178.126 510.691 178.126C509.635 178.126 508.705 177.916 507.901 177.496C507.097 177.076 506.473 176.494 506.029 175.75C505.597 174.994 505.381 174.142 505.381 173.194C505.381 172.258 505.591 171.418 506.011 170.674C506.443 169.918 507.037 169.33 507.793 168.91C508.549 168.49 509.401 168.28 510.349 168.28C511.285 168.28 512.119 168.49 512.851 168.91C513.595 169.318 514.171 169.9 514.579 170.656C514.999 171.4 515.209 172.264 515.209 173.248ZM510.349 170.08C509.629 170.08 509.017 170.296 508.513 170.728C508.021 171.148 507.721 171.712 507.613 172.42H513.067C512.971 171.724 512.677 171.16 512.185 170.728C511.693 170.296 511.081 170.08 510.349 170.08ZM526.785 164.644V178H524.625V176.758C524.253 177.214 523.791 177.556 523.239 177.784C522.699 178.012 522.099 178.126 521.439 178.126C520.515 178.126 519.681 177.922 518.937 177.514C518.205 177.106 517.629 176.53 517.209 175.786C516.789 175.03 516.579 174.166 516.579 173.194C516.579 172.222 516.789 171.364 517.209 170.62C517.629 169.876 518.205 169.3 518.937 168.892C519.681 168.484 520.515 168.28 521.439 168.28C522.075 168.28 522.657 168.388 523.185 168.604C523.713 168.82 524.163 169.144 524.535 169.576V164.644H526.785ZM521.709 176.2C522.249 176.2 522.735 176.08 523.167 175.84C523.599 175.588 523.941 175.234 524.193 174.778C524.445 174.322 524.571 173.794 524.571 173.194C524.571 172.594 524.445 172.066 524.193 171.61C523.941 171.154 523.599 170.806 523.167 170.566C522.735 170.314 522.249 170.188 521.709 170.188C521.169 170.188 520.683 170.314 520.251 170.566C519.819 170.806 519.477 171.154 519.225 171.61C518.973 172.066 518.847 172.594 518.847 173.194C518.847 173.794 518.973 174.322 519.225 174.778C519.477 175.234 519.819 175.588 520.251 175.84C520.683 176.08 521.169 176.2 521.709 176.2Z" fill="#252626"/>
<rect x="77.5" y="244.5" width="145" height="50" rx="25" fill="#FAFBFC"/>
<rect x="77.5" y="244.5" width="145" height="50" rx="25" stroke="#F0F1F2"/>
<path d="M113 261.75C113 262.99 111.99 264 110.75 264H107.25C106.63 264 106.07 263.75 105.66 263.34C105.25 262.93 105 262.37 105 261.75C105 260.51 106.01 259.5 107.25 259.5H110.75C111.37 259.5 111.93 259.75 112.34 260.16C112.75 260.57 113 261.13 113 261.75Z" fill="#22514D"/>
<path d="M115.83 262.531C115.6 262.341 115.34 262.191 115.06 262.081C114.77 261.971 114.48 262.201 114.42 262.501C114.08 264.211 112.57 265.501 110.75 265.501H107.25C106.25 265.501 105.31 265.111 104.6 264.401C104.08 263.881 103.72 263.221 103.58 262.511C103.52 262.211 103.22 261.971 102.93 262.091C101.77 262.561 101 263.621 101 265.751V275.501C101 278.501 102.79 279.501 105 279.501H113C115.21 279.501 117 278.501 117 275.501V265.751C117 264.121 116.55 263.121 115.83 262.531ZM105 269.751H109C109.41 269.751 109.75 270.091 109.75 270.501C109.75 270.911 109.41 271.251 109 271.251H105C104.59 271.251 104.25 270.911 104.25 270.501C104.25 270.091 104.59 269.751 105 269.751ZM113 275.251H105C104.59 275.251 104.25 274.911 104.25 274.501C104.25 274.091 104.59 273.751 105 273.751H113C113.41 273.751 113.75 274.091 113.75 274.501C113.75 274.911 113.41 275.251 113 275.251Z" fill="#22514D"/>
<path d="M139.512 271.248C139.512 271.404 139.5 271.626 139.476 271.914H131.934C132.066 272.622 132.408 273.186 132.96 273.606C133.524 274.014 134.22 274.218 135.048 274.218C136.104 274.218 136.974 273.87 137.658 273.174L138.864 274.56C138.432 275.076 137.886 275.466 137.226 275.73C136.566 275.994 135.822 276.126 134.994 276.126C133.938 276.126 133.008 275.916 132.204 275.496C131.4 275.076 130.776 274.494 130.332 273.75C129.9 272.994 129.684 272.142 129.684 271.194C129.684 270.258 129.894 269.418 130.314 268.674C130.746 267.918 131.34 267.33 132.096 266.91C132.852 266.49 133.704 266.28 134.652 266.28C135.588 266.28 136.422 266.49 137.154 266.91C137.898 267.318 138.474 267.9 138.882 268.656C139.302 269.4 139.512 270.264 139.512 271.248ZM134.652 268.08C133.932 268.08 133.32 268.296 132.816 268.728C132.324 269.148 132.024 269.712 131.916 270.42H137.37C137.274 269.724 136.98 269.16 136.488 268.728C135.996 268.296 135.384 268.08 134.652 268.08ZM141.363 270.06H146.313V271.932H141.363V270.06ZM153.329 270.726L151.331 272.778V276H148.991V263.4H151.331V269.862L157.559 263.4H160.187L154.895 269.034L160.511 276H157.775L153.329 270.726ZM167.342 266.28C168.554 266.28 169.526 266.634 170.258 267.342C170.99 268.05 171.356 269.1 171.356 270.492V276H169.106V270.78C169.106 269.94 168.908 269.31 168.512 268.89C168.116 268.458 167.552 268.242 166.82 268.242C165.992 268.242 165.338 268.494 164.858 268.998C164.378 269.49 164.138 270.204 164.138 271.14V276H161.888V262.644H164.138V267.504C164.51 267.108 164.966 266.808 165.506 266.604C166.058 266.388 166.67 266.28 167.342 266.28ZM177.882 266.28C179.298 266.28 180.378 266.622 181.122 267.306C181.878 267.978 182.256 268.998 182.256 270.366V276H180.132V274.83C179.856 275.25 179.46 275.574 178.944 275.802C178.44 276.018 177.828 276.126 177.108 276.126C176.388 276.126 175.758 276.006 175.218 275.766C174.678 275.514 174.258 275.172 173.958 274.74C173.67 274.296 173.526 273.798 173.526 273.246C173.526 272.382 173.844 271.692 174.48 271.176C175.128 270.648 176.142 270.384 177.522 270.384H180.006V270.24C180.006 269.568 179.802 269.052 179.394 268.692C178.998 268.332 178.404 268.152 177.612 268.152C177.072 268.152 176.538 268.236 176.01 268.404C175.494 268.572 175.056 268.806 174.696 269.106L173.814 267.468C174.318 267.084 174.924 266.79 175.632 266.586C176.34 266.382 177.09 266.28 177.882 266.28ZM177.576 274.488C178.14 274.488 178.638 274.362 179.07 274.11C179.514 273.846 179.826 273.474 180.006 272.994V271.878H177.684C176.388 271.878 175.74 272.304 175.74 273.156C175.74 273.564 175.902 273.888 176.226 274.128C176.55 274.368 177 274.488 177.576 274.488ZM190.922 275.478C190.658 275.694 190.334 275.856 189.95 275.964C189.578 276.072 189.182 276.126 188.762 276.126C187.706 276.126 186.89 275.85 186.314 275.298C185.738 274.746 185.45 273.942 185.45 272.886V268.26H183.866V266.46H185.45V264.264H187.7V266.46H190.274V268.26H187.7V272.832C187.7 273.3 187.814 273.66 188.042 273.912C188.27 274.152 188.6 274.272 189.032 274.272C189.536 274.272 189.956 274.14 190.292 273.876L190.922 275.478ZM196.445 266.28C197.861 266.28 198.941 266.622 199.685 267.306C200.441 267.978 200.819 268.998 200.819 270.366V276H198.695V274.83C198.419 275.25 198.023 275.574 197.507 275.802C197.003 276.018 196.391 276.126 195.671 276.126C194.951 276.126 194.321 276.006 193.781 275.766C193.241 275.514 192.821 275.172 192.521 274.74C192.233 274.296 192.089 273.798 192.089 273.246C192.089 272.382 192.407 271.692 193.043 271.176C193.691 270.648 194.705 270.384 196.085 270.384H198.569V270.24C198.569 269.568 198.365 269.052 197.957 268.692C197.561 268.332 196.967 268.152 196.175 268.152C195.635 268.152 195.101 268.236 194.573 268.404C194.057 268.572 193.619 268.806 193.259 269.106L192.377 267.468C192.881 267.084 193.487 266.79 194.195 266.586C194.903 266.382 195.653 266.28 196.445 266.28ZM196.139 274.488C196.703 274.488 197.201 274.362 197.633 274.11C198.077 273.846 198.389 273.474 198.569 272.994V271.878H196.247C194.951 271.878 194.303 272.304 194.303 273.156C194.303 273.564 194.465 273.888 194.789 274.128C195.113 274.368 195.563 274.488 196.139 274.488Z" fill="#252626"/>
<rect x="299.5" y="359.5" width="100" height="50" rx="25" fill="#FAFBFC"/>
<rect x="299.5" y="359.5" width="100" height="50" rx="25" stroke="#F0F1F2"/>
<path d="M335 376.75C335 377.99 333.99 379 332.75 379H329.25C328.63 379 328.07 378.75 327.66 378.34C327.25 377.93 327 377.37 327 376.75C327 375.51 328.01 374.5 329.25 374.5H332.75C333.37 374.5 333.93 374.75 334.34 375.16C334.75 375.57 335 376.13 335 376.75Z" fill="#22514D"/>
<path d="M337.83 377.531C337.6 377.341 337.34 377.191 337.06 377.081C336.77 376.971 336.48 377.201 336.42 377.501C336.08 379.211 334.57 380.501 332.75 380.501H329.25C328.25 380.501 327.31 380.111 326.6 379.401C326.08 378.881 325.72 378.221 325.58 377.511C325.52 377.211 325.22 376.971 324.93 377.091C323.77 377.561 323 378.621 323 380.751V390.501C323 393.501 324.79 394.501 327 394.501H335C337.21 394.501 339 393.501 339 390.501V380.751C339 379.121 338.55 378.121 337.83 377.531ZM327 384.751H331C331.41 384.751 331.75 385.091 331.75 385.501C331.75 385.911 331.41 386.251 331 386.251H327C326.59 386.251 326.25 385.911 326.25 385.501C326.25 385.091 326.59 384.751 327 384.751ZM335 390.251H327C326.59 390.251 326.25 389.911 326.25 389.501C326.25 389.091 326.59 388.751 327 388.751H335C335.41 388.751 335.75 389.091 335.75 389.501C335.75 389.911 335.41 390.251 335 390.251Z" fill="#22514D"/>
<path d="M358.578 391.18C357.294 391.18 356.136 390.904 355.104 390.352C354.072 389.788 353.262 389.014 352.674 388.03C352.086 387.034 351.792 385.924 351.792 384.7C351.792 383.476 352.086 382.372 352.674 381.388C353.262 380.392 354.072 379.618 355.104 379.066C356.136 378.502 357.294 378.22 358.578 378.22C359.862 378.22 361.02 378.502 362.052 379.066C363.084 379.618 363.894 380.386 364.482 381.37C365.07 382.354 365.364 383.464 365.364 384.7C365.364 385.936 365.07 387.046 364.482 388.03C363.894 389.014 363.084 389.788 362.052 390.352C361.02 390.904 359.862 391.18 358.578 391.18ZM358.578 389.128C359.418 389.128 360.174 388.942 360.846 388.57C361.518 388.186 362.046 387.658 362.43 386.986C362.814 386.302 363.006 385.54 363.006 384.7C363.006 383.86 362.814 383.104 362.43 382.432C362.046 381.748 361.518 381.22 360.846 380.848C360.174 380.464 359.418 380.272 358.578 380.272C357.738 380.272 356.982 380.464 356.31 380.848C355.638 381.22 355.11 381.748 354.726 382.432C354.342 383.104 354.15 383.86 354.15 384.7C354.15 385.54 354.342 386.302 354.726 386.986C355.11 387.658 355.638 388.186 356.31 388.57C356.982 388.942 357.738 389.128 358.578 389.128ZM373.676 391.18C372.404 391.18 371.252 390.904 370.22 390.352C369.2 389.788 368.396 389.014 367.808 388.03C367.232 387.046 366.944 385.936 366.944 384.7C366.944 383.464 367.238 382.354 367.826 381.37C368.414 380.386 369.218 379.618 370.238 379.066C371.27 378.502 372.422 378.22 373.694 378.22C374.726 378.22 375.668 378.4 376.52 378.76C377.372 379.12 378.092 379.642 378.68 380.326L377.168 381.748C376.256 380.764 375.134 380.272 373.802 380.272C372.938 380.272 372.164 380.464 371.48 380.848C370.796 381.22 370.262 381.742 369.878 382.414C369.494 383.086 369.302 383.848 369.302 384.7C369.302 385.552 369.494 386.314 369.878 386.986C370.262 387.658 370.796 388.186 371.48 388.57C372.164 388.942 372.938 389.128 373.802 389.128C375.134 389.128 376.256 388.63 377.168 387.634L378.68 389.074C378.092 389.758 377.366 390.28 376.502 390.64C375.65 391 374.708 391.18 373.676 391.18Z" fill="#252626"/>
<defs>
<filter id="filter0_f_1199_8426" x="79" y="56.6699" width="497" height="497" filterUnits="userSpaceOnUse" color-interpolation-filters="sRGB">
<feFlood flood-opacity="0" result="BackgroundImageFix"/>
<feBlend mode="normal" in="SourceGraphic" in2="BackgroundImageFix" result="shape"/>
<feGaussianBlur stdDeviation="60" result="effect1_foregroundBlur_1199_8426"/>
</filter>
<linearGradient id="paint0_linear_1199_8426" x1="220.398" y1="76.0569" x2="518.57" y2="139.471" gradientUnits="userSpaceOnUse">
<stop offset="0.06" stop-color="#2B896C"/>
<stop offset="0.82" stop-color="#042D2B"/>
</linearGradient>
<linearGradient id="paint1_linear_1199_8426" x1="271.835" y1="192.796" x2="388.944" y2="218.521" gradientUnits="userSpaceOnUse">
<stop offset="0.06" stop-color="#2B896C"/>
<stop offset="0.82" stop-color="#042D2B"/>
</linearGradient>
<radialGradient id="paint2_radial_1199_8426" cx="0" cy="0" r="1" gradientUnits="userSpaceOnUse" gradientTransform="translate(314 280.67) rotate(90) scale(450)">
<stop offset="0.264" stop-color="#F5F6F7" stop-opacity="0"/>
<stop offset="0.624" stop-color="#F5F6F7"/>
</radialGradient>
<clipPath id="clip0_1199_8426">
<rect width="627" height="562" fill="white"/>
</clipPath>
</defs>
</svg>
