<svg width="327" height="303" viewBox="0 0 327 303" fill="none" xmlns="http://www.w3.org/2000/svg">
<rect y="0.658447" width="326.702" height="302" rx="10" fill="#FAFFFF"/>
<path d="M31.1172 39.3832V40.6584H25.261V30.4279H26.7785V39.3832H31.1172ZM34.9208 33.3061C35.4528 33.3061 35.9325 33.394 36.3599 33.5697C36.7922 33.7407 37.1579 33.9901 37.4571 34.3178C37.7611 34.6408 37.9938 35.0326 38.1553 35.4933C38.3168 35.9493 38.3975 36.4622 38.3975 37.0322C38.3975 37.6021 38.3168 38.1174 38.1553 38.5781C37.9938 39.0388 37.7611 39.4307 37.4571 39.7537C37.1579 40.0766 36.7922 40.326 36.3599 40.5017C35.9325 40.6727 35.4528 40.7582 34.9208 40.7582C34.3841 40.7582 33.8997 40.6727 33.4675 40.5017C33.04 40.326 32.6743 40.0766 32.3703 39.7537C32.0663 39.4307 31.8312 39.0388 31.665 38.5781C31.5035 38.1174 31.4228 37.6021 31.4228 37.0322C31.4228 36.4622 31.5035 35.9493 31.665 35.4933C31.8312 35.0326 32.0663 34.6408 32.3703 34.3178C32.6743 33.9901 33.04 33.7407 33.4675 33.5697C33.8997 33.394 34.3841 33.3061 34.9208 33.3061ZM34.9208 39.6753C35.6048 39.6753 36.1153 39.4449 36.4526 38.9842C36.7898 38.5235 36.9584 37.8752 36.9584 37.0393C36.9584 36.2034 36.7898 35.555 36.4526 35.0943C36.1153 34.6289 35.6048 34.3962 34.9208 34.3962C34.2274 34.3962 33.7097 34.6289 33.3677 35.0943C33.0305 35.555 32.8619 36.2034 32.8619 37.0393C32.8619 37.8752 33.0305 38.5235 33.3677 38.9842C33.7097 39.4449 34.2274 39.6753 34.9208 39.6753ZM43.8382 37.4454C43.273 37.4644 42.7933 37.5095 42.399 37.5807C42.0048 37.6472 41.6842 37.7375 41.4373 37.8515C41.1903 37.9654 41.0122 38.1008 40.9029 38.2575C40.7937 38.4095 40.7391 38.5805 40.7391 38.7705C40.7391 38.951 40.7676 39.1077 40.8246 39.2407C40.8863 39.3689 40.9671 39.4758 41.0668 39.5613C41.1713 39.642 41.2924 39.7014 41.4301 39.7394C41.5679 39.7774 41.7175 39.7964 41.879 39.7964C42.0927 39.7964 42.2874 39.775 42.4632 39.7323C42.6436 39.6895 42.8123 39.6302 42.969 39.5542C43.1257 39.4734 43.2753 39.3761 43.4178 39.2621C43.5603 39.1481 43.7004 39.0175 43.8382 38.8702V37.4454ZM39.763 34.4318C40.1668 34.0471 40.6037 33.7597 41.0739 33.5697C41.5489 33.3797 42.069 33.2848 42.6341 33.2848C43.0474 33.2848 43.4131 33.3536 43.7313 33.4914C44.0495 33.6244 44.3179 33.812 44.5363 34.0542C44.7548 34.2964 44.9187 34.5861 45.0279 34.9234C45.1419 35.2606 45.1989 35.6334 45.1989 36.0419V40.6584H44.5791C44.4414 40.6584 44.3369 40.6371 44.2656 40.5943C44.1944 40.5468 44.1374 40.4613 44.0946 40.3379L43.945 39.7038C43.7598 39.8748 43.5769 40.0268 43.3965 40.1597C43.216 40.288 43.026 40.3996 42.8265 40.4946C42.6318 40.5848 42.4228 40.6537 42.1996 40.7012C41.9763 40.7487 41.7294 40.7724 41.4586 40.7724C41.1737 40.7724 40.9053 40.7344 40.6536 40.6584C40.4066 40.5777 40.1905 40.4566 40.0053 40.2951C39.82 40.1336 39.6728 39.9318 39.5636 39.6895C39.4591 39.4473 39.4068 39.1647 39.4068 38.8417C39.4068 38.5568 39.4828 38.2837 39.6348 38.0224C39.7915 37.7565 40.0433 37.519 40.39 37.31C40.7415 37.101 41.1974 36.93 41.7579 36.7971C42.3231 36.6641 43.0165 36.5881 43.8382 36.5691V36.0419C43.8382 35.4957 43.7218 35.0872 43.4891 34.8165C43.2563 34.5458 42.9144 34.4104 42.4632 34.4104C42.1592 34.4104 41.9027 34.4484 41.6937 34.5244C41.4895 34.6004 41.3114 34.6859 41.1594 34.7809C41.0122 34.8711 40.8816 34.9542 40.7676 35.0302C40.6583 35.1062 40.5443 35.1442 40.4256 35.1442C40.3306 35.1442 40.2475 35.1181 40.1763 35.0658C40.1098 35.0136 40.0551 34.9519 40.0124 34.8806L39.763 34.4318ZM48.3625 34.4247C48.5192 34.2584 48.683 34.1064 48.854 33.9687C49.025 33.831 49.2055 33.7146 49.3955 33.6196C49.5902 33.5199 49.7968 33.4439 50.0153 33.3916C50.2385 33.3346 50.476 33.3061 50.7277 33.3061C51.1267 33.3061 51.4758 33.3726 51.775 33.5056C52.079 33.6386 52.3331 33.8262 52.5373 34.0684C52.7415 34.3059 52.8959 34.5933 53.0004 34.9305C53.1049 35.2677 53.1571 35.6405 53.1571 36.049V40.6584H51.7608V36.049C51.7608 35.5313 51.642 35.13 51.4045 34.845C51.1671 34.5553 50.8037 34.4104 50.3145 34.4104C49.9583 34.4104 49.6235 34.4959 49.31 34.6669C49.0013 34.8331 48.7139 35.0611 48.4479 35.3508V40.6584H47.0587V33.4201H47.8922C48.087 33.4201 48.2081 33.5127 48.2556 33.698L48.3625 34.4247ZM63.8835 36.8469L62.366 32.8787C62.2568 32.6079 62.1475 32.266 62.0383 31.8528C61.986 32.057 61.9314 32.247 61.8744 32.4227C61.8222 32.5984 61.7699 32.7552 61.7177 32.8929L60.2073 36.8469H63.8835ZM66.8828 40.6584H65.7144C65.5815 40.6584 65.4722 40.6252 65.3867 40.5587C65.3012 40.4922 65.2395 40.4067 65.2015 40.3022L64.2967 37.9298H59.787L58.8822 40.3022C58.849 40.3925 58.7872 40.4756 58.697 40.5516C58.6067 40.6228 58.4975 40.6584 58.3693 40.6584H57.2009L61.276 30.4279H62.8077L66.8828 40.6584ZM67.8473 40.6584V33.4201H68.6808C68.8756 33.4201 68.9967 33.5127 69.0442 33.698L69.1439 34.389C69.4099 34.0708 69.7044 33.812 70.0273 33.6125C70.3551 33.4082 70.7374 33.3061 71.1744 33.3061C71.6541 33.3061 72.0435 33.4391 72.3427 33.7051C72.642 33.9663 72.8604 34.3225 72.9982 34.7737C73.1027 34.5173 73.238 34.2964 73.4043 34.1112C73.5705 33.9259 73.7557 33.774 73.96 33.6552C74.1642 33.5365 74.3803 33.4486 74.6083 33.3916C74.841 33.3346 75.0761 33.3061 75.3136 33.3061C75.6983 33.3061 76.0403 33.3679 76.3395 33.4914C76.6435 33.6101 76.8999 33.7858 77.1089 34.0186C77.3179 34.2513 77.477 34.5386 77.5863 34.8806C77.6955 35.2226 77.7501 35.612 77.7501 36.049V40.6584H76.3537V36.049C76.3537 35.5076 76.235 35.0991 75.9975 34.8236C75.7648 34.5481 75.4228 34.4104 74.9716 34.4104C74.7721 34.4104 74.5822 34.446 74.4017 34.5173C74.2212 34.5838 74.0621 34.6859 73.9243 34.8236C73.7914 34.9614 73.6845 35.1323 73.6038 35.3366C73.5278 35.5408 73.4898 35.7783 73.4898 36.049V40.6584H72.0934V36.049C72.0934 35.4886 71.9818 35.0753 71.7585 34.8094C71.5353 34.5434 71.2076 34.4104 70.7754 34.4104C70.4762 34.4104 70.1983 34.4888 69.9418 34.6455C69.6854 34.8022 69.4503 35.016 69.2365 35.2867V40.6584H67.8473ZM82.704 33.3061C83.2359 33.3061 83.7156 33.394 84.1431 33.5697C84.5753 33.7407 84.941 33.9901 85.2402 34.3178C85.5442 34.6408 85.7769 35.0326 85.9384 35.4933C86.0999 35.9493 86.1807 36.4622 86.1807 37.0322C86.1807 37.6021 86.0999 38.1174 85.9384 38.5781C85.7769 39.0388 85.5442 39.4307 85.2402 39.7537C84.941 40.0766 84.5753 40.326 84.1431 40.5017C83.7156 40.6727 83.2359 40.7582 82.704 40.7582C82.1673 40.7582 81.6828 40.6727 81.2506 40.5017C80.8232 40.326 80.4574 40.0766 80.1535 39.7537C79.8495 39.4307 79.6144 39.0388 79.4482 38.5781C79.2867 38.1174 79.2059 37.6021 79.2059 37.0322C79.2059 36.4622 79.2867 35.9493 79.4482 35.4933C79.6144 35.0326 79.8495 34.6408 80.1535 34.3178C80.4574 33.9901 80.8232 33.7407 81.2506 33.5697C81.6828 33.394 82.1673 33.3061 82.704 33.3061ZM82.704 39.6753C83.3879 39.6753 83.8985 39.4449 84.2357 38.9842C84.5729 38.5235 84.7415 37.8752 84.7415 37.0393C84.7415 36.2034 84.5729 35.555 84.2357 35.0943C83.8985 34.6289 83.3879 34.3962 82.704 34.3962C82.0105 34.3962 81.4928 34.6289 81.1509 35.0943C80.8137 35.555 80.6451 36.2034 80.6451 37.0393C80.6451 37.8752 80.8137 38.5235 81.1509 38.9842C81.4928 39.4449 82.0105 39.6753 82.704 39.6753ZM93.7515 33.4201V40.6584H92.9179C92.728 40.6584 92.6045 40.5658 92.5475 40.3806L92.4477 39.6539C92.291 39.8202 92.1271 39.9721 91.9562 40.1099C91.7852 40.2476 91.6023 40.3663 91.4076 40.4661C91.2129 40.5611 91.0062 40.6347 90.7878 40.6869C90.5693 40.7439 90.3342 40.7724 90.0825 40.7724C89.6835 40.7724 89.332 40.7059 89.0281 40.573C88.7288 40.44 88.4771 40.2547 88.2729 40.0173C88.0686 39.775 87.9143 39.4853 87.8098 39.1481C87.7053 38.8109 87.6531 38.438 87.6531 38.0296V33.4201H89.0494V38.0296C89.0494 38.5473 89.1682 38.951 89.4056 39.2407C89.6431 39.5257 90.0065 39.6682 90.4957 39.6682C90.8519 39.6682 91.1844 39.585 91.4931 39.4188C91.8018 39.2478 92.0915 39.0151 92.3622 38.7206V33.4201H93.7515ZM96.9944 34.4247C97.1511 34.2584 97.315 34.1064 97.486 33.9687C97.657 33.831 97.8374 33.7146 98.0274 33.6196C98.2222 33.5199 98.4288 33.4439 98.6472 33.3916C98.8705 33.3346 99.108 33.3061 99.3597 33.3061C99.7586 33.3061 100.108 33.3726 100.407 33.5056C100.711 33.6386 100.965 33.8262 101.169 34.0684C101.373 34.3059 101.528 34.5933 101.632 34.9305C101.737 35.2677 101.789 35.6405 101.789 36.049V40.6584H100.393V36.049C100.393 35.5313 100.274 35.13 100.036 34.845C99.799 34.5553 99.4357 34.4104 98.9465 34.4104C98.5903 34.4104 98.2554 34.4959 97.9419 34.6669C97.6332 34.8331 97.3459 35.0611 97.0799 35.3508V40.6584H95.6906V33.4201H96.5242C96.7189 33.4201 96.84 33.5127 96.8875 33.698L96.9944 34.4247ZM105.832 40.7724C105.248 40.7724 104.797 40.6086 104.478 40.2809C104.165 39.9531 104.008 39.4853 104.008 38.8774V34.5458H103.167C103.087 34.5458 103.018 34.522 102.961 34.4745C102.909 34.4223 102.882 34.3463 102.882 34.2465V33.6837L104.058 33.5199L104.371 31.3612C104.39 31.2804 104.426 31.2187 104.478 31.176C104.535 31.1285 104.607 31.1047 104.692 31.1047H105.397V33.5341H107.449V34.5458H105.397V38.7847C105.397 39.0697 105.466 39.2835 105.604 39.4259C105.746 39.5637 105.927 39.6325 106.145 39.6325C106.274 39.6325 106.383 39.6159 106.473 39.5827C106.568 39.5494 106.649 39.5138 106.715 39.4758C106.782 39.4331 106.839 39.3951 106.886 39.3618C106.934 39.3286 106.977 39.3119 107.015 39.3119C107.062 39.3119 107.098 39.3238 107.121 39.3476C107.15 39.3666 107.178 39.3998 107.207 39.4473L107.62 40.117C107.392 40.326 107.121 40.4875 106.808 40.6015C106.494 40.7154 106.169 40.7724 105.832 40.7724Z" fill="black"/>
<path d="M24.7145 65.6584C24.7145 65.0234 24.7939 64.4555 24.9526 63.9547C25.1236 63.454 25.3434 63.0021 25.6121 62.5991C25.893 62.196 26.1984 61.8235 26.5281 61.4816C26.8701 61.1396 27.2182 60.8037 27.5723 60.474C28.4639 59.6435 29.0929 58.8924 29.4593 58.2206C29.8379 57.5489 30.0272 56.8833 30.0272 56.2238C30.0272 55.833 29.9783 55.4544 29.8806 55.088C29.7829 54.7216 29.6058 54.4223 29.3494 54.1903C29.0929 53.946 28.7326 53.83 28.2685 53.8422C27.9387 53.8422 27.6395 53.9216 27.3708 54.0804C27.1144 54.2269 26.9189 54.404 26.7846 54.6117C26.9189 54.746 27.0105 54.9048 27.0594 55.088C27.1205 55.2712 27.151 55.4299 27.151 55.5643C27.151 55.6986 27.1082 55.8635 27.0228 56.0589C26.9373 56.2421 26.8029 56.4009 26.6197 56.5352C26.4487 56.6696 26.2106 56.7367 25.9053 56.7367C25.5266 56.7123 25.2335 56.5719 25.0259 56.3154C24.8305 56.0589 24.7328 55.7536 24.7328 55.3994C24.7328 55.1185 24.8183 54.8193 24.9893 54.5017C25.1602 54.172 25.4167 53.8605 25.7587 53.5674C26.1007 53.2621 26.5159 53.0178 27.0044 52.8346C27.5052 52.6392 28.0792 52.5415 28.7265 52.5415C29.215 52.5415 29.6974 52.6026 30.1737 52.7247C30.6623 52.8469 31.1081 53.0423 31.5111 53.311C31.9141 53.5796 32.2317 53.9338 32.4637 54.3735C32.708 54.8132 32.8301 55.3567 32.8301 56.004C32.8301 56.3093 32.7751 56.6329 32.6652 56.9749C32.5553 57.3047 32.3538 57.671 32.0607 58.0741C31.7676 58.4649 31.3584 58.9168 30.8333 59.4297C30.3081 59.9427 29.6303 60.5411 28.7998 61.2251C28.128 61.7747 27.6334 62.2754 27.3159 62.7273C26.9983 63.1792 26.809 63.5273 26.748 63.7715L30.3386 63.8631C30.6195 63.8753 30.8577 63.857 31.0531 63.8082C31.2607 63.7471 31.4195 63.6311 31.5294 63.4601C31.6515 63.2769 31.7126 63.0143 31.7126 62.6723H32.8851L32.7385 65.6584H24.7145ZM38.6025 65.9516C37.8086 65.9516 37.1308 65.8233 36.569 65.5668C36.0072 65.3104 35.5736 64.9928 35.2683 64.6142C34.9752 64.2234 34.8286 63.8326 34.8286 63.4418C34.8286 63.0876 34.9386 62.77 35.1584 62.4891C35.3782 62.2082 35.6775 62.0617 36.0561 62.0495C36.3614 62.0372 36.5995 62.0983 36.7705 62.2327C36.9415 62.3548 37.0636 62.5075 37.1369 62.6907C37.2102 62.8738 37.2468 63.0509 37.2468 63.2219C37.2468 63.3196 37.2285 63.4418 37.1919 63.5883C37.1675 63.7227 37.1186 63.8509 37.0453 63.973C37.1064 64.1074 37.2163 64.2295 37.3751 64.3394C37.5339 64.4371 37.7109 64.5165 37.9064 64.5776C38.114 64.6264 38.3033 64.6509 38.4743 64.6509C38.9628 64.6509 39.3536 64.5226 39.6467 64.2661C39.9521 64.0097 40.1719 63.6799 40.3062 63.2769C40.4406 62.8738 40.5078 62.4647 40.5078 62.0495C40.5078 61.7686 40.4894 61.451 40.4528 61.0968C40.4162 60.7427 40.3246 60.3946 40.178 60.0526C40.0437 59.7106 39.8238 59.4297 39.5185 59.2099C39.2254 58.9901 38.8223 58.8801 38.3094 58.8801C38.1384 58.8801 37.9369 58.9046 37.7048 58.9534C37.4728 58.9901 37.2163 59.0572 36.9354 59.1549C36.6667 59.2527 36.3919 59.387 36.111 59.558L35.3233 58.9534L35.25 52.8346H39.9948C40.4223 52.8346 40.7581 52.7675 41.0024 52.6331C41.2589 52.4866 41.3871 52.1568 41.3871 51.6439H42.5412L42.413 54.6117L36.6606 54.7216V57.9825C36.9415 57.8604 37.2896 57.7565 37.7048 57.671C38.1201 57.5856 38.5109 57.5428 38.8773 57.5428C39.6345 57.5428 40.294 57.6527 40.8558 57.8726C41.4176 58.0924 41.8817 58.3977 42.2481 58.7886C42.6145 59.1672 42.8832 59.6068 43.0542 60.1076C43.2374 60.5961 43.329 61.1152 43.329 61.6647C43.329 62.6052 43.0969 63.399 42.6328 64.0463C42.181 64.6814 41.5947 65.1577 40.8742 65.4753C40.1536 65.7928 39.3964 65.9516 38.6025 65.9516ZM50.1533 65.6584V64.4493C50.4342 64.4371 50.6663 64.4005 50.8495 64.3394C51.0449 64.2784 51.1914 64.1379 51.2891 63.9181C51.3991 63.6982 51.454 63.3441 51.454 62.8555V55.8391C51.454 55.5093 51.4601 55.1918 51.4723 54.8865C51.4968 54.5811 51.5151 54.3491 51.5273 54.1903C51.3319 54.2025 51.0876 54.2147 50.7945 54.2269C50.5014 54.2269 50.2877 54.233 50.1533 54.2453V52.8346H55.4111V54.0437C55.1424 54.056 54.9103 54.0926 54.7149 54.1537C54.5195 54.2147 54.3668 54.3552 54.2569 54.575C54.1592 54.7826 54.1104 55.1368 54.1104 55.6376V62.654C54.1104 62.9838 54.1043 63.2952 54.0921 63.5883C54.0798 63.8814 54.0615 64.1074 54.0371 64.2661H56.4919C57.2125 64.2661 57.7743 64.0158 58.1774 63.515C58.5926 63.0143 58.8002 62.2632 58.8002 61.2617H60.0276L59.9177 65.6584H50.1533ZM66.392 65.6584C66.3676 65.4875 66.3492 65.347 66.337 65.2371C66.337 65.115 66.3309 64.9745 66.3187 64.8157C65.9035 65.231 65.4638 65.5241 64.9997 65.6951C64.5356 65.8661 64.0654 65.9516 63.5891 65.9516C62.8074 65.9516 62.1968 65.7195 61.7571 65.2554C61.3174 64.7913 61.0976 64.2112 61.0976 63.515C61.0976 62.9288 61.2442 62.4281 61.5373 62.0128C61.8426 61.5976 62.2395 61.2617 62.7281 61.0052C63.2288 60.7365 63.7784 60.535 64.3768 60.4007C64.9875 60.2541 65.5981 60.1686 66.2088 60.1442V59.1916C66.2088 58.874 66.1661 58.587 66.0806 58.3306C66.0073 58.0741 65.8729 57.8726 65.6775 57.726C65.4943 57.5794 65.2317 57.5123 64.8898 57.5245C64.6577 57.5367 64.4318 57.5856 64.2119 57.671C63.9921 57.7565 63.8028 57.8787 63.644 58.0374C63.7417 58.1474 63.8028 58.2695 63.8272 58.4038C63.8517 58.526 63.8639 58.6359 63.8639 58.7336C63.8639 58.9779 63.7662 59.2343 63.5708 59.503C63.3753 59.7595 63.0639 59.8816 62.6365 59.8694C62.2701 59.8572 61.9892 59.729 61.7937 59.4847C61.5983 59.2404 61.5006 58.9534 61.5006 58.6237C61.5006 58.1351 61.6716 57.7138 62.0136 57.3596C62.3678 56.9932 62.838 56.7123 63.4242 56.5169C64.0104 56.3093 64.6577 56.2055 65.3661 56.2055C66.4408 56.2055 67.2713 56.4864 67.8576 57.0482C68.456 57.5978 68.7552 58.4832 68.7552 59.7045C68.7552 60.1198 68.7552 60.474 68.7552 60.7671C68.7552 61.0602 68.7491 61.3533 68.7369 61.6464C68.7369 61.9395 68.7369 62.2937 68.7369 62.709C68.7369 62.88 68.7308 63.1242 68.7186 63.4418C68.7064 63.7471 68.6881 64.0402 68.6636 64.3211C68.8713 64.2967 69.0911 64.2845 69.3232 64.2845C69.5552 64.2723 69.7323 64.2661 69.8544 64.2661V65.6584H66.392ZM66.1905 61.4449C65.8485 61.4816 65.5249 61.5426 65.2195 61.6281C64.9142 61.7136 64.6455 61.8296 64.4135 61.9762C64.1936 62.1227 64.0165 62.2998 63.8822 62.5075C63.7601 62.7151 63.699 62.9471 63.699 63.2036C63.7112 63.5456 63.8211 63.7898 64.0288 63.9364C64.2364 64.083 64.4745 64.1562 64.7432 64.1562C65.0241 64.1562 65.2867 64.0952 65.531 63.973C65.7752 63.8509 65.9951 63.6921 66.1905 63.4967C66.1905 63.3746 66.1905 63.2586 66.1905 63.1486C66.1905 63.0265 66.1905 62.9044 66.1905 62.7823C66.1905 62.5624 66.1905 62.3426 66.1905 62.1227C66.1905 61.8907 66.1905 61.6647 66.1905 61.4449ZM70.8676 65.6584V64.4677C71.2095 64.4677 71.4538 64.4005 71.6004 64.2661C71.7591 64.1318 71.8568 63.9425 71.8935 63.6982C71.9423 63.4418 71.9667 63.1548 71.9667 62.8372V55.3078C71.9667 55.088 71.9729 54.8376 71.9851 54.5567C71.9973 54.2636 72.0156 53.9827 72.04 53.714C71.8446 53.7262 71.6126 53.7384 71.3439 53.7506C71.0874 53.7506 70.892 53.7567 70.7576 53.7689V52.3766C71.3194 52.3766 71.7897 52.3461 72.1683 52.285C72.5591 52.224 72.8705 52.1507 73.1026 52.0652C73.3346 51.9797 73.4873 51.9003 73.5606 51.8271H74.5681V60.1808H75.4475L76.7665 58.6603C76.9253 58.4893 77.0535 58.3428 77.1512 58.2206C77.2611 58.0985 77.3711 57.9886 77.481 57.8909H76.51V56.4986H80.632V57.671C80.2045 57.7199 79.8259 57.8237 79.4962 57.9825C79.1664 58.129 78.8794 58.3061 78.6351 58.5138C78.4031 58.7214 78.2016 58.9229 78.0306 59.1183L76.8581 60.4373C77.0413 60.5228 77.2184 60.6511 77.3894 60.822C77.5726 60.9808 77.7924 61.2312 78.0489 61.5731L79.2763 63.1853C79.3496 63.2708 79.4412 63.3868 79.5511 63.5334C79.6732 63.6799 79.8076 63.8265 79.9541 63.973C80.1007 64.1074 80.2595 64.2234 80.4305 64.3211C80.6014 64.4188 80.7785 64.4677 80.9617 64.4677V65.6584H78.855C78.4641 65.6584 78.1222 65.5241 77.8291 65.2554C77.5359 64.9745 77.2001 64.5776 76.8215 64.0646C76.6016 63.7715 76.3696 63.4601 76.1253 63.1303C75.8933 62.7884 75.6734 62.4708 75.4658 62.1777C75.2704 61.8724 75.1116 61.6342 74.9895 61.4632L74.5681 61.4816V62.709C74.5681 62.88 74.562 63.1242 74.5498 63.4418C74.5376 63.7471 74.5193 64.0402 74.4949 64.3211C74.6903 64.2967 74.904 64.2845 75.1361 64.2845C75.3681 64.2723 75.5513 64.2661 75.6856 64.2661V65.6584H70.8676ZM87.7517 64.4677C88.0937 64.4677 88.338 64.4005 88.4845 64.2661C88.6433 64.1318 88.741 63.9425 88.7776 63.6982C88.8265 63.4418 88.8509 63.1548 88.8509 62.8372L88.8326 60.2358C88.8204 59.442 88.6982 58.8557 88.4662 58.4771C88.2341 58.0863 87.8616 57.8909 87.3487 57.8909C87.0434 57.8909 86.738 57.9581 86.4327 58.0924C86.1396 58.2267 85.8892 58.3855 85.6816 58.5687V62.709C85.6816 62.88 85.6755 63.1242 85.6633 63.4418C85.6511 63.7471 85.6327 64.0402 85.6083 64.3211C85.8159 64.2967 86.0358 64.2845 86.2678 64.2845C86.4999 64.2723 86.677 64.2661 86.7991 64.2661V65.6584H81.9993V64.4677C82.3413 64.4677 82.5856 64.4005 82.7321 64.2661C82.8909 64.1318 82.9886 63.9425 83.0252 63.6982C83.0619 63.4418 83.0802 63.1548 83.0802 62.8372V55.3078C83.0802 55.088 83.0863 54.8376 83.0985 54.5567C83.1107 54.2636 83.1291 53.9827 83.1535 53.714C82.9581 53.7262 82.726 53.7384 82.4573 53.7506C82.2009 53.7506 82.0054 53.7567 81.8711 53.7689V52.3766C82.4451 52.3766 82.9214 52.3461 83.3 52.285C83.6909 52.224 83.9962 52.1507 84.216 52.0652C84.4481 51.9797 84.6068 51.9003 84.6923 51.8271H85.6816V57.2314C85.9259 57.036 86.2068 56.865 86.5243 56.7184C86.8419 56.5597 87.1655 56.4375 87.4953 56.352C87.825 56.2543 88.112 56.2055 88.3563 56.2055C89.4799 56.2055 90.2737 56.5291 90.7378 57.1764C91.2142 57.8115 91.4523 58.8374 91.4523 60.2541V62.709C91.4523 62.88 91.4462 63.1242 91.434 63.4418C91.4218 63.7471 91.4035 64.0402 91.379 64.3211C91.5744 64.2967 91.7882 64.2845 92.0202 64.2845C92.2523 64.2723 92.4355 64.2661 92.5698 64.2661V65.6584H87.7517V64.4677Z" fill="black"/>
<path d="M146.637 40.6584H145.112V30.4279H146.637V40.6584ZM150.069 34.4247C150.225 34.2584 150.389 34.1064 150.56 33.9687C150.731 33.831 150.912 33.7146 151.102 33.6196C151.296 33.5199 151.503 33.4439 151.721 33.3916C151.945 33.3346 152.182 33.3061 152.434 33.3061C152.833 33.3061 153.182 33.3726 153.481 33.5056C153.785 33.6386 154.039 33.8262 154.243 34.0684C154.448 34.3059 154.602 34.5933 154.706 34.9305C154.811 35.2677 154.863 35.6405 154.863 36.049V40.6584H153.467V36.049C153.467 35.5313 153.348 35.13 153.111 34.845C152.873 34.5553 152.51 34.4104 152.021 34.4104C151.664 34.4104 151.33 34.4959 151.016 34.6669C150.707 34.8331 150.42 35.0611 150.154 35.3508V40.6584H148.765V33.4201H149.598C149.793 33.4201 149.914 33.5127 149.962 33.698L150.069 34.4247ZM158.906 40.7724C158.322 40.7724 157.871 40.6086 157.552 40.2809C157.239 39.9531 157.082 39.4853 157.082 38.8774V34.5458H156.242C156.161 34.5458 156.092 34.522 156.035 34.4745C155.983 34.4223 155.957 34.3463 155.957 34.2465V33.6837L157.132 33.5199L157.446 31.3612C157.465 31.2804 157.5 31.2187 157.552 31.176C157.609 31.1285 157.681 31.1047 157.766 31.1047H158.471V33.5341H160.523V34.5458H158.471V38.7847C158.471 39.0697 158.54 39.2835 158.678 39.4259C158.821 39.5637 159.001 39.6325 159.22 39.6325C159.348 39.6325 159.457 39.6159 159.547 39.5827C159.642 39.5494 159.723 39.5138 159.789 39.4758C159.856 39.4331 159.913 39.3951 159.96 39.3618C160.008 39.3286 160.051 39.3119 160.089 39.3119C160.136 39.3119 160.172 39.3238 160.196 39.3476C160.224 39.3666 160.253 39.3998 160.281 39.4473L160.694 40.117C160.466 40.326 160.196 40.4875 159.882 40.6015C159.569 40.7154 159.243 40.7724 158.906 40.7724ZM163.114 34.8094C163.346 34.3344 163.627 33.9616 163.954 33.6908C164.282 33.4201 164.676 33.2848 165.137 33.2848C165.294 33.2848 165.441 33.3038 165.579 33.3418C165.721 33.375 165.845 33.4272 165.949 33.4985L165.857 34.5458C165.823 34.674 165.745 34.7381 165.622 34.7381C165.555 34.7381 165.455 34.7262 165.322 34.7025C165.189 34.674 165.047 34.6598 164.895 34.6598C164.672 34.6598 164.475 34.693 164.304 34.7595C164.133 34.8212 163.978 34.9162 163.84 35.0445C163.707 35.168 163.589 35.3223 163.484 35.5076C163.38 35.688 163.282 35.8946 163.192 36.1274V40.6584H161.803V33.4201H162.601C162.753 33.4201 162.855 33.4486 162.907 33.5056C162.964 33.5579 163.005 33.6528 163.028 33.7906L163.114 34.8094ZM171.551 36.2342C171.551 35.9588 171.511 35.7047 171.43 35.4719C171.354 35.2392 171.24 35.0373 171.088 34.8664C170.936 34.6954 170.751 34.5624 170.532 34.4674C170.314 34.3724 170.062 34.3249 169.777 34.3249C169.193 34.3249 168.732 34.4935 168.395 34.8307C168.063 35.168 167.851 35.6358 167.761 36.2342H171.551ZM172.698 39.6254C172.527 39.8249 172.33 39.9983 172.107 40.1455C171.884 40.288 171.646 40.4043 171.394 40.4946C171.143 40.5848 170.882 40.6513 170.611 40.6941C170.345 40.7368 170.081 40.7582 169.82 40.7582C169.321 40.7582 168.858 40.6751 168.431 40.5088C168.008 40.3379 167.64 40.0909 167.326 39.7679C167.018 39.4402 166.776 39.0365 166.6 38.5568C166.429 38.0723 166.343 37.5166 166.343 36.8897C166.343 36.3862 166.422 35.9184 166.578 35.4862C166.735 35.0492 166.958 34.6693 167.248 34.3463C167.543 34.0233 167.901 33.7692 168.324 33.584C168.747 33.3987 169.222 33.3061 169.749 33.3061C170.19 33.3061 170.597 33.3797 170.967 33.527C171.342 33.6695 171.665 33.8785 171.936 34.1539C172.207 34.4294 172.418 34.769 172.57 35.1727C172.727 35.5764 172.805 36.0371 172.805 36.5548C172.805 36.7686 172.781 36.9134 172.734 36.9894C172.686 37.0607 172.598 37.0963 172.47 37.0963H167.725C167.74 37.5285 167.801 37.9061 167.911 38.229C168.02 38.5473 168.17 38.8132 168.36 39.027C168.554 39.2407 168.785 39.3998 169.051 39.5043C169.317 39.6088 169.613 39.661 169.941 39.661C170.25 39.661 170.516 39.6254 170.739 39.5542C170.967 39.4829 171.162 39.4069 171.323 39.3262C171.489 39.2407 171.627 39.1623 171.736 39.0911C171.85 39.0198 171.95 38.9842 172.036 38.9842C172.15 38.9842 172.238 39.027 172.299 39.1125L172.698 39.6254ZM178.566 34.6669C178.528 34.7286 178.487 34.7737 178.445 34.8022C178.402 34.826 178.347 34.8379 178.281 34.8379C178.205 34.8379 178.119 34.8117 178.024 34.7595C177.934 34.7073 177.822 34.6503 177.689 34.5885C177.561 34.5268 177.409 34.4698 177.234 34.4175C177.058 34.3653 176.849 34.3392 176.607 34.3392C176.407 34.3392 176.224 34.3653 176.058 34.4175C175.897 34.465 175.759 34.5339 175.645 34.6241C175.531 34.7096 175.443 34.8141 175.381 34.9376C175.319 35.0563 175.289 35.1846 175.289 35.3223C175.289 35.5028 175.341 35.6524 175.445 35.7712C175.555 35.8899 175.695 35.992 175.866 36.0775C176.041 36.163 176.239 36.2414 176.457 36.3126C176.68 36.3791 176.906 36.4503 177.134 36.5263C177.367 36.6023 177.592 36.6902 177.811 36.7899C178.034 36.8849 178.231 37.006 178.402 37.1533C178.578 37.2958 178.718 37.4691 178.822 37.6733C178.931 37.8776 178.986 38.1269 178.986 38.4214C178.986 38.7586 178.924 39.0721 178.801 39.3618C178.682 39.6468 178.504 39.8938 178.267 40.1027C178.034 40.3117 177.744 40.4756 177.397 40.5943C177.051 40.7131 176.654 40.7724 176.208 40.7724C175.709 40.7724 175.248 40.6893 174.826 40.5231C174.403 40.3569 174.049 40.1455 173.764 39.889L174.092 39.3547C174.13 39.2882 174.177 39.2383 174.234 39.2051C174.291 39.1671 174.367 39.1481 174.462 39.1481C174.552 39.1481 174.645 39.1813 174.74 39.2478C174.835 39.3143 174.949 39.3879 175.082 39.4687C175.215 39.5447 175.376 39.6159 175.566 39.6824C175.756 39.7442 175.994 39.775 176.279 39.775C176.516 39.775 176.723 39.7465 176.899 39.6895C177.074 39.6278 177.219 39.5471 177.333 39.4473C177.452 39.3428 177.54 39.2241 177.597 39.0911C177.654 38.9581 177.682 38.818 177.682 38.6708C177.682 38.4808 177.628 38.324 177.519 38.2006C177.414 38.0723 177.274 37.9631 177.098 37.8728C176.927 37.7826 176.73 37.7042 176.507 37.6377C176.284 37.5712 176.056 37.5 175.823 37.424C175.59 37.348 175.362 37.2601 175.139 37.1604C174.916 37.0607 174.716 36.9348 174.541 36.7828C174.37 36.6308 174.229 36.4456 174.12 36.2271C174.016 36.0086 173.963 35.7427 173.963 35.4292C173.963 35.149 174.02 34.8806 174.134 34.6241C174.253 34.3677 174.422 34.1421 174.64 33.9473C174.864 33.7526 175.137 33.5982 175.46 33.4842C175.787 33.3655 176.16 33.3061 176.578 33.3061C177.058 33.3061 177.49 33.3821 177.875 33.5341C178.264 33.6861 178.597 33.8951 178.872 34.1611L178.566 34.6669ZM182.756 40.7724C182.172 40.7724 181.72 40.6086 181.402 40.2809C181.089 39.9531 180.932 39.4853 180.932 38.8774V34.5458H180.091C180.011 34.5458 179.942 34.522 179.885 34.4745C179.833 34.4223 179.806 34.3463 179.806 34.2465V33.6837L180.982 33.5199L181.295 31.3612C181.314 31.2804 181.35 31.2187 181.402 31.176C181.459 31.1285 181.531 31.1047 181.616 31.1047H182.321V33.5341H184.373V34.5458H182.321V38.7847C182.321 39.0697 182.39 39.2835 182.528 39.4259C182.67 39.5637 182.851 39.6325 183.069 39.6325C183.198 39.6325 183.307 39.6159 183.397 39.5827C183.492 39.5494 183.573 39.5138 183.639 39.4758C183.706 39.4331 183.763 39.3951 183.81 39.3618C183.858 39.3286 183.901 39.3119 183.939 39.3119C183.986 39.3119 184.022 39.3238 184.045 39.3476C184.074 39.3666 184.102 39.3998 184.131 39.4473L184.544 40.117C184.316 40.326 184.045 40.4875 183.732 40.6015C183.418 40.7154 183.093 40.7724 182.756 40.7724Z" fill="black"/>
<path d="M145.316 65.6584V64.4493C145.597 64.4371 145.829 64.4005 146.013 64.3394C146.208 64.2784 146.355 64.1379 146.452 63.9181C146.562 63.6982 146.617 63.3441 146.617 62.8555V55.5093L144.62 56.7001L143.961 55.6009L148.156 52.5415H149.255V62.654C149.255 62.9838 149.249 63.3013 149.237 63.6066C149.237 63.912 149.225 64.144 149.2 64.3028C149.396 64.2784 149.64 64.2661 149.933 64.2661C150.238 64.2539 150.452 64.2478 150.574 64.2478V65.6584H145.316ZM157.373 65.9516C156.445 65.9516 155.657 65.7562 155.01 65.3653C154.363 64.9623 153.844 64.4371 153.453 63.7898C153.062 63.1303 152.775 62.4097 152.592 61.6281C152.421 60.8465 152.335 60.0709 152.335 59.3015C152.335 58.5321 152.439 57.7504 152.647 56.9566C152.867 56.1627 153.19 55.436 153.618 54.7765C154.045 54.1048 154.577 53.5674 155.212 53.1644C155.847 52.7491 156.592 52.5415 157.447 52.5415C158.338 52.5415 159.095 52.743 159.718 53.1461C160.353 53.5491 160.866 54.0804 161.257 54.7399C161.648 55.3872 161.935 56.1017 162.118 56.8833C162.301 57.6649 162.393 58.4405 162.393 59.2099C162.393 59.9671 162.289 60.7427 162.082 61.5365C161.886 62.3304 161.581 63.0632 161.166 63.7349C160.75 64.3944 160.225 64.9318 159.59 65.347C158.967 65.75 158.228 65.9516 157.373 65.9516ZM157.483 64.6509C157.911 64.6509 158.265 64.5165 158.546 64.2478C158.827 63.9791 159.04 63.6127 159.187 63.1486C159.346 62.6723 159.456 62.1288 159.517 61.5182C159.578 60.9075 159.608 60.2663 159.608 59.5946C159.608 58.8496 159.578 58.1351 159.517 57.4512C159.468 56.7551 159.364 56.1383 159.205 55.6009C159.059 55.0513 158.839 54.6178 158.546 54.3002C158.265 53.9827 157.886 53.8239 157.41 53.8239C156.97 53.8239 156.604 53.9583 156.311 54.2269C156.018 54.4956 155.78 54.8681 155.596 55.3444C155.425 55.8208 155.303 56.3642 155.23 56.9749C155.157 57.5856 155.12 58.2329 155.12 58.9168C155.12 59.4297 155.132 59.9549 155.157 60.4923C155.193 61.0297 155.254 61.5487 155.34 62.0495C155.438 62.538 155.572 62.9777 155.743 63.3685C155.914 63.7593 156.14 64.0707 156.421 64.3028C156.714 64.5348 157.068 64.6509 157.483 64.6509ZM166.984 65.9699L165.794 64.8524L176.236 52.5415L177.573 53.7506L166.984 65.9699ZM167.662 59.7045C166.917 59.7045 166.282 59.5397 165.757 59.2099C165.244 58.8679 164.853 58.4283 164.585 57.8909C164.328 57.3535 164.2 56.7856 164.2 56.1872C164.2 55.6131 164.334 55.0513 164.603 54.5017C164.872 53.9521 165.262 53.4942 165.775 53.1278C166.288 52.7491 166.905 52.5537 167.626 52.5415C168.383 52.5293 169.018 52.7003 169.531 53.0545C170.044 53.3964 170.429 53.8361 170.685 54.3735C170.954 54.9109 171.088 55.4605 171.088 56.0223C171.088 56.6696 170.935 57.2741 170.63 57.8359C170.325 58.3977 169.916 58.8496 169.403 59.1916C168.89 59.5336 168.31 59.7045 167.662 59.7045ZM167.681 58.239C167.986 58.239 168.218 58.1413 168.377 57.9458C168.548 57.7382 168.67 57.4817 168.743 57.1764C168.816 56.8711 168.853 56.578 168.853 56.2971C168.853 56.0528 168.835 55.7963 168.798 55.5276C168.761 55.259 168.694 55.0086 168.597 54.7765C168.511 54.5323 168.389 54.3369 168.23 54.1903C168.071 54.0315 167.876 53.9521 167.644 53.9521C167.339 53.9521 167.094 54.0682 166.911 54.3002C166.74 54.5323 166.618 54.801 166.545 55.1063C166.484 55.4116 166.453 55.6803 166.453 55.9124C166.453 56.1444 166.472 56.3948 166.508 56.6635C166.545 56.9322 166.606 57.1886 166.691 57.4329C166.777 57.6649 166.899 57.8604 167.058 58.0191C167.217 58.1657 167.424 58.239 167.681 58.239ZM175.851 65.9516C175.106 65.9516 174.471 65.7867 173.946 65.4569C173.433 65.115 173.042 64.6753 172.774 64.1379C172.517 63.6005 172.389 63.0326 172.389 62.4342C172.389 61.8602 172.523 61.2984 172.792 60.7488C173.061 60.1992 173.451 59.7412 173.964 59.3748C174.477 58.9962 175.094 58.8008 175.815 58.7886C176.56 58.7763 177.189 58.9473 177.702 59.3015C178.214 59.6435 178.605 60.0831 178.874 60.6205C179.143 61.1579 179.277 61.7075 179.277 62.2693C179.277 62.9044 179.124 63.5028 178.819 64.0646C178.514 64.6264 178.105 65.0844 177.592 65.4386C177.079 65.7806 176.499 65.9516 175.851 65.9516ZM175.87 64.486C176.175 64.486 176.407 64.3822 176.566 64.1745C176.737 63.9669 176.859 63.7166 176.932 63.4234C177.005 63.1181 177.042 62.825 177.042 62.5441C177.042 62.2998 177.024 62.0434 176.987 61.7747C176.95 61.506 176.883 61.2556 176.786 61.0236C176.7 60.7793 176.578 60.5839 176.419 60.4373C176.26 60.2786 176.065 60.1992 175.833 60.1992C175.528 60.1992 175.283 60.3152 175.1 60.5472C174.929 60.7793 174.807 61.048 174.734 61.3533C174.66 61.6586 174.624 61.9273 174.624 62.1594C174.624 62.3914 174.642 62.6418 174.679 62.9105C174.715 63.1792 174.776 63.4357 174.862 63.6799C174.96 63.912 175.088 64.1074 175.247 64.2661C175.405 64.4127 175.613 64.486 175.87 64.486Z" fill="black"/>
<path d="M232.721 30.4279V40.6584H231.395V33.3774C231.395 33.2681 231.398 33.1518 231.403 33.0283C231.412 32.9048 231.422 32.7789 231.431 32.6507L228.026 38.8987C227.907 39.1315 227.724 39.2478 227.477 39.2478H227.263C227.016 39.2478 226.836 39.1315 226.722 38.8987L223.252 32.6293C223.281 32.8953 223.295 33.1446 223.295 33.3774V40.6584H221.963V30.4279H223.088C223.221 30.4279 223.324 30.4421 223.395 30.4706C223.471 30.4944 223.542 30.5656 223.609 30.6844L227.028 36.8113C227.095 36.9348 227.156 37.0654 227.213 37.2031C227.27 37.3409 227.325 37.4786 227.377 37.6164C227.477 37.3361 227.593 37.0654 227.726 36.8042L231.082 30.6844C231.144 30.5656 231.21 30.4944 231.281 30.4706C231.357 30.4421 231.462 30.4279 231.595 30.4279H232.721ZM237.829 33.3061C238.361 33.3061 238.84 33.394 239.268 33.5697C239.7 33.7407 240.066 33.9901 240.365 34.3178C240.669 34.6408 240.902 35.0326 241.063 35.4933C241.225 35.9493 241.305 36.4622 241.305 37.0322C241.305 37.6021 241.225 38.1174 241.063 38.5781C240.902 39.0388 240.669 39.4307 240.365 39.7537C240.066 40.0766 239.7 40.326 239.268 40.5017C238.84 40.6727 238.361 40.7582 237.829 40.7582C237.292 40.7582 236.807 40.6727 236.375 40.5017C235.948 40.326 235.582 40.0766 235.278 39.7537C234.974 39.4307 234.739 39.0388 234.573 38.5781C234.411 38.1174 234.331 37.6021 234.331 37.0322C234.331 36.4622 234.411 35.9493 234.573 35.4933C234.739 35.0326 234.974 34.6408 235.278 34.3178C235.582 33.9901 235.948 33.7407 236.375 33.5697C236.807 33.394 237.292 33.3061 237.829 33.3061ZM237.829 39.6753C238.513 39.6753 239.023 39.4449 239.36 38.9842C239.698 38.5235 239.866 37.8752 239.866 37.0393C239.866 36.2034 239.698 35.555 239.36 35.0943C239.023 34.6289 238.513 34.3962 237.829 34.3962C237.135 34.3962 236.617 34.6289 236.275 35.0943C235.938 35.555 235.77 36.2034 235.77 37.0393C235.77 37.8752 235.938 38.5235 236.275 38.9842C236.617 39.4449 237.135 39.6753 237.829 39.6753ZM244.16 34.4247C244.317 34.2584 244.48 34.1064 244.651 33.9687C244.822 33.831 245.003 33.7146 245.193 33.6196C245.388 33.5199 245.594 33.4439 245.813 33.3916C246.036 33.3346 246.273 33.3061 246.525 33.3061C246.924 33.3061 247.273 33.3726 247.572 33.5056C247.876 33.6386 248.13 33.8262 248.335 34.0684C248.539 34.3059 248.693 34.5933 248.798 34.9305C248.902 35.2677 248.954 35.6405 248.954 36.049V40.6584H247.558V36.049C247.558 35.5313 247.439 35.13 247.202 34.845C246.964 34.5553 246.601 34.4104 246.112 34.4104C245.756 34.4104 245.421 34.4959 245.107 34.6669C244.799 34.8331 244.511 35.0611 244.245 35.3508V40.6584H242.856V33.4201H243.69C243.884 33.4201 244.005 33.5127 244.053 33.698L244.16 34.4247ZM252.997 40.7724C252.413 40.7724 251.962 40.6086 251.644 40.2809C251.33 39.9531 251.173 39.4853 251.173 38.8774V34.5458H250.333C250.252 34.5458 250.183 34.522 250.126 34.4745C250.074 34.4223 250.048 34.3463 250.048 34.2465V33.6837L251.223 33.5199L251.537 31.3612C251.556 31.2804 251.591 31.2187 251.644 31.176C251.701 31.1285 251.772 31.1047 251.857 31.1047H252.563V33.5341H254.615V34.5458H252.563V38.7847C252.563 39.0697 252.632 39.2835 252.769 39.4259C252.912 39.5637 253.092 39.6325 253.311 39.6325C253.439 39.6325 253.548 39.6159 253.638 39.5827C253.733 39.5494 253.814 39.5138 253.881 39.4758C253.947 39.4331 254.004 39.3951 254.052 39.3618C254.099 39.3286 254.142 39.3119 254.18 39.3119C254.227 39.3119 254.263 39.3238 254.287 39.3476C254.315 39.3666 254.344 39.3998 254.372 39.4473L254.786 40.117C254.558 40.326 254.287 40.4875 253.973 40.6015C253.66 40.7154 253.335 40.7724 252.997 40.7724ZM257.283 34.3392C257.587 34.0304 257.922 33.7811 258.288 33.5911C258.658 33.4011 259.083 33.3061 259.563 33.3061C259.962 33.3061 260.311 33.3726 260.61 33.5056C260.914 33.6386 261.169 33.8262 261.373 34.0684C261.577 34.3059 261.731 34.5933 261.836 34.9305C261.94 35.2677 261.993 35.6405 261.993 36.049V40.6584H260.596V36.049C260.596 35.5313 260.477 35.13 260.24 34.845C260.002 34.5553 259.639 34.4104 259.15 34.4104C258.794 34.4104 258.459 34.4959 258.145 34.6669C257.837 34.8331 257.549 35.0611 257.283 35.3508V40.6584H255.894V30.1429H257.283V34.3392ZM265.292 30.1429V40.6584H263.896V30.1429H265.292ZM273.603 33.4201L269.585 42.7601C269.542 42.8646 269.485 42.9454 269.414 43.0024C269.342 43.0593 269.238 43.0878 269.1 43.0878H268.067L269.392 40.2025L266.421 33.4201H267.633C267.751 33.4201 267.844 33.4486 267.91 33.5056C267.977 33.5626 268.024 33.6267 268.053 33.698L269.891 38.0438C269.929 38.1531 269.965 38.2647 269.998 38.3787C270.036 38.4879 270.067 38.5971 270.09 38.7064C270.124 38.5924 270.159 38.4808 270.197 38.3715C270.235 38.2575 270.276 38.1459 270.318 38.0367L272.092 33.698C272.126 33.6172 272.178 33.5507 272.249 33.4985C272.32 33.4462 272.401 33.4201 272.491 33.4201H273.603ZM284.554 39.4259L284.547 40.6584H278.206V30.4279H284.547V31.6604H279.731V34.902H283.606V36.0917H279.731V39.4259H284.554ZM297.187 30.4279V40.6584H295.862V33.3774C295.862 33.2681 295.865 33.1518 295.869 33.0283C295.879 32.9048 295.888 32.7789 295.898 32.6507L292.493 38.8987C292.374 39.1315 292.191 39.2478 291.944 39.2478H291.73C291.483 39.2478 291.303 39.1315 291.189 38.8987L287.719 32.6293C287.748 32.8953 287.762 33.1446 287.762 33.3774V40.6584H286.43V30.4279H287.555C287.688 30.4279 287.79 30.4421 287.862 30.4706C287.938 30.4944 288.009 30.5656 288.075 30.6844L291.495 36.8113C291.562 36.9348 291.623 37.0654 291.68 37.2031C291.737 37.3409 291.792 37.4786 291.844 37.6164C291.944 37.3361 292.06 37.0654 292.193 36.8042L295.549 30.6844C295.611 30.5656 295.677 30.4944 295.748 30.4706C295.824 30.4421 295.929 30.4279 296.062 30.4279H297.187ZM301.243 40.6584H299.718V30.4279H301.243V40.6584Z" fill="black"/>
<path d="M221.416 65.6584C221.416 65.0234 221.496 64.4555 221.654 63.9547C221.825 63.454 222.045 63.0021 222.314 62.5991C222.595 62.196 222.9 61.8235 223.23 61.4815C223.572 61.1396 223.92 60.8037 224.274 60.474C225.166 59.6435 225.795 58.8924 226.161 58.2206C226.54 57.5489 226.729 56.8833 226.729 56.2238C226.729 55.833 226.68 55.4544 226.582 55.088C226.485 54.7216 226.308 54.4223 226.051 54.1903C225.795 53.946 225.434 53.83 224.97 53.8422C224.641 53.8422 224.341 53.9216 224.073 54.0804C223.816 54.2269 223.621 54.404 223.486 54.6117C223.621 54.746 223.712 54.9048 223.761 55.088C223.822 55.2712 223.853 55.4299 223.853 55.5643C223.853 55.6986 223.81 55.8635 223.725 56.0589C223.639 56.2421 223.505 56.4009 223.322 56.5352C223.151 56.6696 222.912 56.7367 222.607 56.7367C222.228 56.7123 221.935 56.5719 221.728 56.3154C221.532 56.0589 221.435 55.7536 221.435 55.3994C221.435 55.1185 221.52 54.8193 221.691 54.5017C221.862 54.172 222.119 53.8605 222.46 53.5674C222.802 53.2621 223.218 53.0178 223.706 52.8346C224.207 52.6392 224.781 52.5415 225.428 52.5415C225.917 52.5415 226.399 52.6026 226.876 52.7247C227.364 52.8469 227.81 53.0423 228.213 53.311C228.616 53.5796 228.933 53.9338 229.165 54.3735C229.41 54.8132 229.532 55.3567 229.532 56.004C229.532 56.3093 229.477 56.6329 229.367 56.9749C229.257 57.3047 229.056 57.671 228.762 58.0741C228.469 58.4649 228.06 58.9168 227.535 59.4297C227.01 59.9427 226.332 60.5411 225.502 61.2251C224.83 61.7747 224.335 62.2754 224.018 62.7273C223.7 63.1792 223.511 63.5273 223.45 63.7715L227.04 63.8631C227.321 63.8753 227.559 63.857 227.755 63.8082C227.963 63.7471 228.121 63.6311 228.231 63.4601C228.353 63.2769 228.414 63.0143 228.414 62.6723H229.587L229.44 65.6584H221.416ZM236.55 65.9516C235.622 65.9516 234.834 65.7562 234.187 65.3653C233.539 64.9623 233.02 64.4371 232.63 63.7898C232.239 63.1303 231.952 62.4097 231.769 61.6281C231.598 60.8465 231.512 60.0709 231.512 59.3015C231.512 58.5321 231.616 57.7504 231.824 56.9566C232.043 56.1627 232.367 55.436 232.794 54.7765C233.222 54.1048 233.753 53.5674 234.388 53.1644C235.023 52.7491 235.768 52.5415 236.623 52.5415C237.515 52.5415 238.272 52.743 238.895 53.1461C239.53 53.5491 240.043 54.0804 240.434 54.7399C240.825 55.3872 241.112 56.1017 241.295 56.8833C241.478 57.6649 241.57 58.4405 241.57 59.2099C241.57 59.9671 241.466 60.7427 241.258 61.5365C241.063 62.3304 240.757 63.0632 240.342 63.7349C239.927 64.3944 239.402 64.9318 238.767 65.347C238.144 65.75 237.405 65.9516 236.55 65.9516ZM236.66 64.6509C237.087 64.6509 237.442 64.5165 237.722 64.2478C238.003 63.9791 238.217 63.6127 238.364 63.1486C238.522 62.6723 238.632 62.1288 238.693 61.5182C238.755 60.9075 238.785 60.2663 238.785 59.5946C238.785 58.8496 238.755 58.1351 238.693 57.4512C238.645 56.7551 238.541 56.1383 238.382 55.6009C238.235 55.0513 238.016 54.6178 237.722 54.3002C237.442 53.9827 237.063 53.8239 236.587 53.8239C236.147 53.8239 235.781 53.9582 235.487 54.2269C235.194 54.4956 234.956 54.8681 234.773 55.3444C234.602 55.8208 234.48 56.3642 234.407 56.9749C234.333 57.5856 234.297 58.2329 234.297 58.9168C234.297 59.4297 234.309 59.9549 234.333 60.4923C234.37 61.0297 234.431 61.5487 234.517 62.0495C234.614 62.538 234.749 62.9777 234.92 63.3685C235.091 63.7593 235.317 64.0707 235.597 64.3028C235.891 64.5348 236.245 64.6509 236.66 64.6509ZM244.446 69.0842L243.732 68.5713C243.866 68.4003 244.013 68.156 244.172 67.8385C244.343 67.521 244.489 67.1668 244.611 66.776C244.733 66.3973 244.788 66.0309 244.776 65.6768C244.691 65.7012 244.617 65.7134 244.556 65.7134C244.507 65.7256 244.452 65.7317 244.391 65.7317C244.062 65.7317 243.769 65.634 243.512 65.4386C243.256 65.2432 243.127 64.9379 243.127 64.5226C243.127 64.1562 243.243 63.8387 243.475 63.57C243.72 63.2891 244.043 63.1486 244.446 63.1486C245.008 63.1364 245.43 63.3196 245.71 63.6982C245.991 64.0646 246.132 64.5226 246.132 65.0722C246.132 65.463 246.071 65.8783 245.949 66.318C245.826 66.7576 245.637 67.2095 245.381 67.6736C245.136 68.1377 244.825 68.6079 244.446 69.0842ZM252.713 65.9516C251.785 65.9516 250.997 65.7562 250.35 65.3653C249.702 64.9623 249.183 64.4371 248.793 63.7898C248.402 63.1303 248.115 62.4097 247.932 61.6281C247.761 60.8465 247.675 60.0709 247.675 59.3015C247.675 58.5321 247.779 57.7504 247.986 56.9566C248.206 56.1627 248.53 55.436 248.957 54.7765C249.385 54.1048 249.916 53.5674 250.551 53.1644C251.186 52.7491 251.931 52.5415 252.786 52.5415C253.678 52.5415 254.435 52.743 255.058 53.1461C255.693 53.5491 256.206 54.0804 256.597 54.7399C256.988 55.3872 257.275 56.1017 257.458 56.8833C257.641 57.6649 257.733 58.4405 257.733 59.2099C257.733 59.9671 257.629 60.7427 257.421 61.5365C257.226 62.3304 256.92 63.0632 256.505 63.7349C256.09 64.3944 255.565 64.9318 254.93 65.347C254.307 65.75 253.568 65.9516 252.713 65.9516ZM252.823 64.6509C253.25 64.6509 253.605 64.5165 253.885 64.2478C254.166 63.9791 254.38 63.6127 254.527 63.1486C254.685 62.6723 254.795 62.1288 254.856 61.5182C254.917 60.9075 254.948 60.2663 254.948 59.5946C254.948 58.8496 254.917 58.1351 254.856 57.4512C254.808 56.7551 254.704 56.1383 254.545 55.6009C254.398 55.0513 254.179 54.6178 253.885 54.3002C253.605 53.9827 253.226 53.8239 252.75 53.8239C252.31 53.8239 251.944 53.9582 251.65 54.2269C251.357 54.4956 251.119 54.8681 250.936 55.3444C250.765 55.8208 250.643 56.3642 250.57 56.9749C250.496 57.5856 250.46 58.2329 250.46 58.9168C250.46 59.4297 250.472 59.9549 250.496 60.4923C250.533 61.0297 250.594 61.5487 250.679 62.0495C250.777 62.538 250.912 62.9777 251.083 63.3685C251.254 63.7593 251.479 64.0707 251.76 64.3028C252.053 64.5348 252.408 64.6509 252.823 64.6509ZM264.614 65.9516C263.686 65.9516 262.898 65.7562 262.251 65.3653C261.603 64.9623 261.084 64.4371 260.694 63.7898C260.303 63.1303 260.016 62.4097 259.833 61.6281C259.662 60.8465 259.576 60.0709 259.576 59.3015C259.576 58.5321 259.68 57.7504 259.888 56.9566C260.107 56.1627 260.431 55.436 260.858 54.7765C261.286 54.1048 261.817 53.5674 262.452 53.1644C263.087 52.7491 263.832 52.5415 264.687 52.5415C265.579 52.5415 266.336 52.743 266.959 53.1461C267.594 53.5491 268.107 54.0804 268.498 54.7399C268.889 55.3872 269.176 56.1017 269.359 56.8833C269.542 57.6649 269.634 58.4405 269.634 59.2099C269.634 59.9671 269.53 60.7427 269.322 61.5365C269.127 62.3304 268.821 63.0632 268.406 63.7349C267.991 64.3944 267.466 64.9318 266.831 65.347C266.208 65.75 265.469 65.9516 264.614 65.9516ZM264.724 64.6509C265.151 64.6509 265.506 64.5165 265.786 64.2478C266.067 63.9791 266.281 63.6127 266.428 63.1486C266.586 62.6723 266.696 62.1288 266.757 61.5182C266.819 60.9075 266.849 60.2663 266.849 59.5946C266.849 58.8496 266.819 58.1351 266.757 57.4512C266.709 56.7551 266.605 56.1383 266.446 55.6009C266.299 55.0513 266.08 54.6178 265.786 54.3002C265.506 53.9827 265.127 53.8239 264.651 53.8239C264.211 53.8239 263.845 53.9582 263.551 54.2269C263.258 54.4956 263.02 54.8681 262.837 55.3444C262.666 55.8208 262.544 56.3642 262.471 56.9749C262.397 57.5856 262.361 58.2329 262.361 58.9168C262.361 59.4297 262.373 59.9549 262.397 60.4923C262.434 61.0297 262.495 61.5487 262.581 62.0495C262.678 62.538 262.813 62.9777 262.984 63.3685C263.155 63.7593 263.381 64.0707 263.661 64.3028C263.955 64.5348 264.309 64.6509 264.724 64.6509ZM276.515 65.9516C275.587 65.9516 274.799 65.7562 274.152 65.3653C273.505 64.9623 272.985 64.4371 272.595 63.7898C272.204 63.1303 271.917 62.4097 271.734 61.6281C271.563 60.8465 271.477 60.0709 271.477 59.3015C271.477 58.5321 271.581 57.7504 271.789 56.9566C272.008 56.1627 272.332 55.436 272.76 54.7765C273.187 54.1048 273.718 53.5674 274.353 53.1644C274.988 52.7491 275.733 52.5415 276.588 52.5415C277.48 52.5415 278.237 52.743 278.86 53.1461C279.495 53.5491 280.008 54.0804 280.399 54.7399C280.79 55.3872 281.077 56.1017 281.26 56.8833C281.443 57.6649 281.535 58.4405 281.535 59.2099C281.535 59.9671 281.431 60.7427 281.223 61.5365C281.028 62.3304 280.723 63.0632 280.307 63.7349C279.892 64.3944 279.367 64.9318 278.732 65.347C278.109 65.75 277.37 65.9516 276.515 65.9516ZM276.625 64.6509C277.052 64.6509 277.407 64.5165 277.688 64.2478C277.968 63.9791 278.182 63.6127 278.329 63.1486C278.488 62.6723 278.597 62.1288 278.659 61.5182C278.72 60.9075 278.75 60.2663 278.75 59.5946C278.75 58.8496 278.72 58.1351 278.659 57.4512C278.61 56.7551 278.506 56.1383 278.347 55.6009C278.201 55.0513 277.981 54.6178 277.688 54.3002C277.407 53.9827 277.028 53.8239 276.552 53.8239C276.112 53.8239 275.746 53.9582 275.453 54.2269C275.159 54.4956 274.921 54.8681 274.738 55.3444C274.567 55.8208 274.445 56.3642 274.372 56.9749C274.298 57.5856 274.262 58.2329 274.262 58.9168C274.262 59.4297 274.274 59.9549 274.298 60.4923C274.335 61.0297 274.396 61.5487 274.482 62.0495C274.579 62.538 274.714 62.9777 274.885 63.3685C275.056 63.7593 275.282 64.0707 275.562 64.3028C275.856 64.5348 276.21 64.6509 276.625 64.6509Z" fill="black"/>
<path d="M13.3509 277.678C13.3509 258.108 17.2307 238.73 24.769 220.65C32.3072 202.571 43.3561 186.143 57.2849 172.305C71.2137 158.467 87.7495 147.491 105.948 140.002C124.147 132.513 143.653 128.658 163.351 128.658C183.049 128.658 202.555 132.513 220.753 140.002C238.952 147.491 255.488 158.467 269.417 172.305C283.346 186.143 294.395 202.571 301.933 220.65C309.471 238.73 313.351 258.108 313.351 277.678L254.729 277.678C254.729 265.756 252.366 253.951 247.773 242.937C243.181 231.923 236.45 221.916 227.965 213.486C219.48 205.056 209.406 198.369 198.32 193.807C187.233 189.245 175.351 186.897 163.351 186.897C151.351 186.897 139.468 189.245 128.382 193.807C117.295 198.369 107.222 205.056 98.7367 213.486C90.2515 221.916 83.5206 231.923 78.9284 242.937C74.3362 253.951 71.9727 265.756 71.9727 277.678H13.3509Z" fill="#22514D"/>
<path d="M13.3522 277.678C13.3522 244.94 24.2038 213.113 44.2306 187.114C64.2573 161.116 92.3445 142.392 124.153 133.837L139.472 190.052C120.095 195.263 102.985 206.669 90.7847 222.507C78.5847 238.346 71.974 257.734 71.974 277.678H13.3522Z" fill="#95BAB6"/>
<path d="M313.347 278.658C313.347 242.171 300.048 206.934 275.939 179.546L232.169 218.077C246.905 234.817 255.035 256.356 255.035 278.658H313.347Z" fill="#042927"/>
</svg>
