<svg width="582" height="349" viewBox="0 0 582 349" fill="none" xmlns="http://www.w3.org/2000/svg">
<rect y="0.658447" width="582" height="348" rx="10" fill="#FAFFFF"/>
<path d="M288.348 296.173C288.918 297.895 289.752 299.521 290.832 300.979C291 301.207 291.396 300.985 291.222 300.751C290.166 299.323 289.338 297.739 288.78 296.053C288.69 295.777 288.258 295.897 288.348 296.173Z" fill="#E0E0E0"/>
<path d="M292.153 300.825C291.979 299.007 291.805 297.189 291.631 295.371C291.601 295.083 291.151 295.083 291.181 295.371C291.355 297.189 291.529 299.007 291.703 300.825C291.733 301.113 292.183 301.113 292.153 300.825Z" fill="#E0E0E0"/>
<path d="M293.279 300.896C293.561 299.066 293.987 297.26 294.275 295.43C294.317 295.148 293.885 295.022 293.843 295.31C293.561 297.14 293.135 298.946 292.847 300.776C292.805 301.058 293.237 301.184 293.279 300.896Z" fill="#E0E0E0"/>
<path d="M392.348 289.415C392.918 291.137 393.752 292.763 394.832 294.221C395 294.449 395.396 294.227 395.222 293.993C394.166 292.565 393.338 290.981 392.78 289.295C392.69 289.019 392.258 289.139 392.348 289.415Z" fill="#E0E0E0"/>
<path d="M396.153 294.067C395.979 292.249 395.805 290.431 395.631 288.613C395.601 288.325 395.151 288.325 395.181 288.613C395.355 290.431 395.529 292.249 395.703 294.067C395.733 294.355 396.183 294.355 396.153 294.067Z" fill="#E0E0E0"/>
<path d="M397.279 294.138C397.561 292.308 397.987 290.502 398.275 288.672C398.317 288.39 397.885 288.264 397.843 288.552C397.561 290.382 397.135 292.188 396.847 294.018C396.805 294.3 397.237 294.426 397.279 294.138Z" fill="#E0E0E0"/>
<path d="M211.028 298.911C211.598 300.633 212.432 302.26 213.512 303.718C213.68 303.946 214.076 303.723 213.902 303.49C212.846 302.061 212.018 300.478 211.46 298.792C211.37 298.516 210.938 298.635 211.028 298.911Z" fill="#E0E0E0"/>
<path d="M214.837 303.563C214.663 301.745 214.489 299.927 214.315 298.109C214.285 297.821 213.835 297.821 213.865 298.109C214.039 299.927 214.213 301.745 214.387 303.563C214.417 303.851 214.867 303.851 214.837 303.563Z" fill="#E0E0E0"/>
<path d="M215.966 303.634C216.248 301.804 216.674 299.998 216.962 298.168C217.004 297.886 216.572 297.76 216.53 298.048C216.248 299.878 215.822 301.684 215.534 303.514C215.492 303.796 215.924 303.922 215.966 303.634Z" fill="#E0E0E0"/>
<path d="M421.235 255.251C421.805 256.973 422.639 258.599 423.719 260.057C423.887 260.285 424.283 260.057 424.109 259.829C423.053 258.401 422.225 256.817 421.667 255.131C421.577 254.855 421.145 254.975 421.235 255.251Z" fill="#E0E0E0"/>
<path d="M425.044 259.895C424.87 258.077 424.696 256.259 424.522 254.441C424.492 254.153 424.042 254.153 424.072 254.441C424.246 256.259 424.42 258.077 424.594 259.895C424.624 260.183 425.074 260.183 425.044 259.895Z" fill="#E0E0E0"/>
<path d="M426.169 259.974C426.451 258.144 426.877 256.338 427.165 254.508C427.207 254.226 426.775 254.1 426.733 254.388C426.451 256.218 426.025 258.024 425.737 259.854C425.695 260.136 426.127 260.262 426.169 259.974Z" fill="#E0E0E0"/>
<path d="M176.047 290.634C176.617 292.356 177.451 293.982 178.531 295.44C178.699 295.668 179.095 295.446 178.921 295.212C177.865 293.784 177.037 292.2 176.479 290.514C176.389 290.238 175.957 290.358 176.047 290.634Z" fill="#E0E0E0"/>
<path d="M179.856 295.278C179.682 293.46 179.508 291.642 179.334 289.824C179.304 289.536 178.854 289.536 178.884 289.824C179.058 291.642 179.232 293.46 179.406 295.278C179.436 295.566 179.886 295.566 179.856 295.278Z" fill="#E0E0E0"/>
<path d="M180.982 295.357C181.264 293.527 181.69 291.721 181.978 289.891C182.02 289.609 181.588 289.483 181.546 289.771C181.264 291.601 180.838 293.407 180.55 295.237C180.508 295.519 180.94 295.645 180.982 295.357Z" fill="#E0E0E0"/>
<path d="M305.762 277.161C306.332 278.883 307.166 280.51 308.246 281.968C308.414 282.196 308.81 281.967 308.636 281.739C307.58 280.311 306.752 278.728 306.194 277.042C306.104 276.766 305.672 276.885 305.762 277.161Z" fill="#E0E0E0"/>
<path d="M309.567 281.813C309.393 279.995 309.219 278.177 309.045 276.359C309.015 276.071 308.565 276.071 308.595 276.359C308.769 278.177 308.943 279.995 309.117 281.813C309.147 282.101 309.597 282.101 309.567 281.813Z" fill="#E0E0E0"/>
<path d="M310.693 281.884C310.975 280.054 311.401 278.248 311.689 276.418C311.731 276.136 311.299 276.01 311.257 276.298C310.975 278.128 310.549 279.934 310.261 281.764C310.219 282.046 310.651 282.172 310.693 281.884Z" fill="#E0E0E0"/>
<path d="M342.09 295.462C342.66 297.184 343.494 298.81 344.574 300.268C344.742 300.496 345.138 300.268 344.964 300.04C343.908 298.612 343.08 297.028 342.522 295.342C342.432 295.066 342 295.186 342.09 295.462Z" fill="#E0E0E0"/>
<path d="M345.899 300.106C345.725 298.288 345.551 296.47 345.377 294.652C345.347 294.364 344.897 294.364 344.927 294.652C345.101 296.47 345.275 298.288 345.449 300.106C345.479 300.394 345.929 300.394 345.899 300.106Z" fill="#E0E0E0"/>
<path d="M347.021 300.185C347.303 298.355 347.729 296.549 348.017 294.719C348.059 294.437 347.627 294.311 347.585 294.599C347.303 296.429 346.877 298.235 346.589 300.065C346.547 300.347 346.979 300.473 347.021 300.185Z" fill="#E0E0E0"/>
<path d="M159.743 254.935C160.313 256.657 161.147 258.283 162.227 259.741C162.395 259.969 162.791 259.747 162.617 259.513C161.561 258.085 160.733 256.501 160.175 254.815C160.085 254.539 159.653 254.659 159.743 254.935Z" fill="#E0E0E0"/>
<path d="M163.552 259.578C163.378 257.76 163.204 255.942 163.03 254.124C163 253.836 162.55 253.836 162.58 254.124C162.754 255.942 162.928 257.76 163.102 259.578C163.132 259.866 163.582 259.866 163.552 259.578Z" fill="#E0E0E0"/>
<path d="M164.681 259.656C164.963 257.826 165.389 256.02 165.677 254.184C165.719 253.902 165.287 253.776 165.245 254.064C164.963 255.894 164.537 257.7 164.249 259.53C164.207 259.812 164.639 259.938 164.681 259.65V259.656Z" fill="#E0E0E0"/>
<path d="M407.353 246.228H298.903C296.965 246.228 295.387 244.38 295.387 242.112V57.3838C295.387 55.1158 296.965 53.2678 298.903 53.2678H407.353C409.291 53.2678 410.869 55.1098 410.869 57.3838V242.118C410.869 244.386 409.291 246.234 407.353 246.234V246.228ZM298.903 53.4478C297.049 53.4478 295.537 55.2118 295.537 57.3838V242.118C295.537 244.29 297.049 246.054 298.903 246.054H407.353C409.207 246.054 410.719 244.29 410.719 242.118V57.3838C410.719 55.2118 409.207 53.4478 407.353 53.4478H298.903Z" fill="#E0E0E0"/>
<path d="M282.296 246.228H173.852C171.914 246.228 170.336 244.38 170.336 242.112V57.3838C170.336 55.1158 171.914 53.2678 173.852 53.2678H282.302C284.24 53.2678 285.818 55.1098 285.818 57.3838V242.118C285.818 244.386 284.24 246.234 282.302 246.234L282.296 246.228ZM173.852 53.4478C171.998 53.4478 170.486 55.2118 170.486 57.3838V242.118C170.486 244.29 171.998 246.054 173.852 246.054H282.302C284.156 246.054 285.668 244.29 285.668 242.118V57.3838C285.668 55.2118 284.156 53.4478 282.302 53.4478H173.852Z" fill="#E0E0E0"/>
<path d="M441 259.627H141V259.777H441V259.627Z" fill="#E0E0E0"/>
<path d="M181.636 268.182H172V268.332H181.636V268.182Z" fill="#E0E0E0"/>
<path d="M275.329 266.557H243.211V266.707H275.329V266.557Z" fill="#E0E0E0"/>
<path d="M203.988 273.756H182.238V273.906H203.988V273.756Z" fill="#E0E0E0"/>
<path d="M393.922 266.479H368.008V266.629H393.922V266.479Z" fill="#E0E0E0"/>
<path d="M403.068 266.479H399.27V266.629H403.068V266.479Z" fill="#E0E0E0"/>
<path d="M363.061 270.217H330.727V270.367H363.061V270.217Z" fill="#E0E0E0"/>
<path d="M298.913 144.048C302.231 150.702 309.983 153.57 316.229 150.456L318.449 149.346L306.437 125.256L304.217 126.366C297.971 129.48 295.595 137.4 298.913 144.048Z" fill="#E0E0E0"/>
<path d="M325.206 141.57C322.848 148.62 315.222 152.424 308.172 150.06C301.122 147.702 297.318 140.076 299.682 133.026C302.04 125.976 309.666 122.172 316.716 124.536C323.766 126.894 327.57 134.52 325.206 141.57Z" fill="#EBEBEB"/>
<path d="M302.796 142.112C305.454 147.44 311.922 149.606 317.25 146.948C322.578 144.29 324.744 137.822 322.086 132.494C319.428 127.166 312.96 125 307.632 127.658C302.304 130.316 300.138 136.784 302.796 142.112Z" fill="#F0F0F0"/>
<path d="M315.831 140.375C315.513 141.005 315.015 141.497 314.343 141.857L314.451 142.199C314.505 142.373 314.487 142.541 314.403 142.715C314.319 142.889 314.187 142.997 314.019 143.051C313.845 143.105 313.683 143.087 313.527 142.997C313.371 142.907 313.263 142.769 313.203 142.589L313.107 142.289C312.441 142.409 311.823 142.385 311.259 142.211C310.695 142.043 310.245 141.767 309.909 141.395C309.753 141.215 309.651 141.059 309.609 140.921C309.555 140.741 309.567 140.561 309.657 140.393C309.747 140.219 309.885 140.105 310.077 140.045C310.233 139.997 310.383 139.997 310.527 140.051C310.671 140.105 310.797 140.195 310.899 140.321C311.091 140.591 311.355 140.777 311.685 140.885C312.015 140.993 312.369 141.029 312.735 140.999L311.877 138.077C311.049 138.071 310.359 137.939 309.813 137.699C309.261 137.453 308.889 137.021 308.697 136.397C308.499 135.761 308.547 135.161 308.847 134.597C309.147 134.033 309.663 133.577 310.389 133.241L310.299 132.959C310.245 132.785 310.257 132.617 310.341 132.449C310.419 132.281 310.545 132.167 310.707 132.119C310.881 132.065 311.049 132.083 311.217 132.173C311.385 132.263 311.499 132.395 311.553 132.569L311.637 132.839C312.393 132.683 313.029 132.707 313.551 132.923C314.073 133.139 314.415 133.505 314.577 134.033C314.637 134.231 314.631 134.417 314.541 134.591C314.457 134.765 314.325 134.873 314.139 134.933C313.977 134.987 313.821 134.975 313.677 134.909C313.533 134.843 313.425 134.729 313.353 134.573C313.269 134.393 313.101 134.255 312.861 134.171C312.621 134.081 312.333 134.057 311.991 134.093L312.747 136.691C314.553 136.709 315.639 137.309 316.011 138.485C316.215 139.127 316.155 139.763 315.831 140.393V140.375ZM310.419 136.427C310.653 136.547 311.001 136.625 311.451 136.661L310.779 134.471C310.419 134.651 310.173 134.867 310.035 135.113C309.897 135.359 309.873 135.617 309.957 135.893C310.029 136.127 310.185 136.307 310.425 136.427H310.419ZM314.673 139.829C314.823 139.523 314.847 139.229 314.757 138.935C314.685 138.701 314.523 138.509 314.277 138.359C314.031 138.215 313.665 138.119 313.179 138.083L313.947 140.585C314.283 140.381 314.523 140.129 314.667 139.823L314.673 139.829Z" fill="#E0E0E0"/>
<path d="M302.266 133.211C304.528 127.595 310.918 124.877 316.534 127.139C322.15 129.401 324.868 135.791 322.606 141.401C324.046 136.049 321.256 130.463 316.114 128.393C310.498 126.131 304.114 128.849 301.852 134.465C301.966 134.039 302.104 133.619 302.272 133.211H302.266Z" fill="#E0E0E0"/>
<path d="M395.237 226.501C398.555 233.155 406.307 236.023 412.553 232.909L414.773 231.799L402.761 207.709L400.541 208.819C394.295 211.933 391.919 219.853 395.237 226.501Z" fill="#E0E0E0"/>
<path d="M421.534 224.023C419.176 231.073 411.55 234.877 404.5 232.513C397.45 230.155 393.646 222.529 396.01 215.479C398.368 208.429 405.994 204.625 413.044 206.989C420.094 209.347 423.898 216.973 421.534 224.023Z" fill="#EBEBEB"/>
<path d="M399.124 224.565C401.782 229.893 408.25 232.059 413.578 229.401C418.906 226.743 421.072 220.275 418.414 214.947C415.756 209.619 409.288 207.453 403.96 210.111C398.632 212.769 396.466 219.237 399.124 224.565Z" fill="#F0F0F0"/>
<path d="M412.163 222.824C411.845 223.454 411.347 223.946 410.675 224.306L410.783 224.648C410.837 224.822 410.819 224.99 410.735 225.164C410.651 225.338 410.519 225.446 410.351 225.5C410.183 225.554 410.015 225.536 409.859 225.446C409.703 225.356 409.595 225.218 409.535 225.038L409.439 224.738C408.773 224.858 408.155 224.834 407.591 224.66C407.027 224.492 406.577 224.216 406.241 223.844C406.085 223.664 405.983 223.508 405.941 223.37C405.887 223.19 405.899 223.01 405.989 222.842C406.079 222.668 406.217 222.554 406.409 222.494C406.565 222.446 406.715 222.446 406.859 222.5C407.003 222.554 407.129 222.644 407.231 222.77C407.423 223.04 407.687 223.226 408.017 223.334C408.347 223.442 408.701 223.478 409.067 223.448L408.209 220.526C407.381 220.52 406.691 220.388 406.145 220.148C405.593 219.902 405.221 219.47 405.029 218.846C404.831 218.21 404.879 217.61 405.179 217.046C405.479 216.482 405.995 216.026 406.721 215.69L406.631 215.408C406.577 215.234 406.589 215.066 406.673 214.898C406.751 214.73 406.877 214.616 407.039 214.568C407.213 214.514 407.381 214.532 407.549 214.622C407.717 214.712 407.831 214.844 407.885 215.018L407.969 215.288C408.725 215.132 409.361 215.162 409.883 215.372C410.405 215.588 410.747 215.954 410.909 216.482C410.969 216.68 410.963 216.866 410.873 217.04C410.789 217.214 410.657 217.322 410.471 217.382C410.309 217.436 410.153 217.424 410.009 217.358C409.865 217.292 409.757 217.178 409.685 217.022C409.601 216.842 409.433 216.704 409.193 216.62C408.953 216.53 408.665 216.506 408.323 216.542L409.079 219.14C410.885 219.158 411.971 219.758 412.343 220.934C412.547 221.576 412.487 222.212 412.163 222.836V222.824ZM406.751 218.876C406.985 218.996 407.333 219.074 407.783 219.11L407.111 216.92C406.751 217.1 406.505 217.316 406.367 217.562C406.229 217.808 406.205 218.066 406.289 218.342C406.361 218.576 406.517 218.756 406.757 218.876H406.751ZM411.005 222.278C411.155 221.972 411.179 221.678 411.089 221.384C411.017 221.15 410.855 220.958 410.609 220.808C410.363 220.664 409.997 220.568 409.511 220.532L410.279 223.034C410.615 222.83 410.855 222.578 410.999 222.272L411.005 222.278Z" fill="#E0E0E0"/>
<path d="M398.598 215.664C400.86 210.048 407.25 207.33 412.866 209.592C418.482 211.854 421.2 218.244 418.938 223.854C420.378 218.502 417.588 212.916 412.446 210.846C406.83 208.584 400.446 211.302 398.184 216.918C398.298 216.492 398.436 216.072 398.604 215.664H398.598Z" fill="#E0E0E0"/>
<path d="M263.221 68.5247C262.351 67.8647 261.079 67.7927 260.137 68.3447C258.889 65.8187 255.403 64.7027 252.913 66.0347C252.265 63.3107 249.583 61.2167 246.781 61.2527C243.979 61.2887 241.351 63.4427 240.763 66.1847C240.673 66.6227 240.607 67.0967 240.295 67.4147C239.791 67.9307 238.945 67.7567 238.225 67.7027C235.957 67.5287 233.677 69.1187 233.059 71.3087L264.283 71.1947C264.559 70.1387 264.085 69.1907 263.215 68.5307L263.221 68.5247Z" fill="#F0F0F0"/>
<path d="M415.77 86.6107C414.54 85.6807 412.746 85.5787 411.42 86.3527C409.656 82.7887 404.736 81.2107 401.232 83.0887C400.314 79.2487 396.528 76.2907 392.58 76.3387C388.632 76.3867 384.918 79.4287 384.096 83.2927C383.964 83.9047 383.88 84.5767 383.442 85.0267C382.728 85.7527 381.54 85.5127 380.52 85.4287C377.322 85.1767 374.1 87.4267 373.23 90.5107L417.288 90.3487C417.672 88.8547 417.012 87.5227 415.782 86.5927L415.77 86.6107Z" fill="#E0E0E0"/>
<path d="M358.529 65.6106C357.659 64.9506 356.387 64.8786 355.445 65.4306C354.197 62.9046 350.711 61.7886 348.221 63.1206C347.573 60.3966 344.891 58.3026 342.089 58.3386C339.287 58.3746 336.659 60.5286 336.071 63.2706C335.981 63.7086 335.915 64.1826 335.603 64.5006C335.099 65.0166 334.253 64.8426 333.533 64.7886C331.265 64.6146 328.985 66.2046 328.367 68.3946L359.591 68.2806C359.867 67.2246 359.393 66.2766 358.523 65.6166L358.529 65.6106Z" fill="#F0F0F0"/>
<path d="M191.861 182.118C190.991 181.458 189.719 181.386 188.777 181.938C187.529 179.412 184.043 178.296 181.553 179.628C180.905 176.904 178.223 174.81 175.421 174.846C172.619 174.882 169.991 177.036 169.403 179.778C169.313 180.216 169.247 180.69 168.935 181.008C168.431 181.524 167.585 181.35 166.865 181.296C164.597 181.122 162.317 182.712 161.699 184.902L192.923 184.788C193.199 183.732 192.725 182.784 191.855 182.124L191.861 182.118Z" fill="#F0F0F0"/>
<path d="M180.28 82.5175C183.424 88.8235 190.774 91.5415 196.696 88.5895L198.802 87.5395L187.414 64.6975L185.308 65.7475C179.386 68.6995 177.136 76.2055 180.28 82.5115V82.5175Z" fill="#E0E0E0"/>
<path d="M205.211 80.1733C202.973 86.8573 195.743 90.4633 189.059 88.2253C182.375 85.9873 178.769 78.7573 181.007 72.0733C183.245 65.3893 190.475 61.7833 197.159 64.0213C203.843 66.2593 207.449 73.4893 205.211 80.1733Z" fill="#EBEBEB"/>
<path d="M183.968 80.6858C186.488 85.7378 192.62 87.7898 197.672 85.2698C202.724 82.7498 204.776 76.6178 202.256 71.5658C199.736 66.5138 193.604 64.4618 188.552 66.9818C183.5 69.5018 181.448 75.6338 183.968 80.6858Z" fill="#F0F0F0"/>
<path d="M196.332 79.0404C196.026 79.6344 195.558 80.1024 194.922 80.4444L195.024 80.7684C195.078 80.9304 195.06 81.0924 194.976 81.2544C194.892 81.4164 194.772 81.5244 194.61 81.5724C194.448 81.6264 194.292 81.6084 194.142 81.5184C193.992 81.4344 193.89 81.3024 193.836 81.1344L193.746 80.8524C193.11 80.9664 192.528 80.9424 191.994 80.7804C191.46 80.6184 191.028 80.3604 190.71 80.0064C190.56 79.8384 190.47 79.6884 190.428 79.5564C190.374 79.3824 190.392 79.2144 190.476 79.0524C190.56 78.8904 190.692 78.7764 190.872 78.7224C191.016 78.6744 191.16 78.6804 191.298 78.7284C191.436 78.7764 191.556 78.8664 191.646 78.9864C191.832 79.2384 192.078 79.4184 192.396 79.5204C192.714 79.6224 193.044 79.6584 193.392 79.6284L192.582 76.8564C191.796 76.8504 191.142 76.7304 190.626 76.4964C190.104 76.2624 189.75 75.8544 189.564 75.2604C189.378 74.6604 189.426 74.0904 189.708 73.5564C189.99 73.0224 190.482 72.5904 191.172 72.2724L191.088 72.0024C191.034 71.8404 191.052 71.6784 191.124 71.5164C191.202 71.3544 191.316 71.2524 191.472 71.2044C191.634 71.1504 191.796 71.1684 191.958 71.2584C192.12 71.3424 192.222 71.4684 192.276 71.6304L192.354 71.8884C193.068 71.7384 193.674 71.7684 194.166 71.9724C194.658 72.1764 194.982 72.5244 195.138 73.0224C195.198 73.2084 195.186 73.3884 195.102 73.5504C195.018 73.7124 194.892 73.8204 194.724 73.8744C194.568 73.9224 194.424 73.9164 194.286 73.8504C194.148 73.7844 194.046 73.6764 193.98 73.5264C193.896 73.3524 193.74 73.2264 193.512 73.1424C193.284 73.0584 193.008 73.0344 192.69 73.0704L193.404 75.5304C195.114 75.5484 196.146 76.1184 196.5 77.2344C196.692 77.8464 196.632 78.4464 196.332 79.0404ZM191.196 75.3024C191.418 75.4164 191.748 75.4884 192.174 75.5244L191.538 73.4484C191.196 73.6224 190.962 73.8264 190.83 74.0604C190.698 74.2944 190.674 74.5404 190.758 74.7984C190.83 75.0204 190.974 75.1884 191.202 75.3024H191.196ZM195.228 78.5244C195.366 78.2364 195.396 77.9544 195.312 77.6784C195.24 77.4564 195.09 77.2764 194.856 77.1324C194.622 76.9944 194.274 76.9044 193.812 76.8744L194.544 79.2444C194.862 79.0524 195.09 78.8124 195.228 78.5184V78.5244Z" fill="#E0E0E0"/>
<path d="M183.464 72.2476C185.606 66.9256 191.666 64.3456 196.988 66.4936C202.31 68.6356 204.891 74.6956 202.743 80.0176C204.104 74.9416 201.465 69.6436 196.587 67.6816C191.264 65.5336 185.204 68.1136 183.062 73.4356C183.17 73.0336 183.302 72.6376 183.458 72.2476H183.464Z" fill="#E0E0E0"/>
<path d="M419.935 281.261C419.935 283.253 398.845 284.867 372.823 284.867C346.801 284.867 325.711 283.253 325.711 281.261C325.711 279.269 346.801 277.655 372.823 277.655C398.845 277.655 419.935 279.269 419.935 281.261Z" fill="#F5F5F5"/>
<path d="M251.921 291.123C251.951 287.037 252.701 282.993 254.141 279.165C254.243 278.895 253.811 278.775 253.709 279.045C252.257 282.909 251.507 286.995 251.477 291.123C251.477 291.411 251.927 291.411 251.927 291.123H251.921Z" fill="#263238"/>
<path d="M254.703 291.023C255.453 289.061 256.395 287.177 257.499 285.395C257.649 285.149 257.265 284.921 257.109 285.167C255.981 286.985 255.033 288.905 254.265 290.903C254.163 291.173 254.595 291.293 254.697 291.023H254.703Z" fill="#263238"/>
<path d="M259.438 275.871C259.06 274.815 257.572 274.551 256.582 275.079C255.592 275.607 254.986 276.633 254.44 277.611C254.476 276.669 254.512 275.721 254.29 274.803C254.068 273.891 253.54 273.009 252.712 272.571C251.884 272.133 250.726 272.259 250.156 273.003C249.61 273.717 249.724 274.743 250.084 275.565C250.666 276.909 251.83 277.983 253.21 278.457C252.166 278.187 251.02 278.283 249.97 278.523C248.92 278.769 247.942 279.699 248.038 280.779C248.158 282.069 249.766 282.783 251.008 282.435C252.256 282.087 253.162 281.037 253.924 279.993C254.032 280.923 254.158 281.895 254.68 282.675C255.202 283.455 256.258 283.965 257.11 283.563C258.046 283.119 258.256 281.793 257.824 280.857C257.386 279.915 256.504 279.279 255.658 278.679C256.582 278.649 257.542 278.607 258.346 278.163C259.15 277.719 259.744 276.735 259.438 275.871Z" fill="#22514D"/>
<path d="M254.12 279.55C254.544 279.55 254.888 279.206 254.888 278.782C254.888 278.358 254.544 278.014 254.12 278.014C253.695 278.014 253.352 278.358 253.352 278.782C253.352 279.206 253.695 279.55 254.12 279.55Z" fill="white"/>
<path d="M244.638 283.855C245.652 285.901 246.324 288.103 246.63 290.365C246.666 290.647 247.116 290.653 247.08 290.365C246.768 288.019 246.078 285.751 245.028 283.627C244.902 283.369 244.512 283.597 244.638 283.855Z" fill="#263238"/>
<path d="M246.923 278.987C246.251 278.423 245.135 278.837 244.679 279.587C244.217 280.337 244.223 281.273 244.241 282.149C243.893 281.501 243.539 280.841 243.023 280.313C242.507 279.785 241.805 279.401 241.067 279.431C240.329 279.467 239.603 280.007 239.513 280.739C239.429 281.435 239.915 282.083 240.479 282.497C241.403 283.175 242.621 283.439 243.743 283.205C242.933 283.439 242.195 283.955 241.583 284.543C240.971 285.125 240.683 286.145 241.181 286.835C241.775 287.657 243.143 287.501 243.845 286.769C244.547 286.037 244.745 284.969 244.841 283.955C245.285 284.543 245.759 285.149 246.425 285.467C247.091 285.785 248.003 285.707 248.417 285.101C248.873 284.429 248.489 283.451 247.817 282.989C247.145 282.527 246.299 282.449 245.489 282.383C246.101 281.993 246.731 281.585 247.097 280.961C247.463 280.337 247.475 279.443 246.923 278.975V278.987Z" fill="#22514D"/>
<path d="M245.009 282.76C245.177 283.048 245.081 283.414 244.799 283.582C244.511 283.75 244.145 283.654 243.977 283.372C243.809 283.09 243.905 282.718 244.187 282.55C244.475 282.382 244.841 282.478 245.009 282.76Z" fill="white"/>
<g opacity="0.5">
<path d="M246.923 278.987C246.251 278.423 245.135 278.837 244.679 279.587C244.217 280.337 244.223 281.273 244.241 282.149C243.893 281.501 243.539 280.841 243.023 280.313C242.507 279.785 241.805 279.401 241.067 279.431C240.329 279.467 239.603 280.007 239.513 280.739C239.429 281.435 239.915 282.083 240.479 282.497C241.403 283.175 242.621 283.439 243.743 283.205C242.933 283.439 242.195 283.955 241.583 284.543C240.971 285.125 240.683 286.145 241.181 286.835C241.775 287.657 243.143 287.501 243.845 286.769C244.547 286.037 244.745 284.969 244.841 283.955C245.285 284.543 245.759 285.149 246.425 285.467C247.091 285.785 248.003 285.707 248.417 285.101C248.873 284.429 248.489 283.451 247.817 282.989C247.145 282.527 246.299 282.449 245.489 282.383C246.101 281.993 246.731 281.585 247.097 280.961C247.463 280.337 247.475 279.443 246.923 278.975V278.987Z" fill="white"/>
</g>
<path d="M236.183 167.414L232.241 165.17C232.241 165.17 230.789 135.992 229.847 128.45C228.905 120.908 223.523 93.8482 223.523 93.8482L227.243 91.6702L236.183 167.42V167.414Z" fill="#22514D"/>
<path opacity="0.3" d="M236.183 167.414L232.241 165.17C232.241 165.17 230.789 135.992 229.847 128.45C228.905 120.908 223.523 93.8482 223.523 93.8482L227.243 91.6702L236.183 167.42V167.414Z" fill="black"/>
<path d="M263.834 87.3404L227.242 91.6584L236.181 167.411L272.773 163.093L263.834 87.3404Z" fill="#22514D"/>
<path opacity="0.4" d="M256.628 125.719L258.788 125.467L258.98 127.045L256.832 127.297C256.94 129.205 256.544 131.107 255.764 132.205L253.718 131.569C254.426 130.345 254.78 128.947 254.726 127.531L250.862 127.987C250.598 130.189 250.166 132.565 247.484 132.901C245.522 133.135 243.632 131.905 242.99 128.935L240.848 129.175L240.656 127.597L242.798 127.339C242.696 125.947 242.942 124.555 243.518 123.283L245.552 123.847C245.102 124.873 244.874 125.977 244.88 127.099L248.78 126.637C249.044 124.435 249.446 122.023 252.122 121.717C254.084 121.483 255.962 122.737 256.628 125.713V125.719ZM248.54 128.275L245.108 128.677C245.486 130.015 246.242 130.519 247.094 130.423C247.946 130.327 248.354 129.451 248.552 128.293L248.54 128.281V128.275ZM252.578 124.135C251.636 124.249 251.288 125.149 251.102 126.325L254.516 125.923C254.138 124.597 253.412 124.075 252.584 124.171V124.135H252.578Z" fill="white"/>
<path opacity="0.4" d="M269.933 156.624L262.559 94.1342C260.231 94.4102 258.125 92.7422 257.849 90.4202L233.843 93.2522C234.119 95.5802 232.451 97.6862 230.129 97.9622L237.503 160.458C239.831 160.182 241.937 161.85 242.213 164.172L266.219 161.34C265.943 159.012 267.611 156.906 269.933 156.63V156.624ZM235.085 106.254C234.551 106.314 234.065 105.936 234.005 105.402L233.507 101.19C233.447 100.656 233.825 100.17 234.359 100.11C234.893 100.05 235.373 100.428 235.439 100.962L235.937 105.18C235.997 105.714 235.619 106.194 235.085 106.26V106.254ZM251.171 138.846C244.763 139.602 238.949 135.018 238.193 128.61C237.437 122.202 242.021 116.388 248.429 115.632C254.837 114.876 260.651 119.46 261.407 125.868C262.163 132.276 257.585 138.084 251.177 138.84C251.177 138.84 251.177 138.84 251.171 138.84V138.846ZM265.709 154.476C265.175 154.536 264.689 154.158 264.629 153.624L264.125 149.394C264.041 148.866 264.401 148.362 264.929 148.278C265.457 148.194 265.961 148.554 266.045 149.082C266.045 149.112 266.051 149.136 266.057 149.166L266.555 153.384C266.627 153.912 266.261 154.398 265.733 154.47C265.727 154.47 265.715 154.47 265.709 154.47H265.721L265.709 154.476Z" fill="white"/>
<path d="M233.412 175.297L228.876 175.405C228.876 175.405 212.568 151.165 207.87 145.195C203.172 139.225 184.59 118.825 184.59 118.825L186.654 115.033L233.418 175.297H233.412Z" fill="#22514D"/>
<path opacity="0.3" d="M233.412 175.297L228.876 175.405C228.876 175.405 212.568 151.165 207.87 145.195C203.172 139.225 184.59 118.825 184.59 118.825L186.654 115.033L233.418 175.297H233.412Z" fill="black"/>
<path d="M215.755 92.4413L186.645 115.03L233.406 175.293L262.516 152.705L215.755 92.4413Z" fill="#22514D"/>
<path opacity="0.4" d="M229.395 129.034L231.111 127.702L232.09 128.956L230.385 130.282C231.459 131.86 232.101 133.696 232.005 135.034L229.924 135.55C229.9 134.134 229.479 132.76 228.705 131.572L225.633 133.96C226.539 135.982 227.404 138.244 225.274 139.912C223.714 141.124 221.464 141.046 219.376 138.838L217.665 140.152L216.688 138.898L218.385 137.572C217.581 136.432 217.071 135.112 216.909 133.726L218.944 133.156C219.088 134.266 219.465 135.328 220.047 136.282L223.144 133.876C222.238 131.854 221.331 129.58 223.467 127.936C225.027 126.724 227.278 126.826 229.39 129.028L229.395 129.034ZM223.792 135.4L221.062 137.518C222.076 138.466 222.987 138.508 223.665 137.986C224.343 137.464 224.242 136.498 223.81 135.412H223.792V135.4ZM225.111 129.766C224.368 130.348 224.529 131.296 224.979 132.4L227.697 130.294C226.689 129.352 225.795 129.28 225.135 129.79L225.111 129.76V129.766Z" fill="white"/>
<path opacity="0.4" d="M256.745 148.636L218.171 98.9202C216.317 100.354 213.653 100.018 212.219 98.1702L193.121 112.984C194.555 114.838 194.219 117.502 192.371 118.936L230.945 168.652C232.799 167.218 235.463 167.554 236.897 169.402L255.995 154.582C254.561 152.728 254.897 150.064 256.745 148.63V148.636ZM200.897 123.484C200.471 123.814 199.859 123.736 199.529 123.31L196.931 119.956C196.601 119.53 196.679 118.918 197.105 118.588C197.531 118.258 198.137 118.336 198.467 118.762L201.071 122.116C201.401 122.542 201.323 123.148 200.897 123.478V123.484ZM231.503 143.098C226.403 147.052 219.059 146.128 215.105 141.028C211.151 135.928 212.075 128.584 217.175 124.63C222.275 120.676 229.619 121.6 233.573 126.7C237.527 131.794 236.603 139.138 231.509 143.092C231.509 143.092 231.509 143.092 231.503 143.092V143.098ZM252.023 148.984C251.597 149.314 250.985 149.236 250.655 148.81L248.039 145.444C247.691 145.036 247.745 144.418 248.153 144.076C248.561 143.728 249.179 143.782 249.521 144.19C249.539 144.214 249.557 144.232 249.575 144.256L252.179 147.616C252.515 148.03 252.449 148.636 252.035 148.972C252.029 148.972 252.023 148.984 252.011 148.99H252.023V148.984Z" fill="white"/>
<path d="M227.843 191.637L223.655 193.383C223.655 193.383 199.679 176.685 193.139 172.821C186.599 168.957 161.891 156.663 161.891 156.663L162.443 152.385L227.843 191.643V191.637Z" fill="#22514D"/>
<path opacity="0.3" d="M227.843 191.637L223.655 193.383C223.655 193.383 199.679 176.685 193.139 172.821C186.599 168.957 161.891 156.663 161.891 156.663L162.443 152.385L227.843 191.643V191.637Z" fill="black"/>
<path d="M181.406 120.784L162.445 152.377L227.849 191.629L246.809 160.036L181.406 120.784Z" fill="#22514D"/>
<path opacity="0.4" d="M207.358 149.968L208.48 148.108L209.848 148.924L208.738 150.778C210.31 151.858 211.576 153.334 211.966 154.624L210.214 155.854C209.68 154.546 208.786 153.412 207.64 152.59L205.636 155.926C207.214 157.48 208.834 159.28 207.454 161.602C206.434 163.3 204.31 164.038 201.568 162.736L200.452 164.578L199.084 163.762L200.188 161.914C199.024 161.146 198.076 160.096 197.422 158.866L199.114 157.6C199.654 158.578 200.386 159.436 201.274 160.12L203.29 156.754C201.712 155.2 200.05 153.406 201.442 151.102C202.462 149.404 204.592 148.69 207.358 149.974V149.968ZM204.436 157.93L202.654 160.894C203.944 161.41 204.808 161.122 205.246 160.39C205.69 159.658 205.246 158.794 204.448 157.936H204.43L204.436 157.93ZM203.632 152.2C203.146 153.016 203.644 153.838 204.46 154.708L206.23 151.762C204.952 151.252 204.094 151.504 203.662 152.224L203.626 152.206L203.632 152.2Z" fill="white"/>
<path opacity="0.4" d="M239.95 158.337L185.998 125.955C184.792 127.965 182.188 128.613 180.178 127.407L167.734 148.131C169.744 149.337 170.392 151.941 169.186 153.951L223.138 186.339C224.344 184.329 226.948 183.681 228.958 184.887L241.396 164.157C239.386 162.951 238.738 160.347 239.944 158.337H239.95ZM178.786 155.103C178.51 155.565 177.91 155.715 177.448 155.439L173.812 153.255C173.35 152.979 173.2 152.379 173.476 151.917C173.752 151.455 174.352 151.311 174.808 151.587L178.45 153.771C178.912 154.047 179.056 154.647 178.78 155.103H178.786ZM214.414 162.309C211.09 167.841 203.914 169.635 198.376 166.317C192.844 162.993 191.05 155.817 194.368 150.279C197.692 144.747 204.868 142.953 210.406 146.271C215.938 149.589 217.732 156.765 214.414 162.297C214.414 162.297 214.414 162.297 214.414 162.303V162.309ZM235.672 160.365C235.396 160.827 234.796 160.977 234.334 160.701L230.674 158.511C230.2 158.253 230.026 157.665 230.284 157.191C230.542 156.717 231.13 156.543 231.604 156.801C231.628 156.813 231.652 156.831 231.676 156.843L235.318 159.033C235.78 159.297 235.942 159.885 235.672 160.347C235.672 160.353 235.66 160.365 235.66 160.371H235.672V160.365Z" fill="white"/>
<path d="M372.82 262.72H208.336V203.662H371.494L372.82 262.72Z" fill="#22514D"/>
<path opacity="0.7" d="M372.82 262.72H208.336V203.662H371.494L372.82 262.72Z" fill="white"/>
<path opacity="0.2" d="M371.607 209.686H208.047L208.335 203.662H371.493L371.607 209.686Z" fill="black"/>
<path d="M194.68 200.713L211.69 181.123L372.874 181.933L387.316 200.713V203.665H194.68V200.713Z" fill="#22514D"/>
<path opacity="0.2" d="M194.68 200.713L211.69 181.123L372.874 181.933L387.316 200.713V203.665H194.68V200.713Z" fill="black"/>
<path d="M226.421 149.112L211.289 181.704L369.869 182.646L354.161 149.604L226.421 149.112Z" fill="#22514D"/>
<path opacity="0.2" d="M226.421 149.112L211.289 181.704L369.869 182.646L354.161 149.604L226.421 149.112Z" fill="black"/>
<path opacity="0.2" d="M317.109 149.506L335.301 149.65L353.439 182.638L317.109 149.506Z" fill="black"/>
<path d="M226 181.931L289.204 121.811L353.2 181.931" fill="#22514D"/>
<path opacity="0.7" d="M226 181.931L289.204 121.811L353.2 181.931" fill="white"/>
<path d="M261.029 216.967H222.215V242.695H261.029V216.967Z" fill="#22514D"/>
<path d="M260.288 217.658H222.938V241.574H260.288V217.658Z" fill="#22514D"/>
<path opacity="0.9" d="M260.288 217.658H222.938V241.574H260.288V217.658Z" fill="white"/>
<path opacity="0.9" d="M236.438 217.658C236.438 217.658 238.159 218.414 237.049 221.3C235.939 224.186 224.329 225.74 222.938 229.382C222.938 229.382 222.938 238.022 222.938 237.746C222.938 237.47 225.715 231.08 231.103 228.41C236.491 225.746 239.605 226.634 242.491 223.688C245.377 220.742 245.99 217.658 245.99 217.658H236.431H236.438Z" fill="white"/>
<path opacity="0.9" d="M233.617 241.381C233.617 241.381 235.825 235.465 240.883 233.407C245.941 231.349 248.497 231.127 251.161 228.127C253.825 225.127 258.325 217.651 258.325 217.651H260.287V225.517C260.287 225.517 257.827 228.853 253.825 231.019C249.823 233.185 246.271 232.963 244.327 234.799C242.383 236.635 240.769 241.381 240.769 241.381H233.617Z" fill="white"/>
<path d="M261.945 241.381H220.773V243.307H261.945V241.381Z" fill="#22514D"/>
<path d="M233.625 217.373H232.562V241.379H233.625V217.373Z" fill="#22514D"/>
<path d="M222.746 225.944V227.006H260.474V225.944H222.746Z" fill="#22514D"/>
<path d="M250.132 217.373H249.07V241.379H250.132V217.373Z" fill="#22514D"/>
<path d="M357.959 216.658H319.145V242.386H357.959V216.658Z" fill="#22514D"/>
<path d="M357.225 217.35H319.875V241.266H357.225V217.35Z" fill="#22514D"/>
<path opacity="0.9" d="M357.225 217.35H319.875V241.266H357.225V217.35Z" fill="white"/>
<path opacity="0.9" d="M333.375 217.35C333.375 217.35 335.097 218.106 333.987 220.992C332.877 223.878 321.267 225.432 319.875 229.074C319.875 229.074 319.875 237.714 319.875 237.438C319.875 237.162 322.653 230.772 328.041 228.102C333.429 225.438 336.543 226.326 339.429 223.38C342.315 220.434 342.927 217.35 342.927 217.35H333.369H333.375Z" fill="white"/>
<path opacity="0.9" d="M330.555 241.072C330.555 241.072 332.763 235.156 337.821 233.098C342.879 231.04 345.435 230.818 348.099 227.818C350.763 224.818 355.263 217.342 355.263 217.342H357.225V225.208C357.225 225.208 354.765 228.544 350.763 230.71C346.761 232.876 343.209 232.654 341.265 234.49C339.321 236.326 337.707 241.072 337.707 241.072H330.555Z" fill="white"/>
<path d="M358.883 241.072H317.711V242.998H358.883V241.072Z" fill="#22514D"/>
<path d="M330.558 217.065H329.496V241.071H330.558V217.065Z" fill="#22514D"/>
<path d="M319.684 225.639V226.701H357.412V225.639H319.684Z" fill="#22514D"/>
<path d="M347.062 217.065H346V241.071H347.062V217.065Z" fill="#22514D"/>
<path d="M302.343 215.967H277.887V262.887H302.343V215.967Z" fill="#263238"/>
<path d="M299.109 219.424H281.121V260.386H299.109V219.424Z" fill="#FAFFFF"/>
<path d="M295.066 223.131H285.16V256.677H295.066V223.131Z" fill="#263238"/>
<path opacity="0.2" d="M279.321 262.887V217.371H302.343V215.967H277.887V262.887H279.321Z" fill="black"/>
<path d="M275.272 203.662H269.398V205H275.272V203.662Z" fill="#22514D"/>
<path d="M275.272 260.385H269.398V262.887H275.272V260.385Z" fill="#22514D"/>
<path d="M274.266 204.994H270.402V260.386H274.266V204.994Z" fill="#22514D"/>
<g opacity="0.4">
<path d="M275.272 203.662H269.398V205H275.272V203.662Z" fill="white"/>
<path d="M275.272 260.385H269.398V262.887H275.272V260.385Z" fill="white"/>
<path d="M274.266 204.994H270.402V260.386H274.266V204.994Z" fill="white"/>
</g>
<path d="M311.655 203.662H305.781V205H311.655V203.662Z" fill="#22514D"/>
<path d="M311.655 260.385H305.781V262.887H311.655V260.385Z" fill="#22514D"/>
<path d="M310.649 204.994H306.785V260.386H310.649V204.994Z" fill="#22514D"/>
<g opacity="0.4">
<path d="M311.655 203.662H305.781V205H311.655V203.662Z" fill="white"/>
<path d="M311.655 260.385H305.781V262.887H311.655V260.385Z" fill="white"/>
<path d="M310.649 204.994H306.785V260.386H310.649V204.994Z" fill="white"/>
</g>
<path d="M351.093 137.604H336.945V149.508H351.093V137.604Z" fill="#22514D"/>
<path d="M352.72 136.623H334.984V140.979H352.72V136.623Z" fill="#22514D"/>
<path d="M280.551 241.793C280.551 242.303 280.137 242.717 279.627 242.717C279.117 242.717 278.703 242.303 278.703 241.793C278.703 241.283 279.117 240.869 279.627 240.869C280.137 240.869 280.551 241.283 280.551 241.793Z" fill="white"/>
<path d="M279.184 153.983H265.438V175.223H279.184V153.983Z" fill="#22514D"/>
<path d="M278.249 154.889H266.375V174.083H278.249V154.889Z" fill="#22514D"/>
<path opacity="0.9" d="M278.249 154.889H266.375V174.083H278.249V154.889Z" fill="white"/>
<path opacity="0.9" d="M275.315 154.889C275.315 154.889 276.263 155.399 275.531 157.427C274.799 159.455 266.375 166.829 266.375 166.829V173.687C266.375 173.687 271.217 164.843 274.583 161.567C277.949 158.291 278.249 157.685 278.249 157.685V154.889H275.315Z" fill="white"/>
<path d="M278.246 163.463H266.102V164.489H278.246V163.463Z" fill="#22514D"/>
<path opacity="0.2" d="M267.209 174.083V155.675H278.249V154.889H266.375V174.083H267.209Z" fill="black"/>
<path d="M307.887 153.983H294.141V175.223H307.887V153.983Z" fill="#22514D"/>
<path d="M306.952 154.889H295.078V174.083H306.952V154.889Z" fill="#22514D"/>
<path opacity="0.9" d="M306.952 154.889H295.078V174.083H306.952V154.889Z" fill="white"/>
<path opacity="0.9" d="M304.018 154.889C304.018 154.889 304.966 155.399 304.234 157.427C303.502 159.455 295.078 166.829 295.078 166.829V173.687C295.078 173.687 299.92 164.843 303.286 161.567C306.652 158.291 306.952 157.685 306.952 157.685V154.889H304.018Z" fill="white"/>
<path d="M306.949 163.463H294.805V164.489H306.949V163.463Z" fill="#22514D"/>
<path opacity="0.2" d="M295.912 174.083V155.675H306.952V154.889H295.078V174.083H295.912Z" fill="black"/>
<path opacity="0.2" d="M224.303 241.499V218.711H260.291V217.655H222.941V241.571L224.303 241.499Z" fill="black"/>
<path opacity="0.2" d="M321.237 241.074V218.406H357.225V217.35H319.875V241.074H321.237Z" fill="black"/>
<path d="M226 181.931L289.204 121.811L353.2 181.931" stroke="#22514D" stroke-width="4" stroke-miterlimit="10"/>
<path opacity="0.7" d="M226 181.931L289.204 121.811L353.2 181.931" stroke="#22514D" stroke-width="4" stroke-miterlimit="10"/>
<path opacity="0.2" d="M351.093 147.772H336.945V149.014H351.093V147.772Z" fill="black"/>
<path opacity="0.2" d="M387.316 200.713H194.68V203.665H387.316V200.713Z" fill="black"/>
<path d="M353.361 181.613H226.161L226.611 182.063V180.851C226.611 180.815 226.629 180.677 226.611 180.629C226.491 180.239 226.935 181.031 226.479 180.803L226.491 180.791C226.521 180.791 226.665 180.629 226.683 180.605C227.037 180.305 227.361 179.957 227.703 179.639C229.119 178.289 230.541 176.945 231.957 175.595C236.937 170.861 241.917 166.127 246.897 161.393C253.071 155.525 259.245 149.657 265.419 143.783C270.813 138.659 276.201 133.535 281.595 128.411C283.371 126.725 285.147 125.033 286.923 123.347C287.769 122.543 288.687 121.769 289.485 120.911C289.521 120.875 289.557 120.845 289.593 120.809C290.013 120.407 289.377 119.771 288.957 120.173C286.773 122.249 284.589 124.325 282.405 126.401C277.197 131.351 271.989 136.301 266.781 141.251C260.595 147.131 254.409 153.011 248.223 158.891C242.991 163.865 237.759 168.833 232.527 173.807C230.913 175.343 229.293 176.879 227.679 178.415C227.103 178.961 226.299 179.513 225.837 180.167C225.513 180.623 225.705 181.529 225.705 182.063C225.705 182.309 225.909 182.513 226.155 182.513H353.355C353.937 182.513 353.937 181.613 353.355 181.613H353.361Z" fill="#263238"/>
<path opacity="0.2" d="M231.035 181.931L291.305 124.805L289.199 122.783L227.051 181.865L231.035 181.931Z" fill="black"/>
<path d="M226.445 246.39H256.283L257.441 240.756H225.281L226.445 246.39Z" fill="#263238"/>
<path d="M255.775 240.787C254.773 239.377 254.245 238.453 252.307 238.675C252.037 236.239 249.619 234.415 246.745 234.013C243.871 233.611 240.781 235.003 239.581 237.229C236.935 236.005 233.209 236.905 231.739 239.119C230.173 238.345 227.617 239.455 226.723 240.781C237.259 240.949 245.713 240.961 255.775 240.781" fill="#22514D"/>
<path d="M251.75 240.608C251.642 241.958 251.528 243.308 251.42 244.658C251.396 244.982 251.204 245.414 250.682 245.408C250.25 245.408 250.016 245.102 249.908 244.838C249.578 244.064 249.434 243.26 249.482 242.462C249.494 242.246 249.5 242.006 249.254 241.856C248.942 241.664 248.432 241.748 248 241.778C246.902 241.85 245.762 241.43 245.336 240.794C243.674 241.532 241.328 241.61 239.552 240.98C238.64 241.454 237.662 241.934 236.492 242.054C235.322 242.174 233.936 241.796 233.678 241.076C233.42 241.724 232.922 242.33 232.232 242.84C231.944 243.056 231.428 243.26 231.092 243.074C230.918 242.978 230.888 242.816 230.876 242.666C230.816 242.078 230.756 241.49 230.69 240.902C229.85 241.442 228.224 241.37 227.516 240.758L229.01 239.99L251.756 240.596L251.75 240.608Z" fill="#22514D"/>
<path d="M251.255 239.317C251.255 239.317 254.045 239.143 252.761 235.795C252.761 235.795 249.545 236.527 251.255 239.317Z" fill="#22514D"/>
<path d="M250.628 236.07C250.628 236.07 252.044 234.876 249.692 233.58C249.692 233.58 248.324 235.248 250.628 236.07Z" fill="#22514D"/>
<path d="M236.457 236.45C236.457 236.45 237.027 234.782 234.267 234.698C234.267 234.698 233.997 236.75 236.457 236.45Z" fill="#22514D"/>
<path opacity="0.3" d="M247.472 237.992C247.472 237.992 248.042 236.324 245.282 236.24C245.282 236.24 245.012 238.292 247.472 237.992Z" fill="black"/>
<path opacity="0.3" d="M248.306 237.799C248.306 237.799 249.386 237.925 249.182 236.557C249.182 236.557 247.886 236.617 248.306 237.799Z" fill="black"/>
<path opacity="0.3" d="M247.831 236.617C247.831 236.617 248.617 235.939 247.297 235.225C247.297 235.225 246.535 236.167 247.831 236.617Z" fill="black"/>
<path opacity="0.3" d="M237.365 240.127C237.365 240.127 238.439 239.959 237.791 238.705C237.791 238.705 236.573 239.107 237.365 240.127Z" fill="black"/>
<path opacity="0.3" d="M236.168 240C236.168 240 236.99 238.842 234.914 238.26C234.914 238.26 234.23 239.772 236.168 240Z" fill="black"/>
<path d="M252.258 239.406C252.258 239.406 253.962 240.246 254.628 237.852C254.628 237.852 252.438 237.192 252.258 239.406Z" fill="#22514D"/>
<path d="M239.982 237.955C239.982 237.955 241.086 235.657 237.162 235.147C237.162 235.147 236.418 238.039 239.982 237.955Z" fill="#22514D"/>
<path d="M240.648 237.09C240.648 237.09 242.262 236.118 240.186 234.498C240.186 234.498 238.53 235.938 240.648 237.09Z" fill="#22514D"/>
<path d="M355.023 245.453H325.191L324.027 239.819H356.187L355.023 245.453Z" fill="#263238"/>
<path d="M325.703 239.849C326.705 238.439 327.233 237.515 329.171 237.737C329.441 235.301 331.859 233.477 334.733 233.075C337.607 232.673 340.697 234.065 341.897 236.291C344.543 235.067 348.269 235.967 349.739 238.181C351.305 237.407 353.861 238.517 354.755 239.843C344.219 240.011 335.765 240.023 325.703 239.843" fill="#22514D"/>
<path d="M329.725 239.671C329.833 241.021 329.947 242.371 330.055 243.721C330.079 244.045 330.271 244.477 330.793 244.471C331.225 244.471 331.459 244.165 331.567 243.901C331.897 243.127 332.041 242.323 331.993 241.525C331.981 241.309 331.975 241.069 332.221 240.919C332.533 240.727 333.043 240.811 333.475 240.841C334.573 240.913 335.713 240.493 336.139 239.857C337.801 240.595 340.147 240.673 341.923 240.043C342.835 240.517 343.813 240.997 344.983 241.117C346.153 241.237 347.539 240.859 347.797 240.139C348.055 240.787 348.553 241.393 349.243 241.903C349.531 242.119 350.047 242.323 350.383 242.137C350.557 242.041 350.587 241.879 350.599 241.729C350.659 241.141 350.719 240.553 350.785 239.965C351.625 240.505 353.251 240.433 353.959 239.821L352.465 239.053L329.719 239.659L329.725 239.671Z" fill="#22514D"/>
<path d="M330.215 238.38C330.215 238.38 327.425 238.206 328.709 234.858C328.709 234.858 331.925 235.59 330.215 238.38Z" fill="#22514D"/>
<path d="M330.844 235.133C330.844 235.133 329.428 233.939 331.78 232.643C331.78 232.643 333.148 234.311 330.844 235.133Z" fill="#22514D"/>
<path d="M345.021 235.512C345.021 235.512 344.451 233.844 347.211 233.76C347.211 233.76 347.481 235.812 345.021 235.512Z" fill="#22514D"/>
<path opacity="0.3" d="M334.002 237.063C334.002 237.063 333.432 235.395 336.192 235.311C336.192 235.311 336.462 237.363 334.002 237.063Z" fill="black"/>
<path opacity="0.3" d="M333.167 236.861C333.167 236.861 332.087 236.987 332.291 235.619C332.291 235.619 333.587 235.679 333.167 236.861Z" fill="black"/>
<path opacity="0.3" d="M333.642 235.687C333.642 235.687 332.856 235.009 334.176 234.295C334.176 234.295 334.932 235.237 333.642 235.687Z" fill="black"/>
<path opacity="0.3" d="M344.107 239.19C344.107 239.19 343.033 239.022 343.681 237.768C343.681 237.768 344.899 238.17 344.107 239.19Z" fill="black"/>
<path opacity="0.3" d="M345.305 239.063C345.305 239.063 344.483 237.905 346.559 237.323C346.559 237.323 347.243 238.835 345.305 239.063Z" fill="black"/>
<path d="M329.222 238.472C329.222 238.472 327.518 239.312 326.852 236.918C326.852 236.918 329.042 236.258 329.222 238.472Z" fill="#22514D"/>
<path d="M341.487 237.025C341.487 237.025 340.383 234.727 344.307 234.217C344.307 234.217 345.051 237.109 341.487 237.025Z" fill="#22514D"/>
<path d="M340.828 236.153C340.828 236.153 339.214 235.181 341.29 233.561C341.29 233.561 342.946 235.001 340.828 236.153Z" fill="#22514D"/>
<path d="M335.108 141.601H352.496C353.078 141.601 353.078 140.701 352.496 140.701H335.108C334.526 140.701 334.526 141.601 335.108 141.601Z" fill="#263238"/>
<path d="M226.43 284.658H188.48V291.264H226.43V284.658Z" fill="#22514D"/>
<g opacity="0.3">
<path d="M191.523 285.018V290.94C191.523 291.3 192.081 291.3 192.081 290.94V285.018C192.081 284.658 191.523 284.658 191.523 285.018Z" fill="#263238"/>
</g>
<g opacity="0.3">
<path d="M194.66 285.018V290.94C194.66 291.3 195.218 291.3 195.218 290.94V285.018C195.218 284.658 194.66 284.658 194.66 285.018Z" fill="#263238"/>
</g>
<g opacity="0.3">
<path d="M197.75 285.018V290.94C197.75 291.3 198.308 291.3 198.308 290.94V285.018C198.308 284.658 197.75 284.658 197.75 285.018Z" fill="#263238"/>
</g>
<g opacity="0.3">
<path d="M200.844 285.018V290.94C200.844 291.3 201.402 291.3 201.402 290.94V285.018C201.402 284.658 200.844 284.658 200.844 285.018Z" fill="#263238"/>
</g>
<g opacity="0.3">
<path d="M203.93 285.018V290.94C203.93 291.3 204.488 291.3 204.488 290.94V285.018C204.488 284.658 203.93 284.658 203.93 285.018Z" fill="#263238"/>
</g>
<g opacity="0.3">
<path d="M207.02 285.018V290.94C207.02 291.3 207.578 291.3 207.578 290.94V285.018C207.578 284.658 207.02 284.658 207.02 285.018Z" fill="#263238"/>
</g>
<g opacity="0.3">
<path d="M210.113 285.018V290.94C210.113 291.3 210.671 291.3 210.671 290.94V285.018C210.671 284.658 210.113 284.658 210.113 285.018Z" fill="#263238"/>
</g>
<g opacity="0.3">
<path d="M213.207 285.018V290.94C213.207 291.3 213.765 291.3 213.765 290.94V285.018C213.765 284.658 213.207 284.658 213.207 285.018Z" fill="#263238"/>
</g>
<g opacity="0.3">
<path d="M216.297 285.018V290.94C216.297 291.3 216.855 291.3 216.855 290.94V285.018C216.855 284.658 216.297 284.658 216.297 285.018Z" fill="#263238"/>
</g>
<g opacity="0.3">
<path d="M219.387 285.018V290.94C219.387 291.3 219.945 291.3 219.945 290.94V285.018C219.945 284.658 219.387 284.658 219.387 285.018Z" fill="#263238"/>
</g>
<g opacity="0.3">
<path d="M222.477 285.018V290.94C222.477 291.3 223.035 291.3 223.035 290.94V285.018C223.035 284.658 222.477 284.658 222.477 285.018Z" fill="#263238"/>
</g>
<path d="M225.86 297.502H187.91V304.108H225.86V297.502Z" fill="#22514D"/>
<path d="M228.763 291.073H190.812V297.679H228.763V291.073Z" fill="#22514D"/>
<path opacity="0.2" d="M228.763 291.073H190.812V297.679H228.763V291.073Z" fill="black"/>
<g opacity="0.3">
<path d="M194.031 291.413V297.335C194.031 297.695 194.589 297.695 194.589 297.335V291.413C194.589 291.053 194.031 291.053 194.031 291.413Z" fill="#263238"/>
</g>
<g opacity="0.3">
<path d="M197.168 291.413V297.335C197.168 297.695 197.726 297.695 197.726 297.335V291.413C197.726 291.053 197.168 291.053 197.168 291.413Z" fill="#263238"/>
</g>
<g opacity="0.3">
<path d="M200.258 291.413V297.335C200.258 297.695 200.816 297.695 200.816 297.335V291.413C200.816 291.053 200.258 291.053 200.258 291.413Z" fill="#263238"/>
</g>
<g opacity="0.3">
<path d="M203.355 291.413V297.335C203.355 297.695 203.913 297.695 203.913 297.335V291.413C203.913 291.053 203.355 291.053 203.355 291.413Z" fill="#263238"/>
</g>
<g opacity="0.3">
<path d="M206.445 291.413V297.335C206.445 297.695 207.003 297.695 207.003 297.335V291.413C207.003 291.053 206.445 291.053 206.445 291.413Z" fill="#263238"/>
</g>
<g opacity="0.3">
<path d="M209.535 291.413V297.335C209.535 297.695 210.093 297.695 210.093 297.335V291.413C210.093 291.053 209.535 291.053 209.535 291.413Z" fill="#263238"/>
</g>
<g opacity="0.3">
<path d="M212.625 291.413V297.335C212.625 297.695 213.183 297.695 213.183 297.335V291.413C213.183 291.053 212.625 291.053 212.625 291.413Z" fill="#263238"/>
</g>
<g opacity="0.3">
<path d="M215.715 291.413V297.335C215.715 297.695 216.273 297.695 216.273 297.335V291.413C216.273 291.053 215.715 291.053 215.715 291.413Z" fill="#263238"/>
</g>
<g opacity="0.3">
<path d="M218.805 291.413V297.335C218.805 297.695 219.363 297.695 219.363 297.335V291.413C219.363 291.053 218.805 291.053 218.805 291.413Z" fill="#263238"/>
</g>
<g opacity="0.3">
<path d="M221.902 291.413V297.335C221.902 297.695 222.46 297.695 222.46 297.335V291.413C222.46 291.053 221.902 291.053 221.902 291.413Z" fill="#263238"/>
</g>
<g opacity="0.3">
<path d="M224.992 291.413V297.335C224.992 297.695 225.55 297.695 225.55 297.335V291.413C225.55 291.053 224.992 291.053 224.992 291.413Z" fill="#263238"/>
</g>
<path d="M228.763 277.955H190.812V284.561H228.763V277.955Z" fill="#22514D"/>
<path opacity="0.2" d="M228.763 277.955H190.812V284.561H228.763V277.955Z" fill="black"/>
<g opacity="0.3">
<path d="M194.031 278.303V284.225C194.031 284.585 194.589 284.585 194.589 284.225V278.303C194.589 277.943 194.031 277.943 194.031 278.303Z" fill="#263238"/>
</g>
<g opacity="0.3">
<path d="M197.168 278.303V284.225C197.168 284.585 197.726 284.585 197.726 284.225V278.303C197.726 277.943 197.168 277.943 197.168 278.303Z" fill="#263238"/>
</g>
<g opacity="0.3">
<path d="M200.258 278.303V284.225C200.258 284.585 200.816 284.585 200.816 284.225V278.303C200.816 277.943 200.258 277.943 200.258 278.303Z" fill="#263238"/>
</g>
<g opacity="0.3">
<path d="M203.355 278.303V284.225C203.355 284.585 203.913 284.585 203.913 284.225V278.303C203.913 277.943 203.355 277.943 203.355 278.303Z" fill="#263238"/>
</g>
<g opacity="0.3">
<path d="M206.445 278.303V284.225C206.445 284.585 207.003 284.585 207.003 284.225V278.303C207.003 277.943 206.445 277.943 206.445 278.303Z" fill="#263238"/>
</g>
<g opacity="0.3">
<path d="M209.535 278.303V284.225C209.535 284.585 210.093 284.585 210.093 284.225V278.303C210.093 277.943 209.535 277.943 209.535 278.303Z" fill="#263238"/>
</g>
<g opacity="0.3">
<path d="M212.625 278.303V284.225C212.625 284.585 213.183 284.585 213.183 284.225V278.303C213.183 277.943 212.625 277.943 212.625 278.303Z" fill="#263238"/>
</g>
<g opacity="0.3">
<path d="M215.715 278.303V284.225C215.715 284.585 216.273 284.585 216.273 284.225V278.303C216.273 277.943 215.715 277.943 215.715 278.303Z" fill="#263238"/>
</g>
<g opacity="0.3">
<path d="M218.805 278.303V284.225C218.805 284.585 219.363 284.585 219.363 284.225V278.303C219.363 277.943 218.805 277.943 218.805 278.303Z" fill="#263238"/>
</g>
<g opacity="0.3">
<path d="M221.902 278.303V284.225C221.902 284.585 222.46 284.585 222.46 284.225V278.303C222.46 277.943 221.902 277.943 221.902 278.303Z" fill="#263238"/>
</g>
<g opacity="0.3">
<path d="M224.992 278.303V284.225C224.992 284.585 225.55 284.585 225.55 284.225V278.303C225.55 277.943 224.992 277.943 224.992 278.303Z" fill="#263238"/>
</g>
<g opacity="0.3">
<path d="M190.641 297.964V303.886C190.641 304.246 191.199 304.246 191.199 303.886V297.964C191.199 297.604 190.641 297.604 190.641 297.964Z" fill="#263238"/>
</g>
<g opacity="0.3">
<path d="M193.777 297.964V303.886C193.777 304.246 194.335 304.246 194.335 303.886V297.964C194.335 297.604 193.777 297.604 193.777 297.964Z" fill="#263238"/>
</g>
<g opacity="0.3">
<path d="M196.867 297.964V303.886C196.867 304.246 197.425 304.246 197.425 303.886V297.964C197.425 297.604 196.867 297.604 196.867 297.964Z" fill="#263238"/>
</g>
<g opacity="0.3">
<path d="M199.961 297.964V303.886C199.961 304.246 200.519 304.246 200.519 303.886V297.964C200.519 297.604 199.961 297.604 199.961 297.964Z" fill="#263238"/>
</g>
<g opacity="0.3">
<path d="M203.055 297.964V303.886C203.055 304.246 203.613 304.246 203.613 303.886V297.964C203.613 297.604 203.055 297.604 203.055 297.964Z" fill="#263238"/>
</g>
<g opacity="0.3">
<path d="M206.145 297.964V303.886C206.145 304.246 206.703 304.246 206.703 303.886V297.964C206.703 297.604 206.145 297.604 206.145 297.964Z" fill="#263238"/>
</g>
<g opacity="0.3">
<path d="M209.234 297.964V303.886C209.234 304.246 209.792 304.246 209.792 303.886V297.964C209.792 297.604 209.234 297.604 209.234 297.964Z" fill="#263238"/>
</g>
<g opacity="0.3">
<path d="M212.324 297.964V303.886C212.324 304.246 212.882 304.246 212.882 303.886V297.964C212.882 297.604 212.324 297.604 212.324 297.964Z" fill="#263238"/>
</g>
<g opacity="0.3">
<path d="M215.414 297.964V303.886C215.414 304.246 215.972 304.246 215.972 303.886V297.964C215.972 297.604 215.414 297.604 215.414 297.964Z" fill="#263238"/>
</g>
<g opacity="0.3">
<path d="M218.512 297.964V303.886C218.512 304.246 219.07 304.246 219.07 303.886V297.964C219.07 297.604 218.512 297.604 218.512 297.964Z" fill="#263238"/>
</g>
<g opacity="0.3">
<path d="M221.602 297.964V303.886C221.602 304.246 222.16 304.246 222.16 303.886V297.964C222.16 297.604 221.602 297.604 221.602 297.964Z" fill="#263238"/>
</g>
<g opacity="0.3">
<path d="M226.43 284.658H188.48V291.264H190.814V297.504H187.91V304.11H225.86V297.678H228.764V291.072H226.43V284.658Z" fill="black"/>
</g>
<g opacity="0.2">
<path d="M228.763 277.955H190.812V284.561H228.763V277.955Z" fill="black"/>
</g>
<path d="M202.872 284.752H164.922V291.358H202.872V284.752Z" fill="#22514D"/>
<g opacity="0.3">
<path d="M167.965 285.112V291.034C167.965 291.394 168.523 291.394 168.523 291.034V285.112C168.523 284.752 167.965 284.752 167.965 285.112Z" fill="#263238"/>
</g>
<g opacity="0.3">
<path d="M171.102 285.112V291.034C171.102 291.394 171.66 291.394 171.66 291.034V285.112C171.66 284.752 171.102 284.752 171.102 285.112Z" fill="#263238"/>
</g>
<g opacity="0.3">
<path d="M174.191 285.112V291.034C174.191 291.394 174.749 291.394 174.749 291.034V285.112C174.749 284.752 174.191 284.752 174.191 285.112Z" fill="#263238"/>
</g>
<g opacity="0.3">
<path d="M177.289 285.112V291.034C177.289 291.394 177.847 291.394 177.847 291.034V285.112C177.847 284.752 177.289 284.752 177.289 285.112Z" fill="#263238"/>
</g>
<g opacity="0.3">
<path d="M180.379 285.112V291.034C180.379 291.394 180.937 291.394 180.937 291.034V285.112C180.937 284.752 180.379 284.752 180.379 285.112Z" fill="#263238"/>
</g>
<g opacity="0.3">
<path d="M183.469 285.112V291.034C183.469 291.394 184.027 291.394 184.027 291.034V285.112C184.027 284.752 183.469 284.752 183.469 285.112Z" fill="#263238"/>
</g>
<g opacity="0.3">
<path d="M186.559 285.112V291.034C186.559 291.394 187.117 291.394 187.117 291.034V285.112C187.117 284.752 186.559 284.752 186.559 285.112Z" fill="#263238"/>
</g>
<g opacity="0.3">
<path d="M189.648 285.112V291.034C189.648 291.394 190.206 291.394 190.206 291.034V285.112C190.206 284.752 189.648 284.752 189.648 285.112Z" fill="#263238"/>
</g>
<g opacity="0.3">
<path d="M192.746 285.112V291.034C192.746 291.394 193.304 291.394 193.304 291.034V285.112C193.304 284.752 192.746 284.752 192.746 285.112Z" fill="#263238"/>
</g>
<g opacity="0.3">
<path d="M195.836 285.112V291.034C195.836 291.394 196.394 291.394 196.394 291.034V285.112C196.394 284.752 195.836 284.752 195.836 285.112Z" fill="#263238"/>
</g>
<g opacity="0.3">
<path d="M198.926 285.112V291.034C198.926 291.394 199.484 291.394 199.484 291.034V285.112C199.484 284.752 198.926 284.752 198.926 285.112Z" fill="#263238"/>
</g>
<path d="M202.309 297.596H164.359V304.202H202.309V297.596Z" fill="#22514D"/>
<path d="M205.208 291.166H167.258V297.772H205.208V291.166Z" fill="#22514D"/>
<path opacity="0.2" d="M205.208 291.166H167.258V297.772H205.208V291.166Z" fill="black"/>
<g opacity="0.3">
<path d="M170.48 291.507V297.429C170.48 297.789 171.038 297.789 171.038 297.429V291.507C171.038 291.147 170.48 291.147 170.48 291.507Z" fill="#263238"/>
</g>
<g opacity="0.3">
<path d="M173.617 291.507V297.429C173.617 297.789 174.175 297.789 174.175 297.429V291.507C174.175 291.147 173.617 291.147 173.617 291.507Z" fill="#263238"/>
</g>
<g opacity="0.3">
<path d="M176.707 291.507V297.429C176.707 297.789 177.265 297.789 177.265 297.429V291.507C177.265 291.147 176.707 291.147 176.707 291.507Z" fill="#263238"/>
</g>
<g opacity="0.3">
<path d="M179.797 291.507V297.429C179.797 297.789 180.355 297.789 180.355 297.429V291.507C180.355 291.147 179.797 291.147 179.797 291.507Z" fill="#263238"/>
</g>
<g opacity="0.3">
<path d="M182.887 291.507V297.429C182.887 297.789 183.445 297.789 183.445 297.429V291.507C183.445 291.147 182.887 291.147 182.887 291.507Z" fill="#263238"/>
</g>
<g opacity="0.3">
<path d="M185.984 291.507V297.429C185.984 297.789 186.542 297.789 186.542 297.429V291.507C186.542 291.147 185.984 291.147 185.984 291.507Z" fill="#263238"/>
</g>
<g opacity="0.3">
<path d="M189.074 291.507V297.429C189.074 297.789 189.632 297.789 189.632 297.429V291.507C189.632 291.147 189.074 291.147 189.074 291.507Z" fill="#263238"/>
</g>
<g opacity="0.3">
<path d="M192.164 291.507V297.429C192.164 297.789 192.722 297.789 192.722 297.429V291.507C192.722 291.147 192.164 291.147 192.164 291.507Z" fill="#263238"/>
</g>
<g opacity="0.3">
<path d="M195.254 291.507V297.429C195.254 297.789 195.812 297.789 195.812 297.429V291.507C195.812 291.147 195.254 291.147 195.254 291.507Z" fill="#263238"/>
</g>
<g opacity="0.3">
<path d="M198.344 291.507V297.429C198.344 297.789 198.902 297.789 198.902 297.429V291.507C198.902 291.147 198.344 291.147 198.344 291.507Z" fill="#263238"/>
</g>
<g opacity="0.3">
<path d="M201.441 291.507V297.429C201.441 297.789 201.999 297.789 201.999 297.429V291.507C201.999 291.147 201.441 291.147 201.441 291.507Z" fill="#263238"/>
</g>
<path d="M205.208 278.049H167.258V284.655H205.208V278.049Z" fill="#22514D"/>
<path opacity="0.2" d="M205.208 278.049H167.258V284.655H205.208V278.049Z" fill="black"/>
<g opacity="0.3">
<path d="M170.48 278.393V284.315C170.48 284.675 171.038 284.675 171.038 284.315V278.393C171.038 278.033 170.48 278.033 170.48 278.393Z" fill="#263238"/>
</g>
<g opacity="0.3">
<path d="M173.617 278.393V284.315C173.617 284.675 174.175 284.675 174.175 284.315V278.393C174.175 278.033 173.617 278.033 173.617 278.393Z" fill="#263238"/>
</g>
<g opacity="0.3">
<path d="M176.707 278.393V284.315C176.707 284.675 177.265 284.675 177.265 284.315V278.393C177.265 278.033 176.707 278.033 176.707 278.393Z" fill="#263238"/>
</g>
<g opacity="0.3">
<path d="M179.797 278.393V284.315C179.797 284.675 180.355 284.675 180.355 284.315V278.393C180.355 278.033 179.797 278.033 179.797 278.393Z" fill="#263238"/>
</g>
<g opacity="0.3">
<path d="M182.887 278.393V284.315C182.887 284.675 183.445 284.675 183.445 284.315V278.393C183.445 278.033 182.887 278.033 182.887 278.393Z" fill="#263238"/>
</g>
<g opacity="0.3">
<path d="M185.984 278.393V284.315C185.984 284.675 186.542 284.675 186.542 284.315V278.393C186.542 278.033 185.984 278.033 185.984 278.393Z" fill="#263238"/>
</g>
<g opacity="0.3">
<path d="M189.074 278.393V284.315C189.074 284.675 189.632 284.675 189.632 284.315V278.393C189.632 278.033 189.074 278.033 189.074 278.393Z" fill="#263238"/>
</g>
<g opacity="0.3">
<path d="M192.164 278.393V284.315C192.164 284.675 192.722 284.675 192.722 284.315V278.393C192.722 278.033 192.164 278.033 192.164 278.393Z" fill="#263238"/>
</g>
<g opacity="0.3">
<path d="M195.254 278.393V284.315C195.254 284.675 195.812 284.675 195.812 284.315V278.393C195.812 278.033 195.254 278.033 195.254 278.393Z" fill="#263238"/>
</g>
<g opacity="0.3">
<path d="M198.344 278.393V284.315C198.344 284.675 198.902 284.675 198.902 284.315V278.393C198.902 278.033 198.344 278.033 198.344 278.393Z" fill="#263238"/>
</g>
<g opacity="0.3">
<path d="M201.441 278.393V284.315C201.441 284.675 201.999 284.675 201.999 284.315V278.393C201.999 278.033 201.441 278.033 201.441 278.393Z" fill="#263238"/>
</g>
<g opacity="0.3">
<path d="M167.09 298.057V303.979C167.09 304.339 167.648 304.339 167.648 303.979V298.057C167.648 297.697 167.09 297.697 167.09 298.057Z" fill="#263238"/>
</g>
<g opacity="0.3">
<path d="M170.227 298.057V303.979C170.227 304.339 170.785 304.339 170.785 303.979V298.057C170.785 297.697 170.227 297.697 170.227 298.057Z" fill="#263238"/>
</g>
<g opacity="0.3">
<path d="M173.316 298.057V303.979C173.316 304.339 173.874 304.339 173.874 303.979V298.057C173.874 297.697 173.316 297.697 173.316 298.057Z" fill="#263238"/>
</g>
<g opacity="0.3">
<path d="M176.406 298.057V303.979C176.406 304.339 176.964 304.339 176.964 303.979V298.057C176.964 297.697 176.406 297.697 176.406 298.057Z" fill="#263238"/>
</g>
<g opacity="0.3">
<path d="M179.496 298.057V303.979C179.496 304.339 180.054 304.339 180.054 303.979V298.057C180.054 297.697 179.496 297.697 179.496 298.057Z" fill="#263238"/>
</g>
<g opacity="0.3">
<path d="M182.594 298.057V303.979C182.594 304.339 183.152 304.339 183.152 303.979V298.057C183.152 297.697 182.594 297.697 182.594 298.057Z" fill="#263238"/>
</g>
<g opacity="0.3">
<path d="M185.684 298.057V303.979C185.684 304.339 186.242 304.339 186.242 303.979V298.057C186.242 297.697 185.684 297.697 185.684 298.057Z" fill="#263238"/>
</g>
<g opacity="0.3">
<path d="M188.773 298.057V303.979C188.773 304.339 189.331 304.339 189.331 303.979V298.057C189.331 297.697 188.773 297.697 188.773 298.057Z" fill="#263238"/>
</g>
<g opacity="0.3">
<path d="M191.863 298.057V303.979C191.863 304.339 192.421 304.339 192.421 303.979V298.057C192.421 297.697 191.863 297.697 191.863 298.057Z" fill="#263238"/>
</g>
<g opacity="0.3">
<path d="M194.953 298.057V303.979C194.953 304.339 195.511 304.339 195.511 303.979V298.057C195.511 297.697 194.953 297.697 194.953 298.057Z" fill="#263238"/>
</g>
<g opacity="0.3">
<path d="M198.043 298.057V303.979C198.043 304.339 198.601 304.339 198.601 303.979V298.057C198.601 297.697 198.043 297.697 198.043 298.057Z" fill="#263238"/>
</g>
<path d="M202.872 258.862H164.922V265.468H202.872V258.862Z" fill="#22514D"/>
<g opacity="0.3">
<path d="M167.965 259.221V265.143C167.965 265.503 168.523 265.503 168.523 265.143V259.221C168.523 258.861 167.965 258.861 167.965 259.221Z" fill="#263238"/>
</g>
<g opacity="0.3">
<path d="M171.102 259.221V265.143C171.102 265.503 171.66 265.503 171.66 265.143V259.221C171.66 258.861 171.102 258.861 171.102 259.221Z" fill="#263238"/>
</g>
<g opacity="0.3">
<path d="M174.191 259.221V265.143C174.191 265.503 174.749 265.503 174.749 265.143V259.221C174.749 258.861 174.191 258.861 174.191 259.221Z" fill="#263238"/>
</g>
<g opacity="0.3">
<path d="M177.289 259.221V265.143C177.289 265.503 177.847 265.503 177.847 265.143V259.221C177.847 258.861 177.289 258.861 177.289 259.221Z" fill="#263238"/>
</g>
<g opacity="0.3">
<path d="M180.379 259.221V265.143C180.379 265.503 180.937 265.503 180.937 265.143V259.221C180.937 258.861 180.379 258.861 180.379 259.221Z" fill="#263238"/>
</g>
<g opacity="0.3">
<path d="M183.469 259.221V265.143C183.469 265.503 184.027 265.503 184.027 265.143V259.221C184.027 258.861 183.469 258.861 183.469 259.221Z" fill="#263238"/>
</g>
<g opacity="0.3">
<path d="M186.559 259.221V265.143C186.559 265.503 187.117 265.503 187.117 265.143V259.221C187.117 258.861 186.559 258.861 186.559 259.221Z" fill="#263238"/>
</g>
<g opacity="0.3">
<path d="M189.648 259.221V265.143C189.648 265.503 190.206 265.503 190.206 265.143V259.221C190.206 258.861 189.648 258.861 189.648 259.221Z" fill="#263238"/>
</g>
<g opacity="0.3">
<path d="M192.746 259.221V265.143C192.746 265.503 193.304 265.503 193.304 265.143V259.221C193.304 258.861 192.746 258.861 192.746 259.221Z" fill="#263238"/>
</g>
<g opacity="0.3">
<path d="M195.836 259.221V265.143C195.836 265.503 196.394 265.503 196.394 265.143V259.221C196.394 258.861 195.836 258.861 195.836 259.221Z" fill="#263238"/>
</g>
<g opacity="0.3">
<path d="M198.926 259.221V265.143C198.926 265.503 199.484 265.503 199.484 265.143V259.221C199.484 258.861 198.926 258.861 198.926 259.221Z" fill="#263238"/>
</g>
<path d="M202.309 271.709H164.359V278.315H202.309V271.709Z" fill="#22514D"/>
<path d="M205.208 265.276H167.258V271.882H205.208V265.276Z" fill="#22514D"/>
<path opacity="0.2" d="M205.208 265.276H167.258V271.882H205.208V265.276Z" fill="black"/>
<g opacity="0.3">
<path d="M170.48 265.62V271.542C170.48 271.902 171.038 271.902 171.038 271.542V265.62C171.038 265.26 170.48 265.26 170.48 265.62Z" fill="#263238"/>
</g>
<g opacity="0.3">
<path d="M173.617 265.62V271.542C173.617 271.902 174.175 271.902 174.175 271.542V265.62C174.175 265.26 173.617 265.26 173.617 265.62Z" fill="#263238"/>
</g>
<g opacity="0.3">
<path d="M176.707 265.62V271.542C176.707 271.902 177.265 271.902 177.265 271.542V265.62C177.265 265.26 176.707 265.26 176.707 265.62Z" fill="#263238"/>
</g>
<g opacity="0.3">
<path d="M179.797 265.62V271.542C179.797 271.902 180.355 271.902 180.355 271.542V265.62C180.355 265.26 179.797 265.26 179.797 265.62Z" fill="#263238"/>
</g>
<g opacity="0.3">
<path d="M182.887 265.62V271.542C182.887 271.902 183.445 271.902 183.445 271.542V265.62C183.445 265.26 182.887 265.26 182.887 265.62Z" fill="#263238"/>
</g>
<g opacity="0.3">
<path d="M185.984 265.62V271.542C185.984 271.902 186.542 271.902 186.542 271.542V265.62C186.542 265.26 185.984 265.26 185.984 265.62Z" fill="#263238"/>
</g>
<g opacity="0.3">
<path d="M189.074 265.62V271.542C189.074 271.902 189.632 271.902 189.632 271.542V265.62C189.632 265.26 189.074 265.26 189.074 265.62Z" fill="#263238"/>
</g>
<g opacity="0.3">
<path d="M192.164 265.62V271.542C192.164 271.902 192.722 271.902 192.722 271.542V265.62C192.722 265.26 192.164 265.26 192.164 265.62Z" fill="#263238"/>
</g>
<g opacity="0.3">
<path d="M195.254 265.62V271.542C195.254 271.902 195.812 271.902 195.812 271.542V265.62C195.812 265.26 195.254 265.26 195.254 265.62Z" fill="#263238"/>
</g>
<g opacity="0.3">
<path d="M198.344 265.62V271.542C198.344 271.902 198.902 271.902 198.902 271.542V265.62C198.902 265.26 198.344 265.26 198.344 265.62Z" fill="#263238"/>
</g>
<g opacity="0.3">
<path d="M201.441 265.62V271.542C201.441 271.902 201.999 271.902 201.999 271.542V265.62C201.999 265.26 201.441 265.26 201.441 265.62Z" fill="#263238"/>
</g>
<g opacity="0.3">
<path d="M167.09 272.171V278.093C167.09 278.453 167.648 278.453 167.648 278.093V272.171C167.648 271.811 167.09 271.811 167.09 272.171Z" fill="#263238"/>
</g>
<g opacity="0.3">
<path d="M170.227 272.171V278.093C170.227 278.453 170.785 278.453 170.785 278.093V272.171C170.785 271.811 170.227 271.811 170.227 272.171Z" fill="#263238"/>
</g>
<g opacity="0.3">
<path d="M173.316 272.171V278.093C173.316 278.453 173.874 278.453 173.874 278.093V272.171C173.874 271.811 173.316 271.811 173.316 272.171Z" fill="#263238"/>
</g>
<g opacity="0.3">
<path d="M176.406 272.171V278.093C176.406 278.453 176.964 278.453 176.964 278.093V272.171C176.964 271.811 176.406 271.811 176.406 272.171Z" fill="#263238"/>
</g>
<g opacity="0.3">
<path d="M179.496 272.171V278.093C179.496 278.453 180.054 278.453 180.054 278.093V272.171C180.054 271.811 179.496 271.811 179.496 272.171Z" fill="#263238"/>
</g>
<g opacity="0.3">
<path d="M182.594 272.171V278.093C182.594 278.453 183.152 278.453 183.152 278.093V272.171C183.152 271.811 182.594 271.811 182.594 272.171Z" fill="#263238"/>
</g>
<g opacity="0.3">
<path d="M185.684 272.171V278.093C185.684 278.453 186.242 278.453 186.242 278.093V272.171C186.242 271.811 185.684 271.811 185.684 272.171Z" fill="#263238"/>
</g>
<g opacity="0.3">
<path d="M188.773 272.171V278.093C188.773 278.453 189.331 278.453 189.331 278.093V272.171C189.331 271.811 188.773 271.811 188.773 272.171Z" fill="#263238"/>
</g>
<g opacity="0.3">
<path d="M191.863 272.171V278.093C191.863 278.453 192.421 278.453 192.421 278.093V272.171C192.421 271.811 191.863 271.811 191.863 272.171Z" fill="#263238"/>
</g>
<g opacity="0.3">
<path d="M194.953 272.171V278.093C194.953 278.453 195.511 278.453 195.511 278.093V272.171C195.511 271.811 194.953 271.811 194.953 272.171Z" fill="#263238"/>
</g>
<g opacity="0.3">
<path d="M198.043 272.171V278.093C198.043 278.453 198.601 278.453 198.601 278.093V272.171C198.601 271.811 198.043 271.811 198.043 272.171Z" fill="#263238"/>
</g>
<path d="M283.439 75.2377C287.285 70.3177 291.863 66.9037 295.889 67.9777C296.729 68.1997 298.373 69.5617 299.063 70.1017C303.047 73.2097 302.507 80.5537 297.863 86.5057C293.219 92.4517 286.223 94.7557 282.239 91.6417C281.657 91.1917 279.977 89.9377 279.587 89.3257C277.301 85.7197 279.467 80.3257 283.439 75.2437V75.2377Z" fill="#22514D"/>
<g opacity="0.2">
<path d="M294.485 85.9631L292.445 87.7511C293.435 88.0691 294.323 88.7051 294.947 89.5391C295.655 88.9511 296.339 88.2971 296.987 87.5711C296.309 86.8331 295.439 86.2691 294.485 85.9631Z" fill="white"/>
</g>
<g opacity="0.2">
<path d="M299.304 76.4319L299.07 77.7939C299.97 77.9919 300.732 78.2139 301.584 78.4179C301.686 77.7999 301.74 77.1879 301.752 76.5999C300.894 76.4979 300.198 76.4799 299.298 76.4319H299.304Z" fill="white"/>
</g>
<g opacity="0.2">
<path d="M301.737 75.7281C301.635 73.8861 301.065 72.2481 300.021 71.0061C299.463 71.0541 298.905 71.1261 298.359 71.2341L299.391 75.5781C300.183 75.6081 300.993 75.6081 301.737 75.7281Z" fill="white"/>
</g>
<path opacity="0.2" d="M283.455 75.2299C287.301 70.3099 291.879 66.8959 295.905 67.9699C296.745 68.1919 298.389 69.5539 299.079 70.0939C303.063 73.2019 302.523 80.5459 297.879 86.4979C293.235 92.4439 286.239 94.7479 282.255 91.6339C281.673 91.1839 279.993 89.9299 279.603 89.3179C277.317 85.7119 279.483 80.3179 283.455 75.2359V75.2299Z" fill="black"/>
<path d="M281.152 73.4493C285.766 67.5453 292.732 65.2773 296.716 68.3913C300.7 71.4993 300.19 78.8133 295.576 84.7173C290.962 90.6213 283.996 92.8893 280.012 89.7753C276.028 86.6673 276.538 79.3533 281.152 73.4493Z" fill="#22514D"/>
<path d="M283.499 75.1603C286.703 71.0563 291.515 69.4483 294.233 71.5723C296.957 73.6963 296.561 78.7483 293.357 82.8583C290.153 86.9623 285.341 88.5703 282.623 86.4463C279.899 84.3223 280.295 79.2703 283.499 75.1603Z" fill="#22514D"/>
<path opacity="0.2" d="M283.499 75.1603C286.703 71.0563 291.515 69.4483 294.233 71.5723C296.957 73.6963 296.561 78.7483 293.357 82.8583C290.153 86.9623 285.341 88.5703 282.623 86.4463C279.899 84.3223 280.295 79.2703 283.499 75.1603Z" fill="black"/>
<path opacity="0.2" d="M293.008 82.3364C289.804 86.4404 284.992 88.0484 282.274 85.9244C281.974 85.6904 281.716 85.4204 281.488 85.1144C281.776 85.6424 282.154 86.1044 282.628 86.4764C285.352 88.6004 290.158 86.9984 293.362 82.8884C296.212 79.2344 296.836 74.8364 295.024 72.4124C296.38 74.9144 295.654 78.9464 293.008 82.3364Z" fill="black"/>
<path opacity="0.2" d="M295.86 77.5899C296.01 77.5659 299.274 76.4319 299.274 76.4319L299.076 77.7519L295.578 78.8619L295.866 77.5899H295.86Z" fill="white"/>
<path opacity="0.2" d="M281 90.4045C281.132 90.4765 281.27 90.5365 281.408 90.5965L282.872 91.0405C282.872 91.0405 282.884 91.0405 282.89 91.0405L292.526 87.8425C292.526 87.8425 292.538 87.8305 292.544 87.8305L294.566 85.9165C294.566 85.9165 294.572 85.9105 294.578 85.9045C294.53 85.9225 282.482 90.0445 281.006 90.4045H281Z" fill="white"/>
<path opacity="0.2" d="M283.191 71.2161C285.609 70.4541 292.161 68.1981 294.669 67.3281C291.291 66.2781 286.839 67.7781 283.191 71.2161Z" fill="white"/>
<path opacity="0.2" d="M296.02 76.3932L299.362 75.5772C299.362 75.5772 299.428 72.4752 298.78 71.2092L295.066 72.4392C295.066 72.4392 295.066 72.4452 295.066 72.4512C295.81 73.4892 296.116 74.8692 296.014 76.3932H296.02Z" fill="white"/>
<path opacity="0.2" d="M282.564 76.516L278.496 78.01C277.788 79.744 277.404 81.478 277.344 83.092L280.86 81.328C281.016 79.786 281.592 78.112 282.564 76.51V76.516Z" fill="white"/>
<g opacity="0.2">
<path d="M290.852 74.4049L291.842 73.1389L292.604 73.7329L291.638 74.9689C292.34 75.6289 292.79 76.5469 292.832 77.3569L291.572 78.5929L291.332 78.4069C291.278 77.6869 290.966 76.9549 290.48 76.4449L289.004 78.3349C289.61 79.3009 290.234 80.4589 288.968 82.0789C288.032 83.2789 286.64 83.8489 285.272 83.1109L284.288 84.3649L283.526 83.7709L284.492 82.5349C283.97 82.0189 283.592 81.3589 283.484 80.6329L284.954 79.5409L285.194 79.7269C285.338 80.2369 285.386 80.7289 285.662 81.0409L287.168 79.1149C286.55 78.1609 285.944 77.0149 287.192 75.4129C288.11 74.2369 289.49 73.6669 290.852 74.3929V74.4049ZM287.708 80.0029L286.454 81.6109C286.964 81.7909 287.384 81.5869 287.672 81.2149C287.984 80.8189 287.918 80.4229 287.708 80.0029ZM288.524 76.2469C288.212 76.6429 288.266 77.0329 288.464 77.4589L289.682 75.8989C289.202 75.7249 288.806 75.8869 288.524 76.2529V76.2469Z" fill="black"/>
</g>
<path d="M291.087 74.5924L292.077 73.3264L292.839 73.9204L291.873 75.1564C292.575 75.8164 293.025 76.7344 293.067 77.5444L291.567 78.6004C291.513 77.8804 291.201 77.1484 290.715 76.6384L289.239 78.5284C289.845 79.4944 290.469 80.6524 289.203 82.2724C288.267 83.4724 286.875 84.0424 285.507 83.3044L284.523 84.5584L283.761 83.9644L284.727 82.7284C284.205 82.2124 283.827 81.5524 283.719 80.8264L285.189 79.7344C285.321 80.3644 285.567 80.8684 285.897 81.2344L287.403 79.3084C286.785 78.3544 286.179 77.2084 287.427 75.6064C288.345 74.4304 289.725 73.8604 291.087 74.5864V74.5924ZM287.943 80.1904L286.689 81.7984C287.199 81.9784 287.619 81.7744 287.907 81.4024C288.219 81.0064 288.153 80.6104 287.943 80.1904ZM288.759 76.4344C288.447 76.8304 288.501 77.2204 288.699 77.6464L289.917 76.0864C289.437 75.9124 289.041 76.0744 288.759 76.4404V76.4344Z" fill="#22514D"/>
<path d="M298.419 70.8291C300.321 74.9331 298.635 79.9371 296.259 83.4651C293.859 87.0351 290.067 90.2331 285.693 90.8871C283.725 91.1811 281.715 90.8391 280.107 89.6211C279.921 89.4771 279.735 89.7951 279.921 89.9391C283.095 92.3511 287.433 91.3311 290.589 89.4351C294.855 86.8731 298.215 82.3731 299.265 77.4891C299.757 75.2151 299.727 72.7851 298.731 70.6491C298.629 70.4331 298.311 70.6191 298.413 70.8351L298.419 70.8291Z" fill="#263238"/>
<path d="M188.662 211.397C197.182 215.423 203.722 221.039 203.476 227.321C203.422 228.629 201.964 231.509 201.406 232.697C198.148 239.591 187.156 241.235 176.86 236.369C166.564 231.503 160.858 221.969 164.122 215.075C164.596 214.073 165.88 211.175 166.654 210.401C171.208 205.835 179.866 207.245 188.662 211.403V211.397Z" fill="#22514D"/>
<g opacity="0.2">
<path d="M176.526 231.215L173.22 228.803C173.082 230.369 172.434 231.881 171.414 233.081C172.512 233.927 173.706 234.719 174.99 235.433C175.854 234.191 176.394 232.721 176.532 231.215H176.526Z" fill="white"/>
</g>
<g opacity="0.2">
<path d="M192.154 235.147L190.072 235.255C190.072 236.647 190.006 237.841 189.988 239.167C190.936 239.113 191.848 238.993 192.724 238.813C192.592 237.511 192.388 236.491 192.16 235.147H192.154Z" fill="white"/>
</g>
<g opacity="0.2">
<path d="M193.998 238.501C196.68 237.739 198.9 236.359 200.382 234.415C200.124 233.611 199.836 232.819 199.494 232.045L193.434 235.003C193.65 236.179 193.92 237.373 193.992 238.501H193.998Z" fill="white"/>
</g>
<path opacity="0.2" d="M188.67 211.42C197.19 215.446 203.73 221.062 203.484 227.344C203.43 228.652 201.972 231.526 201.414 232.72C198.156 239.614 187.164 241.258 176.868 236.392C166.572 231.526 160.866 221.992 164.13 215.098C164.604 214.096 165.888 211.198 166.662 210.424C171.216 205.858 179.874 207.268 188.67 211.426V211.42Z" fill="black"/>
<path d="M203.136 228.663C206.394 221.769 200.749 212.264 190.527 207.432C180.305 202.6 169.377 204.271 166.119 211.165C162.86 218.058 168.505 227.564 178.727 232.396C188.949 237.227 199.877 235.556 203.136 228.663Z" fill="#22514D"/>
<path d="M188.796 211.453C195.906 214.813 199.86 221.359 197.634 226.069C195.408 230.779 187.842 231.877 180.732 228.517C173.622 225.157 169.668 218.611 171.894 213.901C174.12 209.191 181.686 208.093 188.796 211.453Z" fill="#22514D"/>
<path opacity="0.2" d="M188.796 211.453C195.906 214.813 199.86 221.359 197.634 226.069C195.408 230.779 187.842 231.877 180.732 228.517C173.622 225.157 169.668 218.611 171.894 213.901C174.12 209.191 181.686 208.093 188.796 211.453Z" fill="black"/>
<path opacity="0.2" d="M181.381 227.837C174.271 224.477 170.317 217.931 172.543 213.221C172.789 212.699 173.101 212.225 173.473 211.799C172.789 212.399 172.237 213.107 171.847 213.929C169.621 218.639 173.575 225.185 180.685 228.545C187.009 231.533 193.693 230.993 196.657 227.519C193.423 230.345 187.249 230.609 181.381 227.837Z" fill="black"/>
<path opacity="0.2" d="M189.312 230.463C189.402 230.673 192.144 235.101 192.144 235.101L190.134 235.245L187.344 230.463H189.312Z" fill="white"/>
<path opacity="0.2" d="M165.529 212.836C165.469 213.058 165.421 213.28 165.379 213.502L165.211 215.8C165.211 215.8 165.211 215.818 165.211 215.83L173.119 228.952C173.119 228.952 173.137 228.964 173.143 228.97L176.635 231.31C176.635 231.31 176.647 231.316 176.653 231.322C176.617 231.262 166.549 214.888 165.523 212.83L165.529 212.836Z" fill="white"/>
<path opacity="0.2" d="M194.5 209.698C196.42 213.004 201.916 221.896 204.028 225.304C204.454 219.982 200.77 213.928 194.5 209.698Z" fill="white"/>
<path opacity="0.2" d="M191.125 230.3L193.435 234.95C193.435 234.95 198.025 234.02 199.669 232.652L196.627 227.588C196.627 227.588 196.621 227.594 196.615 227.6C195.337 229.034 193.405 229.946 191.125 230.3Z" fill="white"/>
<path opacity="0.2" d="M186.486 210.523L182.94 205.027C180.156 204.559 177.474 204.565 175.074 205.021L178.83 209.611C181.158 209.329 183.81 209.623 186.486 210.523Z" fill="white"/>
<g opacity="0.2">
<path d="M192.348 222.032L194.544 223.07L193.92 224.39L191.784 223.382C191.046 224.636 189.846 225.602 188.658 225.932L186.414 224.486L186.606 224.072C187.644 223.754 188.622 223.052 189.21 222.164L185.934 220.616C184.71 221.834 183.21 223.13 180.408 221.804C178.332 220.82 177.03 218.96 177.666 216.704L175.488 215.678L176.112 214.358L178.248 215.366C178.836 214.43 179.682 213.65 180.714 213.248L182.814 215.048L182.622 215.462C181.92 215.84 181.206 216.074 180.84 216.59L184.17 218.168C185.376 216.944 186.858 215.672 189.624 216.98C191.664 217.946 192.948 219.782 192.342 222.032H192.348ZM183.06 219.26L180.276 217.946C180.18 218.756 180.618 219.302 181.266 219.608C181.95 219.932 182.514 219.71 183.06 219.26ZM188.856 219.218C188.172 218.894 187.614 219.098 187.056 219.53L189.762 220.808C189.858 220.046 189.486 219.512 188.862 219.218H188.856Z" fill="black"/>
</g>
<path d="M192.151 222.439L194.347 223.477L193.723 224.797L191.587 223.789C190.849 225.043 189.649 226.009 188.461 226.339L186.415 224.479C187.453 224.161 188.431 223.459 189.019 222.571L185.743 221.023C184.519 222.241 183.019 223.537 180.217 222.211C178.141 221.227 176.839 219.367 177.475 217.111L175.297 216.085L175.921 214.765L178.057 215.773C178.645 214.837 179.491 214.057 180.523 213.655L182.623 215.455C181.735 215.863 181.081 216.391 180.649 216.997L183.979 218.575C185.185 217.351 186.667 216.079 189.433 217.387C191.473 218.353 192.757 220.189 192.151 222.439ZM182.863 219.667L180.079 218.353C179.983 219.163 180.421 219.709 181.069 220.015C181.753 220.339 182.317 220.117 182.863 219.667ZM188.659 219.625C187.975 219.301 187.417 219.505 186.859 219.937L189.565 221.215C189.661 220.453 189.289 219.919 188.665 219.625H188.659Z" fill="#22514D"/>
<path d="M200.107 231.992C194.347 236.456 185.713 235.22 179.515 232.46C173.863 229.946 168.337 225.488 166.225 219.488C165.289 216.83 165.163 213.908 166.363 211.31C166.513 210.986 166.033 210.704 165.883 211.028C163.453 216.29 166.063 222.116 169.669 226.118C174.703 231.716 182.413 235.286 189.943 235.436C193.663 235.514 197.515 234.698 200.509 232.382C200.791 232.166 200.395 231.77 200.113 231.986L200.107 231.992Z" fill="#263238"/>
<path d="M371.878 103.144L377.092 100.804C383.602 104.776 392.074 104.98 398.914 100.588C408.424 94.4862 411.148 81.8562 405.01 72.3762C398.866 62.9022 386.182 60.1662 376.672 66.2742C367.162 72.3762 364.438 85.0062 370.582 94.4862C371.08 95.2602 371.638 95.9682 372.22 96.6522L371.884 103.144H371.878Z" fill="#22514D"/>
<g opacity="0.7">
<path d="M371.878 103.144L377.092 100.804C383.602 104.776 392.074 104.98 398.914 100.588C408.424 94.4862 411.148 81.8562 405.01 72.3762C398.866 62.9022 386.182 60.1662 376.672 66.2742C367.162 72.3762 364.438 85.0062 370.582 94.4862C371.08 95.2602 371.638 95.9682 372.22 96.6522L371.884 103.144H371.878Z" fill="white"/>
</g>
<path d="M377.24 94.4005C376.584 94.4005 376.048 94.1925 375.632 93.7765C375.216 93.3605 375.008 92.7885 375.008 92.0605C375.008 91.5725 375.104 91.1525 375.296 90.8005C375.488 90.4485 375.752 90.1805 376.088 89.9965C376.432 89.8125 376.816 89.7205 377.24 89.7205C377.664 89.7205 378.044 89.8125 378.38 89.9965C378.724 90.1805 378.992 90.4485 379.184 90.8005C379.376 91.1525 379.472 91.5725 379.472 92.0605C379.472 92.7885 379.264 93.3605 378.848 93.7765C378.432 94.1925 377.896 94.4005 377.24 94.4005ZM382.172 89.8405H384.2L378.464 98.2405H376.436L382.172 89.8405ZM377.24 93.1045C377.392 93.1045 377.516 93.0245 377.612 92.8645C377.716 92.6965 377.768 92.4285 377.768 92.0605C377.768 91.6925 377.716 91.4285 377.612 91.2685C377.516 91.1005 377.392 91.0165 377.24 91.0165C377.088 91.0165 376.96 91.1005 376.856 91.2685C376.76 91.4285 376.712 91.6925 376.712 92.0605C376.712 92.4285 376.76 92.6965 376.856 92.8645C376.96 93.0245 377.088 93.1045 377.24 93.1045ZM383.396 98.3605C382.74 98.3605 382.204 98.1525 381.788 97.7365C381.372 97.3205 381.164 96.7485 381.164 96.0205C381.164 95.5325 381.26 95.1125 381.452 94.7605C381.644 94.4085 381.908 94.1405 382.244 93.9565C382.588 93.7725 382.972 93.6805 383.396 93.6805C383.82 93.6805 384.2 93.7725 384.536 93.9565C384.88 94.1405 385.148 94.4085 385.34 94.7605C385.532 95.1125 385.628 95.5325 385.628 96.0205C385.628 96.7485 385.42 97.3205 385.004 97.7365C384.588 98.1525 384.052 98.3605 383.396 98.3605ZM383.396 97.0645C383.548 97.0645 383.672 96.9845 383.768 96.8245C383.872 96.6565 383.924 96.3885 383.924 96.0205C383.924 95.6525 383.872 95.3885 383.768 95.2285C383.672 95.0605 383.548 94.9765 383.396 94.9765C383.244 94.9765 383.116 95.0605 383.012 95.2285C382.916 95.3885 382.868 95.6525 382.868 96.0205C382.868 96.3885 382.916 96.6565 383.012 96.8245C383.116 96.9845 383.244 97.0645 383.396 97.0645Z" fill="#22514D"/>
</svg>
