<svg width="465" height="146" viewBox="0 0 465 146" fill="none" xmlns="http://www.w3.org/2000/svg">
<g clip-path="url(#clip0_1_181)">
<g filter="url(#filter0_b_1_181)">
<rect x="38.6976" y="28" width="72" height="72" rx="36" transform="rotate(16.7064 38.6976 28)" fill="#FAFFFF"/>
<rect x="39.1841" y="28.9037" width="70.5486" height="70.5486" rx="35.2743" transform="rotate(16.7064 39.1841 28.9037)" stroke="url(#paint0_linear_1_181)" stroke-width="1.45143"/>
</g>
<path d="M74.1014 56.1468L61.5304 52.3738C57.1934 51.0721 52.6171 53.5355 51.3154 57.8725L46.5992 73.5863C45.2975 77.9232 47.7609 82.4996 52.0979 83.8013L64.6689 87.5743C69.0059 88.8759 73.5822 86.4125 74.8839 82.0755L79.6002 66.3618C80.9019 62.0248 78.4384 57.4484 74.1014 56.1468ZM55.0387 78.9113C54.6505 79.1203 54.2105 79.1595 53.802 79.0369C53.3777 78.9095 53.032 78.6345 52.823 78.2463C52.6141 77.8582 52.5592 77.4134 52.6865 76.9892C52.8091 76.5806 53.1046 76.2239 53.4928 76.015C53.6766 75.916 53.8825 75.8579 54.0946 75.8359C54.5346 75.7967 54.9589 75.924 55.3046 76.1991C55.3894 76.2588 55.4696 76.3342 55.5293 76.4207C55.6094 76.4961 55.6644 76.5982 55.7084 76.68C55.9173 77.0681 55.9676 77.5286 55.845 77.9371C55.7176 78.3614 55.4269 78.7024 55.0387 78.9113ZM54.573 70.7037C54.6343 70.4994 54.7428 70.3093 54.8779 70.1443C55.0178 69.9636 55.175 69.8394 55.3793 69.7295C55.8491 69.4765 56.451 69.4687 56.9208 69.7297C57.0104 69.7737 57.111 69.8381 57.1911 69.9136C57.2759 69.9733 57.3561 70.0487 57.4158 70.1352C57.4959 70.2106 57.5509 70.3127 57.5949 70.3945C57.6892 70.594 57.7677 70.7889 57.785 71.0168C57.8069 71.2289 57.7771 71.4426 57.7157 71.6469C57.5884 72.0712 57.3134 72.4169 56.9252 72.6258C56.537 72.8348 56.097 72.874 55.6885 72.7514C55.4685 72.6853 55.2783 72.5769 55.1133 72.4417C54.9484 72.3066 54.8085 72.1447 54.7095 71.9608C54.5006 71.5727 54.4457 71.1279 54.573 70.7037ZM61.3242 80.7978C61.1403 80.8968 60.9345 80.9549 60.7223 80.9769C60.5102 80.9989 60.2917 80.9847 60.0717 80.9187C59.6632 80.796 59.3175 80.521 59.1086 80.1328C58.8996 79.7447 58.8447 79.2999 58.972 78.8757C59.005 78.7657 59.049 78.6761 59.0977 78.5708C59.1575 78.486 59.2172 78.4011 59.2769 78.3163C59.3524 78.2361 59.4278 78.156 59.5032 78.0759C59.5897 78.0162 59.6761 77.9565 59.7783 77.9015C59.9621 77.8025 60.168 77.7444 60.3801 77.7224C61.0323 77.6612 61.686 77.9944 61.9939 78.5665C62.2028 78.9546 62.2374 79.4104 62.1147 79.8189C61.9874 80.2432 61.7124 80.5889 61.3242 80.7978ZM63.2107 74.5123C62.8225 74.7213 62.3825 74.7605 61.9582 74.6332C61.5497 74.5105 61.204 74.2355 60.9951 73.8473C60.7861 73.4592 60.7312 73.0144 60.8585 72.5902C60.9811 72.1816 61.2766 71.8249 61.6648 71.616C62.4207 71.2091 63.4735 71.5251 63.8804 72.281C63.9747 72.4805 64.0532 72.6754 64.0705 72.9033C64.0924 73.1154 64.0626 73.3291 64.0012 73.5334C63.8739 73.9577 63.5989 74.3034 63.2107 74.5123ZM59.1119 66.1392C57.4933 65.6534 56.5538 63.9326 57.0443 62.2984L57.516 60.727C58.0017 59.1085 59.7226 58.169 61.3568 58.6595L70.785 61.4892C72.4036 61.975 73.3431 63.6958 72.8526 65.3301L72.3809 66.9014C71.8952 68.5199 70.1743 69.4594 68.5401 68.969L59.1119 66.1392ZM67.6097 82.6843C67.2215 82.8933 66.7815 82.9325 66.3572 82.8052C66.153 82.7439 65.9628 82.6354 65.7979 82.5002C65.6329 82.3651 65.493 82.2032 65.3941 82.0193C65.1851 81.6312 65.1459 81.1911 65.2732 80.7669C65.3958 80.3583 65.6756 79.9969 66.0638 79.788C66.6201 79.4753 67.3649 79.5618 67.8756 79.9721C68.0406 80.1072 68.1804 80.2691 68.2794 80.453C68.4884 80.8411 68.5229 81.2969 68.4002 81.7054C68.2729 82.1297 67.9979 82.4754 67.6097 82.6843ZM69.9975 75.984C69.8624 76.149 69.7005 76.2888 69.4962 76.3988C69.108 76.6078 68.668 76.647 68.2437 76.5197C67.8352 76.397 67.4895 76.122 67.2806 75.7338C67.0716 75.3457 67.0167 74.9009 67.144 74.4767C67.2666 74.0681 67.5621 73.7114 67.9503 73.5025C68.7062 73.0956 69.759 73.4116 70.1659 74.1675C70.3749 74.5556 70.4251 75.0161 70.3025 75.4246C70.2411 75.6289 70.1327 75.819 69.9975 75.984Z" fill="url(#paint1_linear_1_181)"/>
<g filter="url(#filter1_b_1_181)">
<rect x="286.802" y="48.8292" width="39.1918" height="39.1918" rx="19.5959" transform="rotate(15 286.802 48.8292)" fill="#FAFFFF"/>
<rect x="287.116" y="49.3735" width="38.303" height="38.303" rx="19.1515" transform="rotate(15 287.116 49.3735)" stroke="url(#paint2_linear_1_181)" stroke-width="0.888816"/>
</g>
<path d="M304.754 69.518C304.886 69.7636 304.988 70.0507 305.061 70.3794L306.774 70.8384L306.325 72.5171L305.027 72.1693L305.008 72.2385C304.776 73.1038 304.352 73.7877 303.735 74.2901C303.118 74.7926 302.357 75.0956 301.451 75.1991L303.113 80.2814L299.444 79.2984L298.003 74.7761L294.715 73.895L295.425 71.2472L298.782 72.1468C299.497 72.3385 300.082 72.3469 300.537 72.172C301.004 72.0002 301.335 71.6871 301.531 71.2326L295.474 69.6097L295.924 67.931L301.583 69.4473C301.297 68.8515 300.699 68.4314 299.787 68.1872L296.118 67.2041L296.568 65.5255L307.419 68.4329L306.969 70.1116L304.754 69.518Z" fill="url(#paint3_linear_1_181)"/>
<g clip-path="url(#clip1_1_181)">
<path d="M413.393 -37.8499C400.903 -38.1252 388.577 -35.3242 376.988 -31.4482C371.36 -29.5649 365.802 -27.4673 360.374 -25.1776C355.194 -22.9927 350.254 -20.4452 345.164 -18.1117C339.78 -15.6472 334.566 -12.9248 329.262 -10.3379C324.312 -7.92581 319.287 -5.64047 314.307 -3.2808C303.146 2.00223 291.208 6.55122 279.027 9.68871C267.059 12.7694 254.843 13.674 242.442 12.6253C229.797 11.5591 217.411 8.87602 205.354 5.40643C180.134 -1.84736 156.294 -12.1557 131.831 -21.0918C108.932 -29.4599 85.2409 -37.0851 60.1804 -37.8979C57.0229 -37.9984 53.8606 -37.9896 50.7031 -37.8454" stroke="#CFCECE" stroke-width="1.03557" stroke-miterlimit="10" stroke-linecap="round"/>
<path d="M421.95 -17.9526C409.917 -19.3072 397.731 -16.6155 386.331 -13.5348C380.534 -11.9704 374.722 -10.2925 369.254 -7.96784C364.114 -5.78296 358.855 -3.75967 353.616 -1.74521C348.581 0.190591 343.416 1.84235 338.356 3.70823C332.749 5.7795 327.166 7.68906 321.294 9.15293C309.367 12.1287 297.359 14.5451 284.864 14.0907C283.639 14.047 282.428 13.9203 281.208 13.8504C279.704 13.7674 278.145 13.9466 276.631 13.9947C273.459 14.0908 270.282 14.0996 267.109 14.0384C260.884 13.9248 254.664 13.5532 248.478 13.007C241.635 12.3996 234.827 11.53 228.054 10.5031C221.565 9.51992 215.131 8.27459 208.681 7.0598C205.28 6.42182 201.883 5.74446 198.497 5.04967C196.898 4.72194 195.304 4.38545 193.706 4.04898C192.177 3.72562 190.648 3.64706 189.114 3.3805C182.396 2.20941 175.742 0.422265 169.123 -1.12026C156.199 -4.13102 143.196 -7.11136 130.053 -9.27002C123.3 -10.3799 116.572 -11.8655 109.794 -12.9711C103.529 -13.9936 97.3133 -15.0991 91.0033 -15.9032C77.9153 -17.5724 64.6827 -18.5294 51.4453 -18.324C48.3426 -18.276 45.2451 -18.1623 42.1523 -17.9613" stroke="#CFCECE" stroke-width="1.03557" stroke-miterlimit="10" stroke-linecap="round"/>
<path d="M433.161 0.921642C428.186 -0.380545 422.394 -0.144484 417.284 0.14392C410.745 0.510979 404.356 1.67321 397.946 2.75254C394.799 3.28128 391.641 3.87133 388.593 4.74091C386.392 5.37016 384.305 6.18283 382.059 6.71157C379.549 7.30148 377.139 8.1187 374.644 8.74794C371.954 9.42525 369.17 9.86229 366.476 10.5571C364.235 11.1339 361.954 11.5752 359.698 12.104C357.372 12.6502 355.121 13.3887 352.761 13.8606C346.54 15.1017 340.111 15.8881 333.771 16.4693C327.436 17.0504 321.047 17.1159 314.702 16.6003C312.222 16.3993 309.622 15.6259 307.172 15.8488C303.905 16.1503 300.633 16.3732 297.356 16.548C268.714 18.0468 240.058 15.8968 211.601 13.1919C209.833 13.0259 208.045 12.7506 206.272 12.72C204.584 12.6894 202.97 12.6983 201.287 12.5322C197.492 12.152 193.702 11.7588 189.912 11.348C182.686 10.5702 175.459 9.76616 168.238 8.92717C160.817 8.06633 153.397 7.2186 145.967 6.41456C138.89 5.64985 131.813 5.156 124.726 4.48743C117.196 3.77516 109.656 3.14592 102.105 2.63028C99.6104 2.45986 97.1452 2.03607 94.6451 1.83507C90.895 1.53792 87.14 1.2801 83.3849 1.06161C69.2062 0.235727 54.9676 -0.0746107 40.764 0.427911C37.492 0.541525 34.2202 0.703154 30.9531 0.921642" stroke="#CFCECE" stroke-width="1.03557" stroke-miterlimit="10" stroke-linecap="round"/>
<path d="M445.492 19.2971C443.604 18.4494 441.134 18.3708 439.073 18.2135C435.566 17.9513 432.031 17.82 428.51 17.8637C421.448 17.9511 414.301 18.6067 407.318 19.5156C404.774 19.8477 402.408 20.5206 399.928 21.0013C397.682 21.4383 395.406 21.7703 393.16 22.181C390.326 22.6966 387.497 23.2518 384.668 23.8024C382.382 24.2481 380.047 24.5277 377.771 24.9996C375.221 25.5283 372.781 26.21 370.166 26.564C366.899 27.0053 363.567 27.1933 360.33 27.5079C353.358 28.1896 346.44 28.3337 339.443 27.9142C337.047 27.77 334.776 27.4204 332.431 27.0577C331.101 26.8523 329.527 27.1626 328.163 27.2587C326.479 27.3767 324.796 27.4859 323.113 27.5777C315.767 27.9928 308.411 28.207 301.05 28.3119C293.54 28.4168 286.025 28.4255 278.515 28.3206C274.571 28.2682 270.631 28.1852 266.692 28.0759C262.971 27.9754 259.012 28.1545 255.342 27.5864C251.696 27.0184 247.777 27.1975 244.077 27.0402C240.157 26.8742 236.238 26.6906 232.318 26.494C228.453 26.2974 224.589 26.0876 220.724 25.8648C217.153 25.6594 213.592 25.7688 210.022 25.5503C194.817 24.6152 179.627 23.514 164.433 22.4652C156.743 21.9321 149.049 21.4164 141.349 20.9401C137.699 20.7128 134.058 20.8222 130.408 20.6081C126.563 20.3852 122.718 20.171 118.869 19.9744C114.969 19.7734 111.065 19.5899 107.165 19.4239C103.4 19.2622 99.4407 19.4195 95.7205 18.9257C92.0152 18.4319 88.1954 18.4798 84.4503 18.375C80.5059 18.2657 76.5666 18.1785 72.6222 18.1217C57.9106 17.9076 43.1839 18.0604 28.4922 18.7464C25.1953 18.8994 21.8985 19.083 18.6016 19.2971" stroke="#CFCECE" stroke-width="1.03557" stroke-miterlimit="10" stroke-linecap="round"/>
<path d="M457.82 37.6705C455.718 37.002 453.173 37.0282 450.977 36.9321C447.565 36.7791 444.139 36.7005 440.723 36.7223C432.889 36.7704 425.06 37.2947 417.271 37.972C414.532 38.208 411.673 38.3915 409.008 39.0382C406.518 39.6413 403.994 39.7987 401.449 40.1789C396.528 40.9174 391.772 42.1495 386.896 43.0628C384.735 43.4691 382.519 43.6439 380.422 44.2644C377.787 45.0423 375.118 45.5317 372.369 45.9118C368.888 46.3969 365.367 46.6372 361.901 47.1135C357.767 47.686 353.619 48.1623 349.455 48.5162C343.514 49.0231 337.572 49.0801 331.606 49.0276C328.324 49.0014 325.012 49.2722 321.73 49.3596C317.88 49.4601 314.031 49.5258 310.181 49.5651C294.443 49.7224 278.701 49.4557 262.973 48.9357C246.324 48.3851 229.71 47.2142 213.061 46.4058C208.873 46.2004 204.7 46.139 200.511 45.8769C196.248 45.6059 191.985 45.3264 187.722 45.0424C179.495 44.4918 171.272 43.9238 163.05 43.347C154.609 42.757 146.162 42.1757 137.716 41.6251C129.648 41.1007 121.58 40.8343 113.507 40.3711C81.2996 38.5184 49.0873 37.0457 16.7905 37.4696C13.2845 37.5133 9.78343 37.5789 6.27734 37.6663" stroke="#CFCECE" stroke-width="1.03557" stroke-miterlimit="10" stroke-linecap="round"/>
<path d="M469.03 56.55C462.899 55.96 456.5 56.2571 450.354 56.4187C442.381 56.6285 434.432 57.1442 426.474 57.5549C422.584 57.7559 418.69 57.9701 414.81 58.2891C412.126 58.5076 409.531 59.0013 406.887 59.3028C401.13 59.9539 395.328 60.3341 389.56 60.9502C377.449 62.2437 365.471 64.2014 353.259 64.7083C345.206 65.0404 337.178 65.8444 329.11 66.1459C323.333 66.3644 317.551 66.2113 311.774 66.3074C278.357 66.8842 244.96 65.5647 211.597 64.0703C194.241 63.2925 176.89 62.5538 159.539 61.6099C151.027 61.1468 142.511 60.7011 134 60.2685C125.18 59.8228 116.355 59.5694 107.535 59.1543C73.5748 57.5593 39.5996 56.3008 5.5796 56.4625C2.07352 56.48 -1.42751 56.5063 -4.93359 56.55" stroke="#CFCECE" stroke-width="1.03557" stroke-miterlimit="10" stroke-linecap="round"/>
<path d="M477.582 76.4473C462.357 76.373 447.148 76.8974 431.938 77.448C424.338 77.7233 416.724 77.8456 409.129 78.3044C403.82 78.6234 398.516 79.0037 393.187 79.2921C386.633 79.6461 380.074 79.9475 373.52 80.2491C368.122 80.4938 362.743 80.8782 357.349 81.1098C349.162 81.4637 340.954 81.7522 332.757 81.5818C324.032 81.3982 315.316 81.0049 306.596 80.7296C303.179 80.6203 299.753 80.5156 296.347 80.2666C295.475 80.201 294.598 80.0568 293.727 80.0043C292.168 79.9082 290.52 80.1004 288.951 80.1528C280.609 80.4325 272.262 80.6028 263.915 80.7296C246.823 80.9874 229.666 81.5162 212.579 81.101C193.933 80.6509 175.287 80.1615 156.646 79.5629C138.558 78.9773 120.46 78.2215 102.367 77.9112C84.8511 77.6097 67.3455 76.9935 49.83 76.74C32.205 76.4822 14.5851 76.3425 -3.03993 76.3993C-6.51614 76.4124 -9.99255 76.4299 -13.4688 76.4518" stroke="#CFCECE" stroke-width="1.03557" stroke-miterlimit="10" stroke-linecap="round"/>
<path d="M481.062 97.3281C466.092 97.3281 451.116 97.3281 436.145 97.3281C421.643 97.3281 407.136 97.3281 392.633 97.3281C379.819 97.3281 367.005 97.3281 354.186 97.3281C339.305 97.3281 324.429 97.3281 309.548 97.3281C294.916 97.3281 280.284 97.3281 265.652 97.3281C248.54 97.3281 231.433 97.3281 214.321 97.3281C195.65 97.3281 176.979 97.3281 158.303 97.3281C139.921 97.3281 121.539 97.3281 103.157 97.3281C84.5511 97.3281 65.945 97.3281 47.3439 97.3281C29.1959 97.3281 11.0529 97.3281 -7.09507 97.3281C-10.382 97.3281 -13.674 97.3281 -16.9609 97.3281" stroke="#CFCECE" stroke-width="1.03557" stroke-miterlimit="10" stroke-linecap="round"/>
<path d="M477.581 118.214C462.491 118.101 447.416 117.712 432.341 117.174C423.476 116.86 414.616 116.606 405.756 116.252C399.113 115.986 392.504 115.466 385.875 115.077C379.59 114.71 373.285 114.382 366.99 114.094C360.302 113.788 353.623 113.416 346.935 113.071C341.093 112.77 335.306 112.25 329.474 111.904C321.292 111.424 313.094 111.231 304.907 110.829C287.84 109.995 270.757 109.462 253.665 109.13C239.626 108.859 225.587 108.95 211.547 109.151C193.494 109.409 175.466 109.89 157.422 110.493C139.11 111.105 120.842 111.668 102.555 112.752C84.9051 113.796 67.2253 114.815 49.5654 115.623C31.9254 116.427 14.3004 117.209 -3.34956 117.817C-6.72615 117.935 -10.1078 118.057 -13.4844 118.21" stroke="#CFCECE" stroke-width="1.03557" stroke-miterlimit="10" stroke-linecap="round"/>
<path d="M469.029 138.108C454.153 137.771 439.327 137.05 424.496 135.975C415.86 135.351 407.234 134.669 398.603 134.014C391.591 133.48 384.519 132.982 377.572 131.955C371.611 131.073 365.589 130.544 359.583 129.923C355.928 129.547 352.312 129.106 348.627 128.993C344.916 128.879 341.196 128.193 337.506 127.817C324.577 126.497 311.768 124.614 298.799 123.557C282.046 122.189 265.238 120.554 248.43 119.855C241.841 119.58 235.247 119.362 228.653 119.161C221.402 118.942 214.076 119.279 206.83 119.506C190.196 120.026 173.666 121.376 157.117 122.704C139.955 124.085 122.748 125.265 105.696 127.511C88.9874 129.714 72.234 131.654 55.4556 133.41C51.1228 133.865 46.8097 134.433 42.452 134.848C38.0595 135.267 33.6619 135.661 29.2644 136.032C21.1715 136.718 13.0688 137.221 4.95101 137.645C1.65908 137.815 -1.63278 137.972 -4.92969 138.108" stroke="#CFCECE" stroke-width="1.03557" stroke-miterlimit="10" stroke-linecap="round"/>
<path d="M457.82 156.984C443.188 156.538 428.631 155.516 414.088 154.008C406.15 153.182 398.226 152.251 390.293 151.395C382.489 150.551 374.685 149.621 366.955 148.345C363.878 147.838 360.845 147.187 357.777 146.658C354.749 146.138 351.686 145.789 348.643 145.347C345.62 144.91 342.612 144.394 339.599 143.905C335.725 143.276 331.815 142.883 327.94 142.262C321.894 141.296 315.868 140.313 309.807 139.426C303.826 138.552 297.949 137.228 291.958 136.345C284.219 135.205 276.435 134.414 268.661 133.492C260.364 132.504 252.052 131.613 243.73 130.853C235.567 130.106 227.41 129.537 219.212 129.166C213.32 128.895 207.449 128.611 201.547 128.808C194.894 129.026 188.23 129.389 181.611 130.031C177.508 130.429 173.404 130.861 169.315 131.346C167.203 131.596 165.092 131.858 162.985 132.137C162.148 132.247 161.312 132.351 160.48 132.461C159.454 132.596 158.568 132.871 157.587 133.081C153.488 133.955 149.16 134.331 145.007 135.013C141.107 135.651 137.138 136.664 133.193 137.001C129.15 137.346 125.165 138.233 121.191 138.972C117.127 139.728 113.068 140.501 109.015 141.296C100.857 142.9 92.7589 144.748 84.5963 146.343C83.0027 146.654 81.424 146.776 79.8204 147.012C77.7087 147.327 75.6121 147.851 73.5204 148.257C69.4715 149.039 65.4125 149.774 61.3437 150.473C57.8774 151.067 54.5008 151.801 51.0296 152.339C46.896 152.981 42.7474 153.575 38.5939 154.126C31.0538 155.127 23.5137 155.878 15.9139 156.425C12.7066 156.656 9.49457 156.857 6.27734 156.993" stroke="#CFCECE" stroke-width="1.03557" stroke-miterlimit="10" stroke-linecap="round"/>
<path d="M445.488 175.358C431.559 174.969 417.699 173.798 403.904 172.081C396.124 171.115 388.39 169.935 380.641 168.812C373.26 167.746 365.865 166.653 358.529 165.334C352.468 164.241 346.536 162.729 340.495 161.593C334.42 160.453 328.359 159.312 322.308 158.08C309.683 155.506 296.943 153.339 284.383 150.551C270.145 147.391 255.528 145.512 241.045 143.459C226.324 141.37 211.577 139.797 196.691 139.023C193.823 138.875 190.914 138.648 188.036 138.661C185.048 138.678 182.014 139.015 179.046 139.294C171.88 139.967 164.853 141.025 157.826 142.41C150.266 143.9 142.965 145.867 135.554 147.833C132.093 148.751 128.527 150.166 124.961 150.682C121.216 151.224 117.55 152.592 113.97 153.684C106.768 155.882 99.6215 158.211 92.4201 160.405C88.919 161.471 85.3483 162.799 81.6878 163.328C78.122 163.844 74.5611 165.255 71.0949 166.177C63.6843 168.144 56.3832 170.11 48.8232 171.6C41.7911 172.985 34.7641 174.043 27.6025 174.716C24.6144 174.995 21.6164 175.231 18.6133 175.349" stroke="#CFCECE" stroke-width="1.03557" stroke-miterlimit="10" stroke-linecap="round"/>
<path d="M78.0521 250.319C77.8927 239.574 74.5711 229.584 69.2572 219.971C64.0479 210.545 57.8673 201.478 51.4777 192.634C48.1907 188.085 45.3271 183.287 42.8121 178.375C41.6368 176.077 40.6356 173.717 39.4553 171.423C38.1605 168.906 36.9404 166.358 35.8298 163.776C33.8128 159.087 31.4772 154.516 29.5498 149.797C27.5079 144.807 25.6303 139.773 23.9072 134.695C22.0794 129.312 20.4259 123.745 19.5444 118.178C18.7177 112.982 18.0354 107.703 18.0802 102.433C18.1748 91.6749 22.5426 80.9123 27.229 71.076C32.0847 60.8857 38.1556 51.2591 44.3461 41.6631C47.1748 37.2759 49.9787 32.8361 52.5335 28.3221C55.2179 23.5809 57.5934 18.7349 59.944 13.8669C69.3816 -5.65274 76.0451 -26.2778 77.6338 -47.4974C77.838 -50.2154 77.9725 -52.9378 78.0572 -55.6602" stroke="#CFCECE" stroke-width="1.03557" stroke-miterlimit="10" stroke-linecap="round"/>
<path d="M100.708 242.813C100.594 237.875 99.9611 232.924 98.3773 228.174C96.8036 223.442 94.1393 218.993 91.3056 214.755C89.7268 212.4 88.0135 210.114 86.2803 207.846C84.7116 205.788 83.5014 203.761 81.858 201.746C78.3569 197.455 74.8109 193.177 71.504 188.768C68.3665 184.586 65.747 180.304 63.7699 175.606C62.7987 173.295 62.2956 170.926 61.5835 168.558C60.8564 166.132 59.9649 163.777 59.427 161.3C58.3562 156.37 56.9171 151.498 55.9958 146.539C55.0545 141.461 54.1529 136.37 53.4607 131.262C52.0861 121.137 51.7724 110.532 53.6251 100.442C54.5613 95.325 56.7577 90.4092 58.9042 85.5981C61.0457 80.8001 63.4512 76.1244 66.0708 71.5144C71.1606 62.5607 77.1218 53.9959 83.1628 45.5098C89.1242 37.1418 93.9201 28.3978 97.0776 18.9198C100.27 9.34134 101.849 -0.700332 101.903 -10.659C101.918 -13.1279 102.098 -15.5748 102.162 -18.0394C102.227 -20.635 101.973 -23.2044 101.839 -25.7957C101.585 -30.6286 100.997 -35.4443 100.773 -40.2816C100.653 -42.9078 100.614 -45.5339 100.708 -48.1602" stroke="#CFCECE" stroke-width="1.03557" stroke-miterlimit="10" stroke-linecap="round"/>
<path d="M122.213 232.984C122.143 228.326 121.665 223.615 120.051 219.154C118.542 214.976 115.843 211.114 112.994 207.544C106.629 199.569 99.0048 192.524 92.2067 184.838C88.9845 181.194 85.8169 177.2 84.268 172.747C83.4314 170.344 82.8537 167.905 82.7392 165.393C82.6197 162.871 82.0769 160.394 82.042 157.864C82.0072 155.46 82.2762 153.092 82.1218 150.684C81.9724 148.351 82.0022 145.991 82.1118 143.658C82.2313 141.045 82.5698 138.453 82.6594 135.84C82.7441 133.284 82.9732 130.732 83.1874 128.184C84.034 118.108 85.9018 107.887 89.4576 98.2602C90.374 95.7782 91.9227 93.4099 93.2424 91.0721C94.5522 88.7605 95.8919 86.4662 97.2665 84.1852C99.9508 79.7281 102.819 75.3758 105.773 71.0585C111.176 63.158 117.357 55.725 123.134 48.0343C129.035 40.1774 134.17 31.9011 135.918 22.5105C136.79 17.8392 136.909 13.0281 136.227 8.32625C136.077 7.28187 135.784 6.28567 135.525 5.26315C135.256 4.21441 135.256 3.12194 135.096 2.06009C134.733 -0.325801 133.622 -2.42318 132.95 -4.7173C132.292 -6.95899 131.461 -9.17886 130.754 -11.4162C129.957 -13.9331 128.757 -16.2928 127.711 -18.7268C125.958 -22.8125 123.995 -26.8327 122.989 -31.1326C122.437 -33.4922 122.158 -35.9043 122.213 -38.3164" stroke="#CFCECE" stroke-width="1.03557" stroke-miterlimit="10" stroke-linecap="round"/>
<path d="M143.117 222.174C143.117 217.778 142.818 213.281 141.18 209.095C139.566 204.974 136.419 201.325 133.216 198.052C125.91 190.585 117.046 184.458 109.879 176.868C106.418 173.202 103.798 169.335 103.041 164.567C102.658 162.164 102.882 159.988 103.216 157.597C103.529 155.369 103.649 153.188 104.341 151.008C104.705 149.867 105.173 148.77 105.501 147.626C105.86 146.376 106.049 145.109 106.353 143.846C106.911 141.525 107.658 139.231 108.539 136.99C110.337 132.415 111.702 127.721 113.48 123.129C115.302 118.431 117.23 113.729 119.297 109.106C121.373 104.461 123.585 99.6763 126.687 95.4857C132.863 87.1526 139.257 78.955 145.801 70.8404C151.982 63.1758 159.074 56.1449 165.199 48.4279C171.046 41.0648 175.673 32.3733 175.369 23.2143C175.294 21.0513 174.806 18.8053 174.074 16.7471C173.332 14.6671 172.516 12.4952 171.275 10.5988C170.698 9.72044 170.01 8.96452 169.577 8.02065C169.129 7.04183 168.611 6.08496 167.983 5.18479C167.386 4.31958 166.698 3.50677 165.941 2.74643C165 1.80694 164.179 0.884911 163.307 -0.102654C161.808 -1.79812 160.393 -3.54602 158.884 -5.23712C157.136 -7.19913 155.139 -8.95142 153.282 -10.826C150.05 -14.0815 146.529 -17.149 144.606 -21.2085C143.66 -23.2098 143.137 -25.3556 143.122 -27.5273" stroke="#CFCECE" stroke-width="1.03557" stroke-miterlimit="10" stroke-linecap="round"/>
<path d="M164.026 211.374C164.046 206.864 163.837 202.136 161.676 197.963C161.247 197.133 160.724 196.355 160.132 195.603C159.713 195.066 159.026 194.528 158.708 193.956C158.558 193.685 158.698 193.633 158.563 193.397C157.965 192.357 156.591 191.373 155.67 190.543C154.589 189.569 153.463 188.638 152.318 187.72C148.349 184.543 144.09 181.528 139.827 178.679C135.415 175.725 130.619 172.54 127.163 168.681C125.888 167.257 124.628 165.631 123.736 163.958C122.601 161.821 122.342 159.662 122.352 157.333C122.367 154.93 123.388 152.762 124.135 150.486C124.852 148.318 125.948 146.282 127.322 144.377C130.146 140.448 132.238 136.197 135.231 132.334C138.528 128.082 141.217 123.568 144.444 119.286C147.656 115.029 150.669 110.699 153.907 106.478C155.719 104.114 157.542 101.75 159.33 99.3682C161.068 97.0479 163.075 94.9636 165.087 92.8268C172.553 84.9088 180.148 77.1175 187.598 69.1864C191.268 65.2798 195.526 61.8321 199.252 57.9518C200.89 56.2476 202.424 54.4779 204.008 52.7343C205.716 50.8553 207.066 48.8233 208.629 46.8657C214.172 39.9309 217.185 29.3691 212.643 21.4773C211.533 19.5459 209.974 17.7587 208.405 16.0982C206.961 14.5687 205.108 13.4544 203.559 12.0211C200.024 8.74819 195.541 6.87364 191.368 4.34355C189.336 3.11128 187.309 1.78286 185.068 0.611767C182.513 -0.725378 179.923 -2.01876 177.369 -3.36027C173.255 -5.51893 168.842 -7.57715 166.113 -11.1778C164.863 -12.8296 164.096 -14.7305 164.007 -16.7187" stroke="#CFCECE" stroke-width="1.03557" stroke-miterlimit="10" stroke-linecap="round"/>
<path d="M185.531 201.541C185.616 197.591 185.626 193.4 183.942 189.669C182.204 185.806 178.399 182.821 174.739 180.344C172.662 178.937 170.501 177.643 168.305 176.385C166.442 175.318 164.53 174.086 162.557 173.322C161.392 172.871 160.277 172.076 159.201 171.486C157.911 170.783 156.636 170.062 155.381 169.31C153.214 168.017 151.088 166.636 149.101 165.133C145.63 162.502 142.128 158.98 141.919 154.754C141.82 152.736 142.293 150.538 143.269 148.707C144.21 146.941 145.196 145.11 146.466 143.511C147.91 141.693 149.634 140.129 151.402 138.565C153.12 137.044 154.579 135.331 156.242 133.767C159.714 130.498 163.638 127.627 167.189 124.424C170.909 121.072 174.594 117.677 178.404 114.312C182.194 110.97 185.935 107.565 189.595 104.109C191.557 102.252 193.485 100.364 195.352 98.4325C197.19 96.5317 199.316 94.8494 201.348 93.1058C205.099 89.8897 208.829 86.6562 212.554 83.4139C216.234 80.2108 219.87 76.9685 223.475 73.6999C226.962 70.5449 230.543 67.5166 234.133 64.4534C240.767 58.8033 247.42 52.7817 251.559 45.4405C253.77 41.5208 254.991 37.4177 254.811 33.0217C254.637 28.8573 253.058 25.3267 249.851 22.246C246.649 19.1697 242.704 17.2863 238.606 15.3287C236.673 14.4067 234.811 13.476 232.754 12.7593C230.503 11.9728 228.157 11.4789 225.886 10.7579C224.731 10.3909 223.56 10.085 222.39 9.75725C221.772 9.58683 221.175 9.38143 220.562 9.19353C220.428 9.1542 219.546 8.95746 220.179 9.08855C212.738 6.92116 205.059 5.38318 197.678 3.04536C192.568 1.42855 185.949 -1.44684 185.541 -6.88281" stroke="#CFCECE" stroke-width="1.03557" stroke-miterlimit="10" stroke-linecap="round"/>
<path d="M208.185 194.035C208.235 189.486 208.285 184.347 205.237 180.432C202.025 176.307 196.591 173.619 191.701 171.294C186.317 168.738 180.709 166.614 175.361 164.014C170.54 161.668 165.171 158.841 162.532 154.414C159.534 149.389 162.781 144.504 166.521 140.649C168.343 138.77 170.62 137.171 172.856 135.69C175.401 134.003 177.96 132.312 180.56 130.691C185.849 127.392 191.427 124.442 196.776 121.208C202.309 117.861 207.812 114.37 213.17 110.795C234.048 96.8643 253.655 81.4915 273.262 66.2236C281.773 59.5947 290.987 52.2273 294.204 42.2817C295.643 37.8289 295.354 32.2795 292.765 28.1632C290.016 23.7847 284.786 20.8437 279.686 18.921C268.909 14.8484 257.186 13.8959 245.676 12.6898C239.008 11.995 232.29 11.4095 225.691 10.3302C220.586 9.49559 214.585 8.3988 210.71 5.11275C209.291 3.91106 208.31 2.3729 208.195 0.625" stroke="#CFCECE" stroke-width="1.03557" stroke-miterlimit="10" stroke-linecap="round"/>
<path d="M232.053 190.966C232.053 186.269 232.102 180.885 228.646 176.992C224.368 172.167 217.017 169.602 210.782 167.308C204.288 164.918 197.559 162.886 191.434 159.801C186.309 157.218 180.094 152.94 181.409 147.054C182.554 141.924 187.948 138.45 192.604 135.719C198.257 132.407 204.337 129.733 210.393 127.05C223.621 121.19 236.774 115.212 249.344 108.303C261.824 101.443 273.473 93.5335 285.162 85.6854C295.74 78.5846 306.348 71.4488 316.373 63.7449C325.028 57.0898 334.934 48.7217 335.387 37.8891C335.622 32.3395 333.111 26.873 328.405 23.15C323.594 19.3395 317.165 17.3907 310.944 16.1541C298.23 13.624 285.102 13.8772 272.148 13.7592C264.897 13.6937 257.576 13.6589 250.375 12.833C245.111 12.23 238.706 11.3385 234.567 8.14855C233.078 6.9993 232.048 5.46565 232.048 3.69153" stroke="#CFCECE" stroke-width="1.03557" stroke-miterlimit="10" stroke-linecap="round"/>
<path d="M255.914 194.032C255.854 189.317 255.834 184.061 252.497 180.102C248.672 175.561 242.507 172.603 237.053 169.819C231.973 167.228 226.68 164.829 222.028 161.648C217.531 158.572 212.82 154.359 214.214 148.888C215.474 143.946 220.808 140.437 225.24 137.632C230.255 134.459 235.649 131.807 240.998 129.102C246.825 126.157 252.731 123.303 258.458 120.21C264.191 117.111 269.584 113.563 275.267 110.417C281.059 107.21 286.323 102.997 291.383 98.9596C296.448 94.9176 301.961 91.295 307.21 87.4365C311.901 83.9844 316.563 80.5234 320.901 76.7261C323.062 74.834 325.164 72.8983 327.24 70.9319C328.271 69.9531 329.392 69.0661 330.478 68.1353C331.653 67.1303 332.619 66.0116 333.755 64.9847C341.469 58.0499 349.761 49.3235 350.04 39.1332C350.179 34.0905 347.869 29.2138 343.974 25.552C340.01 21.8246 334.472 19.5261 329.013 17.9879C317.066 14.6276 304.531 13.9065 292.125 12.8184C285.735 12.2591 279.415 11.5993 273.105 10.6073C268.055 9.81203 261.975 8.51864 258.224 5.20637C256.82 3.96536 255.904 2.3835 255.909 0.609375" stroke="#CFCECE" stroke-width="1.03557" stroke-miterlimit="10" stroke-linecap="round"/>
<path d="M278.571 201.542C278.467 197.019 278.491 191.981 275.961 187.895C273.053 183.206 268.033 179.58 263.501 176.141C259.332 172.977 255.114 169.73 251.558 166.007C247.893 162.179 244.949 157.621 246.922 152.526C248.675 147.999 253.391 144.56 257.515 141.663C262.141 138.412 267.112 135.454 272.017 132.53C282.759 126.129 293.567 119.766 303.432 112.325C308.393 108.58 313.169 104.638 317.671 100.47C322.058 96.41 326.635 92.5167 331.023 88.4572C334.962 84.8128 338.787 81.0722 342.198 77.0346C343.981 74.9196 345.69 72.7521 347.258 70.5104C348.693 68.4654 350.585 66.6826 352.259 64.773C355.59 60.9582 358.29 56.8987 360.844 52.6644C363.364 48.4869 364.839 43.2564 364.809 38.5327C364.749 28.1458 355.302 20.7914 345.162 16.9722C334.429 12.9302 323.084 11.0993 311.799 8.68715C305.713 7.38496 299.667 6.06543 293.681 4.45736C289.025 3.20324 283.721 1.38972 280.598 -2.06676C279.348 -3.4476 278.581 -5.10823 278.576 -6.88672" stroke="#CFCECE" stroke-width="1.03557" stroke-miterlimit="10" stroke-linecap="round"/>
<path d="M300.077 211.374C299.998 206.663 300.177 201.507 298.205 197.041C296.198 192.51 292.861 188.489 289.594 184.587C288.723 183.547 287.592 182.477 286.93 181.323C286.815 181.122 286.765 180.821 286.591 180.567C286.292 180.13 285.939 179.702 285.61 179.282C283.817 177.019 282.278 174.742 280.849 172.286C278.329 167.947 276.805 163.18 278.862 158.443C280.779 154.034 284.893 150.459 288.743 147.283C292.926 143.826 297.478 140.623 301.915 137.429C311.701 130.38 321.567 123.463 330.616 115.663C339.78 107.767 348.181 99.1454 355.617 89.9558C358.789 86.0361 361.688 81.946 364.243 77.6942C365.662 75.3389 366.962 72.9226 368.073 70.4406C368.511 69.4618 368.815 68.3824 369.372 67.456C370.114 66.2194 370.986 64.9914 371.823 63.7985C373.381 61.5786 374.661 59.1884 375.632 56.7239C376.016 55.7494 376.31 54.7574 376.599 53.761C376.923 52.6511 377.505 51.6199 377.919 50.5275C378.77 48.2683 379.029 45.8781 379.423 43.5359C379.836 41.1063 379.851 38.5851 379.522 36.1468C378.217 26.4328 370.05 19.2357 360.752 14.63C356.279 12.4145 351.613 10.269 346.852 8.5823C341.702 6.75575 336.448 5.1608 331.338 3.24685C325.477 1.04886 319.57 -1.00492 313.883 -3.52627C309.5 -5.46644 304.918 -7.57722 302.099 -11.2566C300.859 -12.8777 300.102 -14.7524 300.077 -16.7187" stroke="#CFCECE" stroke-width="1.03557" stroke-miterlimit="10" stroke-linecap="round"/>
<path d="M320.981 222.177C320.981 217.392 321.26 212.476 320.353 207.739C320.124 206.55 319.536 205.471 319.217 204.309C318.884 203.089 318.53 201.835 318.012 200.581C317.036 198.204 315.941 195.884 314.83 193.555C314.332 192.506 313.625 191.379 313.341 190.269C313.211 189.77 313.291 189.482 313.137 188.975C312.942 188.333 312.614 187.699 312.34 187.083C311.259 184.64 310.532 182.185 309.845 179.641C308.6 175.053 308.276 170.351 310.248 165.877C312.186 161.485 315.846 157.788 319.382 154.319C323.306 150.465 327.664 146.912 331.842 143.268C336.17 139.492 340.707 135.883 344.896 131.985C349.228 127.952 353.472 123.848 357.54 119.61C365.504 111.32 371.5 101.947 377.641 92.6003C380.375 88.436 382.74 84.1142 384.698 79.6221C385.788 77.1182 386.775 74.5881 387.551 71.9925C388.249 69.6591 388.393 67.0065 389.454 64.8042C390.609 62.4095 391.64 59.9539 392.337 57.4238C392.97 55.1341 393.055 52.8792 393.383 50.5632C393.553 49.379 394.006 48.2254 394.165 47.0237C394.319 45.8307 394.344 44.6247 394.329 43.4274C394.3 41.0633 394.449 38.7342 394.061 36.3833C393.269 31.6115 391.57 26.9883 388.707 22.837C385.758 18.5634 381.386 15.0108 376.943 11.9476C374.782 10.4576 372.431 9.2078 370.22 7.77889C368.024 6.35872 365.768 5.02163 363.422 3.7981C358.337 1.14129 353.098 -1.24903 348.093 -4.0282C342.978 -6.86417 337.834 -9.61267 332.908 -12.689C328.949 -15.1579 325.025 -17.8976 322.729 -21.7517C321.668 -23.5346 321.035 -25.4968 320.99 -27.5156" stroke="#CFCECE" stroke-width="1.03557" stroke-miterlimit="10" stroke-linecap="round"/>
<path d="M341.889 232.981C341.924 227.82 342.358 222.642 342.138 217.486C342.094 216.372 341.89 215.266 341.705 214.165C341.506 212.985 341.526 211.744 341.342 210.529C340.963 208.047 340.57 205.574 340.136 203.101C339.907 201.803 339.703 200.501 339.544 199.194C339.424 198.224 339.638 197.359 339.519 196.376C339.2 193.758 338.847 191.184 338.852 188.545C338.867 183.765 339.086 179.216 340.963 174.671C342.96 169.847 346.501 165.731 350.007 161.68C353.678 157.441 357.796 153.517 361.711 149.458C369.729 141.129 377.767 132.909 384.804 123.908C388.39 119.319 391.612 114.639 394.222 109.566C395.507 107.075 396.672 104.541 397.718 101.967C398.221 100.726 398.699 99.4764 399.147 98.2179C399.635 96.8502 400.412 95.5829 401.069 94.2719C405.691 85.043 408.63 74.8223 408.928 64.7238C408.958 63.6882 409.237 62.705 409.456 61.6825C409.71 60.4852 409.81 59.2966 410.004 58.0949C410.427 55.508 410.532 52.8905 410.348 50.2861C410.163 47.7342 410.368 45.1909 410.059 42.6433C409.78 40.3623 409.551 38.0333 409.073 35.7785C408.007 30.7445 406.005 25.9815 403.236 21.4763C400.507 17.0322 396.677 13.2131 392.698 9.60368C390.755 7.8383 388.674 6.23454 386.567 4.62647C384.515 3.0621 382.608 1.35788 380.546 -0.197755C376.163 -3.50566 371.392 -6.40273 367.03 -9.73248C362.278 -13.355 357.358 -16.9426 352.97 -20.9103C349.305 -24.227 345.67 -27.5567 343.573 -31.874C342.582 -33.919 341.974 -36.1039 341.894 -38.3281" stroke="#CFCECE" stroke-width="1.03557" stroke-miterlimit="10" stroke-linecap="round"/>
<path d="M363.395 242.812C363.444 237.503 363.942 232.211 364.44 226.919C364.665 224.542 364.729 222.13 364.804 219.762C364.889 216.978 365.038 214.199 365.162 211.415C365.217 210.153 365.302 208.89 365.411 207.627C365.466 207.024 365.451 206.333 365.601 205.739C365.656 205.521 365.705 205.254 365.85 205.079C365.949 204.957 366.268 204.808 366.318 204.734C366.886 203.961 366.746 202.256 366.866 201.225C367.025 199.836 367.239 198.45 367.503 197.074C368.459 192.001 369.679 187.032 371.886 182.256C376.403 172.476 384.441 164.279 391.418 155.819C398.58 147.136 405.911 138.585 412.201 129.378C418.67 119.908 424.223 109.923 427.241 99.1564C428.76 93.7335 430.279 88.4112 430.797 82.8223C431.29 77.5 431.4 72.077 430.837 66.759C430.563 64.2027 430.259 61.7077 430.135 59.1426C430.005 56.4815 429.796 53.8247 429.283 51.1941C428.302 46.1426 427.042 41.1479 425.528 36.1969C423.934 30.9751 421.509 25.9762 418.65 21.2C415.831 16.4982 412.226 12.3076 408.456 8.16949C400.985 -0.0106919 392.34 -7.28213 384.62 -15.2657C380.581 -19.4432 376.527 -23.7036 372.922 -28.1782C369.64 -32.2552 366.517 -36.3976 364.784 -41.2C363.972 -43.4504 363.484 -45.7927 363.405 -48.1523" stroke="#CFCECE" stroke-width="1.03557" stroke-miterlimit="10" stroke-linecap="round"/>
<path d="M386.048 250.319C386.143 239.456 388.548 228.627 391.217 218.061C391.546 216.755 391.905 215.457 392.283 214.163C392.592 213.11 392.776 211.821 393.404 210.869C394.823 208.727 395.326 205.913 396.232 203.493C398.18 198.284 400.391 193.149 403.12 188.216C408.593 178.323 415.84 169.273 422.742 160.131C426.114 155.666 429.257 151.034 432.489 146.48C435.701 141.953 438.584 137.282 441.413 132.567C442.942 130.024 444.406 127.45 445.786 124.841C446.398 123.683 447.001 122.525 447.554 121.346C448.216 119.93 448.515 118.422 449.153 117.019C451.429 112.003 453.256 106.794 454.466 101.503C456.957 90.6 455.433 79.125 452.683 68.3666C451.991 65.6574 451.055 63.0093 450.308 60.3176C449.571 57.6651 449.182 55.0564 448.296 52.4258C446.598 47.3962 444.461 42.4671 442.255 37.5948C437.514 27.1249 431.368 17.3541 424.102 8.07276C417.105 -0.863393 409.55 -9.52435 402.946 -18.6877C396.467 -27.6894 389.853 -37.3597 387.173 -47.8558C386.521 -50.4209 386.123 -53.0339 386.043 -55.6602" stroke="#CFCECE" stroke-width="1.03557" stroke-miterlimit="10" stroke-linecap="round"/>
<path d="M54.1875 253.389C54.1875 231.186 41.8415 210.377 29.5553 191.596C16.8905 172.233 2.40306 153.579 -7.53748 132.945C-12.3733 122.912 -16.0687 112.298 -16.8207 101.373C-17.5777 90.3922 -15.0227 79.5072 -10.8593 69.1902C-2.34804 48.1236 11.9701 29.2289 24.8639 10.1112C38.2956 -9.81047 54.1826 -33.7394 54.1826 -58.7344C82.4404 -58.7344 109.523 -45.0046 132.417 -33.1276C154.275 -21.7881 175.864 -9.17685 199.939 -1.67835C211.702 1.98788 224.128 4.22956 236.653 3.56536C249.203 2.89679 261.39 -0.38932 272.904 -4.68042C296.476 -13.4593 317.791 -26.2233 339.938 -37.3531C361.209 -48.0459 384.785 -58.7344 409.91 -58.7344C409.91 -33.7831 425.738 -9.89786 439.229 10.1112C452.123 29.2333 466.441 48.128 474.952 69.1902C479.121 79.5028 481.671 90.3922 480.914 101.373C480.162 112.298 476.461 122.912 471.63 132.945C461.69 153.579 447.207 172.233 434.538 191.596C422.251 210.377 409.905 231.19 409.905 253.389C384.78 253.389 361.204 242.696 339.933 232.007C317.786 220.878 296.471 208.113 272.899 199.335C261.38 195.044 249.198 191.757 236.648 191.089C224.118 190.425 211.697 192.671 199.934 196.333C175.859 203.831 154.27 216.438 132.412 227.782C109.797 239.519 82.5698 253.389 54.1875 253.389Z" stroke="#CFCECE" stroke-width="1.03557" stroke-miterlimit="10" stroke-linecap="round"/>
<rect x="-0.00390625" width="465" height="145.659" fill="url(#paint4_radial_1_181)"/>
<g filter="url(#filter2_b_1_181)">
<rect width="49.6416" height="44.2378" rx="11.2" transform="matrix(0.976795 -0.214176 0.273915 0.961754 339.152 59.1837)" fill="#FAFFFF"/>
<rect x="-0.896963" y="-0.536135" width="51.0759" height="45.6721" rx="11.9172" transform="matrix(0.976795 -0.214176 0.273915 0.961754 339.278 58.9711)" stroke="url(#paint5_linear_1_181)" stroke-width="1.43433"/>
<path d="M371.733 64.547C372.166 66.0674 371.261 67.5817 369.717 67.9203L365.358 68.876C364.586 69.0453 363.801 68.8917 363.148 68.5009C362.494 68.1101 361.987 67.4917 361.77 66.7315C361.337 65.211 362.243 63.6967 363.787 63.3581L368.146 62.4024C368.918 62.2331 369.702 62.3867 370.356 62.7775C371.01 63.1683 371.517 63.7867 371.733 64.547Z" fill="url(#paint6_linear_1_181)"/>
<path d="M374.415 64.3863C374.802 64.4447 375.178 64.5576 375.531 64.7278C376.633 65.2547 377.543 66.358 378.112 68.3567L381.517 80.3121C382.565 83.9906 380.685 85.7056 377.933 86.3091L367.97 88.4936C365.217 89.0971 362.639 88.3597 361.591 84.6811L358.186 72.7257C357.442 70.1139 358.031 68.6039 359.312 67.7108C359.631 67.4845 360.088 67.6969 360.268 68.0483C360.69 68.8807 361.369 69.5917 362.198 70.0873C363.33 70.764 364.637 70.9856 365.883 70.7125L370.241 69.7568C372.508 69.2598 373.938 67.2657 373.764 65.076C373.734 64.6918 374.015 64.3306 374.415 64.3863Z" fill="url(#paint7_linear_1_181)"/>
<path d="M383.229 82.1384L383.229 82.1384L383.219 82.1325L382.484 81.693C382.667 80.8187 382.645 79.8764 382.376 78.9305C381.463 75.7272 378.083 73.7068 374.83 74.4202C371.576 75.1335 369.677 78.3116 370.589 81.5149C371.501 84.7182 374.882 86.7386 378.135 86.0253C379.099 85.8138 379.933 85.3862 380.618 84.8114L381.355 85.2519C381.822 85.5315 382.34 85.6001 382.812 85.4965C383.285 85.393 383.705 85.1188 383.967 84.6791L383.967 84.6791L383.973 84.6693C384.467 83.8146 384.124 82.6886 383.229 82.1384Z" fill="#252626" stroke="#FAFFFF" stroke-width="1.6575"/>
</g>
<path d="M140.224 94.866L139.705 103.343L146.468 109.016L137.115 108.812L130.632 115.114L131.151 106.637L124.388 100.964L133.741 101.168L140.224 94.866Z" fill="url(#paint8_radial_1_181)"/>
<path d="M406.989 21.2328L400.477 24.5682L404.07 30.1009L397.517 27.0682L393.571 32.5693L393.53 26.2013L385.99 26.1697L392.502 22.8343L388.908 17.3016L395.461 20.3343L399.408 14.8332L399.448 21.2012L406.989 21.2328Z" fill="url(#paint9_radial_1_181)"/>
<g filter="url(#filter3_b_1_181)">
<rect width="46.3311" height="41.377" rx="10.6023" transform="matrix(0.973458 0.228864 -0.292068 0.956398 187.906 36.0234)" fill="#FAFFFF"/>
<rect x="-0.451517" y="-0.785403" width="47.6563" height="42.7023" rx="11.2649" transform="matrix(0.973458 0.228864 -0.292068 0.956398 187.665 36.0925)" stroke="url(#paint10_linear_1_181)" stroke-width="1.32528"/>
<path d="M216.295 66.195L215.897 67.498C215.789 67.8498 215.423 68.071 215.048 67.9967L213.112 67.5415C212.409 67.3762 211.927 66.7184 212.081 66.0284C212.165 65.6151 212.439 65.2746 212.784 65.0764C213.099 64.885 213.47 64.8326 213.828 64.9168L215.831 65.3876C216.211 65.4911 216.402 65.8432 216.295 66.195Z" fill="url(#paint11_linear_1_181)"/>
<path d="M212.084 63.8784C211.226 64.3609 210.617 65.2373 210.58 66.2899C210.555 67.5827 211.527 68.6352 212.8 68.9346L213.954 69.2058C214.683 69.3773 215.101 70.104 214.882 70.8206L214.807 71.0682C213.983 73.7654 211.069 75.4404 208.324 74.795L193.099 71.2155C190.354 70.5701 188.785 67.8411 189.608 65.144L192.286 56.3749C192.776 54.7722 193.992 53.536 195.469 52.9337C196.496 52.5047 197.642 52.383 198.769 52.6481L213.994 56.2275C216.739 56.873 218.308 59.602 217.484 62.2991L217.309 62.8724C217.091 63.5891 216.315 64.0351 215.585 63.8636L214.233 63.5456C213.49 63.371 212.726 63.4986 212.084 63.8784Z" fill="url(#paint12_linear_1_181)"/>
<path d="M212.842 53.0659C213.092 53.5019 212.62 53.9774 212.116 53.8589L201.935 51.4513C201.351 51.3141 201.261 50.5387 201.809 50.2346L204.606 48.6158C206.964 47.271 209.908 47.9632 211.184 50.1624L212.8 53.0143C212.81 53.0305 212.832 53.0497 212.842 53.0659Z" fill="url(#paint13_linear_1_181)"/>
</g>
<g filter="url(#filter4_b_1_181)">
<rect width="25.3349" height="22.7684" rx="11.3842" transform="matrix(0.963622 0.26727 -0.338945 0.940806 293.844 20.8203)" fill="#FAFFFF"/>
<rect x="-0.358408" y="-0.693133" width="26.4824" height="23.9159" rx="11.958" transform="matrix(0.963622 0.26727 -0.338945 0.940806 293.596 20.8751)" stroke="url(#paint14_linear_1_181)" stroke-width="1.1475"/>
<path d="M307.054 41.1137L306.373 43.003L293.472 39.4248L294.153 37.5355C294.278 37.1892 294.67 36.9863 295.025 37.0847L306.636 40.305C306.991 40.4034 307.179 40.7673 307.054 41.1137Z" fill="url(#paint15_linear_1_181)" stroke="url(#paint16_linear_1_181)" stroke-width="0.726725" stroke-miterlimit="10" stroke-linecap="round" stroke-linejoin="round"/>
<path d="M299.298 32.969L297.897 32.5806L296.255 37.1386L297.656 37.5271L299.298 32.969Z" fill="url(#paint17_linear_1_181)"/>
<path d="M302.099 33.746L300.698 33.3575L299.056 37.9156L300.457 38.3041L302.099 33.746Z" fill="url(#paint18_linear_1_181)"/>
<path d="M304.9 34.5229L303.499 34.1344L301.857 38.6924L303.258 39.0809L304.9 34.5229Z" fill="url(#paint19_linear_1_181)"/>
<path d="M307.701 35.2998L306.301 34.9114L304.658 39.4694L306.059 39.8579L307.701 35.2998Z" fill="url(#paint20_linear_1_181)"/>
<path d="M306.848 43.6544L292.657 39.7184C292.393 39.645 292.251 39.3701 292.344 39.1119C292.437 38.8536 292.733 38.7004 292.998 38.7737L307.189 42.7097C307.453 42.7831 307.595 43.058 307.502 43.3162C307.409 43.5744 307.113 43.7277 306.848 43.6544Z" fill="url(#paint21_linear_1_181)"/>
<path d="M309.654 32.6567L304.665 28.7793C304.554 28.6931 304.335 28.6323 304.188 28.6469L297.566 29.3039C297.308 29.3295 297.035 29.5376 296.948 29.7769L296.195 31.8677C296.07 32.2141 296.258 32.578 296.613 32.6764L308.224 35.8968C308.579 35.9952 308.971 35.7923 309.096 35.4459L309.849 33.3551C309.935 33.1157 309.848 32.8074 309.654 32.6567ZM302.986 32.7121C302.45 32.5637 302.17 32.0218 302.359 31.4991C302.547 30.9764 303.131 30.6743 303.667 30.8228C304.202 30.9713 304.482 31.5131 304.294 32.0359C304.105 32.5586 303.521 32.8606 302.986 32.7121Z" fill="url(#paint22_linear_1_181)"/>
</g>
</g>
</g>
<defs>
<filter id="filter0_b_1_181" x="15.8484" y="25.8484" width="93.9618" height="93.9618" filterUnits="userSpaceOnUse" color-interpolation-filters="sRGB">
<feFlood flood-opacity="0" result="BackgroundImageFix"/>
<feGaussianBlur in="BackgroundImageFix" stdDeviation="5.48571"/>
<feComposite in2="SourceAlpha" operator="in" result="effect1_backgroundBlur_1_181"/>
<feBlend mode="normal" in="SourceGraphic" in2="effect1_backgroundBlur_1_181" result="shape"/>
</filter>
<filter id="filter1_b_1_181" x="274.339" y="46.5098" width="52.6388" height="52.6389" filterUnits="userSpaceOnUse" color-interpolation-filters="sRGB">
<feFlood flood-opacity="0" result="BackgroundImageFix"/>
<feGaussianBlur in="BackgroundImageFix" stdDeviation="3.3593"/>
<feComposite in2="SourceAlpha" operator="in" result="effect1_backgroundBlur_1_181"/>
<feBlend mode="normal" in="SourceGraphic" in2="effect1_backgroundBlur_1_181" result="shape"/>
</filter>
<filter id="filter2_b_1_181" x="305.552" y="14.9516" width="127.807" height="120.378" filterUnits="userSpaceOnUse" color-interpolation-filters="sRGB">
<feFlood flood-opacity="0" result="BackgroundImageFix"/>
<feGaussianBlur in="BackgroundImageFix" stdDeviation="16.8"/>
<feComposite in2="SourceAlpha" operator="in" result="effect1_backgroundBlur_1_181"/>
<feBlend mode="normal" in="SourceGraphic" in2="effect1_backgroundBlur_1_181" result="shape"/>
</filter>
<filter id="filter3_b_1_181" x="144.432" y="4.63412" width="119.965" height="112.955" filterUnits="userSpaceOnUse" color-interpolation-filters="sRGB">
<feFlood flood-opacity="0" result="BackgroundImageFix"/>
<feGaussianBlur in="BackgroundImageFix" stdDeviation="15.6947"/>
<feComposite in2="SourceAlpha" operator="in" result="effect1_backgroundBlur_1_181"/>
<feBlend mode="normal" in="SourceGraphic" in2="effect1_backgroundBlur_1_181" result="shape"/>
</filter>
<filter id="filter4_b_1_181" x="268.914" y="3.60783" width="66.5555" height="62.617" filterUnits="userSpaceOnUse" color-interpolation-filters="sRGB">
<feFlood flood-opacity="0" result="BackgroundImageFix"/>
<feGaussianBlur in="BackgroundImageFix" stdDeviation="8.60624"/>
<feComposite in2="SourceAlpha" operator="in" result="effect1_backgroundBlur_1_181"/>
<feBlend mode="normal" in="SourceGraphic" in2="effect1_backgroundBlur_1_181" result="shape"/>
</filter>
<linearGradient id="paint0_linear_1_181" x1="44.6924" y1="-0.187311" x2="128.227" y2="17.5786" gradientUnits="userSpaceOnUse">
<stop offset="0.06" stop-color="#2B896C"/>
<stop offset="0.82" stop-color="#042D2B"/>
</linearGradient>
<linearGradient id="paint1_linear_1_181" x1="59.7213" y1="38.4189" x2="90.9085" y2="54.6831" gradientUnits="userSpaceOnUse">
<stop offset="0.06" stop-color="#2B896C"/>
<stop offset="0.82" stop-color="#042D2B"/>
</linearGradient>
<linearGradient id="paint2_linear_1_181" x1="290.065" y1="33.486" x2="335.536" y2="43.1565" gradientUnits="userSpaceOnUse">
<stop offset="0.06" stop-color="#2B896C"/>
<stop offset="0.82" stop-color="#042D2B"/>
</linearGradient>
<linearGradient id="paint3_linear_1_181" x1="301.427" y1="48.1812" x2="316.083" y2="53.7622" gradientUnits="userSpaceOnUse">
<stop offset="0.06" stop-color="#2B896C"/>
<stop offset="0.82" stop-color="#042D2B"/>
</linearGradient>
<radialGradient id="paint4_radial_1_181" cx="0" cy="0" r="1" gradientUnits="userSpaceOnUse" gradientTransform="translate(232.496 72.8293) rotate(90) scale(96.8389 418.624)">
<stop stop-color="#F5F6F7" stop-opacity="0"/>
<stop offset="1" stop-color="#F5F6F7"/>
</radialGradient>
<linearGradient id="paint5_linear_1_181" x1="4.13323" y1="-17.3187" x2="61.0885" y2="-3.72587" gradientUnits="userSpaceOnUse">
<stop offset="0.06" stop-color="#2B896C"/>
<stop offset="0.82" stop-color="#042D2B"/>
</linearGradient>
<linearGradient id="paint6_linear_1_181" x1="361.199" y1="61.6305" x2="372.94" y2="62.7047" gradientUnits="userSpaceOnUse">
<stop offset="0.06" stop-color="#2B896C"/>
<stop offset="0.82" stop-color="#042D2B"/>
</linearGradient>
<linearGradient id="paint7_linear_1_181" x1="356.168" y1="59.4517" x2="380.604" y2="57.4207" gradientUnits="userSpaceOnUse">
<stop offset="0.06" stop-color="#2B896C"/>
<stop offset="0.82" stop-color="#042D2B"/>
</linearGradient>
<radialGradient id="paint8_radial_1_181" cx="0" cy="0" r="1" gradientUnits="userSpaceOnUse" gradientTransform="translate(135.428 104.99) rotate(88.2579) scale(21.4164 6.15324)">
<stop stop-color="#2B896C"/>
<stop offset="1" stop-color="#042D2B"/>
</radialGradient>
<radialGradient id="paint9_radial_1_181" cx="0" cy="0" r="1" gradientUnits="userSpaceOnUse" gradientTransform="translate(396.489 23.7012) rotate(144.511) scale(20.2362 4.92815)">
<stop stop-color="#2B896C"/>
<stop offset="1" stop-color="#042D2B"/>
</radialGradient>
<linearGradient id="paint10_linear_1_181" x1="3.85758" y1="-16.1987" x2="57.0269" y2="-3.53686" gradientUnits="userSpaceOnUse">
<stop offset="0.06" stop-color="#2B896C"/>
<stop offset="0.82" stop-color="#042D2B"/>
</linearGradient>
<linearGradient id="paint11_linear_1_181" x1="213.152" y1="63.6645" x2="216.977" y2="66.276" gradientUnits="userSpaceOnUse">
<stop offset="0.06" stop-color="#2B896C"/>
<stop offset="0.82" stop-color="#042D2B"/>
</linearGradient>
<linearGradient id="paint12_linear_1_181" x1="198.1" y1="44.7" x2="223.088" y2="60.6237" gradientUnits="userSpaceOnUse">
<stop offset="0.06" stop-color="#2B896C"/>
<stop offset="0.82" stop-color="#042D2B"/>
</linearGradient>
<linearGradient id="paint13_linear_1_181" x1="204.166" y1="45.1689" x2="213.04" y2="53.6706" gradientUnits="userSpaceOnUse">
<stop offset="0.06" stop-color="#2B896C"/>
<stop offset="0.82" stop-color="#042D2B"/>
</linearGradient>
<linearGradient id="paint14_linear_1_181" x1="2.10942" y1="-8.91363" x2="31.2032" y2="-2.02857" gradientUnits="userSpaceOnUse">
<stop offset="0.06" stop-color="#2B896C"/>
<stop offset="0.82" stop-color="#042D2B"/>
</linearGradient>
<linearGradient id="paint15_linear_1_181" x1="295.809" y1="36.2175" x2="300.45" y2="45.8551" gradientUnits="userSpaceOnUse">
<stop offset="0.06" stop-color="#2B896C"/>
<stop offset="0.82" stop-color="#042D2B"/>
</linearGradient>
<linearGradient id="paint16_linear_1_181" x1="295.809" y1="36.2175" x2="300.45" y2="45.8551" gradientUnits="userSpaceOnUse">
<stop offset="0.06" stop-color="#2B896C"/>
<stop offset="0.82" stop-color="#042D2B"/>
</linearGradient>
<linearGradient id="paint17_linear_1_181" x1="298.657" y1="30.8285" x2="300.258" y2="31.5228" gradientUnits="userSpaceOnUse">
<stop offset="0.06" stop-color="#2B896C"/>
<stop offset="0.82" stop-color="#042D2B"/>
</linearGradient>
<linearGradient id="paint18_linear_1_181" x1="301.458" y1="31.6055" x2="303.059" y2="32.2998" gradientUnits="userSpaceOnUse">
<stop offset="0.06" stop-color="#2B896C"/>
<stop offset="0.82" stop-color="#042D2B"/>
</linearGradient>
<linearGradient id="paint19_linear_1_181" x1="304.259" y1="32.3823" x2="305.861" y2="33.0766" gradientUnits="userSpaceOnUse">
<stop offset="0.06" stop-color="#2B896C"/>
<stop offset="0.82" stop-color="#042D2B"/>
</linearGradient>
<linearGradient id="paint20_linear_1_181" x1="307.06" y1="33.1593" x2="308.662" y2="33.8536" gradientUnits="userSpaceOnUse">
<stop offset="0.06" stop-color="#2B896C"/>
<stop offset="0.82" stop-color="#042D2B"/>
</linearGradient>
<linearGradient id="paint21_linear_1_181" x1="293.909" y1="38.6198" x2="293.985" y2="43.9776" gradientUnits="userSpaceOnUse">
<stop offset="0.06" stop-color="#2B896C"/>
<stop offset="0.82" stop-color="#042D2B"/>
</linearGradient>
<linearGradient id="paint22_linear_1_181" x1="299.855" y1="24.9874" x2="309.985" y2="34.9397" gradientUnits="userSpaceOnUse">
<stop offset="0.06" stop-color="#2B896C"/>
<stop offset="0.82" stop-color="#042D2B"/>
</linearGradient>
<clipPath id="clip0_1_181">
<rect width="465" height="145.659" fill="white"/>
</clipPath>
<clipPath id="clip1_1_181">
<rect width="498.023" height="312.123" fill="white" transform="translate(-16.9609 -58.7344)"/>
</clipPath>
</defs>
</svg>
