<svg width="33" height="34" viewBox="0 0 33 34" fill="none" xmlns="http://www.w3.org/2000/svg">
<path d="M29.2223 19.3902V20.7526C29.2223 21.1204 28.9362 21.4201 28.5547 21.4338H26.5656C25.8436 21.4338 25.1896 20.9024 25.1351 20.194C25.0943 19.7716 25.2577 19.3766 25.5302 19.1041C25.7755 18.8452 26.1161 18.709 26.4839 18.709H28.5411C28.9362 18.7226 29.2223 19.0223 29.2223 19.3902Z" fill="url(#paint0_linear_1182_6895)"/>
<path d="M24.5113 18.0971C23.8301 18.7647 23.5031 19.7592 23.7756 20.7947C24.1298 22.0617 25.3696 22.8655 26.6775 22.8655H27.8627C28.6121 22.8655 29.2251 23.4786 29.2251 24.2279V24.4867C29.2251 27.3068 26.9227 29.6093 24.1026 29.6093L8.46241 29.6093C5.64227 29.6093 3.33984 27.3068 3.33984 24.4867L3.33984 15.3179C3.33984 13.6421 4.14365 12.1571 5.38342 11.2307C6.24172 10.5768 7.30438 10.1953 8.46241 10.1953L24.1026 10.1953C26.9227 10.1953 29.2251 12.4977 29.2251 15.3179V15.9173C29.2251 16.6666 28.6121 17.2797 27.8627 17.2797H26.4731C25.7102 17.2797 25.0154 17.5794 24.5113 18.0971Z" fill="url(#paint1_linear_1182_6895)"/>
<path d="M22.0676 7.37513C22.4355 7.74297 22.1221 8.31517 21.6044 8.31517L11.1413 8.30155C10.5419 8.30155 10.2285 7.56586 10.6645 7.14352L12.8715 4.92283C14.738 3.06999 17.7625 3.06999 19.629 4.92283L22.0131 7.33425C22.0267 7.34788 22.054 7.3615 22.0676 7.37513Z" fill="url(#paint2_linear_1182_6895)"/>
<defs>
<linearGradient id="paint0_linear_1182_6895" x1="25.4697" y1="17.6423" x2="29.9739" y2="19.0814" gradientUnits="userSpaceOnUse">
<stop offset="0.06" stop-color="#2B896C"/>
<stop offset="0.82" stop-color="#042D2B"/>
</linearGradient>
<linearGradient id="paint1_linear_1182_6895" x1="5.49509" y1="2.59493" x2="34.5493" y2="10.8338" gradientUnits="userSpaceOnUse">
<stop offset="0.06" stop-color="#2B896C"/>
<stop offset="0.82" stop-color="#042D2B"/>
</linearGradient>
<linearGradient id="paint2_linear_1182_6895" x1="11.4406" y1="1.66111" x2="22.6421" y2="7.52311" gradientUnits="userSpaceOnUse">
<stop offset="0.06" stop-color="#2B896C"/>
<stop offset="0.82" stop-color="#042D2B"/>
</linearGradient>
</defs>
</svg>
