<svg width="90" height="26" viewBox="0 0 90 26" fill="none" xmlns="http://www.w3.org/2000/svg">
<rect x="0.5" y="0.5" width="89" height="25" rx="3.5" fill="#FCD5DC"/>
<rect x="0.5" y="0.5" width="89" height="25" rx="3.5" stroke="#9C0C25"/>
<path d="M10.3 6.3335V19.6668" stroke="#9C0C25" stroke-width="1.5" stroke-miterlimit="10" stroke-linecap="round" stroke-linejoin="round"/>
<path d="M10.6333 7.6665L16.0333 9.99984C18.2333 10.9332 18.2333 12.5332 16.1667 13.5998L10.6333 16.3332" stroke="#9C0C25" stroke-width="1.5" stroke-miterlimit="10" stroke-linecap="round" stroke-linejoin="round"/>
<path d="M32.4881 16.926V18H27.5561V9.384H28.8341V16.926H32.4881ZM37.1315 14.274C37.1315 14.042 37.0975 13.828 37.0295 13.632C36.9655 13.436 36.8695 13.266 36.7415 13.122C36.6135 12.978 36.4575 12.866 36.2735 12.786C36.0895 12.706 35.8775 12.666 35.6375 12.666C35.1455 12.666 34.7575 12.808 34.4735 13.092C34.1935 13.376 34.0155 13.77 33.9395 14.274H37.1315ZM38.0975 17.13C37.9535 17.298 37.7875 17.444 37.5995 17.568C37.4115 17.688 37.2115 17.786 36.9995 17.862C36.7875 17.938 36.5675 17.994 36.3395 18.03C36.1155 18.066 35.8935 18.084 35.6735 18.084C35.2535 18.084 34.8635 18.014 34.5035 17.874C34.1475 17.73 33.8375 17.522 33.5735 17.25C33.3135 16.974 33.1095 16.634 32.9615 16.23C32.8175 15.822 32.7455 15.354 32.7455 14.826C32.7455 14.402 32.8115 14.008 32.9435 13.644C33.0755 13.276 33.2635 12.956 33.5075 12.684C33.7555 12.412 34.0575 12.198 34.4135 12.042C34.7695 11.886 35.1695 11.808 35.6135 11.808C35.9855 11.808 36.3275 11.87 36.6395 11.994C36.9555 12.114 37.2275 12.29 37.4555 12.522C37.6835 12.754 37.8615 13.04 37.9895 13.38C38.1215 13.72 38.1875 14.108 38.1875 14.544C38.1875 14.724 38.1675 14.846 38.1275 14.91C38.0875 14.97 38.0135 15 37.9055 15H33.9095C33.9215 15.364 33.9735 15.682 34.0655 15.954C34.1575 16.222 34.2835 16.446 34.4435 16.626C34.6075 16.806 34.8015 16.94 35.0255 17.028C35.2495 17.116 35.4995 17.16 35.7755 17.16C36.0355 17.16 36.2595 17.13 36.4475 17.07C36.6395 17.01 36.8035 16.946 36.9395 16.878C37.0795 16.806 37.1955 16.74 37.2875 16.68C37.3835 16.62 37.4675 16.59 37.5395 16.59C37.6355 16.59 37.7095 16.626 37.7615 16.698L38.0975 17.13ZM41.587 14.958C41.795 14.958 41.977 14.93 42.133 14.874C42.293 14.818 42.425 14.74 42.529 14.64C42.637 14.536 42.717 14.412 42.769 14.268C42.825 14.124 42.853 13.966 42.853 13.794C42.853 13.442 42.745 13.162 42.529 12.954C42.317 12.742 42.003 12.636 41.587 12.636C41.175 12.636 40.861 12.742 40.645 12.954C40.433 13.162 40.327 13.442 40.327 13.794C40.327 13.966 40.353 14.124 40.405 14.268C40.461 14.408 40.541 14.53 40.645 14.634C40.753 14.734 40.885 14.814 41.041 14.874C41.201 14.93 41.383 14.958 41.587 14.958ZM43.453 18.318C43.453 18.174 43.413 18.06 43.333 17.976C43.253 17.888 43.143 17.82 43.003 17.772C42.867 17.72 42.707 17.684 42.523 17.664C42.339 17.64 42.145 17.622 41.941 17.61C41.741 17.598 41.535 17.588 41.323 17.58C41.111 17.568 40.907 17.548 40.711 17.52C40.503 17.624 40.331 17.75 40.195 17.898C40.063 18.046 39.997 18.22 39.997 18.42C39.997 18.548 40.029 18.668 40.093 18.78C40.161 18.892 40.263 18.988 40.399 19.068C40.539 19.152 40.713 19.216 40.921 19.26C41.133 19.308 41.385 19.332 41.677 19.332C41.965 19.332 42.219 19.306 42.439 19.254C42.659 19.206 42.843 19.136 42.991 19.044C43.143 18.956 43.257 18.85 43.333 18.726C43.413 18.602 43.453 18.466 43.453 18.318ZM44.641 12.132V12.57C44.641 12.714 44.551 12.804 44.371 12.84L43.717 12.936C43.773 13.06 43.817 13.192 43.849 13.332C43.881 13.468 43.897 13.612 43.897 13.764C43.897 14.064 43.839 14.336 43.723 14.58C43.607 14.82 43.447 15.026 43.243 15.198C43.039 15.37 42.795 15.502 42.511 15.594C42.231 15.686 41.923 15.732 41.587 15.732C41.311 15.732 41.053 15.702 40.813 15.642C40.693 15.714 40.601 15.794 40.537 15.882C40.477 15.966 40.447 16.05 40.447 16.134C40.447 16.274 40.505 16.378 40.621 16.446C40.741 16.514 40.895 16.564 41.083 16.596C41.275 16.624 41.493 16.642 41.737 16.65C41.985 16.658 42.235 16.672 42.487 16.692C42.743 16.708 42.993 16.74 43.237 16.788C43.485 16.832 43.703 16.906 43.891 17.01C44.083 17.11 44.237 17.25 44.353 17.43C44.473 17.606 44.533 17.836 44.533 18.12C44.533 18.384 44.467 18.64 44.335 18.888C44.207 19.136 44.019 19.356 43.771 19.548C43.523 19.74 43.221 19.894 42.865 20.01C42.509 20.126 42.105 20.184 41.653 20.184C41.201 20.184 40.807 20.14 40.471 20.052C40.139 19.964 39.861 19.846 39.637 19.698C39.417 19.55 39.251 19.378 39.139 19.182C39.031 18.986 38.977 18.782 38.977 18.57C38.977 18.274 39.069 18.024 39.253 17.82C39.437 17.612 39.691 17.45 40.015 17.334C39.839 17.254 39.699 17.146 39.595 17.01C39.491 16.87 39.439 16.686 39.439 16.458C39.439 16.37 39.455 16.28 39.487 16.188C39.519 16.092 39.567 15.998 39.631 15.906C39.699 15.81 39.781 15.72 39.877 15.636C39.977 15.552 40.091 15.476 40.219 15.408C39.919 15.24 39.683 15.018 39.511 14.742C39.339 14.462 39.253 14.136 39.253 13.764C39.253 13.464 39.311 13.194 39.427 12.954C39.543 12.714 39.703 12.508 39.907 12.336C40.115 12.164 40.361 12.032 40.645 11.94C40.933 11.848 41.247 11.802 41.587 11.802C42.115 11.802 42.569 11.912 42.949 12.132H44.641ZM48.9906 15.294C48.5146 15.31 48.1106 15.348 47.7786 15.408C47.4466 15.464 47.1766 15.54 46.9686 15.636C46.7606 15.732 46.6106 15.846 46.5186 15.978C46.4266 16.106 46.3806 16.25 46.3806 16.41C46.3806 16.562 46.4046 16.694 46.4526 16.806C46.5046 16.914 46.5726 17.004 46.6566 17.076C46.7446 17.144 46.8466 17.194 46.9626 17.226C47.0786 17.258 47.2046 17.274 47.3406 17.274C47.5206 17.274 47.6846 17.256 47.8326 17.22C47.9846 17.184 48.1266 17.134 48.2586 17.07C48.3906 17.002 48.5166 16.92 48.6366 16.824C48.7566 16.728 48.8746 16.618 48.9906 16.494V15.294ZM45.5586 12.756C45.8986 12.432 46.2666 12.19 46.6626 12.03C47.0626 11.87 47.5006 11.79 47.9766 11.79C48.3246 11.79 48.6326 11.848 48.9006 11.964C49.1686 12.076 49.3946 12.234 49.5786 12.438C49.7626 12.642 49.9006 12.886 49.9926 13.17C50.0886 13.454 50.1366 13.768 50.1366 14.112V18H49.6146C49.4986 18 49.4106 17.982 49.3506 17.946C49.2906 17.906 49.2426 17.834 49.2066 17.73L49.0806 17.196C48.9246 17.34 48.7706 17.468 48.6186 17.58C48.4666 17.688 48.3066 17.782 48.1386 17.862C47.9746 17.938 47.7986 17.996 47.6106 18.036C47.4226 18.076 47.2146 18.096 46.9866 18.096C46.7466 18.096 46.5206 18.064 46.3086 18C46.1006 17.932 45.9186 17.83 45.7626 17.694C45.6066 17.558 45.4826 17.388 45.3906 17.184C45.3026 16.98 45.2586 16.742 45.2586 16.47C45.2586 16.23 45.3226 16 45.4506 15.78C45.5826 15.556 45.7946 15.356 46.0866 15.18C46.3826 15.004 46.7666 14.86 47.2386 14.748C47.7146 14.636 48.2986 14.572 48.9906 14.556V14.112C48.9906 13.652 48.8926 13.308 48.6966 13.08C48.5006 12.852 48.2126 12.738 47.8326 12.738C47.5766 12.738 47.3606 12.77 47.1846 12.834C47.0126 12.898 46.8626 12.97 46.7346 13.05C46.6106 13.126 46.5006 13.196 46.4046 13.26C46.3126 13.324 46.2166 13.356 46.1166 13.356C46.0366 13.356 45.9666 13.334 45.9066 13.29C45.8506 13.246 45.8046 13.194 45.7686 13.134L45.5586 12.756ZM52.9029 9.144V18H51.7269V9.144H52.9029ZM59.1331 18H57.8491V9.384H59.1331V18ZM64.4375 12.954C64.4055 13.006 64.3715 13.044 64.3355 13.068C64.2995 13.088 64.2535 13.098 64.1975 13.098C64.1335 13.098 64.0615 13.076 63.9815 13.032C63.9055 12.988 63.8115 12.94 63.6995 12.888C63.5915 12.836 63.4635 12.788 63.3155 12.744C63.1675 12.7 62.9915 12.678 62.7875 12.678C62.6195 12.678 62.4655 12.7 62.3255 12.744C62.1895 12.784 62.0735 12.842 61.9775 12.918C61.8815 12.99 61.8075 13.078 61.7555 13.182C61.7035 13.282 61.6775 13.39 61.6775 13.506C61.6775 13.658 61.7215 13.784 61.8095 13.884C61.9015 13.984 62.0195 14.07 62.1635 14.142C62.3115 14.214 62.4775 14.28 62.6615 14.34C62.8495 14.396 63.0395 14.456 63.2315 14.52C63.4275 14.584 63.6175 14.658 63.8015 14.742C63.9895 14.822 64.1555 14.924 64.2995 15.048C64.4475 15.168 64.5655 15.314 64.6535 15.486C64.7455 15.658 64.7915 15.868 64.7915 16.116C64.7915 16.4 64.7395 16.664 64.6355 16.908C64.5355 17.148 64.3855 17.356 64.1855 17.532C63.9895 17.708 63.7455 17.846 63.4535 17.946C63.1615 18.046 62.8275 18.096 62.4515 18.096C62.0315 18.096 61.6435 18.026 61.2875 17.886C60.9315 17.746 60.6335 17.568 60.3935 17.352L60.6695 16.902C60.7015 16.846 60.7415 16.804 60.7895 16.776C60.8375 16.744 60.9015 16.728 60.9815 16.728C61.0575 16.728 61.1355 16.756 61.2155 16.812C61.2955 16.868 61.3915 16.93 61.5035 16.998C61.6155 17.062 61.7515 17.122 61.9115 17.178C62.0715 17.23 62.2715 17.256 62.5115 17.256C62.7115 17.256 62.8855 17.232 63.0335 17.184C63.1815 17.132 63.3035 17.064 63.3995 16.98C63.4995 16.892 63.5735 16.792 63.6215 16.68C63.6695 16.568 63.6935 16.45 63.6935 16.326C63.6935 16.166 63.6475 16.034 63.5555 15.93C63.4675 15.822 63.3495 15.73 63.2015 15.654C63.0575 15.578 62.8915 15.512 62.7035 15.456C62.5155 15.4 62.3235 15.34 62.1275 15.276C61.9315 15.212 61.7395 15.138 61.5515 15.054C61.3635 14.97 61.1955 14.864 61.0475 14.736C60.9035 14.608 60.7855 14.452 60.6935 14.268C60.6055 14.084 60.5615 13.86 60.5615 13.596C60.5615 13.36 60.6095 13.134 60.7055 12.918C60.8055 12.702 60.9475 12.512 61.1315 12.348C61.3195 12.184 61.5495 12.054 61.8215 11.958C62.0975 11.858 62.4115 11.808 62.7635 11.808C63.1675 11.808 63.5315 11.872 63.8555 12C64.1835 12.128 64.4635 12.304 64.6955 12.528L64.4375 12.954ZM69.6523 12.954C69.6203 13.006 69.5863 13.044 69.5503 13.068C69.5143 13.088 69.4683 13.098 69.4123 13.098C69.3483 13.098 69.2763 13.076 69.1963 13.032C69.1203 12.988 69.0263 12.94 68.9143 12.888C68.8063 12.836 68.6783 12.788 68.5303 12.744C68.3823 12.7 68.2063 12.678 68.0023 12.678C67.8343 12.678 67.6803 12.7 67.5403 12.744C67.4043 12.784 67.2883 12.842 67.1923 12.918C67.0963 12.99 67.0223 13.078 66.9703 13.182C66.9183 13.282 66.8923 13.39 66.8923 13.506C66.8923 13.658 66.9363 13.784 67.0243 13.884C67.1163 13.984 67.2343 14.07 67.3783 14.142C67.5263 14.214 67.6923 14.28 67.8763 14.34C68.0643 14.396 68.2543 14.456 68.4463 14.52C68.6423 14.584 68.8323 14.658 69.0163 14.742C69.2043 14.822 69.3703 14.924 69.5143 15.048C69.6623 15.168 69.7803 15.314 69.8683 15.486C69.9603 15.658 70.0063 15.868 70.0063 16.116C70.0063 16.4 69.9543 16.664 69.8503 16.908C69.7503 17.148 69.6003 17.356 69.4003 17.532C69.2043 17.708 68.9603 17.846 68.6683 17.946C68.3763 18.046 68.0423 18.096 67.6663 18.096C67.2463 18.096 66.8583 18.026 66.5023 17.886C66.1463 17.746 65.8483 17.568 65.6083 17.352L65.8843 16.902C65.9163 16.846 65.9563 16.804 66.0043 16.776C66.0523 16.744 66.1163 16.728 66.1963 16.728C66.2723 16.728 66.3503 16.756 66.4303 16.812C66.5103 16.868 66.6063 16.93 66.7183 16.998C66.8303 17.062 66.9663 17.122 67.1263 17.178C67.2863 17.23 67.4863 17.256 67.7263 17.256C67.9263 17.256 68.1003 17.232 68.2483 17.184C68.3963 17.132 68.5183 17.064 68.6143 16.98C68.7143 16.892 68.7883 16.792 68.8363 16.68C68.8843 16.568 68.9083 16.45 68.9083 16.326C68.9083 16.166 68.8623 16.034 68.7703 15.93C68.6823 15.822 68.5643 15.73 68.4163 15.654C68.2723 15.578 68.1063 15.512 67.9183 15.456C67.7303 15.4 67.5383 15.34 67.3423 15.276C67.1463 15.212 66.9543 15.138 66.7663 15.054C66.5783 14.97 66.4103 14.864 66.2623 14.736C66.1183 14.608 66.0003 14.452 65.9083 14.268C65.8203 14.084 65.7763 13.86 65.7763 13.596C65.7763 13.36 65.8243 13.134 65.9203 12.918C66.0203 12.702 66.1623 12.512 66.3463 12.348C66.5343 12.184 66.7643 12.054 67.0363 11.958C67.3123 11.858 67.6263 11.808 67.9783 11.808C68.3823 11.808 68.7463 11.872 69.0703 12C69.3983 12.128 69.6783 12.304 69.9103 12.528L69.6523 12.954ZM76.3432 11.904V18H75.6412C75.4812 18 75.3772 17.922 75.3292 17.766L75.2452 17.154C75.1132 17.294 74.9752 17.422 74.8312 17.538C74.6872 17.654 74.5332 17.754 74.3692 17.838C74.2052 17.918 74.0312 17.98 73.8472 18.024C73.6632 18.072 73.4652 18.096 73.2532 18.096C72.9172 18.096 72.6212 18.04 72.3652 17.928C72.1132 17.816 71.9012 17.66 71.7292 17.46C71.5572 17.256 71.4272 17.012 71.3392 16.728C71.2512 16.444 71.2072 16.13 71.2072 15.786V11.904H72.3832V15.786C72.3832 16.222 72.4832 16.562 72.6832 16.806C72.8832 17.046 73.1892 17.166 73.6012 17.166C73.9012 17.166 74.1812 17.096 74.4412 16.956C74.7012 16.812 74.9452 16.616 75.1732 16.368V11.904H76.3432ZM82.0143 14.274C82.0143 14.042 81.9803 13.828 81.9123 13.632C81.8483 13.436 81.7523 13.266 81.6243 13.122C81.4963 12.978 81.3403 12.866 81.1563 12.786C80.9723 12.706 80.7603 12.666 80.5203 12.666C80.0283 12.666 79.6403 12.808 79.3563 13.092C79.0763 13.376 78.8983 13.77 78.8223 14.274H82.0143ZM82.9803 17.13C82.8363 17.298 82.6703 17.444 82.4823 17.568C82.2943 17.688 82.0943 17.786 81.8823 17.862C81.6703 17.938 81.4503 17.994 81.2223 18.03C80.9983 18.066 80.7763 18.084 80.5563 18.084C80.1363 18.084 79.7463 18.014 79.3863 17.874C79.0303 17.73 78.7203 17.522 78.4563 17.25C78.1963 16.974 77.9923 16.634 77.8443 16.23C77.7003 15.822 77.6283 15.354 77.6283 14.826C77.6283 14.402 77.6943 14.008 77.8263 13.644C77.9583 13.276 78.1463 12.956 78.3903 12.684C78.6383 12.412 78.9403 12.198 79.2963 12.042C79.6523 11.886 80.0523 11.808 80.4963 11.808C80.8683 11.808 81.2103 11.87 81.5223 11.994C81.8383 12.114 82.1103 12.29 82.3383 12.522C82.5663 12.754 82.7443 13.04 82.8723 13.38C83.0043 13.72 83.0703 14.108 83.0703 14.544C83.0703 14.724 83.0503 14.846 83.0103 14.91C82.9703 14.97 82.8963 15 82.7883 15H78.7923C78.8043 15.364 78.8563 15.682 78.9483 15.954C79.0403 16.222 79.1663 16.446 79.3263 16.626C79.4903 16.806 79.6843 16.94 79.9083 17.028C80.1323 17.116 80.3823 17.16 80.6583 17.16C80.9183 17.16 81.1423 17.13 81.3303 17.07C81.5223 17.01 81.6863 16.946 81.8223 16.878C81.9623 16.806 82.0783 16.74 82.1703 16.68C82.2663 16.62 82.3503 16.59 82.4223 16.59C82.5183 16.59 82.5923 16.626 82.6443 16.698L82.9803 17.13Z" fill="#7B091D"/>
</svg>
