<svg width="18" height="18" viewBox="0 0 18 18" fill="none" xmlns="http://www.w3.org/2000/svg">
<path d="M16.5 7.5V11.25C16.5 15 15 16.5 11.25 16.5H6.75C3 16.5 1.5 15 1.5 11.25L1.5 6.75C1.5 3 3 1.5 6.75 1.5L10.5 1.5" stroke="#5A5555" stroke-width="1.5" stroke-linecap="round" stroke-linejoin="round"/>
<path d="M5.25 9.75H9.75" stroke="#5A5555" stroke-width="1.5" stroke-linecap="round" stroke-linejoin="round"/>
<path d="M5.25 12.75H8.25" stroke="#5A5555" stroke-width="1.5" stroke-linecap="round" stroke-linejoin="round"/>
<path d="M14.4215 1.94709L11.639 4.72959C11.534 4.83459 11.429 5.04459 11.4065 5.19459L11.2565 6.25959C11.204 6.64209 11.474 6.91209 11.8565 6.85959L12.9215 6.70959C13.0715 6.68709 13.2815 6.58209 13.3865 6.47709L16.169 3.69459C16.649 3.21459 16.874 2.65959 16.169 1.95459C15.4565 1.24209 14.9015 1.46709 14.4215 1.94709Z" stroke="#5A5555" stroke-width="1.5" stroke-miterlimit="10" stroke-linecap="round" stroke-linejoin="round"/>
<path d="M14.0244 2.34473C14.2644 3.19223 14.9244 3.85223 15.7644 4.08473" stroke="#5A5555" stroke-width="1.5" stroke-miterlimit="10" stroke-linecap="round" stroke-linejoin="round"/>
</svg>
