<svg width="79" height="26" viewBox="0 0 79 26" fill="none" xmlns="http://www.w3.org/2000/svg">
<rect width="79" height="26" rx="4" fill="#BD0E2D"/>
<path d="M14 19C17.3137 19 20 16.3137 20 13C20 9.68629 17.3137 7 14 7C10.6863 7 8 9.68629 8 13C8 16.3137 10.6863 19 14 19Z" stroke="#FAFAFA" stroke-width="1.5"/>
<path d="M18 17L10 9" stroke="#FAFAFA" stroke-width="1.5"/>
<path d="M33.9434 10.902C33.8954 10.986 33.8434 11.048 33.7874 11.088C33.7354 11.124 33.6694 11.142 33.5894 11.142C33.5054 11.142 33.4134 11.112 33.3134 11.052C33.2174 10.988 33.1014 10.918 32.9654 10.842C32.8294 10.766 32.6694 10.698 32.4854 10.638C32.3054 10.574 32.0914 10.542 31.8434 10.542C31.6194 10.542 31.4234 10.57 31.2554 10.626C31.0874 10.678 30.9454 10.752 30.8294 10.848C30.7174 10.944 30.6334 11.06 30.5774 11.196C30.5214 11.328 30.4934 11.474 30.4934 11.634C30.4934 11.838 30.5494 12.008 30.6614 12.144C30.7774 12.28 30.9294 12.396 31.1174 12.492C31.3054 12.588 31.5194 12.674 31.7594 12.75C31.9994 12.826 32.2454 12.908 32.4974 12.996C32.7494 13.08 32.9954 13.18 33.2354 13.296C33.4754 13.408 33.6894 13.552 33.8774 13.728C34.0654 13.9 34.2154 14.112 34.3274 14.364C34.4434 14.616 34.5014 14.922 34.5014 15.282C34.5014 15.674 34.4334 16.042 34.2974 16.386C34.1654 16.726 33.9694 17.024 33.7094 17.28C33.4534 17.532 33.1394 17.732 32.7674 17.88C32.3954 18.024 31.9694 18.096 31.4894 18.096C31.2134 18.096 30.9414 18.068 30.6734 18.012C30.4054 17.96 30.1474 17.884 29.8994 17.784C29.6554 17.684 29.4254 17.564 29.2094 17.424C28.9934 17.284 28.8014 17.128 28.6334 16.956L29.1074 16.182C29.1474 16.126 29.1994 16.08 29.2634 16.044C29.3274 16.004 29.3954 15.984 29.4674 15.984C29.5674 15.984 29.6754 16.026 29.7914 16.11C29.9074 16.19 30.0454 16.28 30.2054 16.38C30.3654 16.48 30.5514 16.572 30.7634 16.656C30.9794 16.736 31.2374 16.776 31.5374 16.776C31.9974 16.776 32.3534 16.668 32.6054 16.452C32.8574 16.232 32.9834 15.918 32.9834 15.51C32.9834 15.282 32.9254 15.096 32.8094 14.952C32.6974 14.808 32.5474 14.688 32.3594 14.592C32.1714 14.492 31.9574 14.408 31.7174 14.34C31.4774 14.272 31.2334 14.198 30.9854 14.118C30.7374 14.038 30.4934 13.942 30.2534 13.83C30.0134 13.718 29.7994 13.572 29.6114 13.392C29.4234 13.212 29.2714 12.988 29.1554 12.72C29.0434 12.448 28.9874 12.114 28.9874 11.718C28.9874 11.402 29.0494 11.094 29.1734 10.794C29.3014 10.494 29.4854 10.228 29.7254 9.996C29.9654 9.764 30.2614 9.578 30.6134 9.438C30.9654 9.298 31.3694 9.228 31.8254 9.228C32.3374 9.228 32.8094 9.308 33.2414 9.468C33.6734 9.628 34.0414 9.852 34.3454 10.14L33.9434 10.902ZM38.3759 11.748C38.8319 11.748 39.2459 11.822 39.6179 11.97C39.9939 12.118 40.3139 12.328 40.5779 12.6C40.8459 12.872 41.0519 13.204 41.1959 13.596C41.3399 13.988 41.4119 14.426 41.4119 14.91C41.4119 15.398 41.3399 15.838 41.1959 16.23C41.0519 16.622 40.8459 16.956 40.5779 17.232C40.3139 17.508 39.9939 17.72 39.6179 17.868C39.2459 18.016 38.8319 18.09 38.3759 18.09C37.9159 18.09 37.4979 18.016 37.1219 17.868C36.7459 17.72 36.4239 17.508 36.1559 17.232C35.8919 16.956 35.6859 16.622 35.5379 16.23C35.3939 15.838 35.3219 15.398 35.3219 14.91C35.3219 14.426 35.3939 13.988 35.5379 13.596C35.6859 13.204 35.8919 12.872 36.1559 12.6C36.4239 12.328 36.7459 12.118 37.1219 11.97C37.4979 11.822 37.9159 11.748 38.3759 11.748ZM38.3759 16.95C38.8879 16.95 39.2659 16.778 39.5099 16.434C39.7579 16.09 39.8819 15.586 39.8819 14.922C39.8819 14.258 39.7579 13.752 39.5099 13.404C39.2659 13.056 38.8879 12.882 38.3759 12.882C37.8559 12.882 37.4699 13.058 37.2179 13.41C36.9699 13.758 36.8459 14.262 36.8459 14.922C36.8459 15.582 36.9699 16.086 37.2179 16.434C37.4699 16.778 37.8559 16.95 38.3759 16.95ZM44.0425 9.084V18H42.5605V9.084H44.0425ZM49.3831 13.416C49.2151 13.212 49.0311 13.068 48.8311 12.984C48.6351 12.9 48.4231 12.858 48.1951 12.858C47.9711 12.858 47.7691 12.9 47.5891 12.984C47.4091 13.068 47.2551 13.196 47.1271 13.368C46.9991 13.536 46.9011 13.752 46.8331 14.016C46.7651 14.276 46.7311 14.584 46.7311 14.94C46.7311 15.3 46.7591 15.606 46.8151 15.858C46.8751 16.106 46.9591 16.31 47.0671 16.47C47.1751 16.626 47.3071 16.74 47.4631 16.812C47.6191 16.88 47.7931 16.914 47.9851 16.914C48.2931 16.914 48.5551 16.85 48.7711 16.722C48.9871 16.594 49.1911 16.412 49.3831 16.176V13.416ZM50.8651 9.084V18H49.9591C49.7631 18 49.6391 17.91 49.5871 17.73L49.4611 17.136C49.2131 17.42 48.9271 17.65 48.6031 17.826C48.2831 18.002 47.9091 18.09 47.4811 18.09C47.1451 18.09 46.8371 18.02 46.5571 17.88C46.2771 17.74 46.0351 17.538 45.8311 17.274C45.6311 17.006 45.4751 16.676 45.3631 16.284C45.2551 15.892 45.2011 15.444 45.2011 14.94C45.2011 14.484 45.2631 14.06 45.3871 13.668C45.5111 13.276 45.6891 12.936 45.9211 12.648C46.1531 12.36 46.4311 12.136 46.7551 11.976C47.0791 11.812 47.4431 11.73 47.8471 11.73C48.1911 11.73 48.4851 11.784 48.7291 11.892C48.9731 12 49.1911 12.146 49.3831 12.33V9.084H50.8651ZM57.9697 11.748C58.4257 11.748 58.8397 11.822 59.2117 11.97C59.5877 12.118 59.9077 12.328 60.1717 12.6C60.4397 12.872 60.6457 13.204 60.7897 13.596C60.9337 13.988 61.0057 14.426 61.0057 14.91C61.0057 15.398 60.9337 15.838 60.7897 16.23C60.6457 16.622 60.4397 16.956 60.1717 17.232C59.9077 17.508 59.5877 17.72 59.2117 17.868C58.8397 18.016 58.4257 18.09 57.9697 18.09C57.5097 18.09 57.0917 18.016 56.7157 17.868C56.3397 17.72 56.0177 17.508 55.7497 17.232C55.4857 16.956 55.2797 16.622 55.1317 16.23C54.9877 15.838 54.9157 15.398 54.9157 14.91C54.9157 14.426 54.9877 13.988 55.1317 13.596C55.2797 13.204 55.4857 12.872 55.7497 12.6C56.0177 12.328 56.3397 12.118 56.7157 11.97C57.0917 11.822 57.5097 11.748 57.9697 11.748ZM57.9697 16.95C58.4817 16.95 58.8597 16.778 59.1037 16.434C59.3517 16.09 59.4757 15.586 59.4757 14.922C59.4757 14.258 59.3517 13.752 59.1037 13.404C58.8597 13.056 58.4817 12.882 57.9697 12.882C57.4497 12.882 57.0637 13.058 56.8117 13.41C56.5637 13.758 56.4397 14.262 56.4397 14.922C56.4397 15.582 56.5637 16.086 56.8117 16.434C57.0637 16.778 57.4497 16.95 57.9697 16.95ZM67.4403 11.844V18H66.5343C66.3383 18 66.2143 17.91 66.1623 17.73L66.0603 17.238C65.8083 17.494 65.5303 17.702 65.2263 17.862C64.9223 18.018 64.5643 18.096 64.1523 18.096C63.8163 18.096 63.5183 18.04 63.2583 17.928C63.0023 17.812 62.7863 17.65 62.6103 17.442C62.4343 17.234 62.3003 16.988 62.2083 16.704C62.1203 16.416 62.0763 16.1 62.0763 15.756V11.844H63.5583V15.756C63.5583 16.132 63.6443 16.424 63.8163 16.632C63.9923 16.836 64.2543 16.938 64.6023 16.938C64.8583 16.938 65.0983 16.882 65.3223 16.77C65.5463 16.654 65.7583 16.496 65.9583 16.296V11.844H67.4403ZM70.9617 18.096C70.4257 18.096 70.0137 17.946 69.7257 17.646C69.4417 17.342 69.2997 16.924 69.2997 16.392V12.954H68.6697C68.5897 12.954 68.5217 12.928 68.4657 12.876C68.4097 12.824 68.3817 12.746 68.3817 12.642V12.054L69.3717 11.892L69.6837 10.212C69.7037 10.132 69.7417 10.07 69.7977 10.026C69.8537 9.982 69.9257 9.96 70.0137 9.96H70.7817V11.898H72.4257V12.954H70.7817V16.29C70.7817 16.482 70.8277 16.632 70.9197 16.74C71.0157 16.848 71.1457 16.902 71.3097 16.902C71.4017 16.902 71.4777 16.892 71.5377 16.872C71.6017 16.848 71.6557 16.824 71.6997 16.8C71.7477 16.776 71.7897 16.754 71.8257 16.734C71.8617 16.71 71.8977 16.698 71.9337 16.698C71.9777 16.698 72.0137 16.71 72.0417 16.734C72.0697 16.754 72.0997 16.786 72.1317 16.83L72.5757 17.55C72.3597 17.73 72.1117 17.866 71.8317 17.958C71.5517 18.05 71.2617 18.096 70.9617 18.096Z" fill="#FAFAFA"/>
</svg>
