<svg width="71" height="26" viewBox="0 0 71 26" fill="none" xmlns="http://www.w3.org/2000/svg">
<rect x="0.5" y="0.5" width="70" height="25" rx="3.5" fill="#FAFAFA"/>
<rect x="0.5" y="0.5" width="70" height="25" rx="3.5" stroke="#CCCBCB"/>
<path d="M11.1673 6.63289C11.6273 6.23956 12.3806 6.23956 12.8473 6.63289L13.9006 7.53956C14.1006 7.71289 14.4739 7.85289 14.7406 7.85289H15.8739C16.5806 7.85289 17.1606 8.43289 17.1606 9.13956V10.2729C17.1606 10.5329 17.3006 10.9129 17.4739 11.1129L18.3806 12.1662C18.7739 12.6262 18.7739 13.3796 18.3806 13.8462L17.4739 14.8996C17.3006 15.0996 17.1606 15.4729 17.1606 15.7396V16.8729C17.1606 17.5796 16.5806 18.1596 15.8739 18.1596H14.7406C14.4806 18.1596 14.1006 18.2996 13.9006 18.4729L12.8473 19.3796C12.3873 19.7729 11.6339 19.7729 11.1673 19.3796L10.1139 18.4729C9.91395 18.2996 9.54061 18.1596 9.27395 18.1596H8.12061C7.41395 18.1596 6.83395 17.5796 6.83395 16.8729V15.7329C6.83395 15.4729 6.69395 15.0996 6.52728 14.8996L5.62728 13.8396C5.24061 13.3796 5.24061 12.6329 5.62728 12.1729L6.52728 11.1129C6.69395 10.9129 6.83395 10.5396 6.83395 10.2796V9.13289C6.83395 8.42622 7.41395 7.84622 8.12061 7.84622H9.27395C9.53395 7.84622 9.91395 7.70622 10.1139 7.53289L11.1673 6.63289Z" fill="#12A858" stroke="#12A858" stroke-linecap="round" stroke-linejoin="round"/>
<path d="M9.58728 13.0001L11.1939 14.6134L14.4139 11.3867" stroke="white" stroke-width="1.5" stroke-linecap="round" stroke-linejoin="round"/>
<path d="M32.1816 9.384L28.6776 18H27.5316L24.0276 9.384H25.0476C25.1596 9.384 25.2496 9.412 25.3176 9.468C25.3896 9.524 25.4436 9.596 25.4796 9.684L27.8076 15.54C27.8636 15.684 27.9176 15.842 27.9696 16.014C28.0256 16.186 28.0756 16.366 28.1196 16.554C28.1596 16.366 28.2036 16.186 28.2516 16.014C28.2996 15.842 28.3516 15.684 28.4076 15.54L30.7296 9.684C30.7576 9.604 30.8076 9.534 30.8796 9.474C30.9556 9.414 31.0476 9.384 31.1556 9.384H32.1816ZM36.1413 14.274C36.1413 14.042 36.1073 13.828 36.0393 13.632C35.9753 13.436 35.8793 13.266 35.7513 13.122C35.6233 12.978 35.4673 12.866 35.2833 12.786C35.0993 12.706 34.8873 12.666 34.6473 12.666C34.1553 12.666 33.7673 12.808 33.4833 13.092C33.2033 13.376 33.0253 13.77 32.9493 14.274H36.1413ZM37.1073 17.13C36.9633 17.298 36.7973 17.444 36.6093 17.568C36.4213 17.688 36.2213 17.786 36.0093 17.862C35.7973 17.938 35.5773 17.994 35.3493 18.03C35.1253 18.066 34.9033 18.084 34.6833 18.084C34.2633 18.084 33.8733 18.014 33.5133 17.874C33.1573 17.73 32.8473 17.522 32.5833 17.25C32.3233 16.974 32.1193 16.634 31.9713 16.23C31.8273 15.822 31.7553 15.354 31.7553 14.826C31.7553 14.402 31.8213 14.008 31.9533 13.644C32.0853 13.276 32.2733 12.956 32.5173 12.684C32.7653 12.412 33.0673 12.198 33.4233 12.042C33.7793 11.886 34.1793 11.808 34.6233 11.808C34.9953 11.808 35.3373 11.87 35.6493 11.994C35.9653 12.114 36.2373 12.29 36.4653 12.522C36.6933 12.754 36.8713 13.04 36.9993 13.38C37.1313 13.72 37.1973 14.108 37.1973 14.544C37.1973 14.724 37.1773 14.846 37.1373 14.91C37.0973 14.97 37.0233 15 36.9153 15H32.9193C32.9313 15.364 32.9833 15.682 33.0753 15.954C33.1673 16.222 33.2933 16.446 33.4533 16.626C33.6173 16.806 33.8113 16.94 34.0353 17.028C34.2593 17.116 34.5093 17.16 34.7853 17.16C35.0453 17.16 35.2693 17.13 35.4573 17.07C35.6493 17.01 35.8133 16.946 35.9493 16.878C36.0893 16.806 36.2053 16.74 36.2973 16.68C36.3933 16.62 36.4773 16.59 36.5493 16.59C36.6453 16.59 36.7193 16.626 36.7713 16.698L37.1073 17.13ZM39.5588 13.074C39.7548 12.674 39.9908 12.36 40.2668 12.132C40.5428 11.904 40.8748 11.79 41.2628 11.79C41.3948 11.79 41.5188 11.806 41.6348 11.838C41.7548 11.866 41.8588 11.91 41.9468 11.97L41.8688 12.852C41.8408 12.96 41.7748 13.014 41.6708 13.014C41.6148 13.014 41.5308 13.004 41.4188 12.984C41.3068 12.96 41.1868 12.948 41.0588 12.948C40.8708 12.948 40.7048 12.976 40.5608 13.032C40.4168 13.084 40.2868 13.164 40.1708 13.272C40.0588 13.376 39.9588 13.506 39.8708 13.662C39.7828 13.814 39.7008 13.988 39.6248 14.184V18H38.4548V11.904H39.1268C39.2548 11.904 39.3408 11.928 39.3848 11.976C39.4328 12.02 39.4668 12.1 39.4868 12.216L39.5588 13.074ZM44.0733 11.904V18H42.9033V11.904H44.0733ZM44.2953 10.02C44.2953 10.128 44.2733 10.232 44.2293 10.332C44.1853 10.428 44.1253 10.514 44.0493 10.59C43.9773 10.662 43.8913 10.72 43.7913 10.764C43.6913 10.804 43.5873 10.824 43.4793 10.824C43.3713 10.824 43.2693 10.804 43.1733 10.764C43.0773 10.72 42.9913 10.662 42.9153 10.59C42.8433 10.514 42.7853 10.428 42.7413 10.332C42.7013 10.232 42.6813 10.128 42.6813 10.02C42.6813 9.908 42.7013 9.804 42.7413 9.708C42.7853 9.608 42.8433 9.522 42.9153 9.45C42.9913 9.374 43.0773 9.316 43.1733 9.276C43.2693 9.232 43.3713 9.21 43.4793 9.21C43.5873 9.21 43.6913 9.232 43.7913 9.276C43.8913 9.316 43.9773 9.374 44.0493 9.45C44.1253 9.522 44.1853 9.608 44.2293 9.708C44.2733 9.804 44.2953 9.908 44.2953 10.02ZM46.1753 18V12.864L45.5393 12.786C45.4473 12.766 45.3713 12.734 45.3113 12.69C45.2553 12.642 45.2273 12.574 45.2273 12.486V12H46.1753V11.706C46.1753 11.334 46.2333 10.992 46.3493 10.68C46.4693 10.364 46.6473 10.092 46.8833 9.864C47.1233 9.636 47.4193 9.46 47.7713 9.336C48.1273 9.208 48.5433 9.144 49.0193 9.144C49.1713 9.144 49.3313 9.154 49.4993 9.174C49.6673 9.194 49.8093 9.224 49.9253 9.264L49.8833 9.876C49.8753 9.956 49.8253 9.998 49.7333 10.002C49.6413 10.006 49.5133 10.008 49.3493 10.008C48.9853 10.008 48.6753 10.044 48.4193 10.116C48.1633 10.188 47.9533 10.296 47.7893 10.44C47.6253 10.584 47.5053 10.766 47.4293 10.986C47.3533 11.202 47.3153 11.454 47.3153 11.742V12H51.0233V18H49.8473V12.852H47.3513V18H46.1753ZM56.7545 14.274C56.7545 14.042 56.7205 13.828 56.6525 13.632C56.5885 13.436 56.4925 13.266 56.3645 13.122C56.2365 12.978 56.0805 12.866 55.8965 12.786C55.7125 12.706 55.5005 12.666 55.2605 12.666C54.7685 12.666 54.3805 12.808 54.0965 13.092C53.8165 13.376 53.6385 13.77 53.5625 14.274H56.7545ZM57.7205 17.13C57.5765 17.298 57.4105 17.444 57.2225 17.568C57.0345 17.688 56.8345 17.786 56.6225 17.862C56.4105 17.938 56.1905 17.994 55.9625 18.03C55.7385 18.066 55.5165 18.084 55.2965 18.084C54.8765 18.084 54.4865 18.014 54.1265 17.874C53.7705 17.73 53.4605 17.522 53.1965 17.25C52.9365 16.974 52.7325 16.634 52.5845 16.23C52.4405 15.822 52.3685 15.354 52.3685 14.826C52.3685 14.402 52.4345 14.008 52.5665 13.644C52.6985 13.276 52.8865 12.956 53.1305 12.684C53.3785 12.412 53.6805 12.198 54.0365 12.042C54.3925 11.886 54.7925 11.808 55.2365 11.808C55.6085 11.808 55.9505 11.87 56.2625 11.994C56.5785 12.114 56.8505 12.29 57.0785 12.522C57.3065 12.754 57.4845 13.04 57.6125 13.38C57.7445 13.72 57.8105 14.108 57.8105 14.544C57.8105 14.724 57.7905 14.846 57.7505 14.91C57.7105 14.97 57.6365 15 57.5285 15H53.5325C53.5445 15.364 53.5965 15.682 53.6885 15.954C53.7805 16.222 53.9065 16.446 54.0665 16.626C54.2305 16.806 54.4245 16.94 54.6485 17.028C54.8725 17.116 55.1225 17.16 55.3985 17.16C55.6585 17.16 55.8825 17.13 56.0705 17.07C56.2625 17.01 56.4265 16.946 56.5625 16.878C56.7025 16.806 56.8185 16.74 56.9105 16.68C57.0065 16.62 57.0905 16.59 57.1625 16.59C57.2585 16.59 57.3325 16.626 57.3845 16.698L57.7205 17.13ZM62.9981 13.38C62.8061 13.128 62.5981 12.952 62.3741 12.852C62.1541 12.752 61.9061 12.702 61.6301 12.702C61.0941 12.702 60.6781 12.896 60.3821 13.284C60.0901 13.668 59.9441 14.23 59.9441 14.97C59.9441 15.358 59.9761 15.69 60.0401 15.966C60.1081 16.238 60.2041 16.462 60.3281 16.638C60.4561 16.81 60.6121 16.938 60.7961 17.022C60.9801 17.102 61.1881 17.142 61.4201 17.142C61.7601 17.142 62.0541 17.066 62.3021 16.914C62.5501 16.762 62.7821 16.548 62.9981 16.272V13.38ZM64.1741 9.144V18H63.4661C63.3021 18 63.2001 17.922 63.1601 17.766L63.0581 17.064C62.7981 17.372 62.5021 17.62 62.1701 17.808C61.8421 17.992 61.4621 18.084 61.0301 18.084C60.6821 18.084 60.3661 18.016 60.0821 17.88C59.8021 17.744 59.5621 17.546 59.3621 17.286C59.1621 17.022 59.0081 16.696 58.9001 16.308C58.7921 15.92 58.7381 15.474 58.7381 14.97C58.7381 14.518 58.7981 14.098 58.9181 13.71C59.0381 13.322 59.2121 12.986 59.4401 12.702C59.6681 12.418 59.9441 12.196 60.2681 12.036C60.5921 11.872 60.9581 11.79 61.3661 11.79C61.7341 11.79 62.0461 11.85 62.3021 11.97C62.5621 12.09 62.7941 12.26 62.9981 12.48V9.144H64.1741Z" fill="#252626"/>
</svg>