<svg width="30" height="30" viewBox="0 0 30 30" fill="none" xmlns="http://www.w3.org/2000/svg">
<g filter="url(#filter0_b_160_3548)">
<rect width="30" height="30" rx="6" fill="#C2E8DF"/>
<path d="M9.70898 22.5898H20.0144" stroke="#2B2928" stroke-width="1.5" stroke-linecap="round" stroke-linejoin="round"/>
<path d="M15.6113 7.86816C15.6113 7.45395 15.2755 7.11816 14.8613 7.11816C14.4471 7.11816 14.1113 7.45395 14.1113 7.86816H15.6113ZM14.1113 7.86816V21.854H15.6113V7.86816H14.1113Z" fill="#2B2928"/>
<path d="M7.65207 17.1625L10.0763 11.5483L12.5006 17.1625C12.5907 17.3711 12.5322 17.6142 12.3571 17.7591C11.0336 18.8537 9.11908 18.8537 7.79558 17.7591C7.62044 17.6142 7.56196 17.3711 7.65207 17.1625Z" stroke="#2B2928" stroke-width="1.5" stroke-linejoin="round"/>
<path d="M17.2224 15.6903L19.6467 10.0762L22.0709 15.6903C22.161 15.8989 22.1026 16.142 21.9274 16.2869C20.6039 17.3815 18.6894 17.3815 17.3659 16.2869C17.1907 16.142 17.1323 15.899 17.2224 15.6903Z" stroke="#2B2928" stroke-width="1.5" stroke-linejoin="round"/>
<path d="M9.70898 11.5483L19.6463 9.70801" stroke="#2B2928" stroke-width="1.5" stroke-linecap="round" stroke-linejoin="round"/>
<path d="M14.8613 7.5V22.222" stroke="#2B2928" stroke-width="1.5" stroke-linecap="round" stroke-linejoin="round"/>
<path d="M16.3199 10.8123C16.3199 11.6177 15.667 12.2706 14.8616 12.2706C14.0562 12.2706 13.4033 11.6177 13.4033 10.8123C13.4033 10.0069 14.0562 9.354 14.8616 9.354C15.667 9.354 16.3199 10.0069 16.3199 10.8123Z" fill="#FAFAFA" stroke="#2B2928" stroke-width="1.5"/>
</g>
<defs>
<filter id="filter0_b_160_3548" x="-4" y="-4" width="38" height="38" filterUnits="userSpaceOnUse" color-interpolation-filters="sRGB">
<feFlood flood-opacity="0" result="BackgroundImageFix"/>
<feGaussianBlur in="BackgroundImageFix" stdDeviation="2"/>
<feComposite in2="SourceAlpha" operator="in" result="effect1_backgroundBlur_160_3548"/>
<feBlend mode="normal" in="SourceGraphic" in2="effect1_backgroundBlur_160_3548" result="shape"/>
</filter>
</defs>
</svg>
