<svg width="99" height="26" viewBox="0 0 99 26" fill="none" xmlns="http://www.w3.org/2000/svg">
<path d="M0 4C0 1.79086 1.79086 0 4 0H95C97.2091 0 99 1.79086 99 4V22C99 24.2091 97.2091 26 95 26H4C1.79086 26 0 24.2091 0 22V4Z" fill="#B6F7D4"/>
<path d="M17 11.3335L14.2 14.1335L13.1333 12.5335L11 14.6668" stroke="#2B2928" stroke-width="1.25" stroke-linecap="round" stroke-linejoin="round"/>
<path d="M15.667 11.3335H17.0003V12.6668" stroke="#2B2928" stroke-width="1.25" stroke-linecap="round" stroke-linejoin="round"/>
<path d="M11.9997 19.6668H15.9997C19.333 19.6668 20.6663 18.3335 20.6663 15.0002V11.0002C20.6663 7.66683 19.333 6.3335 15.9997 6.3335H11.9997C8.66634 6.3335 7.33301 7.66683 7.33301 11.0002V15.0002C7.33301 18.3335 8.66634 19.6668 11.9997 19.6668Z" stroke="#2B2928" stroke-width="1.25" stroke-linecap="round" stroke-linejoin="round"/>
<path d="M34.4148 18H32.7888V14.208H28.7208V18H27.0948V9.324H28.7208V13.056H32.7888V9.324H34.4148V18ZM37.6591 11.844V18H36.1771V11.844H37.6591ZM37.8811 10.05C37.8811 10.178 37.8551 10.298 37.8031 10.41C37.7511 10.522 37.6811 10.62 37.5931 10.704C37.5091 10.788 37.4091 10.856 37.2931 10.908C37.1771 10.956 37.0531 10.98 36.9211 10.98C36.7931 10.98 36.6711 10.956 36.5551 10.908C36.4431 10.856 36.3451 10.788 36.2611 10.704C36.1771 10.62 36.1091 10.522 36.0571 10.41C36.0091 10.298 35.9851 10.178 35.9851 10.05C35.9851 9.918 36.0091 9.794 36.0571 9.678C36.1091 9.562 36.1771 9.462 36.2611 9.378C36.3451 9.294 36.4431 9.228 36.5551 9.18C36.6711 9.128 36.7931 9.102 36.9211 9.102C37.0531 9.102 37.1771 9.128 37.2931 9.18C37.4091 9.228 37.5091 9.294 37.5931 9.378C37.6811 9.462 37.7511 9.562 37.8031 9.678C37.8551 9.794 37.8811 9.918 37.8811 10.05ZM41.4689 11.736C41.7329 11.736 41.9809 11.764 42.2129 11.82C42.4449 11.872 42.6569 11.95 42.8489 12.054H44.6189V12.606C44.6189 12.698 44.5949 12.77 44.5469 12.822C44.4989 12.874 44.4169 12.91 44.3009 12.93L43.7489 13.032C43.7889 13.136 43.8189 13.246 43.8389 13.362C43.8629 13.478 43.8749 13.6 43.8749 13.728C43.8749 14.032 43.8129 14.308 43.6889 14.556C43.5689 14.8 43.4009 15.008 43.1849 15.18C42.9729 15.352 42.7189 15.486 42.4229 15.582C42.1309 15.674 41.8129 15.72 41.4689 15.72C41.2369 15.72 41.0109 15.698 40.7909 15.654C40.5989 15.77 40.5029 15.9 40.5029 16.044C40.5029 16.168 40.5589 16.26 40.6709 16.32C40.7869 16.376 40.9369 16.416 41.1209 16.44C41.3089 16.464 41.5209 16.48 41.7569 16.488C41.9929 16.492 42.2349 16.504 42.4829 16.524C42.7309 16.544 42.9729 16.58 43.2089 16.632C43.4449 16.68 43.6549 16.758 43.8389 16.866C44.0269 16.974 44.1769 17.122 44.2889 17.31C44.4049 17.494 44.4629 17.732 44.4629 18.024C44.4629 18.296 44.3949 18.56 44.2589 18.816C44.1269 19.072 43.9329 19.3 43.6769 19.5C43.4249 19.7 43.1149 19.86 42.7469 19.98C42.3789 20.104 41.9589 20.166 41.4869 20.166C41.0189 20.166 40.6129 20.12 40.2689 20.028C39.9249 19.94 39.6389 19.82 39.4109 19.668C39.1869 19.52 39.0189 19.348 38.9069 19.152C38.7949 18.956 38.7389 18.752 38.7389 18.54C38.7389 18.252 38.8269 18.01 39.0029 17.814C39.1789 17.618 39.4229 17.462 39.7349 17.346C39.5829 17.262 39.4609 17.15 39.3689 17.01C39.2769 16.87 39.2309 16.688 39.2309 16.464C39.2309 16.372 39.2469 16.278 39.2789 16.182C39.3109 16.082 39.3589 15.984 39.4229 15.888C39.4909 15.792 39.5749 15.702 39.6749 15.618C39.7749 15.53 39.8929 15.452 40.0289 15.384C39.7169 15.216 39.4709 14.992 39.2909 14.712C39.1149 14.432 39.0269 14.104 39.0269 13.728C39.0269 13.424 39.0869 13.15 39.2069 12.906C39.3309 12.658 39.5009 12.448 39.7169 12.276C39.9369 12.1 40.1949 11.966 40.4909 11.874C40.7909 11.782 41.1169 11.736 41.4689 11.736ZM43.0949 18.276C43.0949 18.156 43.0589 18.058 42.9869 17.982C42.9149 17.906 42.8169 17.848 42.6929 17.808C42.5689 17.764 42.4229 17.732 42.2549 17.712C42.0909 17.692 41.9149 17.678 41.7269 17.67C41.5429 17.658 41.3509 17.648 41.1509 17.64C40.9549 17.628 40.7649 17.61 40.5809 17.586C40.4129 17.678 40.2769 17.788 40.1729 17.916C40.0729 18.04 40.0229 18.184 40.0229 18.348C40.0229 18.456 40.0489 18.556 40.1009 18.648C40.1569 18.744 40.2429 18.826 40.3589 18.894C40.4789 18.962 40.6329 19.014 40.8209 19.05C41.0089 19.09 41.2389 19.11 41.5109 19.11C41.7869 19.11 42.0249 19.088 42.2249 19.044C42.4249 19.004 42.5889 18.946 42.7169 18.87C42.8489 18.798 42.9449 18.71 43.0049 18.606C43.0649 18.506 43.0949 18.396 43.0949 18.276ZM41.4689 14.772C41.6529 14.772 41.8129 14.748 41.9489 14.7C42.0849 14.648 42.1969 14.578 42.2849 14.49C42.3769 14.402 42.4449 14.296 42.4889 14.172C42.5369 14.048 42.5609 13.912 42.5609 13.764C42.5609 13.46 42.4689 13.22 42.2849 13.044C42.1049 12.864 41.8329 12.774 41.4689 12.774C41.1049 12.774 40.8309 12.864 40.6469 13.044C40.4669 13.22 40.3769 13.46 40.3769 13.764C40.3769 13.908 40.3989 14.042 40.4429 14.166C40.4909 14.29 40.5589 14.398 40.6469 14.49C40.7389 14.578 40.8529 14.648 40.9889 14.7C41.1289 14.748 41.2889 14.772 41.4689 14.772ZM45.5498 18V9.084H47.0318V12.51C47.2718 12.282 47.5358 12.098 47.8238 11.958C48.1118 11.818 48.4498 11.748 48.8378 11.748C49.1738 11.748 49.4718 11.806 49.7318 11.922C49.9918 12.034 50.2078 12.194 50.3798 12.402C50.5558 12.606 50.6878 12.852 50.7758 13.14C50.8678 13.424 50.9138 13.738 50.9138 14.082V18H49.4318V14.082C49.4318 13.706 49.3438 13.416 49.1678 13.212C48.9958 13.004 48.7358 12.9 48.3878 12.9C48.1318 12.9 47.8918 12.958 47.6678 13.074C47.4438 13.19 47.2318 13.348 47.0318 13.548V18H45.5498ZM56.8204 11.736C57.0844 11.736 57.3324 11.764 57.5644 11.82C57.7964 11.872 58.0084 11.95 58.2004 12.054H59.9704V12.606C59.9704 12.698 59.9464 12.77 59.8984 12.822C59.8504 12.874 59.7684 12.91 59.6524 12.93L59.1004 13.032C59.1404 13.136 59.1704 13.246 59.1904 13.362C59.2144 13.478 59.2264 13.6 59.2264 13.728C59.2264 14.032 59.1644 14.308 59.0404 14.556C58.9204 14.8 58.7524 15.008 58.5364 15.18C58.3244 15.352 58.0704 15.486 57.7744 15.582C57.4824 15.674 57.1644 15.72 56.8204 15.72C56.5884 15.72 56.3624 15.698 56.1424 15.654C55.9504 15.77 55.8544 15.9 55.8544 16.044C55.8544 16.168 55.9104 16.26 56.0224 16.32C56.1384 16.376 56.2884 16.416 56.4724 16.44C56.6604 16.464 56.8724 16.48 57.1084 16.488C57.3444 16.492 57.5864 16.504 57.8344 16.524C58.0824 16.544 58.3244 16.58 58.5604 16.632C58.7964 16.68 59.0064 16.758 59.1904 16.866C59.3784 16.974 59.5284 17.122 59.6404 17.31C59.7564 17.494 59.8144 17.732 59.8144 18.024C59.8144 18.296 59.7464 18.56 59.6104 18.816C59.4784 19.072 59.2844 19.3 59.0284 19.5C58.7764 19.7 58.4664 19.86 58.0984 19.98C57.7304 20.104 57.3104 20.166 56.8384 20.166C56.3704 20.166 55.9644 20.12 55.6204 20.028C55.2764 19.94 54.9904 19.82 54.7624 19.668C54.5384 19.52 54.3704 19.348 54.2584 19.152C54.1464 18.956 54.0904 18.752 54.0904 18.54C54.0904 18.252 54.1784 18.01 54.3544 17.814C54.5304 17.618 54.7744 17.462 55.0864 17.346C54.9344 17.262 54.8124 17.15 54.7204 17.01C54.6284 16.87 54.5824 16.688 54.5824 16.464C54.5824 16.372 54.5984 16.278 54.6304 16.182C54.6624 16.082 54.7104 15.984 54.7744 15.888C54.8424 15.792 54.9264 15.702 55.0264 15.618C55.1264 15.53 55.2444 15.452 55.3804 15.384C55.0684 15.216 54.8224 14.992 54.6424 14.712C54.4664 14.432 54.3784 14.104 54.3784 13.728C54.3784 13.424 54.4384 13.15 54.5584 12.906C54.6824 12.658 54.8524 12.448 55.0684 12.276C55.2884 12.1 55.5464 11.966 55.8424 11.874C56.1424 11.782 56.4684 11.736 56.8204 11.736ZM58.4464 18.276C58.4464 18.156 58.4104 18.058 58.3384 17.982C58.2664 17.906 58.1684 17.848 58.0444 17.808C57.9204 17.764 57.7744 17.732 57.6064 17.712C57.4424 17.692 57.2664 17.678 57.0784 17.67C56.8944 17.658 56.7024 17.648 56.5024 17.64C56.3064 17.628 56.1164 17.61 55.9324 17.586C55.7644 17.678 55.6284 17.788 55.5244 17.916C55.4244 18.04 55.3744 18.184 55.3744 18.348C55.3744 18.456 55.4004 18.556 55.4524 18.648C55.5084 18.744 55.5944 18.826 55.7104 18.894C55.8304 18.962 55.9844 19.014 56.1724 19.05C56.3604 19.09 56.5904 19.11 56.8624 19.11C57.1384 19.11 57.3764 19.088 57.5764 19.044C57.7764 19.004 57.9404 18.946 58.0684 18.87C58.2004 18.798 58.2964 18.71 58.3564 18.606C58.4164 18.506 58.4464 18.396 58.4464 18.276ZM56.8204 14.772C57.0044 14.772 57.1644 14.748 57.3004 14.7C57.4364 14.648 57.5484 14.578 57.6364 14.49C57.7284 14.402 57.7964 14.296 57.8404 14.172C57.8884 14.048 57.9124 13.912 57.9124 13.764C57.9124 13.46 57.8204 13.22 57.6364 13.044C57.4564 12.864 57.1844 12.774 56.8204 12.774C56.4564 12.774 56.1824 12.864 55.9984 13.044C55.8184 13.22 55.7284 13.46 55.7284 13.764C55.7284 13.908 55.7504 14.042 55.7944 14.166C55.8424 14.29 55.9104 14.398 55.9984 14.49C56.0904 14.578 56.2044 14.648 56.3404 14.7C56.4804 14.748 56.6404 14.772 56.8204 14.772ZM60.9014 18V11.844H61.7714C61.9234 11.844 62.0294 11.872 62.0894 11.928C62.1494 11.984 62.1894 12.08 62.2094 12.216L62.2994 12.96C62.5194 12.58 62.7774 12.28 63.0734 12.06C63.3694 11.84 63.7014 11.73 64.0694 11.73C64.3734 11.73 64.6254 11.8 64.8254 11.94L64.6334 13.05C64.6214 13.122 64.5954 13.174 64.5554 13.206C64.5154 13.234 64.4614 13.248 64.3934 13.248C64.3334 13.248 64.2514 13.234 64.1474 13.206C64.0434 13.178 63.9054 13.164 63.7334 13.164C63.4254 13.164 63.1614 13.25 62.9414 13.422C62.7214 13.59 62.5354 13.838 62.3834 14.166V18H60.9014ZM68.4278 11.748C68.8878 11.748 69.3038 11.822 69.6758 11.97C70.0518 12.118 70.3718 12.328 70.6358 12.6C70.8998 12.872 71.1038 13.204 71.2478 13.596C71.3918 13.988 71.4638 14.426 71.4638 14.91C71.4638 15.398 71.3918 15.838 71.2478 16.23C71.1038 16.622 70.8998 16.956 70.6358 17.232C70.3718 17.508 70.0518 17.72 69.6758 17.868C69.3038 18.016 68.8878 18.09 68.4278 18.09C67.9678 18.09 67.5498 18.016 67.1738 17.868C66.7978 17.72 66.4758 17.508 66.2078 17.232C65.9438 16.956 65.7378 16.622 65.5898 16.23C65.4458 15.838 65.3738 15.398 65.3738 14.91C65.3738 14.426 65.4458 13.988 65.5898 13.596C65.7378 13.204 65.9438 12.872 66.2078 12.6C66.4758 12.328 66.7978 12.118 67.1738 11.97C67.5498 11.822 67.9678 11.748 68.4278 11.748ZM68.4278 16.95C68.9398 16.95 69.3178 16.778 69.5618 16.434C69.8098 16.09 69.9338 15.586 69.9338 14.922C69.9338 14.258 69.8098 13.752 69.5618 13.404C69.3178 13.056 68.9398 12.882 68.4278 12.882C67.9078 12.882 67.5238 13.058 67.2758 13.41C67.0278 13.758 66.9038 14.262 66.9038 14.922C66.9038 15.582 67.0278 16.086 67.2758 16.434C67.5238 16.778 67.9078 16.95 68.4278 16.95ZM71.8701 11.844H73.0461C73.1581 11.844 73.2521 11.87 73.3281 11.922C73.4041 11.974 73.4521 12.04 73.4721 12.12L74.3541 15.408C74.4021 15.588 74.4401 15.764 74.4681 15.936C74.5001 16.108 74.5301 16.28 74.5581 16.452C74.6021 16.28 74.6481 16.108 74.6961 15.936C74.7481 15.764 74.8021 15.588 74.8581 15.408L75.8781 12.108C75.9021 12.028 75.9501 11.962 76.0221 11.91C76.0941 11.858 76.1781 11.832 76.2741 11.832H76.9281C77.0361 11.832 77.1261 11.858 77.1981 11.91C77.2701 11.962 77.3181 12.028 77.3421 12.108L78.3501 15.468C78.4021 15.64 78.4481 15.808 78.4881 15.972C78.5321 16.132 78.5741 16.294 78.6141 16.458C78.6421 16.286 78.6721 16.114 78.7041 15.942C78.7401 15.77 78.7841 15.592 78.8361 15.408L79.7481 12.12C79.7681 12.04 79.8161 11.974 79.8921 11.922C79.9681 11.87 80.0561 11.844 80.1561 11.844H81.2781L79.3281 18H78.1341C78.0061 18 77.9141 17.912 77.8581 17.736L76.7481 14.178C76.7121 14.062 76.6781 13.946 76.6461 13.83C76.6181 13.71 76.5941 13.592 76.5741 13.476C76.5501 13.596 76.5241 13.716 76.4961 13.836C76.4681 13.952 76.4361 14.07 76.4001 14.19L75.2781 17.736C75.2221 17.912 75.1141 18 74.9541 18H73.8201L71.8701 11.844ZM84.1343 18.096C83.6023 18.096 83.1923 17.946 82.9043 17.646C82.6163 17.342 82.4723 16.924 82.4723 16.392V12.954H81.8483C81.7683 12.954 81.6983 12.928 81.6383 12.876C81.5823 12.824 81.5543 12.746 81.5543 12.642V12.054L82.5443 11.892L82.8563 10.212C82.8723 10.132 82.9083 10.07 82.9643 10.026C83.0243 9.982 83.0983 9.96 83.1863 9.96H83.9543V11.898H85.5743V12.954H83.9543V16.29C83.9543 16.482 84.0023 16.632 84.0983 16.74C84.1943 16.848 84.3223 16.902 84.4823 16.902C84.5743 16.902 84.6503 16.892 84.7103 16.872C84.7743 16.848 84.8283 16.824 84.8723 16.8C84.9203 16.776 84.9623 16.754 84.9983 16.734C85.0343 16.71 85.0703 16.698 85.1063 16.698C85.1503 16.698 85.1863 16.71 85.2143 16.734C85.2423 16.754 85.2723 16.786 85.3043 16.83L85.7483 17.55C85.5323 17.73 85.2843 17.866 85.0043 17.958C84.7243 18.05 84.4343 18.096 84.1343 18.096ZM86.7529 18V9.084H88.2349V12.51C88.4749 12.282 88.7389 12.098 89.0269 11.958C89.3149 11.818 89.6529 11.748 90.0409 11.748C90.3769 11.748 90.6749 11.806 90.9349 11.922C91.1949 12.034 91.4109 12.194 91.5829 12.402C91.7589 12.606 91.8909 12.852 91.9789 13.14C92.0709 13.424 92.1169 13.738 92.1169 14.082V18H90.6349V14.082C90.6349 13.706 90.5469 13.416 90.3709 13.212C90.1989 13.004 89.9389 12.9 89.5909 12.9C89.3349 12.9 89.0949 12.958 88.8709 13.074C88.6469 13.19 88.4349 13.348 88.2349 13.548V18H86.7529Z" fill="#151413"/>
</svg>
