<svg width="77" height="26" viewBox="0 0 77 26" fill="none" xmlns="http://www.w3.org/2000/svg">
<rect width="77" height="26" rx="4" fill="#D09609"/>
<path d="M8.99322 14.946V18H7.37922V9.324H10.2052C10.7852 9.324 11.2872 9.392 11.7112 9.528C12.1352 9.664 12.4852 9.854 12.7612 10.098C13.0372 10.342 13.2412 10.634 13.3732 10.974C13.5052 11.314 13.5712 11.686 13.5712 12.09C13.5712 12.51 13.5012 12.896 13.3612 13.248C13.2212 13.596 13.0112 13.896 12.7312 14.148C12.4512 14.4 12.1012 14.596 11.6812 14.736C11.2612 14.876 10.7692 14.946 10.2052 14.946H8.99322ZM8.99322 13.686H10.2052C10.5012 13.686 10.7592 13.65 10.9792 13.578C11.1992 13.502 11.3812 13.396 11.5252 13.26C11.6692 13.12 11.7772 12.952 11.8492 12.756C11.9212 12.556 11.9572 12.334 11.9572 12.09C11.9572 11.858 11.9212 11.648 11.8492 11.46C11.7772 11.272 11.6692 11.112 11.5252 10.98C11.3812 10.848 11.1992 10.748 10.9792 10.68C10.7592 10.608 10.5012 10.572 10.2052 10.572H8.99322V13.686ZM14.7412 18V11.844H15.6112C15.7632 11.844 15.8692 11.872 15.9292 11.928C15.9892 11.984 16.0292 12.08 16.0492 12.216L16.1392 12.96C16.3592 12.58 16.6172 12.28 16.9132 12.06C17.2092 11.84 17.5412 11.73 17.9092 11.73C18.2132 11.73 18.4652 11.8 18.6652 11.94L18.4732 13.05C18.4612 13.122 18.4352 13.174 18.3952 13.206C18.3552 13.234 18.3012 13.248 18.2332 13.248C18.1732 13.248 18.0912 13.234 17.9872 13.206C17.8832 13.178 17.7452 13.164 17.5732 13.164C17.2652 13.164 17.0012 13.25 16.7812 13.422C16.5612 13.59 16.3752 13.838 16.2232 14.166V18H14.7412ZM22.1837 11.748C22.5717 11.748 22.9277 11.81 23.2517 11.934C23.5797 12.058 23.8617 12.24 24.0977 12.48C24.3337 12.716 24.5177 13.008 24.6497 13.356C24.7817 13.7 24.8477 14.094 24.8477 14.538C24.8477 14.65 24.8417 14.744 24.8297 14.82C24.8217 14.892 24.8037 14.95 24.7757 14.994C24.7517 15.034 24.7177 15.064 24.6737 15.084C24.6297 15.1 24.5737 15.108 24.5057 15.108H20.7017C20.7457 15.74 20.9157 16.204 21.2117 16.5C21.5077 16.796 21.8997 16.944 22.3877 16.944C22.6277 16.944 22.8337 16.916 23.0057 16.86C23.1817 16.804 23.3337 16.742 23.4617 16.674C23.5937 16.606 23.7077 16.544 23.8037 16.488C23.9037 16.432 23.9997 16.404 24.0917 16.404C24.1517 16.404 24.2037 16.416 24.2477 16.44C24.2917 16.464 24.3297 16.498 24.3617 16.542L24.7937 17.082C24.6297 17.274 24.4457 17.436 24.2417 17.568C24.0377 17.696 23.8237 17.8 23.5997 17.88C23.3797 17.956 23.1537 18.01 22.9217 18.042C22.6937 18.074 22.4717 18.09 22.2557 18.09C21.8277 18.09 21.4297 18.02 21.0617 17.88C20.6937 17.736 20.3737 17.526 20.1017 17.25C19.8297 16.97 19.6157 16.626 19.4597 16.218C19.3037 15.806 19.2257 15.33 19.2257 14.79C19.2257 14.37 19.2937 13.976 19.4297 13.608C19.5657 13.236 19.7597 12.914 20.0117 12.642C20.2677 12.366 20.5777 12.148 20.9417 11.988C21.3097 11.828 21.7237 11.748 22.1837 11.748ZM22.2137 12.81C21.7817 12.81 21.4437 12.932 21.1997 13.176C20.9557 13.42 20.7997 13.766 20.7317 14.214H23.5157C23.5157 14.022 23.4897 13.842 23.4377 13.674C23.3857 13.502 23.3057 13.352 23.1977 13.224C23.0897 13.096 22.9537 12.996 22.7897 12.924C22.6257 12.848 22.4337 12.81 22.2137 12.81ZM25.8578 13.758H28.9658V14.994H25.8578V13.758ZM34.3806 16.668H37.8546V18H32.7666V9.324H34.3806V16.668ZM43.7058 18H43.0398C42.8998 18 42.7898 17.98 42.7098 17.94C42.6298 17.896 42.5698 17.81 42.5298 17.682L42.3978 17.244C42.2418 17.384 42.0878 17.508 41.9358 17.616C41.7878 17.72 41.6338 17.808 41.4738 17.88C41.3138 17.952 41.1438 18.006 40.9638 18.042C40.7838 18.078 40.5838 18.096 40.3638 18.096C40.1038 18.096 39.8638 18.062 39.6438 17.994C39.4238 17.922 39.2338 17.816 39.0738 17.676C38.9178 17.536 38.7958 17.362 38.7078 17.154C38.6198 16.946 38.5758 16.704 38.5758 16.428C38.5758 16.196 38.6358 15.968 38.7558 15.744C38.8798 15.516 39.0838 15.312 39.3678 15.132C39.6518 14.948 40.0298 14.796 40.5018 14.676C40.9738 14.556 41.5598 14.488 42.2598 14.472V14.112C42.2598 13.7 42.1718 13.396 41.9958 13.2C41.8238 13 41.5718 12.9 41.2398 12.9C40.9998 12.9 40.7998 12.928 40.6398 12.984C40.4798 13.04 40.3398 13.104 40.2198 13.176C40.1038 13.244 39.9958 13.306 39.8958 13.362C39.7958 13.418 39.6858 13.446 39.5658 13.446C39.4658 13.446 39.3798 13.42 39.3078 13.368C39.2358 13.316 39.1778 13.252 39.1338 13.176L38.8638 12.702C39.5718 12.054 40.4258 11.73 41.4258 11.73C41.7858 11.73 42.1058 11.79 42.3858 11.91C42.6698 12.026 42.9098 12.19 43.1058 12.402C43.3018 12.61 43.4498 12.86 43.5498 13.152C43.6538 13.444 43.7058 13.764 43.7058 14.112V18ZM40.8258 17.076C40.9778 17.076 41.1178 17.062 41.2458 17.034C41.3738 17.006 41.4938 16.964 41.6058 16.908C41.7218 16.852 41.8318 16.784 41.9358 16.704C42.0438 16.62 42.1518 16.522 42.2598 16.41V15.372C41.8278 15.392 41.4658 15.43 41.1738 15.486C40.8858 15.538 40.6538 15.606 40.4778 15.69C40.3018 15.774 40.1758 15.872 40.0998 15.984C40.0278 16.096 39.9918 16.218 39.9918 16.35C39.9918 16.61 40.0678 16.796 40.2198 16.908C40.3758 17.02 40.5778 17.076 40.8258 17.076ZM46.5191 11.844V15.756C46.5191 16.132 46.6051 16.424 46.7771 16.632C46.9531 16.836 47.2151 16.938 47.5631 16.938C47.8191 16.938 48.0591 16.882 48.2831 16.77C48.5071 16.654 48.7191 16.496 48.9191 16.296V11.844H50.4011V18H49.4951C49.3031 18 49.1771 17.91 49.1171 17.73L49.0151 17.238C48.8871 17.366 48.7551 17.484 48.6191 17.592C48.4831 17.696 48.3371 17.786 48.1811 17.862C48.0291 17.934 47.8631 17.99 47.6831 18.03C47.5071 18.074 47.3171 18.096 47.1131 18.096C46.7771 18.096 46.4791 18.04 46.2191 17.928C45.9631 17.812 45.7471 17.65 45.5711 17.442C45.3951 17.234 45.2611 16.988 45.1691 16.704C45.0811 16.416 45.0371 16.1 45.0371 15.756V11.844H46.5191ZM51.9834 18V11.844H52.8894C53.0814 11.844 53.2074 11.934 53.2674 12.114L53.3694 12.6C53.4934 12.472 53.6234 12.356 53.7594 12.252C53.8994 12.148 54.0454 12.058 54.1974 11.982C54.3534 11.906 54.5194 11.848 54.6954 11.808C54.8714 11.768 55.0634 11.748 55.2714 11.748C55.6074 11.748 55.9054 11.806 56.1654 11.922C56.4254 12.034 56.6414 12.194 56.8134 12.402C56.9894 12.606 57.1214 12.852 57.2094 13.14C57.3014 13.424 57.3474 13.738 57.3474 14.082V18H55.8654V14.082C55.8654 13.706 55.7774 13.416 55.6014 13.212C55.4294 13.004 55.1694 12.9 54.8214 12.9C54.5654 12.9 54.3254 12.958 54.1014 13.074C53.8774 13.19 53.6654 13.348 53.4654 13.548V18H51.9834ZM63.1297 13.146C63.0857 13.202 63.0417 13.246 62.9977 13.278C62.9577 13.31 62.8977 13.326 62.8177 13.326C62.7417 13.326 62.6677 13.304 62.5957 13.26C62.5237 13.212 62.4377 13.16 62.3377 13.104C62.2377 13.044 62.1177 12.992 61.9777 12.948C61.8417 12.9 61.6717 12.876 61.4677 12.876C61.2077 12.876 60.9797 12.924 60.7837 13.02C60.5877 13.112 60.4237 13.246 60.2917 13.422C60.1637 13.598 60.0677 13.812 60.0037 14.064C59.9397 14.312 59.9077 14.594 59.9077 14.91C59.9077 15.238 59.9417 15.53 60.0097 15.786C60.0817 16.042 60.1837 16.258 60.3157 16.434C60.4477 16.606 60.6077 16.738 60.7957 16.83C60.9837 16.918 61.1957 16.962 61.4317 16.962C61.6677 16.962 61.8577 16.934 62.0017 16.878C62.1497 16.818 62.2737 16.754 62.3737 16.686C62.4737 16.614 62.5597 16.55 62.6317 16.494C62.7077 16.434 62.7917 16.404 62.8837 16.404C63.0037 16.404 63.0937 16.45 63.1537 16.542L63.5797 17.082C63.4157 17.274 63.2377 17.436 63.0457 17.568C62.8537 17.696 62.6537 17.8 62.4457 17.88C62.2417 17.956 62.0297 18.01 61.8097 18.042C61.5897 18.074 61.3717 18.09 61.1557 18.09C60.7757 18.09 60.4177 18.02 60.0817 17.88C59.7457 17.736 59.4517 17.528 59.1997 17.256C58.9517 16.984 58.7537 16.652 58.6057 16.26C58.4617 15.864 58.3897 15.414 58.3897 14.91C58.3897 14.458 58.4537 14.04 58.5817 13.656C58.7137 13.268 58.9057 12.934 59.1577 12.654C59.4097 12.37 59.7217 12.148 60.0937 11.988C60.4657 11.828 60.8937 11.748 61.3777 11.748C61.8377 11.748 62.2397 11.822 62.5837 11.97C62.9317 12.118 63.2437 12.33 63.5197 12.606L63.1297 13.146ZM64.5225 18V9.084H66.0045V12.51C66.2445 12.282 66.5085 12.098 66.7965 11.958C67.0845 11.818 67.4225 11.748 67.8105 11.748C68.1465 11.748 68.4445 11.806 68.7045 11.922C68.9645 12.034 69.1805 12.194 69.3525 12.402C69.5285 12.606 69.6605 12.852 69.7485 13.14C69.8405 13.424 69.8865 13.738 69.8865 14.082V18H68.4045V14.082C68.4045 13.706 68.3165 13.416 68.1405 13.212C67.9685 13.004 67.7085 12.9 67.3605 12.9C67.1045 12.9 66.8645 12.958 66.6405 13.074C66.4165 13.19 66.2045 13.348 66.0045 13.548V18H64.5225Z" fill="#FAFAFA"/>
</svg>
