<svg width="66" height="26" viewBox="0 0 66 26" fill="none" xmlns="http://www.w3.org/2000/svg">
<rect x="0.5" y="0.5" width="65" height="25" rx="3.5" fill="#FAFAFA"/>
<rect x="0.5" y="0.5" width="65" height="25" rx="3.5" stroke="#CCCBCB"/>
<path d="M8.75 13.75L12.25 17.25L19.25 9.75" stroke="#0E8345" stroke-width="1.5" stroke-linecap="round" stroke-linejoin="round"/>
<path d="M30.9874 14.61V18H29.3734V9.324H32.0194C32.6114 9.324 33.1174 9.386 33.5374 9.51C33.9614 9.63 34.3074 9.8 34.5754 10.02C34.8474 10.24 35.0454 10.504 35.1694 10.812C35.2974 11.116 35.3614 11.452 35.3614 11.82C35.3614 12.112 35.3174 12.388 35.2294 12.648C35.1454 12.908 35.0214 13.144 34.8574 13.356C34.6974 13.568 34.4974 13.754 34.2574 13.914C34.0214 14.074 33.7514 14.202 33.4474 14.298C33.6514 14.414 33.8274 14.58 33.9754 14.796L36.1474 18H34.6954C34.5554 18 34.4354 17.972 34.3354 17.916C34.2394 17.86 34.1574 17.78 34.0894 17.676L32.2654 14.898C32.1974 14.794 32.1214 14.72 32.0374 14.676C31.9574 14.632 31.8374 14.61 31.6774 14.61H30.9874ZM30.9874 13.452H31.9954C32.2994 13.452 32.5634 13.414 32.7874 13.338C33.0154 13.262 33.2014 13.158 33.3454 13.026C33.4934 12.89 33.6034 12.73 33.6754 12.546C33.7474 12.362 33.7834 12.16 33.7834 11.94C33.7834 11.5 33.6374 11.162 33.3454 10.926C33.0574 10.69 32.6154 10.572 32.0194 10.572H30.9874V13.452ZM42.6546 9.324V10.608H38.8086V13.014H41.8386V14.256H38.8086V16.71H42.6546V18H37.1826V9.324H42.6546ZM45.7178 14.61V18H44.1038V9.324H46.7498C47.3418 9.324 47.8478 9.386 48.2678 9.51C48.6918 9.63 49.0378 9.8 49.3058 10.02C49.5778 10.24 49.7758 10.504 49.8998 10.812C50.0278 11.116 50.0918 11.452 50.0918 11.82C50.0918 12.112 50.0478 12.388 49.9598 12.648C49.8758 12.908 49.7518 13.144 49.5878 13.356C49.4278 13.568 49.2278 13.754 48.9878 13.914C48.7518 14.074 48.4818 14.202 48.1778 14.298C48.3818 14.414 48.5578 14.58 48.7058 14.796L50.8778 18H49.4258C49.2858 18 49.1658 17.972 49.0658 17.916C48.9698 17.86 48.8878 17.78 48.8198 17.676L46.9958 14.898C46.9278 14.794 46.8518 14.72 46.7678 14.676C46.6878 14.632 46.5678 14.61 46.4078 14.61H45.7178ZM45.7178 13.452H46.7258C47.0298 13.452 47.2938 13.414 47.5178 13.338C47.7458 13.262 47.9318 13.158 48.0758 13.026C48.2238 12.89 48.3338 12.73 48.4058 12.546C48.4778 12.362 48.5138 12.16 48.5138 11.94C48.5138 11.5 48.3678 11.162 48.0758 10.926C47.7878 10.69 47.3458 10.572 46.7498 10.572H45.7178V13.452ZM59.5391 18H58.2911C58.1511 18 58.0351 17.966 57.9431 17.898C57.8551 17.826 57.7911 17.738 57.7511 17.634L57.1031 15.864H53.5091L52.8611 17.634C52.8291 17.726 52.7651 17.81 52.6691 17.886C52.5771 17.962 52.4631 18 52.3271 18H51.0731L54.4811 9.324H56.1311L59.5391 18ZM53.9231 14.724H56.6891L55.6331 11.838C55.5851 11.71 55.5311 11.56 55.4711 11.388C55.4151 11.212 55.3591 11.022 55.3031 10.818C55.2471 11.022 55.1911 11.212 55.1351 11.388C55.0831 11.564 55.0311 11.718 54.9791 11.85L53.9231 14.724Z" fill="#252626"/>
</svg>
