<svg width="18" height="18" viewBox="0 0 18 18" fill="none" xmlns="http://www.w3.org/2000/svg">
<path d="M10.2987 2.63248L11.6187 5.27248C11.7987 5.63998 12.2787 5.99248 12.6837 6.05998L15.0762 6.45748C16.6062 6.71248 16.9662 7.82248 15.8637 8.91748L14.0037 10.7775C13.6887 11.0925 13.5162 11.7 13.6137 12.135L14.1462 14.4375C14.5662 16.26 13.5987 16.965 11.9862 16.0125L9.74365 14.685C9.33865 14.445 8.67115 14.445 8.25865 14.685L6.01615 16.0125C4.41115 16.965 3.43615 16.2525 3.85615 14.4375L4.38865 12.135C4.48615 11.7 4.31365 11.0925 3.99865 10.7775L2.13865 8.91748C1.04365 7.82248 1.39615 6.71248 2.92615 6.45748L5.31865 6.05998C5.71615 5.99248 6.19615 5.63998 6.37615 5.27248L7.69615 2.63248C8.41615 1.19998 9.58615 1.19998 10.2987 2.63248Z" stroke="#2B2928" stroke-width="1.5" stroke-linecap="round" stroke-linejoin="round"/>
</svg>
