<svg width="81" height="26" viewBox="0 0 81 26" fill="none" xmlns="http://www.w3.org/2000/svg">
<rect width="81" height="26" rx="4" fill="#205E59"/>
<rect x="4" y="4" width="18" height="17.9997" rx="2" fill="white"/>
<path d="M17.7137 9.93427V12.0637L12.9932 9.55811H12.9925L8.28516 12.0573V9.92715L12.9925 7.42871L17.7137 9.93427Z" fill="#22514D"/>
<path d="M17.7137 13.8264V16.7273H15.7073V14.8907L15.6941 14.8836L14.0023 13.9859V18.571H11.9966V13.9788L10.2908 14.8836V16.7273H8.28516V13.8192L10.2908 12.7542L12.9917 11.3208L12.9994 11.3244L15.7073 12.7613L17.7137 13.8264Z" fill="#22514D"/>
<path opacity="0.4" d="M17.713 9.9369V12.0716L12.999 9.56338V7.42871L17.713 9.9369Z" fill="#252626"/>
<path opacity="0.4" d="M17.7143 13.8262V16.7272H15.7078V14.8906L15.6947 14.8834L14.0028 13.9858V18.5709H13V11.3242L15.7078 12.7612L17.7143 13.8262Z" fill="#252626"/>
<path d="M33.9635 10.902C33.9195 10.99 33.8675 11.052 33.8075 11.088C33.7515 11.124 33.6835 11.142 33.6035 11.142C33.5235 11.142 33.4335 11.112 33.3335 11.052C33.2335 10.988 33.1155 10.918 32.9795 10.842C32.8435 10.766 32.6835 10.698 32.4995 10.638C32.3195 10.574 32.1055 10.542 31.8575 10.542C31.6335 10.542 31.4375 10.57 31.2695 10.626C31.1055 10.678 30.9655 10.752 30.8495 10.848C30.7375 10.944 30.6535 11.06 30.5975 11.196C30.5415 11.328 30.5135 11.474 30.5135 11.634C30.5135 11.838 30.5695 12.008 30.6815 12.144C30.7975 12.28 30.9495 12.396 31.1375 12.492C31.3255 12.588 31.5395 12.674 31.7795 12.75C32.0195 12.826 32.2635 12.908 32.5115 12.996C32.7635 13.08 33.0095 13.18 33.2495 13.296C33.4895 13.408 33.7035 13.552 33.8915 13.728C34.0795 13.9 34.2295 14.112 34.3415 14.364C34.4575 14.616 34.5155 14.922 34.5155 15.282C34.5155 15.674 34.4475 16.042 34.3115 16.386C34.1795 16.726 33.9835 17.024 33.7235 17.28C33.4675 17.532 33.1535 17.732 32.7815 17.88C32.4095 18.024 31.9835 18.096 31.5035 18.096C31.2275 18.096 30.9555 18.068 30.6875 18.012C30.4195 17.96 30.1615 17.884 29.9135 17.784C29.6695 17.684 29.4395 17.564 29.2235 17.424C29.0115 17.284 28.8215 17.128 28.6535 16.956L29.1215 16.182C29.1655 16.126 29.2175 16.08 29.2775 16.044C29.3415 16.004 29.4115 15.984 29.4875 15.984C29.5875 15.984 29.6955 16.026 29.8115 16.11C29.9275 16.19 30.0635 16.28 30.2195 16.38C30.3795 16.48 30.5655 16.572 30.7775 16.656C30.9935 16.736 31.2515 16.776 31.5515 16.776C32.0115 16.776 32.3675 16.668 32.6195 16.452C32.8715 16.232 32.9975 15.918 32.9975 15.51C32.9975 15.282 32.9395 15.096 32.8235 14.952C32.7115 14.808 32.5615 14.688 32.3735 14.592C32.1855 14.492 31.9715 14.408 31.7315 14.34C31.4915 14.272 31.2475 14.198 30.9995 14.118C30.7515 14.038 30.5075 13.942 30.2675 13.83C30.0275 13.718 29.8135 13.572 29.6255 13.392C29.4375 13.212 29.2855 12.988 29.1695 12.72C29.0575 12.448 29.0015 12.114 29.0015 11.718C29.0015 11.402 29.0635 11.094 29.1875 10.794C29.3155 10.494 29.4995 10.228 29.7395 9.996C29.9835 9.764 30.2815 9.578 30.6335 9.438C30.9855 9.298 31.3875 9.228 31.8395 9.228C32.3515 9.228 32.8235 9.308 33.2555 9.468C33.6875 9.628 34.0555 9.852 34.3595 10.14L33.9635 10.902ZM38.2071 11.748C38.5951 11.748 38.9511 11.81 39.2751 11.934C39.6031 12.058 39.8851 12.24 40.1211 12.48C40.3571 12.716 40.5411 13.008 40.6731 13.356C40.8051 13.7 40.8711 14.094 40.8711 14.538C40.8711 14.65 40.8651 14.744 40.8531 14.82C40.8451 14.892 40.8271 14.95 40.7991 14.994C40.7751 15.034 40.7411 15.064 40.6971 15.084C40.6531 15.1 40.5971 15.108 40.5291 15.108H36.7251C36.7691 15.74 36.9391 16.204 37.2351 16.5C37.5311 16.796 37.9231 16.944 38.4111 16.944C38.6511 16.944 38.8571 16.916 39.0291 16.86C39.2051 16.804 39.3571 16.742 39.4851 16.674C39.6171 16.606 39.7311 16.544 39.8271 16.488C39.9271 16.432 40.0231 16.404 40.1151 16.404C40.1751 16.404 40.2271 16.416 40.2711 16.44C40.3151 16.464 40.3531 16.498 40.3851 16.542L40.8171 17.082C40.6531 17.274 40.4691 17.436 40.2651 17.568C40.0611 17.696 39.8471 17.8 39.6231 17.88C39.4031 17.956 39.1771 18.01 38.9451 18.042C38.7171 18.074 38.4951 18.09 38.2791 18.09C37.8511 18.09 37.4531 18.02 37.0851 17.88C36.7171 17.736 36.3971 17.526 36.1251 17.25C35.8531 16.97 35.6391 16.626 35.4831 16.218C35.3271 15.806 35.2491 15.33 35.2491 14.79C35.2491 14.37 35.3171 13.976 35.4531 13.608C35.5891 13.236 35.7831 12.914 36.0351 12.642C36.2911 12.366 36.6011 12.148 36.9651 11.988C37.3331 11.828 37.7471 11.748 38.2071 11.748ZM38.2371 12.81C37.8051 12.81 37.4671 12.932 37.2231 13.176C36.9791 13.42 36.8231 13.766 36.7551 14.214H39.5391C39.5391 14.022 39.5131 13.842 39.4611 13.674C39.4091 13.502 39.3291 13.352 39.2211 13.224C39.1131 13.096 38.9771 12.996 38.8131 12.924C38.6491 12.848 38.4571 12.81 38.2371 12.81ZM43.6513 9.084V18H42.1693V9.084H43.6513ZM47.8751 11.748C48.2631 11.748 48.6191 11.81 48.9431 11.934C49.2711 12.058 49.5531 12.24 49.7891 12.48C50.0251 12.716 50.2091 13.008 50.3411 13.356C50.4731 13.7 50.5391 14.094 50.5391 14.538C50.5391 14.65 50.5331 14.744 50.5211 14.82C50.5131 14.892 50.4951 14.95 50.4671 14.994C50.4431 15.034 50.4091 15.064 50.3651 15.084C50.3211 15.1 50.2651 15.108 50.1971 15.108H46.3931C46.4371 15.74 46.6071 16.204 46.9031 16.5C47.1991 16.796 47.5911 16.944 48.0791 16.944C48.3191 16.944 48.5251 16.916 48.6971 16.86C48.8731 16.804 49.0251 16.742 49.1531 16.674C49.2851 16.606 49.3991 16.544 49.4951 16.488C49.5951 16.432 49.6911 16.404 49.7831 16.404C49.8431 16.404 49.8951 16.416 49.9391 16.44C49.9831 16.464 50.0211 16.498 50.0531 16.542L50.4851 17.082C50.3211 17.274 50.1371 17.436 49.9331 17.568C49.7291 17.696 49.5151 17.8 49.2911 17.88C49.0711 17.956 48.8451 18.01 48.6131 18.042C48.3851 18.074 48.1631 18.09 47.9471 18.09C47.5191 18.09 47.1211 18.02 46.7531 17.88C46.3851 17.736 46.0651 17.526 45.7931 17.25C45.5211 16.97 45.3071 16.626 45.1511 16.218C44.9951 15.806 44.9171 15.33 44.9171 14.79C44.9171 14.37 44.9851 13.976 45.1211 13.608C45.2571 13.236 45.4511 12.914 45.7031 12.642C45.9591 12.366 46.2691 12.148 46.6331 11.988C47.0011 11.828 47.4151 11.748 47.8751 11.748ZM47.9051 12.81C47.4731 12.81 47.1351 12.932 46.8911 13.176C46.6471 13.42 46.4911 13.766 46.4231 14.214H49.2071C49.2071 14.022 49.1811 13.842 49.1291 13.674C49.0771 13.502 48.9971 13.352 48.8891 13.224C48.7811 13.096 48.6451 12.996 48.4811 12.924C48.3171 12.848 48.1251 12.81 47.9051 12.81ZM56.0672 13.146C56.0232 13.202 55.9792 13.246 55.9352 13.278C55.8952 13.31 55.8352 13.326 55.7552 13.326C55.6792 13.326 55.6052 13.304 55.5332 13.26C55.4612 13.212 55.3752 13.16 55.2752 13.104C55.1752 13.044 55.0552 12.992 54.9152 12.948C54.7792 12.9 54.6092 12.876 54.4052 12.876C54.1452 12.876 53.9172 12.924 53.7212 13.02C53.5252 13.112 53.3612 13.246 53.2292 13.422C53.1012 13.598 53.0052 13.812 52.9412 14.064C52.8772 14.312 52.8452 14.594 52.8452 14.91C52.8452 15.238 52.8792 15.53 52.9472 15.786C53.0192 16.042 53.1212 16.258 53.2532 16.434C53.3852 16.606 53.5452 16.738 53.7332 16.83C53.9212 16.918 54.1332 16.962 54.3692 16.962C54.6052 16.962 54.7952 16.934 54.9392 16.878C55.0872 16.818 55.2112 16.754 55.3112 16.686C55.4112 16.614 55.4972 16.55 55.5692 16.494C55.6452 16.434 55.7292 16.404 55.8212 16.404C55.9412 16.404 56.0312 16.45 56.0912 16.542L56.5172 17.082C56.3532 17.274 56.1752 17.436 55.9832 17.568C55.7912 17.696 55.5912 17.8 55.3832 17.88C55.1792 17.956 54.9672 18.01 54.7472 18.042C54.5272 18.074 54.3092 18.09 54.0932 18.09C53.7132 18.09 53.3552 18.02 53.0192 17.88C52.6832 17.736 52.3892 17.528 52.1372 17.256C51.8892 16.984 51.6912 16.652 51.5432 16.26C51.3992 15.864 51.3272 15.414 51.3272 14.91C51.3272 14.458 51.3912 14.04 51.5192 13.656C51.6512 13.268 51.8432 12.934 52.0952 12.654C52.3472 12.37 52.6592 12.148 53.0312 11.988C53.4032 11.828 53.8312 11.748 54.3152 11.748C54.7752 11.748 55.1772 11.822 55.5212 11.97C55.8692 12.118 56.1812 12.33 56.4572 12.606L56.0672 13.146ZM59.482 18.096C58.95 18.096 58.54 17.946 58.252 17.646C57.964 17.342 57.82 16.924 57.82 16.392V12.954H57.196C57.116 12.954 57.046 12.928 56.986 12.876C56.93 12.824 56.902 12.746 56.902 12.642V12.054L57.892 11.892L58.204 10.212C58.22 10.132 58.256 10.07 58.312 10.026C58.372 9.982 58.446 9.96 58.534 9.96H59.302V11.898H60.922V12.954H59.302V16.29C59.302 16.482 59.35 16.632 59.446 16.74C59.542 16.848 59.67 16.902 59.83 16.902C59.922 16.902 59.998 16.892 60.058 16.872C60.122 16.848 60.176 16.824 60.22 16.8C60.268 16.776 60.31 16.754 60.346 16.734C60.382 16.71 60.418 16.698 60.454 16.698C60.498 16.698 60.534 16.71 60.562 16.734C60.59 16.754 60.62 16.786 60.652 16.83L61.096 17.55C60.88 17.73 60.632 17.866 60.352 17.958C60.072 18.05 59.782 18.096 59.482 18.096ZM64.6446 11.748C65.0326 11.748 65.3886 11.81 65.7126 11.934C66.0406 12.058 66.3226 12.24 66.5586 12.48C66.7946 12.716 66.9786 13.008 67.1106 13.356C67.2426 13.7 67.3086 14.094 67.3086 14.538C67.3086 14.65 67.3026 14.744 67.2906 14.82C67.2826 14.892 67.2646 14.95 67.2366 14.994C67.2126 15.034 67.1786 15.064 67.1346 15.084C67.0906 15.1 67.0346 15.108 66.9666 15.108H63.1626C63.2066 15.74 63.3766 16.204 63.6726 16.5C63.9686 16.796 64.3606 16.944 64.8486 16.944C65.0886 16.944 65.2946 16.916 65.4666 16.86C65.6426 16.804 65.7946 16.742 65.9226 16.674C66.0546 16.606 66.1686 16.544 66.2646 16.488C66.3646 16.432 66.4606 16.404 66.5526 16.404C66.6126 16.404 66.6646 16.416 66.7086 16.44C66.7526 16.464 66.7906 16.498 66.8226 16.542L67.2546 17.082C67.0906 17.274 66.9066 17.436 66.7026 17.568C66.4986 17.696 66.2846 17.8 66.0606 17.88C65.8406 17.956 65.6146 18.01 65.3826 18.042C65.1546 18.074 64.9326 18.09 64.7166 18.09C64.2886 18.09 63.8906 18.02 63.5226 17.88C63.1546 17.736 62.8346 17.526 62.5626 17.25C62.2906 16.97 62.0766 16.626 61.9206 16.218C61.7646 15.806 61.6866 15.33 61.6866 14.79C61.6866 14.37 61.7546 13.976 61.8906 13.608C62.0266 13.236 62.2206 12.914 62.4726 12.642C62.7286 12.366 63.0386 12.148 63.4026 11.988C63.7706 11.828 64.1846 11.748 64.6446 11.748ZM64.6746 12.81C64.2426 12.81 63.9046 12.932 63.6606 13.176C63.4166 13.42 63.2606 13.766 63.1926 14.214H65.9766C65.9766 14.022 65.9506 13.842 65.8986 13.674C65.8466 13.502 65.7666 13.352 65.6586 13.224C65.5506 13.096 65.4146 12.996 65.2506 12.924C65.0866 12.848 64.8946 12.81 64.6746 12.81ZM72.8428 18C72.6508 18 72.5248 17.91 72.4648 17.73L72.3448 17.136C72.2168 17.28 72.0828 17.41 71.9428 17.526C71.8028 17.642 71.6508 17.742 71.4868 17.826C71.3268 17.91 71.1528 17.974 70.9648 18.018C70.7808 18.066 70.5808 18.09 70.3648 18.09C70.0288 18.09 69.7208 18.02 69.4408 17.88C69.1608 17.74 68.9188 17.538 68.7148 17.274C68.5148 17.006 68.3588 16.676 68.2468 16.284C68.1388 15.892 68.0848 15.444 68.0848 14.94C68.0848 14.484 68.1468 14.06 68.2708 13.668C68.3948 13.276 68.5728 12.936 68.8048 12.648C69.0368 12.36 69.3148 12.136 69.6388 11.976C69.9628 11.812 70.3268 11.73 70.7308 11.73C71.0748 11.73 71.3688 11.786 71.6128 11.898C71.8568 12.006 72.0748 12.152 72.2668 12.336V9.084H73.7487V18H72.8428ZM70.8688 16.914C71.1768 16.914 71.4388 16.85 71.6548 16.722C71.8708 16.594 72.0748 16.412 72.2668 16.176V13.416C72.0988 13.212 71.9148 13.068 71.7148 12.984C71.5188 12.9 71.3068 12.858 71.0788 12.858C70.8548 12.858 70.6508 12.9 70.4668 12.984C70.2868 13.068 70.1328 13.196 70.0048 13.368C69.8808 13.536 69.7848 13.752 69.7168 14.016C69.6488 14.276 69.6148 14.584 69.6148 14.94C69.6148 15.3 69.6428 15.606 69.6988 15.858C69.7588 16.106 69.8428 16.31 69.9508 16.47C70.0588 16.626 70.1908 16.74 70.3468 16.812C70.5028 16.88 70.6768 16.914 70.8688 16.914Z" fill="white"/>
</svg>
