<svg width="105" height="26" viewBox="0 0 105 26" fill="none" xmlns="http://www.w3.org/2000/svg">
<path d="M0 4C0 1.79086 1.79086 0 4 0H101C103.209 0 105 1.79086 105 4V22C105 24.2091 103.209 26 101 26H4C1.79086 26 0 24.2091 0 22V4Z" fill="#B6F7D4"/>
<path d="M8.24038 8.45651C8.78255 7.5529 9.75907 7 10.8129 7H17.2049C18.2587 7 19.2352 7.5529 19.7774 8.45651L20.2132 9.18279C20.8896 10.3102 20.7531 11.7468 19.8764 12.7267L14.4168 18.8286C14.3636 18.8829 14.3001 18.926 14.2301 18.9554C14.1601 18.9848 14.0849 19 14.0089 19C13.9329 19 13.8577 18.9848 13.7877 18.9554C13.7176 18.926 13.6542 18.8829 13.601 18.8286L8.14137 12.7267C7.26465 11.7468 7.12814 10.3102 7.80461 9.18279L8.24038 8.45651Z" stroke="#2B2928" stroke-width="1.25" stroke-linecap="round" stroke-linejoin="round"/>
<path d="M12.3776 12.7105L10.7461 10.9159L11.2356 10.1001" stroke="#2B2928" stroke-width="1.25" stroke-linecap="round" stroke-linejoin="round"/>
<path d="M30.8504 16.698C31.1624 16.698 31.4404 16.646 31.6844 16.542C31.9324 16.438 32.1404 16.292 32.3084 16.104C32.4804 15.916 32.6104 15.688 32.6984 15.42C32.7904 15.152 32.8364 14.852 32.8364 14.52V9.324H34.4504V14.52C34.4504 15.036 34.3664 15.514 34.1984 15.954C34.0344 16.39 33.7964 16.768 33.4844 17.088C33.1724 17.404 32.7944 17.652 32.3504 17.832C31.9064 18.008 31.4064 18.096 30.8504 18.096C30.2944 18.096 29.7944 18.008 29.3504 17.832C28.9064 17.652 28.5284 17.404 28.2164 17.088C27.9084 16.768 27.6704 16.39 27.5024 15.954C27.3384 15.514 27.2564 15.036 27.2564 14.52V9.324H28.8704V14.514C28.8704 14.846 28.9144 15.146 29.0024 15.414C29.0944 15.682 29.2244 15.912 29.3924 16.104C29.5604 16.292 29.7664 16.438 30.0104 16.542C30.2584 16.646 30.5384 16.698 30.8504 16.698ZM36.0049 18V11.844H36.9109C37.1029 11.844 37.2289 11.934 37.2889 12.114L37.3909 12.6C37.5149 12.472 37.6449 12.356 37.7809 12.252C37.9209 12.148 38.0669 12.058 38.2189 11.982C38.3749 11.906 38.5409 11.848 38.7169 11.808C38.8929 11.768 39.0849 11.748 39.2929 11.748C39.6289 11.748 39.9269 11.806 40.1869 11.922C40.4469 12.034 40.6629 12.194 40.8349 12.402C41.0109 12.606 41.1429 12.852 41.2309 13.14C41.3229 13.424 41.3689 13.738 41.3689 14.082V18H39.8869V14.082C39.8869 13.706 39.7989 13.416 39.6229 13.212C39.4509 13.004 39.1909 12.9 38.8429 12.9C38.5869 12.9 38.3469 12.958 38.1229 13.074C37.8989 13.19 37.6869 13.348 37.4869 13.548V18H36.0049ZM47.1572 18C46.9652 18 46.8392 17.91 46.7792 17.73L46.6592 17.136C46.5312 17.28 46.3972 17.41 46.2572 17.526C46.1172 17.642 45.9652 17.742 45.8012 17.826C45.6412 17.91 45.4672 17.974 45.2792 18.018C45.0952 18.066 44.8952 18.09 44.6792 18.09C44.3432 18.09 44.0352 18.02 43.7552 17.88C43.4752 17.74 43.2332 17.538 43.0292 17.274C42.8292 17.006 42.6732 16.676 42.5612 16.284C42.4532 15.892 42.3992 15.444 42.3992 14.94C42.3992 14.484 42.4612 14.06 42.5852 13.668C42.7092 13.276 42.8872 12.936 43.1192 12.648C43.3512 12.36 43.6292 12.136 43.9532 11.976C44.2772 11.812 44.6412 11.73 45.0452 11.73C45.3892 11.73 45.6832 11.786 45.9272 11.898C46.1712 12.006 46.3892 12.152 46.5812 12.336V9.084H48.0632V18H47.1572ZM45.1832 16.914C45.4912 16.914 45.7532 16.85 45.9692 16.722C46.1852 16.594 46.3892 16.412 46.5812 16.176V13.416C46.4132 13.212 46.2292 13.068 46.0292 12.984C45.8332 12.9 45.6212 12.858 45.3932 12.858C45.1692 12.858 44.9652 12.9 44.7812 12.984C44.6012 13.068 44.4472 13.196 44.3192 13.368C44.1952 13.536 44.0992 13.752 44.0312 14.016C43.9632 14.276 43.9292 14.584 43.9292 14.94C43.9292 15.3 43.9572 15.606 44.0132 15.858C44.0732 16.106 44.1572 16.31 44.2652 16.47C44.3732 16.626 44.5052 16.74 44.6612 16.812C44.8172 16.88 44.9912 16.914 45.1832 16.914ZM52.213 11.748C52.601 11.748 52.957 11.81 53.281 11.934C53.609 12.058 53.891 12.24 54.127 12.48C54.363 12.716 54.547 13.008 54.679 13.356C54.811 13.7 54.877 14.094 54.877 14.538C54.877 14.65 54.871 14.744 54.859 14.82C54.851 14.892 54.833 14.95 54.805 14.994C54.781 15.034 54.747 15.064 54.703 15.084C54.659 15.1 54.603 15.108 54.535 15.108H50.731C50.775 15.74 50.945 16.204 51.241 16.5C51.537 16.796 51.929 16.944 52.417 16.944C52.657 16.944 52.863 16.916 53.035 16.86C53.211 16.804 53.363 16.742 53.491 16.674C53.623 16.606 53.737 16.544 53.833 16.488C53.933 16.432 54.029 16.404 54.121 16.404C54.181 16.404 54.233 16.416 54.277 16.44C54.321 16.464 54.359 16.498 54.391 16.542L54.823 17.082C54.659 17.274 54.475 17.436 54.271 17.568C54.067 17.696 53.853 17.8 53.629 17.88C53.409 17.956 53.183 18.01 52.951 18.042C52.723 18.074 52.501 18.09 52.285 18.09C51.857 18.09 51.459 18.02 51.091 17.88C50.723 17.736 50.403 17.526 50.131 17.25C49.859 16.97 49.645 16.626 49.489 16.218C49.333 15.806 49.255 15.33 49.255 14.79C49.255 14.37 49.323 13.976 49.459 13.608C49.595 13.236 49.789 12.914 50.041 12.642C50.297 12.366 50.607 12.148 50.971 11.988C51.339 11.828 51.753 11.748 52.213 11.748ZM52.243 12.81C51.811 12.81 51.473 12.932 51.229 13.176C50.985 13.42 50.829 13.766 50.761 14.214H53.545C53.545 14.022 53.519 13.842 53.467 13.674C53.415 13.502 53.335 13.352 53.227 13.224C53.119 13.096 52.983 12.996 52.819 12.924C52.655 12.848 52.463 12.81 52.243 12.81ZM56.0791 18V11.844H56.9491C57.1011 11.844 57.2071 11.872 57.2671 11.928C57.3271 11.984 57.3671 12.08 57.3871 12.216L57.4771 12.96C57.6971 12.58 57.9551 12.28 58.2511 12.06C58.5471 11.84 58.8791 11.73 59.2471 11.73C59.5511 11.73 59.8031 11.8 60.0031 11.94L59.8111 13.05C59.7991 13.122 59.7731 13.174 59.7331 13.206C59.6931 13.234 59.6391 13.248 59.5711 13.248C59.5111 13.248 59.4291 13.234 59.3251 13.206C59.2211 13.178 59.0831 13.164 58.9111 13.164C58.6031 13.164 58.3391 13.25 58.1191 13.422C57.8991 13.59 57.7131 13.838 57.5611 14.166V18H56.0791ZM66.3819 18H65.0379L62.5899 11.844H63.8199C63.9279 11.844 64.0179 11.87 64.0899 11.922C64.1659 11.974 64.2179 12.04 64.2459 12.12L65.4339 15.408C65.5019 15.6 65.5579 15.788 65.6019 15.972C65.6499 16.156 65.6919 16.34 65.7279 16.524C65.7639 16.34 65.8039 16.156 65.8479 15.972C65.8959 15.788 65.9559 15.6 66.0279 15.408L67.2459 12.12C67.2739 12.04 67.3239 11.974 67.3959 11.922C67.4679 11.87 67.5539 11.844 67.6539 11.844H68.8239L66.3819 18ZM74.5203 18H73.8543C73.7143 18 73.6043 17.98 73.5243 17.94C73.4443 17.896 73.3843 17.81 73.3443 17.682L73.2123 17.244C73.0563 17.384 72.9023 17.508 72.7503 17.616C72.6023 17.72 72.4483 17.808 72.2883 17.88C72.1283 17.952 71.9583 18.006 71.7783 18.042C71.5983 18.078 71.3983 18.096 71.1783 18.096C70.9183 18.096 70.6783 18.062 70.4583 17.994C70.2383 17.922 70.0483 17.816 69.8883 17.676C69.7323 17.536 69.6103 17.362 69.5223 17.154C69.4343 16.946 69.3903 16.704 69.3903 16.428C69.3903 16.196 69.4503 15.968 69.5703 15.744C69.6943 15.516 69.8983 15.312 70.1823 15.132C70.4663 14.948 70.8443 14.796 71.3163 14.676C71.7883 14.556 72.3743 14.488 73.0743 14.472V14.112C73.0743 13.7 72.9863 13.396 72.8103 13.2C72.6383 13 72.3863 12.9 72.0543 12.9C71.8143 12.9 71.6143 12.928 71.4543 12.984C71.2943 13.04 71.1543 13.104 71.0343 13.176C70.9183 13.244 70.8103 13.306 70.7103 13.362C70.6103 13.418 70.5003 13.446 70.3803 13.446C70.2803 13.446 70.1943 13.42 70.1223 13.368C70.0503 13.316 69.9923 13.252 69.9483 13.176L69.6783 12.702C70.3863 12.054 71.2403 11.73 72.2403 11.73C72.6003 11.73 72.9203 11.79 73.2003 11.91C73.4843 12.026 73.7243 12.19 73.9203 12.402C74.1163 12.61 74.2643 12.86 74.3643 13.152C74.4683 13.444 74.5203 13.764 74.5203 14.112V18ZM71.6403 17.076C71.7923 17.076 71.9323 17.062 72.0603 17.034C72.1883 17.006 72.3083 16.964 72.4203 16.908C72.5363 16.852 72.6463 16.784 72.7503 16.704C72.8583 16.62 72.9663 16.522 73.0743 16.41V15.372C72.6423 15.392 72.2803 15.43 71.9883 15.486C71.7003 15.538 71.4683 15.606 71.2923 15.69C71.1163 15.774 70.9903 15.872 70.9143 15.984C70.8423 16.096 70.8063 16.218 70.8063 16.35C70.8063 16.61 70.8823 16.796 71.0343 16.908C71.1903 17.02 71.3923 17.076 71.6403 17.076ZM77.5555 9.084V18H76.0735V9.084H77.5555ZM80.5914 11.844V15.756C80.5914 16.132 80.6774 16.424 80.8494 16.632C81.0254 16.836 81.2874 16.938 81.6354 16.938C81.8914 16.938 82.1314 16.882 82.3554 16.77C82.5794 16.654 82.7914 16.496 82.9914 16.296V11.844H84.4734V18H83.5674C83.3754 18 83.2494 17.91 83.1894 17.73L83.0874 17.238C82.9594 17.366 82.8274 17.484 82.6914 17.592C82.5554 17.696 82.4094 17.786 82.2534 17.862C82.1014 17.934 81.9354 17.99 81.7554 18.03C81.5794 18.074 81.3894 18.096 81.1854 18.096C80.8494 18.096 80.5514 18.04 80.2914 17.928C80.0354 17.812 79.8194 17.65 79.6434 17.442C79.4674 17.234 79.3334 16.988 79.2414 16.704C79.1534 16.416 79.1094 16.1 79.1094 15.756V11.844H80.5914ZM88.5997 11.748C88.9877 11.748 89.3437 11.81 89.6677 11.934C89.9957 12.058 90.2777 12.24 90.5137 12.48C90.7497 12.716 90.9337 13.008 91.0657 13.356C91.1977 13.7 91.2637 14.094 91.2637 14.538C91.2637 14.65 91.2577 14.744 91.2457 14.82C91.2377 14.892 91.2197 14.95 91.1917 14.994C91.1677 15.034 91.1337 15.064 91.0897 15.084C91.0457 15.1 90.9897 15.108 90.9217 15.108H87.1177C87.1617 15.74 87.3317 16.204 87.6277 16.5C87.9237 16.796 88.3157 16.944 88.8037 16.944C89.0437 16.944 89.2497 16.916 89.4217 16.86C89.5977 16.804 89.7497 16.742 89.8777 16.674C90.0097 16.606 90.1237 16.544 90.2197 16.488C90.3197 16.432 90.4157 16.404 90.5077 16.404C90.5677 16.404 90.6197 16.416 90.6637 16.44C90.7077 16.464 90.7457 16.498 90.7777 16.542L91.2097 17.082C91.0457 17.274 90.8617 17.436 90.6577 17.568C90.4537 17.696 90.2397 17.8 90.0157 17.88C89.7957 17.956 89.5697 18.01 89.3377 18.042C89.1097 18.074 88.8877 18.09 88.6717 18.09C88.2437 18.09 87.8457 18.02 87.4777 17.88C87.1097 17.736 86.7897 17.526 86.5177 17.25C86.2457 16.97 86.0317 16.626 85.8757 16.218C85.7197 15.806 85.6417 15.33 85.6417 14.79C85.6417 14.37 85.7097 13.976 85.8457 13.608C85.9817 13.236 86.1757 12.914 86.4277 12.642C86.6837 12.366 86.9937 12.148 87.3577 11.988C87.7257 11.828 88.1397 11.748 88.5997 11.748ZM88.6297 12.81C88.1977 12.81 87.8597 12.932 87.6157 13.176C87.3717 13.42 87.2157 13.766 87.1477 14.214H89.9317C89.9317 14.022 89.9057 13.842 89.8537 13.674C89.8017 13.502 89.7217 13.352 89.6137 13.224C89.5057 13.096 89.3697 12.996 89.2057 12.924C89.0417 12.848 88.8497 12.81 88.6297 12.81ZM96.7978 18C96.6058 18 96.4798 17.91 96.4198 17.73L96.2998 17.136C96.1718 17.28 96.0378 17.41 95.8978 17.526C95.7578 17.642 95.6058 17.742 95.4418 17.826C95.2818 17.91 95.1078 17.974 94.9198 18.018C94.7358 18.066 94.5358 18.09 94.3198 18.09C93.9838 18.09 93.6758 18.02 93.3958 17.88C93.1158 17.74 92.8738 17.538 92.6698 17.274C92.4698 17.006 92.3138 16.676 92.2018 16.284C92.0938 15.892 92.0398 15.444 92.0398 14.94C92.0398 14.484 92.1018 14.06 92.2258 13.668C92.3498 13.276 92.5278 12.936 92.7598 12.648C92.9918 12.36 93.2698 12.136 93.5938 11.976C93.9178 11.812 94.2818 11.73 94.6858 11.73C95.0298 11.73 95.3238 11.786 95.5678 11.898C95.8118 12.006 96.0298 12.152 96.2218 12.336V9.084H97.7038V18H96.7978ZM94.8238 16.914C95.1318 16.914 95.3938 16.85 95.6098 16.722C95.8258 16.594 96.0298 16.412 96.2218 16.176V13.416C96.0538 13.212 95.8698 13.068 95.6698 12.984C95.4738 12.9 95.2618 12.858 95.0338 12.858C94.8098 12.858 94.6058 12.9 94.4218 12.984C94.2418 13.068 94.0878 13.196 93.9598 13.368C93.8358 13.536 93.7398 13.752 93.6718 14.016C93.6038 14.276 93.5698 14.584 93.5698 14.94C93.5698 15.3 93.5978 15.606 93.6538 15.858C93.7138 16.106 93.7978 16.31 93.9058 16.47C94.0138 16.626 94.1458 16.74 94.3018 16.812C94.4578 16.88 94.6318 16.914 94.8238 16.914Z" fill="#151413"/>
</svg>
