<svg width="18" height="18" viewBox="0 0 18 18" fill="none" xmlns="http://www.w3.org/2000/svg">
<path d="M6 9V3M6 15V12M11.25 5.25V3M11.25 15V8.25" stroke="#2B2928" stroke-width="1.5" stroke-linecap="round"/>
<path d="M6 12C6.82843 12 7.5 11.3284 7.5 10.5C7.5 9.67157 6.82843 9 6 9C5.17157 9 4.5 9.67157 4.5 10.5C4.5 11.3284 5.17157 12 6 12Z" stroke="#2B2928" stroke-width="1.5" stroke-linecap="round"/>
<path d="M11.25 8.25C12.0784 8.25 12.75 7.57843 12.75 6.75C12.75 5.92157 12.0784 5.25 11.25 5.25C10.4216 5.25 9.75 5.92157 9.75 6.75C9.75 7.57843 10.4216 8.25 11.25 8.25Z" stroke="#2B2928" stroke-width="1.5" stroke-linecap="round"/>
</svg>
