<svg width="25" height="24" viewBox="0 0 25 24" fill="none" xmlns="http://www.w3.org/2000/svg">
<path d="M21.443 16.835C20.8949 13.5635 19.3285 10.5484 16.967 8.219C16.45 7.716 16.192 7.465 15.621 7.233C15.05 7 14.559 7 13.578 7H11.422C10.441 7 9.94998 7 9.37898 7.233C8.80898 7.465 8.54898 7.716 8.03298 8.219C5.67144 10.5484 4.10508 13.5635 3.55698 16.835C3.06998 19.773 5.77998 22 8.80798 22H16.192C19.221 22 21.932 19.773 21.442 16.835" stroke="#2B2928" stroke-width="1.5" stroke-linecap="round" stroke-linejoin="round"/>
<path d="M7.75718 4.443C7.55018 4.143 7.25118 3.735 7.86918 3.643C8.50418 3.547 9.16318 3.981 9.80918 3.973C10.3922 3.964 10.6892 3.705 11.0092 3.335C11.3452 2.946 11.8652 2 12.5002 2C13.1352 2 13.6552 2.946 13.9912 3.335C14.3112 3.705 14.6082 3.965 15.1912 3.972C15.8372 3.982 16.4962 3.547 17.1312 3.642C17.7492 3.735 17.4502 4.142 17.2432 4.442L16.3112 5.801C15.9112 6.381 15.7122 6.671 15.2942 6.836C14.8762 7.001 14.3372 7 13.2582 7H11.7422C10.6622 7 10.1232 7 9.70618 6.836C9.28918 6.672 9.08918 6.38 8.68918 5.8L7.75718 4.443Z" stroke="#2B2928" stroke-width="1.5" stroke-linecap="round" stroke-linejoin="round"/>
<path d="M14.4897 11.2921V11.9663H14.8605C15.1832 11.9663 15.4448 12.2279 15.4448 12.5506C15.4448 12.8732 15.1832 13.1348 14.8605 13.1348H14.4223C14.3025 13.8015 14.0103 14.3109 13.5459 14.6629C13.0815 15.0075 12.4036 15.1798 11.5122 15.1798V15.6292C11.5122 15.9213 11.5684 16.1498 11.6808 16.3146C11.7931 16.4719 11.9879 16.5506 12.265 16.5506C12.5272 16.5506 12.7145 16.4719 12.8268 16.3146C13.064 15.9825 13.3262 15.6067 13.7342 15.6067H13.8654C14.3595 15.6067 14.7747 16.0271 14.6215 16.4967C14.5089 16.8421 14.3339 17.1334 14.0965 17.3708C13.6845 17.7903 13.089 18 12.31 18C11.471 18 10.8268 17.7828 10.3774 17.3483C9.93543 16.9064 9.71446 16.2472 9.71446 15.3708V14.8577C9.71446 14.3406 10.1339 13.924 10.6509 13.912C10.9728 13.9046 11.2337 13.8927 11.4336 13.8764C11.8081 13.839 12.0852 13.7678 12.265 13.6629C12.4523 13.5506 12.5759 13.3745 12.6358 13.1348H10.0852C9.76256 13.1348 9.50098 12.8732 9.50098 12.5506C9.50098 12.2279 9.76256 11.9663 10.0852 11.9663H12.692V11.2921H10.147C9.79023 11.2921 9.50098 11.0029 9.50098 10.6461C9.50098 10.2893 9.79023 10 10.147 10H14.7987C15.1555 10 15.4448 10.2893 15.4448 10.6461C15.4448 11.0029 15.1555 11.2921 14.7987 11.2921H14.4897Z" fill="#2B2928"/>
</svg>
