<svg width="34" height="34" viewBox="0 0 34 34" fill="none" xmlns="http://www.w3.org/2000/svg">
<path d="M29.6571 24.5002C27.6679 27.9454 24.3915 30.4593 20.5488 31.4889M29.6571 24.5002C31.6462 21.0549 32.1852 16.9606 31.1556 13.1179M29.6571 24.5002L19.5535 18.6667M20.5488 31.4889C16.7061 32.5185 12.6118 31.9794 9.16654 29.9904M20.5488 31.4889L17.5294 20.2198M9.16654 29.9904C5.72135 28.0011 3.20746 24.7248 2.17786 20.8821M9.16654 29.9904L15 19.8867M31.1556 13.1179C30.126 9.27521 27.6121 5.99888 24.167 4.00964M31.1556 13.1179L19.8865 16.1373M24.167 4.00964C20.7217 2.02055 16.6274 1.48152 12.7847 2.51112M24.167 4.00964L18.3335 14.1133M19.5535 18.6667C19.1114 19.4323 18.3834 19.991 17.5294 20.2198M19.5535 18.6667C19.9955 17.9011 20.1153 16.9912 19.8865 16.1373M2.17786 20.8821C1.14827 17.0394 1.6873 12.9451 3.67639 9.49979M2.17786 20.8821L13.447 17.8627M3.67639 9.49979C5.66563 6.0546 8.94196 3.54071 12.7847 2.51112M3.67639 9.49979L13.78 15.3333M15 19.8867C15.7657 20.3288 16.6755 20.4485 17.5294 20.2198M15 19.8867C14.2344 19.4447 13.6758 18.7166 13.447 17.8627M12.7847 2.51112L15.8041 13.7802M13.78 15.3333C13.338 16.0989 13.2182 17.0088 13.447 17.8627M13.78 15.3333C14.2221 14.5677 14.9501 14.009 15.8041 13.7802M18.3335 14.1133C19.0991 14.5553 19.6577 15.2834 19.8865 16.1373M18.3335 14.1133C17.5678 13.6712 16.658 13.5514 15.8041 13.7802" stroke="white" stroke-width="3.125" stroke-linecap="round" stroke-linejoin="round"/>
</svg>
