<svg width="44" height="40" viewBox="0 0 44 40" fill="none" xmlns="http://www.w3.org/2000/svg">
<circle cx="29.5" cy="23.5" r="14.5" fill="#F1D3FF"/>
<path d="M19.9501 36.6668C29.1549 36.6668 36.6168 29.2049 36.6168 20.0002C36.6168 10.7954 29.1549 3.3335 19.9501 3.3335C10.7454 3.3335 3.28345 10.7954 3.28345 20.0002C3.28345 29.2049 10.7454 36.6668 19.9501 36.6668Z" stroke="#515162" stroke-width="3" stroke-linecap="round" stroke-linejoin="round"/>
<path d="M20 27.5C24.1421 27.5 27.5 24.1421 27.5 20C27.5 15.8579 24.1421 12.5 20 12.5C15.8579 12.5 12.5 15.8579 12.5 20C12.5 24.1421 15.8579 27.5 20 27.5Z" stroke="#515162" stroke-width="3" stroke-linecap="round" stroke-linejoin="round"/>
<path d="M8.16675 8.2168L14.0667 14.1001" stroke="#515162" stroke-width="3" stroke-linecap="round" stroke-linejoin="round"/>
<path d="M8.16675 31.7832L14.0667 25.8999" stroke="#515162" stroke-width="3" stroke-linecap="round" stroke-linejoin="round"/>
<path d="M31.7501 31.7832L25.8501 25.8999" stroke="#515162" stroke-width="3" stroke-linecap="round" stroke-linejoin="round"/>
<path d="M31.7501 8.2168L25.8501 14.1001" stroke="#515162" stroke-width="3" stroke-linecap="round" stroke-linejoin="round"/>
</svg>
