<svg width="50" height="48" viewBox="0 0 50 48" fill="none" xmlns="http://www.w3.org/2000/svg">
<circle cx="35.5" cy="27.5" r="14.5" fill="#FCD5DC"/>
<path d="M36.8339 14.32C36.7139 14.3 36.5739 14.3 36.4539 14.32C33.6939 14.22 31.4939 11.96 31.4939 9.16C31.4939 6.3 33.7939 4 36.6539 4C39.5139 4 41.8139 6.32 41.8139 9.16C41.7939 11.96 39.5939 14.22 36.8339 14.32Z" stroke="#515162" stroke-width="3" stroke-linecap="round" stroke-linejoin="round"/>
<path d="M34.7739 28.8798C37.5139 29.3398 40.5339 28.8598 42.6539 27.4398C45.4739 25.5598 45.4739 22.4798 42.6539 20.5998C40.5139 19.1798 37.4539 18.6998 34.7139 19.1798" stroke="#515162" stroke-width="3" stroke-linecap="round" stroke-linejoin="round"/>
<path d="M12.7739 14.32C12.8939 14.3 13.0339 14.3 13.1539 14.32C15.9139 14.22 18.1139 11.96 18.1139 9.16C18.1139 6.3 15.8139 4 12.9539 4C10.0939 4 7.79395 6.32 7.79395 9.16C7.81395 11.96 10.0139 14.22 12.7739 14.32Z" stroke="#515162" stroke-width="3" stroke-linecap="round" stroke-linejoin="round"/>
<path d="M14.8339 28.8798C12.0939 29.3398 9.07387 28.8598 6.95387 27.4398C4.13387 25.5598 4.13387 22.4798 6.95387 20.5998C9.09387 19.1798 12.1539 18.6998 14.8939 19.1798" stroke="#515162" stroke-width="3" stroke-linecap="round" stroke-linejoin="round"/>
<path d="M24.8339 29.2599C24.7139 29.2399 24.5739 29.2399 24.4539 29.2599C21.6939 29.1599 19.4939 26.8999 19.4939 24.0999C19.4939 21.2399 21.7939 18.9399 24.6539 18.9399C27.5139 18.9399 29.8139 21.2599 29.8139 24.0999C29.7939 26.8999 27.5939 29.1799 24.8339 29.2599Z" stroke="#515162" stroke-width="3" stroke-linecap="round" stroke-linejoin="round"/>
<path d="M19.0139 35.5597C16.1939 37.4397 16.1939 40.5197 19.0139 42.3997C22.2139 44.5397 27.4539 44.5397 30.6539 42.3997C33.4739 40.5197 33.4739 37.4397 30.6539 35.5597C27.4739 33.4397 22.2139 33.4397 19.0139 35.5597Z" stroke="#515162" stroke-width="3" stroke-linecap="round" stroke-linejoin="round"/>
</svg>
