<svg width="44" height="40" viewBox="0 0 44 40" fill="none" xmlns="http://www.w3.org/2000/svg">
<circle cx="29.5" cy="23.5" r="14.5" fill="#E5EEFF"/>
<path d="M9.11678 15.0002C12.3384 15.0002 14.9501 12.3885 14.9501 9.16683C14.9501 5.94517 12.3384 3.3335 9.11678 3.3335C5.89512 3.3335 3.28345 5.94517 3.28345 9.16683C3.28345 12.3885 5.89512 15.0002 9.11678 15.0002Z" stroke="#515162" stroke-width="3"/>
<path d="M28.2833 25H33.2833C35.1166 25 36.6166 26.5 36.6166 28.3333V33.3333C36.6166 35.1667 35.1166 36.6667 33.2833 36.6667H28.2833C26.4499 36.6667 24.95 35.1667 24.95 33.3333V28.3333C24.95 26.5 26.4499 25 28.2833 25Z" stroke="#515162" stroke-width="3"/>
<path d="M20.0001 8.3335H24.4667C27.5501 8.3335 28.9834 12.1502 26.6667 14.1835L13.3501 25.8335C11.0334 27.8502 12.4667 31.6668 15.5334 31.6668H20.0001" stroke="#515162" stroke-width="3" stroke-linecap="round" stroke-linejoin="round"/>
<path d="M9.14369 9.16683H9.16295" stroke="#515162" stroke-width="3" stroke-linecap="round" stroke-linejoin="round"/>
<path d="M30.8104 30.8333H30.8297" stroke="#515162" stroke-width="3" stroke-linecap="round" stroke-linejoin="round"/>
</svg>
