<svg width="25" height="26" viewBox="0 0 25 26" fill="none" xmlns="http://www.w3.org/2000/svg">
<circle cx="14" cy="14.9844" r="8" fill="#BFE9E6"/>
<path d="M16.4686 21.453C16.1977 21.453 15.9165 21.4427 15.6144 21.4117C15.0727 21.3703 14.4582 21.267 13.8227 21.112L12.0727 20.6987C7.27066 19.5723 5.69775 17.051 6.82275 12.2977L7.84358 7.96799C8.07275 6.98633 8.34358 6.19066 8.67691 5.52933C10.4686 1.86099 13.8957 2.19166 16.3332 2.75999L18.0727 3.16299C20.5102 3.73132 22.0519 4.63032 22.9165 6.00466C23.7707 7.37899 23.9061 9.14599 23.3332 11.564L22.3123 15.8833C21.4165 19.6653 19.5519 21.453 16.4686 21.453ZM13.6665 3.95866C11.9269 3.95866 10.8227 4.67166 10.0832 6.20099C9.81233 6.75899 9.57275 7.45132 9.36441 8.31932L8.34358 12.649C7.4165 16.555 8.48941 18.26 12.4269 19.19L14.1769 19.6033C14.7394 19.7377 15.2707 19.8203 15.7498 19.8617C18.5832 20.1407 19.9894 18.911 20.7811 15.532L21.8019 11.2127C22.2707 9.21833 22.2082 7.82332 21.5832 6.82099C20.9582 5.81866 19.729 5.13666 17.7082 4.67166L15.9686 4.26866C15.104 4.06199 14.3332 3.95866 13.6665 3.95866Z" fill="#153E3B"/>
<path d="M8.67742 23.5943C6.00034 23.5943 4.292 22.0029 3.19825 18.6446L1.86492 14.5629C0.385755 10.0163 1.70867 7.4536 6.27117 5.98627L7.917 5.45927C8.45867 5.29394 8.86492 5.18027 9.2295 5.11827C9.53159 5.05627 9.82326 5.16994 10.0003 5.4076C10.1774 5.64527 10.2087 5.95527 10.0837 6.22394C9.81284 6.7716 9.57325 7.46394 9.37534 8.33194L8.35451 12.6616C7.42742 16.5676 8.50034 18.2726 12.4378 19.2026L14.1878 19.6159C14.7503 19.7503 15.2816 19.8329 15.7608 19.8743C16.0941 19.9053 16.3649 20.1326 16.4587 20.4529C16.542 20.7733 16.417 21.1039 16.1462 21.2899C15.4587 21.7549 14.5941 22.1476 13.5003 22.4989L11.8545 23.0363C10.6566 23.4083 9.61492 23.5943 8.67742 23.5943ZM8.10451 7.02994L6.76075 7.46394C3.042 8.65227 2.15659 10.3883 3.35451 14.0876L4.68784 18.1693C5.89617 21.8583 7.64617 22.7469 11.3649 21.5586L13.0108 21.0213C13.0733 21.0006 13.1253 20.9799 13.1878 20.9593L12.0837 20.7009C7.28159 19.5746 5.70867 17.0533 6.83367 12.2999L7.8545 7.97027C7.92742 7.6396 8.01076 7.31927 8.10451 7.02994Z" fill="#153E3B"/>
<path d="M18.2189 11.4619C18.1564 11.4619 18.0939 11.4515 18.021 11.4412L12.9689 10.1702C12.5523 10.0669 12.3023 9.64319 12.4064 9.22986C12.5106 8.81653 12.9377 8.56853 13.3543 8.67186L18.4064 9.94286C18.8231 10.0462 19.0731 10.4699 18.9689 10.8832C18.8856 11.2242 18.5627 11.4619 18.2189 11.4619Z" fill="#153E3B"/>
<path d="M15.1668 14.9555C15.1043 14.9555 15.0418 14.9452 14.9689 14.9349L11.9377 14.1702C11.521 14.0669 11.271 13.6432 11.3752 13.2299C11.4793 12.8165 11.9064 12.5685 12.3231 12.6719L15.3543 13.4365C15.771 13.5399 16.021 13.9635 15.9168 14.3769C15.8335 14.7282 15.521 14.9555 15.1668 14.9555Z" fill="#153E3B"/>
</svg>
