<svg width="25" height="26" viewBox="0 0 25 26" fill="none" xmlns="http://www.w3.org/2000/svg">
<ellipse cx="12.358" cy="13.082" rx="8.35803" ry="6" fill="#BFE9E6"/>
<ellipse cx="14.2854" cy="13.5502" rx="7.71511" ry="5.53846" fill="#BFE9E6"/>
<path d="M16.3024 23.1276C15.8545 23.1276 15.4066 23.0307 15.042 22.8477L9.57324 20.0168C9.26074 19.8553 8.64616 19.8661 8.34408 20.0491L5.88574 21.5022C4.82324 22.1265 3.72949 22.2126 2.90658 21.7067C2.07324 21.2116 1.60449 20.1998 1.60449 18.9296V8.46715C1.60449 7.48763 2.22949 6.37895 3.05241 5.89458L7.56283 3.22513C8.32324 2.77305 9.47949 2.74076 10.2607 3.14978L15.7295 5.98069C16.042 6.14215 16.6462 6.12062 16.9587 5.9484L19.4066 4.50604C20.4691 3.88173 21.5628 3.79562 22.3857 4.30152C23.2191 4.79666 23.6878 5.80847 23.6878 7.0786V17.5519C23.6878 18.5314 23.0628 19.6401 22.2399 20.1244L17.7295 22.7939C17.3337 23.0092 16.8128 23.1276 16.3024 23.1276ZM9.00033 18.2946C9.44824 18.2946 9.89616 18.3915 10.2607 18.5744L15.7295 21.4053C16.042 21.5668 16.6462 21.5453 16.9587 21.373L21.4691 18.7036C21.8024 18.5099 22.1253 17.9286 22.1253 17.5411V7.06784C22.1253 6.38972 21.9378 5.88381 21.5941 5.69006C21.2607 5.49631 20.7399 5.57166 20.1774 5.90534L17.7295 7.3477C16.9691 7.79978 15.8128 7.83208 15.0316 7.42305L9.56283 4.59215C9.25033 4.43069 8.64616 4.45222 8.33366 4.62444L3.82324 7.29388C3.48991 7.48763 3.16699 8.06888 3.16699 8.46715V18.9404C3.16699 19.6185 3.35449 20.1244 3.68783 20.3182C4.02116 20.5227 4.54199 20.4366 5.11491 20.1029L7.56283 18.6605C7.96908 18.413 8.48991 18.2946 9.00033 18.2946Z" fill="#153E3B"/>
<path d="M8.91699 19.1897C8.48991 19.1897 8.13574 18.8237 8.13574 18.3824V4.38932C8.13574 3.948 8.48991 3.58203 8.91699 3.58203C9.34408 3.58203 9.69824 3.948 9.69824 4.38932V18.3824C9.69824 18.8237 9.34408 19.1897 8.91699 19.1897Z" fill="#153E3B"/>
<path d="M16.3857 22.419C15.9587 22.419 15.6045 22.053 15.6045 21.6117V7.20964C15.6045 6.76832 15.9587 6.40234 16.3857 6.40234C16.8128 6.40234 17.167 6.76832 17.167 7.20964V21.6117C17.167 22.053 16.8128 22.419 16.3857 22.419Z" fill="#153E3B"/>
</svg>
