<svg width="25" height="26" viewBox="0 0 25 26" fill="none" xmlns="http://www.w3.org/2000/svg">
<circle cx="11" cy="14" r="8" fill="#BFE9E6"/>
<path d="M12.4997 24.1966C6.32259 24.1966 1.30176 19.1758 1.30176 12.9987C1.30176 10.5404 2.08301 8.20703 3.56217 6.2487C3.82259 5.90495 4.31217 5.84245 4.65592 6.10286C4.99967 6.36328 5.07259 6.85286 4.81217 7.19661C3.54134 8.8737 2.86426 10.8841 2.86426 12.9987C2.86426 18.3112 7.18717 22.6341 12.4997 22.6341C17.8122 22.6341 22.1351 18.3112 22.1351 12.9987C22.1351 7.6862 17.8122 3.36328 12.4997 3.36328C12.0726 3.36328 11.7184 3.00911 11.7184 2.58203C11.7184 2.15495 12.0726 1.80078 12.4997 1.80078C18.6768 1.80078 23.6976 6.82161 23.6976 12.9987C23.6976 19.1758 18.6768 24.1966 12.4997 24.1966Z" fill="#153E3B"/>
<path d="M12.4997 21.0716C8.05176 21.0716 4.42676 17.4466 4.42676 12.9987C4.42676 12.5716 4.78092 12.2174 5.20801 12.2174C5.63509 12.2174 5.98926 12.5716 5.98926 12.9987C5.98926 16.5924 8.90592 19.5091 12.4997 19.5091C16.0934 19.5091 19.0101 16.5924 19.0101 12.9987C19.0101 9.40495 16.0934 6.48828 12.4997 6.48828C12.0726 6.48828 11.7184 6.13411 11.7184 5.70703C11.7184 5.27995 12.0726 4.92578 12.4997 4.92578C16.9476 4.92578 20.5726 8.55078 20.5726 12.9987C20.5726 17.4466 16.9476 21.0716 12.4997 21.0716Z" fill="#153E3B"/>
<path d="M12.5 17.9466C12.0729 17.9466 11.7188 17.5924 11.7188 17.1654C11.7188 16.7383 12.0729 16.3841 12.5 16.3841C14.3646 16.3841 15.8854 14.8633 15.8854 12.9987C15.8854 11.1341 14.3646 9.61328 12.5 9.61328C12.0729 9.61328 11.7188 9.25911 11.7188 8.83203C11.7188 8.40495 12.0729 8.05078 12.5 8.05078C15.2292 8.05078 17.4479 10.2695 17.4479 12.9987C17.4479 15.7279 15.2292 17.9466 12.5 17.9466Z" fill="#153E3B"/>
</svg>
