<svg width="56" height="26" viewBox="0 0 56 26" fill="none" xmlns="http://www.w3.org/2000/svg">
<rect width="56" height="26" rx="4" fill="#FFCCD0"/>
<path d="M9 12.9996V10.3296C9 7.01455 11.3475 5.65706 14.22 7.31456L16.5375 8.64956L18.855 9.98456C21.7275 11.6421 21.7275 14.3571 18.855 16.0146L16.5375 17.3496L14.22 18.6846C11.3475 20.3421 9 18.9846 9 15.6696V12.9996Z" fill="#E11E1E"/>
<path d="M34.1261 16.668V18H29.0441V9.324H30.6581V16.668H34.1261ZM36.5805 11.844V18H35.0925V11.844H36.5805ZM36.7845 10.05C36.7845 10.178 36.7585 10.298 36.7065 10.41C36.6545 10.522 36.5845 10.62 36.4965 10.704C36.4125 10.788 36.3125 10.856 36.1965 10.908C36.0805 10.956 35.9565 10.98 35.8245 10.98C35.6965 10.98 35.5745 10.956 35.4585 10.908C35.3465 10.856 35.2485 10.788 35.1645 10.704C35.0805 10.62 35.0125 10.522 34.9605 10.41C34.9125 10.298 34.8885 10.178 34.8885 10.05C34.8885 9.918 34.9125 9.794 34.9605 9.678C35.0125 9.562 35.0805 9.462 35.1645 9.378C35.2485 9.294 35.3465 9.228 35.4585 9.18C35.5745 9.128 35.6965 9.102 35.8245 9.102C35.9565 9.102 36.0805 9.128 36.1965 9.18C36.3125 9.228 36.4125 9.294 36.4965 9.378C36.5845 9.462 36.6545 9.562 36.7065 9.678C36.7585 9.794 36.7845 9.918 36.7845 10.05ZM43.6414 11.844L41.1994 18H39.8554L37.4134 11.844H38.6374C38.7494 11.844 38.8414 11.87 38.9134 11.922C38.9894 11.974 39.0394 12.04 39.0634 12.12L40.2514 15.408C40.3154 15.6 40.3714 15.788 40.4194 15.972C40.4674 16.156 40.5094 16.34 40.5454 16.524C40.5854 16.34 40.6294 16.156 40.6774 15.972C40.7254 15.788 40.7834 15.6 40.8514 15.408L42.0634 12.12C42.0914 12.04 42.1414 11.974 42.2134 11.922C42.2854 11.87 42.3714 11.844 42.4714 11.844H43.6414ZM48.2097 14.214C48.2097 14.022 48.1817 13.842 48.1257 13.674C48.0737 13.502 47.9937 13.352 47.8857 13.224C47.7777 13.096 47.6397 12.996 47.4717 12.924C47.3077 12.848 47.1157 12.81 46.8957 12.81C46.4677 12.81 46.1297 12.932 45.8817 13.176C45.6377 13.42 45.4817 13.766 45.4137 14.214H48.2097ZM45.3837 15.108C45.4077 15.424 45.4637 15.698 45.5517 15.93C45.6397 16.158 45.7557 16.348 45.8997 16.5C46.0437 16.648 46.2137 16.76 46.4097 16.836C46.6097 16.908 46.8297 16.944 47.0697 16.944C47.3097 16.944 47.5157 16.916 47.6877 16.86C47.8637 16.804 48.0157 16.742 48.1437 16.674C48.2757 16.606 48.3897 16.544 48.4857 16.488C48.5857 16.432 48.6817 16.404 48.7737 16.404C48.8977 16.404 48.9897 16.45 49.0497 16.542L49.4757 17.082C49.3117 17.274 49.1277 17.436 48.9237 17.568C48.7197 17.696 48.5057 17.8 48.2817 17.88C48.0617 17.956 47.8357 18.01 47.6037 18.042C47.3757 18.074 47.1537 18.09 46.9377 18.09C46.5097 18.09 46.1117 18.02 45.7437 17.88C45.3757 17.736 45.0557 17.526 44.7837 17.25C44.5117 16.97 44.2977 16.626 44.1417 16.218C43.9857 15.806 43.9077 15.33 43.9077 14.79C43.9077 14.37 43.9757 13.976 44.1117 13.608C44.2477 13.236 44.4417 12.914 44.6937 12.642C44.9497 12.366 45.2597 12.148 45.6237 11.988C45.9917 11.828 46.4057 11.748 46.8657 11.748C47.2537 11.748 47.6117 11.81 47.9397 11.934C48.2677 12.058 48.5497 12.24 48.7857 12.48C49.0217 12.716 49.2057 13.008 49.3377 13.356C49.4737 13.7 49.5417 14.094 49.5417 14.538C49.5417 14.762 49.5177 14.914 49.4697 14.994C49.4217 15.07 49.3297 15.108 49.1937 15.108H45.3837Z" fill="black"/>
</svg>
