<svg width="68" height="26" viewBox="0 0 68 26" fill="none" xmlns="http://www.w3.org/2000/svg">
<rect x="0.5" width="67" height="26" rx="4" fill="#E4E5E6"/>
<path d="M11.2998 16.698C11.6118 16.698 11.8898 16.646 12.1338 16.542C12.3818 16.438 12.5898 16.292 12.7578 16.104C12.9258 15.916 13.0538 15.688 13.1418 15.42C13.2338 15.152 13.2798 14.852 13.2798 14.52V9.324H14.8938V14.52C14.8938 15.036 14.8098 15.514 14.6418 15.954C14.4778 16.39 14.2398 16.768 13.9278 17.088C13.6198 17.404 13.2438 17.652 12.7998 17.832C12.3558 18.008 11.8558 18.096 11.2998 18.096C10.7398 18.096 10.2378 18.008 9.7938 17.832C9.3498 17.652 8.9718 17.404 8.6598 17.088C8.3518 16.768 8.1138 16.39 7.9458 15.954C7.7818 15.514 7.6998 15.036 7.6998 14.52V9.324H9.3138V14.514C9.3138 14.846 9.3578 15.146 9.4458 15.414C9.5378 15.682 9.6678 15.912 9.8358 16.104C10.0078 16.292 10.2158 16.438 10.4598 16.542C10.7078 16.646 10.9878 16.698 11.2998 16.698ZM17.7628 16.404C17.9308 16.608 18.1128 16.752 18.3088 16.836C18.5088 16.92 18.7248 16.962 18.9568 16.962C19.1808 16.962 19.3828 16.92 19.5628 16.836C19.7428 16.752 19.8948 16.624 20.0188 16.452C20.1468 16.28 20.2448 16.064 20.3128 15.804C20.3808 15.54 20.4148 15.23 20.4148 14.874C20.4148 14.514 20.3848 14.21 20.3248 13.962C20.2688 13.71 20.1868 13.506 20.0788 13.35C19.9708 13.194 19.8388 13.08 19.6828 13.008C19.5308 12.936 19.3568 12.9 19.1608 12.9C18.8528 12.9 18.5908 12.966 18.3748 13.098C18.1588 13.226 17.9548 13.408 17.7628 13.644V16.404ZM17.6848 12.684C17.9368 12.4 18.2228 12.17 18.5428 11.994C18.8628 11.818 19.2388 11.73 19.6708 11.73C20.0068 11.73 20.3128 11.8 20.5888 11.94C20.8688 12.08 21.1088 12.284 21.3088 12.552C21.5128 12.816 21.6688 13.144 21.7768 13.536C21.8888 13.924 21.9448 14.37 21.9448 14.874C21.9448 15.334 21.8828 15.76 21.7588 16.152C21.6348 16.544 21.4568 16.884 21.2248 17.172C20.9968 17.46 20.7188 17.686 20.3908 17.85C20.0668 18.01 19.7028 18.09 19.2988 18.09C18.9548 18.09 18.6608 18.038 18.4168 17.934C18.1728 17.826 17.9548 17.678 17.7628 17.49V20.01H16.2808V11.844H17.1868C17.3788 11.844 17.5048 11.934 17.5648 12.114L17.6848 12.684ZM27.5111 13.146C27.4671 13.202 27.4231 13.246 27.3791 13.278C27.3391 13.31 27.2791 13.326 27.1991 13.326C27.1231 13.326 27.0491 13.304 26.9771 13.26C26.9051 13.212 26.8191 13.16 26.7191 13.104C26.6191 13.044 26.4991 12.992 26.3591 12.948C26.2231 12.9 26.0531 12.876 25.8491 12.876C25.5891 12.876 25.3611 12.924 25.1651 13.02C24.9691 13.112 24.8051 13.246 24.6731 13.422C24.5451 13.598 24.4491 13.812 24.3851 14.064C24.3211 14.312 24.2891 14.594 24.2891 14.91C24.2891 15.238 24.3231 15.53 24.3911 15.786C24.4631 16.042 24.5651 16.258 24.6971 16.434C24.8291 16.606 24.9891 16.738 25.1771 16.83C25.3651 16.918 25.5771 16.962 25.8131 16.962C26.0491 16.962 26.2391 16.934 26.3831 16.878C26.5311 16.818 26.6551 16.754 26.7551 16.686C26.8551 16.614 26.9411 16.55 27.0131 16.494C27.0891 16.434 27.1731 16.404 27.2651 16.404C27.3851 16.404 27.4751 16.45 27.5351 16.542L27.9611 17.082C27.7971 17.274 27.6191 17.436 27.4271 17.568C27.2351 17.696 27.0351 17.8 26.8271 17.88C26.6231 17.956 26.4111 18.01 26.1911 18.042C25.9751 18.074 25.7591 18.09 25.5431 18.09C25.1631 18.09 24.8051 18.02 24.4691 17.88C24.1331 17.736 23.8391 17.528 23.5871 17.256C23.3351 16.984 23.1351 16.652 22.9871 16.26C22.8431 15.864 22.7711 15.414 22.7711 14.91C22.7711 14.458 22.8351 14.04 22.9631 13.656C23.0951 13.268 23.2871 12.934 23.5391 12.654C23.7911 12.37 24.1031 12.148 24.4751 11.988C24.8471 11.828 25.2751 11.748 25.7591 11.748C26.2191 11.748 26.6211 11.822 26.9651 11.97C27.3131 12.118 27.6251 12.33 27.9011 12.606L27.5111 13.146ZM31.5087 11.748C31.9647 11.748 32.3787 11.822 32.7507 11.97C33.1267 12.118 33.4467 12.328 33.7107 12.6C33.9787 12.872 34.1847 13.204 34.3287 13.596C34.4727 13.988 34.5447 14.426 34.5447 14.91C34.5447 15.398 34.4727 15.838 34.3287 16.23C34.1847 16.622 33.9787 16.956 33.7107 17.232C33.4467 17.508 33.1267 17.72 32.7507 17.868C32.3787 18.016 31.9647 18.09 31.5087 18.09C31.0487 18.09 30.6307 18.016 30.2547 17.868C29.8787 17.72 29.5567 17.508 29.2887 17.232C29.0247 16.956 28.8187 16.622 28.6707 16.23C28.5267 15.838 28.4547 15.398 28.4547 14.91C28.4547 14.426 28.5267 13.988 28.6707 13.596C28.8187 13.204 29.0247 12.872 29.2887 12.6C29.5567 12.328 29.8787 12.118 30.2547 11.97C30.6307 11.822 31.0487 11.748 31.5087 11.748ZM31.5087 16.95C32.0207 16.95 32.3987 16.778 32.6427 16.434C32.8907 16.09 33.0147 15.586 33.0147 14.922C33.0147 14.258 32.8907 13.752 32.6427 13.404C32.3987 13.056 32.0207 12.882 31.5087 12.882C30.9887 12.882 30.6027 13.058 30.3507 13.41C30.1027 13.758 29.9787 14.262 29.9787 14.922C29.9787 15.582 30.1027 16.086 30.3507 16.434C30.6027 16.778 30.9887 16.95 31.5087 16.95ZM35.6754 18V11.844H36.5814C36.7734 11.844 36.8994 11.934 36.9594 12.114L37.0554 12.57C37.1634 12.45 37.2754 12.34 37.3914 12.24C37.5114 12.14 37.6374 12.054 37.7694 11.982C37.9054 11.91 38.0494 11.854 38.2014 11.814C38.3574 11.77 38.5274 11.748 38.7114 11.748C39.0994 11.748 39.4174 11.854 39.6654 12.066C39.9174 12.274 40.1054 12.552 40.2294 12.9C40.3254 12.696 40.4454 12.522 40.5894 12.378C40.7334 12.23 40.8914 12.11 41.0634 12.018C41.2354 11.926 41.4174 11.858 41.6094 11.814C41.8054 11.77 42.0014 11.748 42.1974 11.748C42.5374 11.748 42.8394 11.8 43.1034 11.904C43.3674 12.008 43.5894 12.16 43.7694 12.36C43.9494 12.56 44.0854 12.804 44.1774 13.092C44.2734 13.38 44.3214 13.71 44.3214 14.082V18H42.8394V14.082C42.8394 13.69 42.7534 13.396 42.5814 13.2C42.4094 13 42.1574 12.9 41.8254 12.9C41.6734 12.9 41.5314 12.926 41.3994 12.978C41.2714 13.03 41.1574 13.106 41.0574 13.206C40.9614 13.302 40.8854 13.424 40.8294 13.572C40.7734 13.72 40.7454 13.89 40.7454 14.082V18H39.2574V14.082C39.2574 13.67 39.1734 13.37 39.0054 13.182C38.8414 12.994 38.5994 12.9 38.2794 12.9C38.0634 12.9 37.8614 12.954 37.6734 13.062C37.4894 13.166 37.3174 13.31 37.1574 13.494V18H35.6754ZM47.266 11.844V18H45.778V11.844H47.266ZM47.47 10.05C47.47 10.178 47.444 10.298 47.392 10.41C47.34 10.522 47.27 10.62 47.182 10.704C47.098 10.788 46.998 10.856 46.882 10.908C46.766 10.956 46.642 10.98 46.51 10.98C46.382 10.98 46.26 10.956 46.144 10.908C46.032 10.856 45.934 10.788 45.85 10.704C45.766 10.62 45.698 10.522 45.646 10.41C45.598 10.298 45.574 10.178 45.574 10.05C45.574 9.918 45.598 9.794 45.646 9.678C45.698 9.562 45.766 9.462 45.85 9.378C45.934 9.294 46.032 9.228 46.144 9.18C46.26 9.128 46.382 9.102 46.51 9.102C46.642 9.102 46.766 9.128 46.882 9.18C46.998 9.228 47.098 9.294 47.182 9.378C47.27 9.462 47.34 9.562 47.392 9.678C47.444 9.794 47.47 9.918 47.47 10.05ZM50.1629 12.6C50.2869 12.476 50.4169 12.362 50.5529 12.258C50.6929 12.15 50.8389 12.06 50.9909 11.988C51.1469 11.912 51.3129 11.854 51.4889 11.814C51.6649 11.77 51.8569 11.748 52.0649 11.748C52.4009 11.748 52.6989 11.806 52.9589 11.922C53.2189 12.034 53.4349 12.194 53.6069 12.402C53.7829 12.606 53.9149 12.852 54.0029 13.14C54.0949 13.424 54.1409 13.738 54.1409 14.082V18H52.6589V14.082C52.6589 13.706 52.5729 13.416 52.4009 13.212C52.2289 13.004 51.9669 12.9 51.6149 12.9C51.3589 12.9 51.1189 12.958 50.8949 13.074C50.6709 13.19 50.4589 13.348 50.2589 13.548V18H48.7769V11.844H49.6829C49.8749 11.844 50.0009 11.934 50.0609 12.114L50.1629 12.6ZM57.8004 14.772C57.9844 14.772 58.1444 14.748 58.2804 14.7C58.4164 14.648 58.5284 14.578 58.6164 14.49C58.7084 14.402 58.7764 14.296 58.8204 14.172C58.8684 14.048 58.8924 13.912 58.8924 13.764C58.8924 13.46 58.8004 13.22 58.6164 13.044C58.4364 12.864 58.1644 12.774 57.8004 12.774C57.4364 12.774 57.1624 12.864 56.9784 13.044C56.7984 13.22 56.7084 13.46 56.7084 13.764C56.7084 13.908 56.7304 14.042 56.7744 14.166C56.8224 14.29 56.8904 14.398 56.9784 14.49C57.0704 14.578 57.1844 14.648 57.3204 14.7C57.4604 14.748 57.6204 14.772 57.8004 14.772ZM59.4744 18.276C59.4744 18.156 59.4384 18.058 59.3664 17.982C59.2944 17.906 59.1964 17.848 59.0724 17.808C58.9484 17.764 58.8024 17.732 58.6344 17.712C58.4704 17.692 58.2944 17.678 58.1064 17.67C57.9224 17.658 57.7304 17.648 57.5304 17.64C57.3344 17.632 57.1424 17.616 56.9544 17.592C56.7904 17.684 56.6564 17.792 56.5524 17.916C56.4524 18.04 56.4024 18.184 56.4024 18.348C56.4024 18.456 56.4284 18.556 56.4804 18.648C56.5364 18.744 56.6224 18.826 56.7384 18.894C56.8584 18.962 57.0124 19.014 57.2004 19.05C57.3884 19.09 57.6184 19.11 57.8904 19.11C58.1664 19.11 58.4044 19.088 58.6044 19.044C58.8044 19.004 58.9684 18.946 59.0964 18.87C59.2284 18.798 59.3244 18.71 59.3844 18.606C59.4444 18.506 59.4744 18.396 59.4744 18.276ZM60.9504 12.054V12.606C60.9504 12.782 60.8444 12.89 60.6324 12.93L60.0804 13.032C60.1644 13.244 60.2064 13.476 60.2064 13.728C60.2064 14.032 60.1444 14.308 60.0204 14.556C59.9004 14.8 59.7324 15.008 59.5164 15.18C59.3004 15.352 59.0444 15.486 58.7484 15.582C58.4564 15.674 58.1404 15.72 57.8004 15.72C57.6804 15.72 57.5644 15.714 57.4524 15.702C57.3404 15.69 57.2304 15.674 57.1224 15.654C56.9304 15.77 56.8344 15.9 56.8344 16.044C56.8344 16.168 56.8904 16.26 57.0024 16.32C57.1184 16.376 57.2704 16.416 57.4584 16.44C57.6464 16.464 57.8604 16.48 58.1004 16.488C58.3404 16.492 58.5864 16.504 58.8384 16.524C59.0904 16.544 59.3364 16.58 59.5764 16.632C59.8164 16.68 60.0304 16.758 60.2184 16.866C60.4064 16.974 60.5564 17.122 60.6684 17.31C60.7844 17.494 60.8424 17.732 60.8424 18.024C60.8424 18.296 60.7744 18.56 60.6384 18.816C60.5064 19.072 60.3124 19.3 60.0564 19.5C59.8044 19.7 59.4924 19.86 59.1204 19.98C58.7524 20.104 58.3324 20.166 57.8604 20.166C57.3964 20.166 56.9924 20.12 56.6484 20.028C56.3044 19.94 56.0184 19.82 55.7904 19.668C55.5624 19.52 55.3924 19.348 55.2804 19.152C55.1684 18.956 55.1124 18.752 55.1124 18.54C55.1124 18.252 55.1984 18.012 55.3704 17.82C55.5464 17.624 55.7864 17.468 56.0904 17.352C55.9264 17.268 55.7964 17.156 55.7004 17.016C55.6044 16.876 55.5564 16.692 55.5564 16.464C55.5564 16.372 55.5724 16.278 55.6044 16.182C55.6404 16.082 55.6904 15.984 55.7544 15.888C55.8224 15.792 55.9064 15.702 56.0064 15.618C56.1064 15.53 56.2244 15.452 56.3604 15.384C56.0484 15.216 55.8024 14.992 55.6224 14.712C55.4464 14.432 55.3584 14.104 55.3584 13.728C55.3584 13.424 55.4184 13.15 55.5384 12.906C55.6624 12.658 55.8324 12.448 56.0484 12.276C56.2684 12.1 56.5264 11.966 56.8224 11.874C57.1224 11.782 57.4484 11.736 57.8004 11.736C58.0644 11.736 58.3124 11.764 58.5444 11.82C58.7764 11.872 58.9884 11.95 59.1804 12.054H60.9504Z" fill="black"/>
</svg>
