<svg width="18" height="18" viewBox="0 0 18 18" fill="none" xmlns="http://www.w3.org/2000/svg">
<g clip-path="url(#clip0_5146_97485)">
<path d="M16.3125 0.421879H1.6875C1.35567 0.418502 1.03605 0.546901 0.798777 0.778902C0.561503 1.0109 0.425955 1.32756 0.421875 1.65938V16.3434C0.426693 16.6748 0.562565 16.9907 0.799758 17.2221C1.03695 17.4535 1.35615 17.5815 1.6875 17.5781H16.3125C16.6444 17.5808 16.9638 17.4519 17.2009 17.2198C17.4381 16.9876 17.5737 16.6711 17.5781 16.3392V1.65516C17.5722 1.32431 17.4359 1.00917 17.1989 0.778231C16.962 0.547295 16.6434 0.419232 16.3125 0.421879Z" fill="#0076B2"/>
<path d="M2.96227 6.85196H5.50898V15.0462H2.96227V6.85196ZM4.23633 2.77383C4.52843 2.77383 4.81396 2.86047 5.05681 3.02278C5.29966 3.18509 5.48891 3.41578 5.60063 3.68567C5.71234 3.95555 5.7415 4.25251 5.68442 4.53898C5.62733 4.82544 5.48656 5.08854 5.27992 5.29498C5.07328 5.50143 4.81005 5.64194 4.52353 5.69876C4.23701 5.75557 3.94008 5.72613 3.6703 5.61416C3.40052 5.50218 3.17001 5.31271 3.00793 5.06971C2.84585 4.8267 2.75949 4.54109 2.75977 4.24899C2.76014 3.85763 2.91587 3.48242 3.19274 3.20581C3.46961 2.92921 3.84496 2.77383 4.23633 2.77383ZM7.10648 6.85196H9.54774V7.97696H9.58148C9.9218 7.3329 10.7515 6.65368 11.9904 6.65368C14.5695 6.64805 15.0476 8.3454 15.0476 10.5462V15.0462H12.5009V11.0595C12.5009 10.1102 12.484 8.88821 11.1776 8.88821C9.87117 8.88821 9.64898 9.92321 9.64898 10.9976V15.0462H7.10648V6.85196Z" fill="white"/>
</g>
<defs>
<clipPath id="clip0_5146_97485">
<rect width="18" height="18" fill="white"/>
</clipPath>
</defs>
</svg>
