<svg width="24" height="25" viewBox="0 0 24 25" fill="none" xmlns="http://www.w3.org/2000/svg">
<path d="M6.9 20.7118C8.4 21.6118 10.2 22.1118 12 22.1118C17.5 22.1118 22 17.6118 22 12.1118C22 6.61182 17.5 2.11182 12 2.11182C6.5 2.11182 2 6.61182 2 12.1118C2 13.9118 2.5 15.6118 3.3 17.1118L2.88089 18.7238C2.4899 20.2276 2.2944 20.9795 2.70967 21.385C3.12494 21.7904 3.87195 21.577 5.36597 21.1501L6.9 20.7118Z" fill="#3BB845" stroke="#3BB845" stroke-miterlimit="10" stroke-linecap="round" stroke-linejoin="round"/>
<path d="M16.5 14.9603C16.5 15.1223 16.4639 15.2888 16.3873 15.4508C16.3107 15.6128 16.2116 15.7658 16.0809 15.9098C15.86 16.1528 15.6167 16.3283 15.3418 16.4408C15.0714 16.5533 14.7784 16.6118 14.4629 16.6118C14.0033 16.6118 13.512 16.5038 12.9937 16.2833C12.4755 16.0628 11.9572 15.7658 11.4434 15.3923C10.9251 15.0143 10.4339 14.5958 9.9652 14.1323C9.501 13.6643 9.08187 13.1738 8.70781 12.6608C8.33826 12.1478 8.04081 11.6348 7.82449 11.1263C7.60816 10.6133 7.5 10.1228 7.5 9.65482C7.5 9.34882 7.55408 9.05632 7.66224 8.78632C7.77041 8.51182 7.94166 8.25982 8.18052 8.03482C8.46895 7.75132 8.78443 7.61182 9.11793 7.61182C9.24412 7.61182 9.37031 7.63882 9.48297 7.69282C9.60015 7.74682 9.70381 7.82782 9.78493 7.94482L10.8305 9.41632C10.9116 9.52882 10.9702 9.63232 11.0108 9.73132C11.0513 9.82582 11.0739 9.92032 11.0739 10.0058C11.0739 10.1138 11.0423 10.2218 10.9792 10.3253C10.9206 10.4288 10.835 10.5368 10.7268 10.6448L10.3843 11.0003C10.3348 11.0498 10.3122 11.1083 10.3122 11.1803C10.3122 11.2163 10.3167 11.2478 10.3257 11.2838C10.3393 11.3198 10.3528 11.3468 10.3618 11.3738C10.4429 11.5223 10.5826 11.7158 10.7809 11.9498C10.9837 12.1838 11.2 12.4223 11.4344 12.6608C11.6778 12.8993 11.9121 13.1198 12.151 13.3223C12.3853 13.5203 12.5791 13.6553 12.7323 13.7363C12.7549 13.7453 12.7819 13.7588 12.8135 13.7723C12.8495 13.7858 12.8856 13.7903 12.9261 13.7903C13.0028 13.7903 13.0613 13.7633 13.1109 13.7138L13.4534 13.3763C13.5661 13.2638 13.6743 13.1783 13.7779 13.1243C13.8816 13.0613 13.9852 13.0298 14.0979 13.0298C14.1835 13.0298 14.2737 13.0478 14.3728 13.0883C14.472 13.1288 14.5756 13.1873 14.6883 13.2638L16.18 14.3213C16.2972 14.4023 16.3783 14.4968 16.4279 14.6093C16.473 14.7218 16.5 14.8343 16.5 14.9603Z" fill="white"/>
</svg>
