<svg width="20" height="21" viewBox="0 0 20 21" fill="none" xmlns="http://www.w3.org/2000/svg">
<rect y="0.611328" width="20" height="20" rx="4" fill="#12A858"/>
<path d="M9.16728 4.24422C9.62728 3.85089 10.3806 3.85089 10.8473 4.24422L11.9006 5.15089C12.1006 5.32422 12.4739 5.46422 12.7406 5.46422H13.8739C14.5806 5.46422 15.1606 6.04422 15.1606 6.75089V7.88422C15.1606 8.14422 15.3006 8.52422 15.4739 8.72422L16.3806 9.77755C16.7739 10.2376 16.7739 10.9909 16.3806 11.4576L15.4739 12.5109C15.3006 12.7109 15.1606 13.0842 15.1606 13.3509V14.4842C15.1606 15.1909 14.5806 15.7709 13.8739 15.7709H12.7406C12.4806 15.7709 12.1006 15.9109 11.9006 16.0842L10.8473 16.9909C10.3873 17.3842 9.63395 17.3842 9.16728 16.9909L8.11395 16.0842C7.91395 15.9109 7.54061 15.7709 7.27395 15.7709H6.12061C5.41395 15.7709 4.83395 15.1909 4.83395 14.4842V13.3442C4.83395 13.0842 4.69395 12.7109 4.52728 12.5109L3.62728 11.4509C3.24061 10.9909 3.24061 10.2442 3.62728 9.78422L4.52728 8.72422C4.69395 8.52422 4.83395 8.15089 4.83395 7.89089V6.74422C4.83395 6.03755 5.41395 5.45755 6.12061 5.45755H7.27395C7.53395 5.45755 7.91395 5.31755 8.11395 5.14422L9.16728 4.24422Z" stroke="white" stroke-width="1.5" stroke-linecap="round" stroke-linejoin="round"/>
<path d="M7.58728 10.6114L9.19395 12.2247L12.4139 8.99805" stroke="white" stroke-width="1.5" stroke-linecap="round" stroke-linejoin="round"/>
</svg>
