<svg width="16" height="17" viewBox="0 0 16 17" fill="none" xmlns="http://www.w3.org/2000/svg">
<path d="M1.52667 5.79843V12.2851C1.52667 13.5518 2.42667 14.0718 3.52001 13.4451L5.08667 12.5518C5.42667 12.3584 5.99334 12.3384 6.34667 12.5184L9.84667 14.2718C10.2 14.4451 10.7667 14.4318 11.1067 14.2384L13.9933 12.5851C14.36 12.3718 14.6667 11.8518 14.6667 11.4251V4.93843C14.6667 3.67176 13.7667 3.15176 12.6733 3.77843L11.1067 4.67176C10.7667 4.86509 10.2 4.88509 9.84667 4.70509L6.34667 2.95843C5.99334 2.78509 5.42667 2.79843 5.08667 2.99176L2.20001 4.64509C1.82667 4.85843 1.52667 5.37843 1.52667 5.79843Z" stroke="#292D32" stroke-linecap="round" stroke-linejoin="round"/>
<path d="M5.70667 3.27843V11.9451" stroke="#292D32" stroke-linecap="round" stroke-linejoin="round"/>
<path d="M10.4867 5.02509V13.9451" stroke="#292D32" stroke-linecap="round" stroke-linejoin="round"/>
</svg>
