<svg width="16" height="17" viewBox="0 0 16 17" fill="none" xmlns="http://www.w3.org/2000/svg">
<path d="M14.6667 6.29175V3.26508C14.6667 2.32508 14.24 1.94508 13.18 1.94508H10.4867C9.42667 1.94508 9 2.32508 9 3.26508V6.28508C9 7.23175 9.42667 7.60508 10.4867 7.60508H13.18C14.24 7.61175 14.6667 7.23175 14.6667 6.29175Z" stroke="#2B2928" stroke-linecap="round" stroke-linejoin="round"/>
<path d="M14.6667 13.7918V11.0984C14.6667 10.0384 14.24 9.61176 13.18 9.61176H10.4867C9.42667 9.61176 9 10.0384 9 11.0984V13.7918C9 14.8518 9.42667 15.2784 10.4867 15.2784H13.18C14.24 15.2784 14.6667 14.8518 14.6667 13.7918Z" stroke="#2B2928" stroke-linecap="round" stroke-linejoin="round"/>
<path d="M6.99999 6.29175V3.26508C6.99999 2.32508 6.57333 1.94508 5.51333 1.94508H2.81999C1.75999 1.94508 1.33333 2.32508 1.33333 3.26508V6.28508C1.33333 7.23175 1.75999 7.60508 2.81999 7.60508H5.51333C6.57333 7.61175 6.99999 7.23175 6.99999 6.29175Z" stroke="#2B2928" stroke-linecap="round" stroke-linejoin="round"/>
<path d="M6.99999 13.7918V11.0984C6.99999 10.0384 6.57333 9.61176 5.51333 9.61176H2.81999C1.75999 9.61176 1.33333 10.0384 1.33333 11.0984V13.7918C1.33333 14.8518 1.75999 15.2784 2.81999 15.2784H5.51333C6.57333 15.2784 6.99999 14.8518 6.99999 13.7918Z" stroke="#2B2928" stroke-linecap="round" stroke-linejoin="round"/>
</svg>
