<svg width="32" height="32" viewBox="0 0 32 32" fill="none" xmlns="http://www.w3.org/2000/svg">
<rect width="32" height="32" rx="16" fill="#153E3B"/>
<path fill-rule="evenodd" clip-rule="evenodd" d="M16 23.5C20.1422 23.5 23.5 20.1422 23.5 16C23.5 11.8577 20.1422 8.5 16 8.5C11.8577 8.5 8.5 11.8577 8.5 16C8.5 20.1422 11.8577 23.5 16 23.5ZM17.467 17.5712C17.3222 17.6987 17.137 17.7722 16.768 17.92C15.0355 18.613 14.1692 18.9595 13.675 18.6235C13.5576 18.5437 13.4563 18.4424 13.3765 18.325C13.0405 17.83 13.387 16.9645 14.08 15.232C14.2277 14.8622 14.3012 14.677 14.4287 14.5322C14.4612 14.4957 14.496 14.4612 14.533 14.4287C14.6777 14.3012 14.863 14.2277 15.232 14.08C16.9645 13.387 17.83 13.0405 18.325 13.3765C18.4424 13.4563 18.5437 13.5576 18.6235 13.675C18.9595 14.17 18.613 15.0355 17.92 16.768C17.7722 17.1377 17.6987 17.3222 17.5712 17.467C17.5387 17.5045 17.504 17.5392 17.467 17.5712Z" fill="white"/>
</svg>
