<svg width="32" height="32" viewBox="0 0 32 32" fill="none" xmlns="http://www.w3.org/2000/svg">
<rect width="32" height="32" rx="16" fill="#153E3B"/>
<path d="M8.30817 14.3333C7.94984 14.3333 7.6665 14.05 7.6665 13.6917V11.7667C7.6665 9.50833 9.50817 7.66667 11.7665 7.66667H13.6915C14.0498 7.66667 14.3332 7.95 14.3332 8.30833C14.3332 8.66667 14.0498 8.95 13.6915 8.95H11.7665C10.2082 8.95 8.94984 10.2167 8.94984 11.7667V13.6917C8.94984 14.05 8.65817 14.3333 8.30817 14.3333Z" fill="white"/>
<path d="M23.6915 14.3333C23.3415 14.3333 23.0498 14.05 23.0498 13.6917V11.7667C23.0498 10.2083 21.7832 8.95 20.2332 8.95H18.3082C17.9498 8.95 17.6665 8.65833 17.6665 8.30833C17.6665 7.95833 17.9498 7.66667 18.3082 7.66667H20.2332C22.4915 7.66667 24.3332 9.50833 24.3332 11.7667V13.6917C24.3332 14.05 24.0498 14.3333 23.6915 14.3333Z" fill="white"/>
<path d="M20.2331 24.3333H19.0748C18.7248 24.3333 18.4331 24.05 18.4331 23.6917C18.4331 23.3417 18.7164 23.05 19.0748 23.05H20.2331C21.7914 23.05 23.0498 21.7833 23.0498 20.2333V19.0833C23.0498 18.7333 23.3331 18.4417 23.6914 18.4417C24.0414 18.4417 24.3331 18.725 24.3331 19.0833V20.2333C24.3331 22.4917 22.4914 24.3333 20.2331 24.3333Z" fill="white"/>
<path d="M13.6915 24.3333H11.7665C9.50817 24.3333 7.6665 22.4917 7.6665 20.2333V18.3083C7.6665 17.95 7.94984 17.6667 8.30817 17.6667C8.6665 17.6667 8.94984 17.95 8.94984 18.3083V20.2333C8.94984 21.7917 10.2165 23.05 11.7665 23.05H13.6915C14.0415 23.05 14.3332 23.3333 14.3332 23.6917C14.3332 24.05 14.0498 24.3333 13.6915 24.3333Z" fill="white"/>
<path d="M21.3829 15.3583H20.2496H11.7496H10.6163C10.2579 15.3583 9.97461 15.65 9.97461 16C9.97461 16.35 10.2579 16.6417 10.6163 16.6417H11.7496H20.2496H21.3829C21.7413 16.6417 22.0246 16.35 22.0246 16C22.0246 15.65 21.7413 15.3583 21.3829 15.3583Z" fill="white"/>
<path d="M11.75 17.6167V17.8917C11.75 19.275 12.8667 20.3917 14.25 20.3917H17.75C19.1333 20.3917 20.25 19.275 20.25 17.8917V17.6167C20.25 17.5167 20.175 17.4417 20.075 17.4417H11.925C11.825 17.4417 11.75 17.5167 11.75 17.6167Z" fill="white"/>
<path d="M11.75 14.3833V14.1083C11.75 12.725 12.8667 11.6083 14.25 11.6083H17.75C19.1333 11.6083 20.25 12.725 20.25 14.1083V14.3833C20.25 14.4833 20.175 14.5583 20.075 14.5583H11.925C11.825 14.5583 11.75 14.4833 11.75 14.3833Z" fill="white"/>
</svg>
