<svg width="40" height="40" viewBox="0 0 40 40" fill="none" xmlns="http://www.w3.org/2000/svg">
<rect x="1.28" y="1.28" width="37.44" height="37.44" rx="18.72" fill="#D9AD5E"/>
<rect x="1.28" y="1.28" width="37.44" height="37.44" rx="18.72" stroke="#D9AD5E" stroke-width="1.44"/>
<path d="M28.4 12.23H11.6C11.2556 12.23 10.97 11.9444 10.97 11.6C10.97 11.2556 11.2556 10.97 11.6 10.97H28.4C28.7444 10.97 29.03 11.2556 29.03 11.6C29.03 11.9444 28.7444 12.23 28.4 12.23Z" fill="white"/>
<path d="M23.9228 28.6856C23.8136 28.904 23.5868 29.03 23.36 29.03C23.2676 29.03 23.1668 29.0048 23.0828 28.9628L20 27.4256L16.9172 28.9628C16.8332 29.0048 16.7324 29.03 16.64 29.03C16.4132 29.03 16.1864 28.904 16.0772 28.6856C15.9176 28.3664 16.0436 27.9884 16.3628 27.8372L19.37 26.3336V24.2H20.63V26.3336L23.6372 27.8372C23.9564 27.9884 24.0824 28.3664 23.9228 28.6856Z" fill="white"/>
<path d="M12.44 11.6V21.764C12.44 23.36 13.28 24.2 14.876 24.2H25.124C26.72 24.2 27.56 23.36 27.56 21.764V11.6H12.44ZM24.1832 17.1272L21.5372 19.3364C21.2936 19.538 20.9828 19.622 20.6888 19.5716C20.3864 19.5212 20.126 19.3364 19.9664 19.0676L19.0844 17.5976L16.6232 19.6472C16.5056 19.748 16.3628 19.79 16.22 19.79C16.0436 19.79 15.8588 19.7144 15.7328 19.5632C15.506 19.2944 15.548 18.8996 15.8168 18.6728L18.4628 16.4636C18.7064 16.262 19.0172 16.178 19.3112 16.2284C19.6136 16.2788 19.874 16.4636 20.0336 16.7324L20.9156 18.2024L23.3768 16.1528C23.6456 15.926 24.0404 15.968 24.2672 16.2368C24.4856 16.5056 24.452 16.9004 24.1832 17.1272Z" fill="white"/>
</svg>
