<svg width="36" height="36" viewBox="0 0 36 36" fill="none" xmlns="http://www.w3.org/2000/svg">
<rect width="36" height="36" rx="18" fill="#D9AD5E"/>
<path d="M17.998 8C15.148 8 13.301 10.02 11.116 10.755C10.228 11.055 9.783 11.204 9.604 11.415C9.424 11.625 9.371 11.934 9.266 12.55C8.139 19.146 10.602 25.244 16.475 27.618C17.106 27.873 17.422 28 18.001 28C18.58 28 18.897 27.873 19.528 27.618C25.401 25.244 27.861 19.146 26.734 12.55C26.628 11.934 26.576 11.626 26.396 11.415C26.216 11.204 25.772 11.055 24.884 10.755C22.698 10.02 20.848 8 17.998 8Z" fill="white" stroke="#D9AD5E" stroke-width="1.5" stroke-linecap="round" stroke-linejoin="round"/>
<path d="M17.833 18.167C18.888 19.222 20.278 20.294 20.278 20.294L22.183 18.389C22.183 18.389 21.111 16.999 20.056 15.944C19.001 14.889 17.611 13.817 17.611 13.817L15.706 15.722C15.706 15.722 16.778 17.112 17.833 18.167ZM17.833 18.167L14.5 21.5L17.833 18.167ZM22.5 18.071L19.96 20.611L22.5 18.071ZM17.93 13.5L15.39 16.04L17.93 13.5Z" fill="white"/>
<path d="M17.833 18.167C18.888 19.222 20.278 20.294 20.278 20.294L22.183 18.389C22.183 18.389 21.111 16.999 20.056 15.944C19.001 14.889 17.611 13.817 17.611 13.817L15.706 15.722C15.706 15.722 16.778 17.112 17.833 18.167ZM17.833 18.167L14.5 21.5M22.5 18.071L19.96 20.611M17.93 13.5L15.39 16.04" stroke="#D9AD5E" stroke-width="1.5" stroke-linecap="round" stroke-linejoin="round"/>
</svg>
