<svg width="36" height="36" viewBox="0 0 36 36" fill="none" xmlns="http://www.w3.org/2000/svg">
<rect width="36" height="36" rx="18" fill="#D9AD5E"/>
<path d="M24.7552 13.6497L19.9168 10.2645C18.598 9.34049 16.5736 9.39089 15.3052 10.3737L11.0968 13.6581C10.2568 14.3133 9.5932 15.6573 9.5932 16.7157V22.5117C9.5932 24.6537 11.332 26.4009 13.474 26.4009H22.5292C24.6712 26.4009 26.41 24.6621 26.41 22.5201V16.8249C26.41 15.6909 25.6792 14.2965 24.7552 13.6497ZM22.1008 19.1769C22.1008 19.5045 21.8404 19.7649 21.5128 19.7649C21.1852 19.7649 20.9248 19.5045 20.9248 19.1769V19.0257L18.64 21.3105C18.514 21.4365 18.346 21.4953 18.1696 21.4785C18.0016 21.4617 17.842 21.3609 17.7496 21.2181L16.8928 19.9413L14.8936 21.9405C14.776 22.0581 14.6332 22.1085 14.482 22.1085C14.3308 22.1085 14.1796 22.0497 14.0704 21.9405C13.8436 21.7137 13.8436 21.3441 14.0704 21.1089L16.5736 18.6057C16.6996 18.4797 16.8676 18.4209 17.044 18.4377C17.2204 18.4545 17.38 18.5469 17.4724 18.6981L18.3292 19.9749L20.1016 18.2025H19.9504C19.6228 18.2025 19.3624 17.9421 19.3624 17.6145C19.3624 17.2869 19.6228 17.0265 19.9504 17.0265H21.5128C21.5884 17.0265 21.664 17.0433 21.7396 17.0685C21.8824 17.1273 22 17.2449 22.0588 17.3877C22.0924 17.4633 22.1008 17.5389 22.1008 17.6145V19.1769Z" fill="white"/>
</svg>
