<svg width="32" height="32" viewBox="0 0 32 32" fill="none" xmlns="http://www.w3.org/2000/svg">
<rect width="32" height="32" rx="16" fill="#153E3B"/>
<path d="M9.34984 10.975C8.2915 12.375 7.6665 14.1167 7.6665 16C7.6665 20.6 11.3998 24.3333 15.9998 24.3333C20.5998 24.3333 24.3332 20.6 24.3332 16C24.3332 11.4 20.5998 7.66667 15.9998 7.66667" stroke="white" stroke-width="1.33333" stroke-linecap="round" stroke-linejoin="round"/>
<path d="M10.1665 16C10.1665 19.225 12.7748 21.8333 15.9998 21.8333C19.2248 21.8333 21.8332 19.225 21.8332 16C21.8332 12.775 19.2248 10.1667 15.9998 10.1667" stroke="white" stroke-width="1.33333" stroke-linecap="round" stroke-linejoin="round"/>
<path d="M16 19.3333C17.8417 19.3333 19.3333 17.8417 19.3333 16C19.3333 14.1583 17.8417 12.6667 16 12.6667" stroke="white" stroke-width="1.33333" stroke-linecap="round" stroke-linejoin="round"/>
</svg>
