<svg width="56" height="56" viewBox="0 0 56 56" fill="none" xmlns="http://www.w3.org/2000/svg">
<circle cx="28" cy="28" r="28" fill="#FEE8BD"/>
<path d="M27.9997 39.5755C34.443 39.5755 39.6663 34.3522 39.6663 27.9089C39.6663 21.4655 34.443 16.2422 27.9997 16.2422C21.5564 16.2422 16.333 21.4655 16.333 27.9089C16.333 34.3522 21.5564 39.5755 27.9997 39.5755Z" stroke="#C65800" stroke-width="2" stroke-linecap="round" stroke-linejoin="round"/>
<path d="M31.8872 23.8522H29.1672C29.4339 24.0229 29.6419 24.2202 29.7912 24.4442C29.9405 24.6629 30.0472 24.9029 30.1112 25.1642H31.8872V26.6842H30.1032C29.9805 27.1802 29.7352 27.6202 29.3672 28.0042C28.9992 28.3882 28.5165 28.6869 27.9192 28.9002C28.0845 28.9749 28.2365 29.0735 28.3752 29.1962C28.5192 29.3189 28.6472 29.4655 28.7592 29.6362L31.6552 33.9082H29.7112C29.3485 33.9082 29.0819 33.7642 28.9112 33.4762L26.4792 29.7722C26.3885 29.6335 26.2872 29.5349 26.1752 29.4762C26.0685 29.4175 25.9085 29.3882 25.6952 29.3882H24.1912V27.9322H25.7752C26.3832 27.9322 26.8685 27.8175 27.2312 27.5882C27.5992 27.3589 27.8579 27.0575 28.0072 26.6842H24.1832V25.1642H28.0552C27.9272 24.7749 27.6765 24.4709 27.3032 24.2522C26.9352 24.0282 26.4365 23.9162 25.8072 23.9162H24.1912V22.3402H31.8872V23.8522Z" fill="#C65800"/>
</svg>
