<svg width="56" height="56" viewBox="0 0 56 56" fill="none" xmlns="http://www.w3.org/2000/svg">
<circle cx="28" cy="28" r="28" fill="#FEE8BD"/>
<g clip-path="url(#clip0_1450_10026)">
<rect width="28" height="28" transform="translate(14 13.9082)" fill="#FEE8BD"/>
<path d="M37.5 37.2418V37.2415V20.9082C37.5 20.2452 37.2366 19.6093 36.7678 19.1404C36.2989 18.6716 35.663 18.4082 35 18.4082H20.4167C19.9083 18.4082 19.4208 18.6101 19.0614 18.9696C18.7019 19.329 18.5 19.8165 18.5 20.3249V29.0749C18.5 29.1191 18.5176 29.1615 18.5488 29.1927C18.5801 29.224 18.6225 29.2415 18.6667 29.2415H21H22V30.2415V37.2415V37.2418C22 37.2715 22.0079 37.3006 22.0229 37.3262C22.0379 37.3518 22.0595 37.3729 22.0853 37.3873C22.1112 37.4018 22.1405 37.4091 22.1701 37.4085C22.1997 37.4079 22.2286 37.3994 22.2538 37.3839C22.2538 37.3839 22.2538 37.3839 22.2538 37.3839C22.2539 37.3839 22.2539 37.3839 22.254 37.3838L25.4341 35.4263L25.9583 35.1036L26.4825 35.4263L29.6627 37.3838L37.5 37.2418ZM37.5 37.2418C37.5 37.2715 37.4921 37.3006 37.4771 37.3262M37.5 37.2418L37.4771 37.3262M33.5417 35.1036L34.0659 35.4263L37.246 37.3838L33.5417 35.1036ZM33.5417 35.1036L33.0175 35.4263M33.5417 35.1036L33.0175 35.4263M33.0175 35.4263L29.8373 37.3838M33.0175 35.4263L29.8373 37.3838M22.3333 36.9426V35.1532V20.3249C22.3333 20.1919 22.3201 20.064 22.2951 19.9411L22.0508 18.7415H23.275H35C35.5746 18.7415 36.1257 18.9698 36.5321 19.3761C36.9384 19.7825 37.1667 20.3336 37.1667 20.9082V35.1532V36.9426L35.6426 36.0049L33.629 34.7659C33.629 34.7659 33.629 34.7659 33.629 34.7659C33.6027 34.7498 33.5725 34.7412 33.5417 34.7412C33.5109 34.7412 33.4808 34.7497 33.4545 34.7658L22.3333 36.9426ZM22.3333 36.9426L23.8574 36.0049M22.3333 36.9426L23.8574 36.0049M23.8574 36.0049L25.871 34.7659M23.8574 36.0049L25.871 34.7659M37.4771 37.3262C37.4621 37.3518 37.4405 37.3729 37.4147 37.3873M37.4771 37.3262L37.4147 37.3873M37.4147 37.3873C37.3888 37.4018 37.3595 37.4091 37.3299 37.4085M37.4147 37.3873L37.3299 37.4085M37.3299 37.4085C37.3003 37.4079 37.2714 37.3994 37.2462 37.3839L37.3299 37.4085ZM29.8373 37.3838C29.8111 37.4 29.7808 37.4085 29.75 37.4085C29.7192 37.4085 29.6891 37.4 29.6629 37.3839L29.8373 37.3838ZM25.871 34.7659C25.871 34.7659 25.871 34.7659 25.871 34.7659M25.871 34.7659L25.871 34.7659M25.871 34.7659C25.8973 34.7498 25.9275 34.7412 25.9583 34.7412M25.871 34.7659L25.9583 34.7412M25.9583 34.7412C25.9891 34.7412 26.0192 34.7497 26.0455 34.7658L25.9583 34.7412ZM30.2742 36.7235L33.4543 34.7659H26.0457L29.2258 36.7235L29.75 37.0461L30.2742 36.7235ZM18.8333 27.9082V28.9082H19.8333H21H22V27.9082V20.3249C22 19.9049 21.8332 19.5022 21.5363 19.2053C21.2393 18.9084 20.8366 18.7415 20.4167 18.7415C19.9967 18.7415 19.594 18.9084 19.2971 19.2053C19.0001 19.5022 18.8333 19.9049 18.8333 20.3249V27.9082ZM26.6667 24.4082C26.6667 24.364 26.6842 24.3216 26.7155 24.2904C26.7467 24.2591 26.7891 24.2415 26.8333 24.2415H32.6667C32.7109 24.2415 32.7533 24.2591 32.7845 24.2904C32.8158 24.3216 32.8333 24.364 32.8333 24.4082C32.8333 24.4524 32.8158 24.4948 32.7845 24.5261C32.7533 24.5573 32.7109 24.5749 32.6667 24.5749H26.8333C26.7891 24.5749 26.7467 24.5573 26.7155 24.5261C26.6842 24.4948 26.6667 24.4524 26.6667 24.4082ZM26.6667 29.0749C26.6667 29.0307 26.6842 28.9883 26.7155 28.957C26.7467 28.9258 26.7891 28.9082 26.8333 28.9082H31.5C31.5442 28.9082 31.5866 28.9258 31.6179 28.957C31.6491 28.9883 31.6667 29.0307 31.6667 29.0749C31.6667 29.1191 31.6491 29.1615 31.6179 29.1927C31.5866 29.224 31.5442 29.2415 31.5 29.2415H26.8333C26.7891 29.2415 26.7467 29.224 26.7155 29.1927C26.6842 29.1615 26.6667 29.1191 26.6667 29.0749Z" fill="black" stroke="#C65800" stroke-width="2"/>
</g>
<defs>
<clipPath id="clip0_1450_10026">
<rect width="28" height="28" fill="white" transform="translate(14 13.9082)"/>
</clipPath>
</defs>
</svg>
