<svg width="56" height="56" viewBox="0 0 56 56" fill="none" xmlns="http://www.w3.org/2000/svg">
<circle cx="28" cy="28" r="28" fill="#FEE8BD"/>
<rect width="28" height="28" transform="translate(14 13.9082)" fill="#FEE8BD"/>
<path d="M36.5217 23.0415V29.0499C36.5217 32.6432 34.4683 34.1831 31.3883 34.1831H21.1333C20.6083 34.1831 20.1067 34.1365 19.64 34.0315C19.3483 33.9849 19.0683 33.9032 18.8117 33.8099C17.0617 33.1565 16 31.6399 16 29.0499V23.0415C16 19.4482 18.0533 17.9082 21.1333 17.9082H31.3883C34.0017 17.9082 35.88 19.0165 36.3817 21.5482C36.4633 22.0149 36.5217 22.4932 36.5217 23.0415Z" stroke="#C65800" stroke-width="2" stroke-miterlimit="10" stroke-linecap="round" stroke-linejoin="round"/>
<path d="M28.778 23.0422H26.738C26.938 23.1702 27.094 23.3182 27.206 23.4862C27.318 23.6502 27.398 23.8302 27.446 24.0262H28.778V25.1662H27.44C27.348 25.5382 27.164 25.8682 26.888 26.1562C26.612 26.4442 26.25 26.6682 25.802 26.8282C25.926 26.8842 26.04 26.9582 26.144 27.0502C26.252 27.1422 26.348 27.2522 26.432 27.3802L28.604 30.5842H27.146C26.874 30.5842 26.674 30.4762 26.546 30.2602L24.722 27.4822C24.654 27.3782 24.578 27.3042 24.494 27.2602C24.414 27.2162 24.294 27.1942 24.134 27.1942H23.006V26.1022H24.194C24.65 26.1022 25.014 26.0162 25.286 25.8442C25.562 25.6722 25.756 25.4462 25.868 25.1662H23V24.0262H25.904C25.808 23.7342 25.62 23.5062 25.34 23.3422C25.064 23.1742 24.69 23.0902 24.218 23.0902H23.006V21.9082H28.778V23.0422Z" fill="#C65800"/>
<path d="M40.0184 26.6476V32.656C40.0184 36.2493 37.9651 37.7892 34.8851 37.7892H24.6301C23.7667 37.7892 22.9851 37.6726 22.3084 37.416C20.9201 36.9026 19.9751 35.841 19.6367 34.1376C20.1034 34.2426 20.6051 34.2892 21.1301 34.2892H31.3851C34.4651 34.2892 36.5184 32.7493 36.5184 29.156V23.1476C36.5184 22.5993 36.4717 22.1093 36.3784 21.6543C38.5951 22.121 40.0184 23.6843 40.0184 26.6476Z" stroke="#C65800" stroke-width="2" stroke-miterlimit="10" stroke-linecap="round" stroke-linejoin="round"/>
</svg>
