<svg width="56" height="56" viewBox="0 0 56 56" fill="none" xmlns="http://www.w3.org/2000/svg">
<circle cx="28" cy="28" r="28" fill="#FEE8BD"/>
<path d="M23.998 31.7237L31.628 24.0938" stroke="#C65800" stroke-width="2" stroke-linecap="round" stroke-linejoin="round"/>
<path d="M24.477 26.0067C25.2695 26.0067 25.912 25.3643 25.912 24.5717C25.912 23.7792 25.2695 23.1367 24.477 23.1367C23.6845 23.1367 23.042 23.7792 23.042 24.5717C23.042 25.3643 23.6845 26.0067 24.477 26.0067Z" stroke="#C65800" stroke-width="2" stroke-linecap="round" stroke-linejoin="round"/>
<path d="M32.1069 32.6805C32.8994 32.6805 33.5419 32.0381 33.5419 31.2455C33.5419 30.453 32.8994 29.8105 32.1069 29.8105C31.3143 29.8105 30.6719 30.453 30.6719 31.2455C30.6719 32.0381 31.3143 32.6805 32.1069 32.6805Z" stroke="#C65800" stroke-width="2" stroke-linecap="round" stroke-linejoin="round"/>
<path d="M27.9997 39.5755C34.443 39.5755 39.6663 34.3522 39.6663 27.9089C39.6663 21.4655 34.443 16.2422 27.9997 16.2422C21.5564 16.2422 16.333 21.4655 16.333 27.9089C16.333 34.3522 21.5564 39.5755 27.9997 39.5755Z" stroke="#C65800" stroke-width="2" stroke-linecap="round" stroke-linejoin="round"/>
</svg>
