<svg width="18" height="17" viewBox="0 0 18 17" fill="none" xmlns="http://www.w3.org/2000/svg">
<g id="Group 1000007370">
<path id="Subtract" fill-rule="evenodd" clip-rule="evenodd" d="M15.3058 9.34966C15.1656 9.75789 14.987 10.1475 14.7741 10.515L16.6833 12.4242L16.6833 12.4242L16.6872 12.428C16.8004 12.5391 16.7544 12.7638 16.5694 12.8077L16.5693 12.8077L15.1946 13.1327L15.1945 13.1326L15.1907 13.1336C14.6777 13.2584 14.2518 13.654 14.131 14.1995L13.8405 15.4193L13.8405 15.4196C13.7968 15.6035 13.5598 15.6639 13.4334 15.5137L13.4334 15.5136L13.4268 15.506L11.5333 13.3306C11.1295 13.495 10.7059 13.6207 10.2666 13.7032L12.5188 16.2905C13.2767 17.1848 14.7352 16.8445 15.0079 15.6972L15.0079 15.6972L15.008 15.6969L15.2996 14.4722L15.2997 14.4723L15.3023 14.4601C15.3169 14.3928 15.3724 14.3249 15.473 14.2999L15.4744 14.2996L16.8456 13.9755L16.8458 13.9754C17.9264 13.7195 18.3306 12.3632 17.5301 11.574L17.5279 11.5718L15.3058 9.34966ZM7.73472 13.7034C7.29559 13.6211 6.87204 13.4955 6.46839 13.3313L4.5713 15.5147L4.57125 15.5147L4.56509 15.522C4.4387 15.6722 4.20167 15.6118 4.15799 15.4279L4.15791 15.4276L3.86624 14.2026L3.86625 14.2026L3.86556 14.1998C3.73911 13.6799 3.33063 13.2598 2.80051 13.1402L1.42917 12.8161L1.42904 12.816C1.25068 12.7737 1.19059 12.5487 1.31516 12.4242L3.22528 10.514C3.01246 10.1465 2.83386 9.75682 2.69374 9.34854L0.466631 11.5756L0.890895 11.9999L0.466631 11.5756C-0.325431 12.3677 0.0644077 13.726 1.15261 13.9838L1.15288 13.9838L2.52788 14.3088L2.52787 14.3089L2.53574 14.3106C2.60322 14.3256 2.67586 14.3876 2.69932 14.4824L2.69956 14.4834L2.99047 15.7052L2.99053 15.7055L2.99054 15.7055C3.26332 16.853 4.72203 17.1931 5.47989 16.2986L7.73472 13.7034Z" fill="#2B2928"/>
<path id="Vector" d="M15.6666 7.16667C15.6666 8.54762 15.2571 9.8143 14.5524 10.8714C13.5238 12.3953 11.8952 13.4714 9.99998 13.7476C9.67617 13.8048 9.34284 13.8333 8.99998 13.8333C8.65712 13.8333 8.32379 13.8048 7.99998 13.7476C6.10474 13.4714 4.47617 12.3953 3.4476 10.8714C2.74284 9.8143 2.33331 8.54762 2.33331 7.16667C2.33331 3.48095 5.31427 0.5 8.99998 0.5C12.6857 0.5 15.6666 3.48095 15.6666 7.16667Z" stroke="#2B2928" stroke-linecap="round" stroke-linejoin="round"/>
<path id="Vector_2" d="M9.48327 4.65L9.97494 5.63333C10.0416 5.76666 10.2166 5.9 10.3749 5.925L11.2666 6.07499C11.8333 6.16666 11.9666 6.58333 11.5583 6.99166L10.8666 7.68332C10.7499 7.79999 10.6833 8.025 10.7249 8.19167L10.9249 9.05C11.0833 9.725 10.7249 9.99165 10.1249 9.63332L9.2916 9.14165C9.1416 9.04999 8.8916 9.04999 8.7416 9.14165L7.90827 9.63332C7.30827 9.98332 6.94994 9.725 7.10827 9.05L7.30827 8.19167C7.3416 8.03333 7.28327 7.79999 7.1666 7.68332L6.47494 6.99166C6.0666 6.58333 6.19994 6.17499 6.7666 6.07499L7.65827 5.925C7.80827 5.9 7.98327 5.76666 8.04994 5.63333L8.5416 4.65C8.78327 4.11667 9.2166 4.11667 9.48327 4.65Z" stroke="#2B2928" stroke-linecap="round" stroke-linejoin="round"/>
</g>
</svg>
