<svg width="24" height="25" viewBox="0 0 24 25" fill="none" xmlns="http://www.w3.org/2000/svg">
<path fill-rule="evenodd" clip-rule="evenodd" d="M19.5321 14.2191C19.3807 14.6415 19.1949 15.0469 18.9778 15.4325L21.2872 17.7418L21.2871 17.7419L21.2912 17.7459C21.4817 17.9329 21.3982 18.2923 21.1051 18.3617L19.4553 18.7517L19.4514 18.7526C18.8681 18.8945 18.3862 19.3436 18.2498 19.9607L17.9011 21.4252L17.901 21.4255C17.8304 21.7226 17.449 21.8172 17.2474 21.5776L17.2474 21.5775L17.2405 21.5696L14.9465 18.9341C14.5235 19.1001 14.0828 19.2308 13.6277 19.3228L16.2946 22.3867C17.154 23.4015 18.8082 23.0153 19.1172 21.7143L19.4671 20.2447L19.4672 20.2447L19.47 20.232C19.4957 20.1132 19.5917 20.0055 19.7453 19.9676L19.7468 19.9672L21.3929 19.5782L21.3931 19.5781C22.619 19.2878 23.0757 17.7496 22.1693 16.8563L22.167 16.8539L19.5321 14.2191ZM10.374 19.3232C9.91907 19.2313 9.47843 19.1007 9.05552 18.9349L6.7573 21.58L6.75724 21.5799L6.75083 21.5876C6.54924 21.8272 6.16775 21.7326 6.09718 21.4355L6.0971 21.4351L5.7471 19.9651L5.74711 19.9651L5.74639 19.9622C5.6028 19.3718 5.13902 18.896 4.53928 18.7608L2.89314 18.3717C2.60697 18.304 2.50867 17.9442 2.71104 17.7418L5.02154 15.4313C4.80454 15.0457 4.61872 14.6402 4.46739 14.2177L1.82716 16.858C0.929523 17.7556 1.37123 19.2959 2.60506 19.5881L2.60534 19.5882L4.25534 19.9781L4.25533 19.9782L4.26352 19.98C4.38125 20.0062 4.49519 20.1089 4.53153 20.2565L4.53109 20.2547L5.1391 20.1099L4.53181 20.2576L4.88101 21.7243L4.88109 21.7247L5.4891 21.5799L4.88101 21.7243C5.19002 23.0254 6.84438 23.4116 7.70381 22.3965L10.374 19.3232Z" fill="#FAFAFA"/>
<path d="M20 11.5C20 13.1571 19.5086 14.6772 18.6629 15.9457C17.4286 17.7743 15.4743 19.0657 13.2 19.3971C12.8114 19.4657 12.4114 19.5 12 19.5C11.5886 19.5 11.1886 19.4657 10.8 19.3971C8.52571 19.0657 6.57143 17.7743 5.33714 15.9457C4.49143 14.6772 4 13.1571 4 11.5C4 7.07714 7.57714 3.5 12 3.5C16.4229 3.5 20 7.07714 20 11.5Z" stroke="#FAFAFA" stroke-width="1.25" stroke-linecap="round" stroke-linejoin="round"/>
<path d="M12.58 8.48L13.17 9.65999C13.25 9.81999 13.46 9.98 13.65 10.01L14.72 10.19C15.4 10.3 15.56 10.8 15.07 11.29L14.24 12.12C14.1 12.26 14.02 12.53 14.07 12.73L14.31 13.76C14.5 14.57 14.07 14.89 13.35 14.46L12.35 13.87C12.17 13.76 11.87 13.76 11.69 13.87L10.69 14.46C9.96997 14.88 9.53997 14.57 9.72997 13.76L9.96997 12.73C10.01 12.54 9.93997 12.26 9.79997 12.12L8.96997 11.29C8.47997 10.8 8.63997 10.31 9.31997 10.19L10.39 10.01C10.57 9.98 10.78 9.81999 10.86 9.65999L11.45 8.48C11.74 7.84 12.26 7.84 12.58 8.48Z" stroke="#FAFAFA" stroke-width="1.25" stroke-linecap="round" stroke-linejoin="round"/>
</svg>
