<svg width="65" height="26" viewBox="0 0 65 26" fill="none" xmlns="http://www.w3.org/2000/svg">
<rect x="0.5" y="0.5" width="64" height="25" rx="3.5" fill="#FAFAFA"/>
<rect x="0.5" y="0.5" width="64" height="25" rx="3.5" stroke="#CCCBCB"/>
<path d="M8.75 13.75L12.25 17.25L19.25 9.75" stroke="#0E8345" stroke-width="1.5" stroke-linecap="round" stroke-linejoin="round"/>
<path d="M31.881 13.536C32.209 13.536 32.497 13.496 32.745 13.416C32.997 13.336 33.207 13.224 33.375 13.08C33.543 12.932 33.669 12.758 33.753 12.558C33.837 12.354 33.879 12.13 33.879 11.886C33.879 11.39 33.715 11.016 33.387 10.764C33.063 10.512 32.575 10.386 31.923 10.386H30.717V13.536H31.881ZM35.901 18H34.761C34.533 18 34.367 17.91 34.263 17.73L32.133 14.742C32.065 14.642 31.991 14.572 31.911 14.532C31.831 14.488 31.711 14.466 31.551 14.466H30.717V18H29.439V9.384H31.923C32.479 9.384 32.957 9.442 33.357 9.558C33.761 9.67 34.093 9.832 34.353 10.044C34.617 10.252 34.811 10.504 34.935 10.8C35.063 11.096 35.127 11.428 35.127 11.796C35.127 12.096 35.081 12.378 34.989 12.642C34.897 12.906 34.761 13.144 34.581 13.356C34.405 13.564 34.189 13.744 33.933 13.896C33.677 14.048 33.387 14.164 33.063 14.244C33.223 14.34 33.361 14.474 33.477 14.646L35.901 18ZM42.3553 16.962L42.3493 18H37.0093V9.384H42.3493V10.422H38.2933V13.152H41.5573V14.154H38.2933V16.962H42.3553ZM46.377 13.536C46.705 13.536 46.993 13.496 47.241 13.416C47.493 13.336 47.703 13.224 47.871 13.08C48.039 12.932 48.165 12.758 48.249 12.558C48.333 12.354 48.375 12.13 48.375 11.886C48.375 11.39 48.211 11.016 47.883 10.764C47.559 10.512 47.071 10.386 46.419 10.386H45.213V13.536H46.377ZM50.397 18H49.257C49.029 18 48.863 17.91 48.759 17.73L46.629 14.742C46.561 14.642 46.487 14.572 46.407 14.532C46.327 14.488 46.207 14.466 46.047 14.466H45.213V18H43.935V9.384H46.419C46.975 9.384 47.453 9.442 47.853 9.558C48.257 9.67 48.589 9.832 48.849 10.044C49.113 10.252 49.307 10.504 49.431 10.8C49.559 11.096 49.623 11.428 49.623 11.796C49.623 12.096 49.577 12.378 49.485 12.642C49.393 12.906 49.257 13.144 49.077 13.356C48.901 13.564 48.685 13.744 48.429 13.896C48.173 14.048 47.883 14.164 47.559 14.244C47.719 14.34 47.857 14.474 47.973 14.646L50.397 18ZM56.0834 14.79L54.8054 11.448C54.7134 11.22 54.6214 10.932 54.5294 10.584C54.4854 10.756 54.4394 10.916 54.3914 11.064C54.3474 11.212 54.3034 11.344 54.2594 11.46L52.9874 14.79H56.0834ZM58.6094 18H57.6254C57.5134 18 57.4214 17.972 57.3494 17.916C57.2774 17.86 57.2254 17.788 57.1934 17.7L56.4314 15.702H52.6334L51.8714 17.7C51.8434 17.776 51.7914 17.846 51.7154 17.91C51.6394 17.97 51.5474 18 51.4394 18H50.4554L53.8874 9.384H55.1774L58.6094 18Z" fill="#252626"/>
</svg>
