<svg width="81" height="26" viewBox="0 0 81 26" fill="none" xmlns="http://www.w3.org/2000/svg">
<rect x="0.5" width="80" height="26" rx="4" fill="#205E59"/>
<rect x="4.5" y="4" width="18" height="17.9997" rx="2" fill="white"/>
<path d="M18.214 9.93427V12.0637L13.4935 9.55811H13.4927L8.7854 12.0573V9.92715L13.4927 7.42871L18.214 9.93427Z" fill="#22514D"/>
<path d="M18.214 13.8264V16.7273H16.2075V14.8907L16.1943 14.8836L14.5025 13.9859V18.571H12.4968V13.9788L10.7911 14.8836V16.7273H8.7854V13.8192L10.7911 12.7542L13.4919 11.3208L13.4997 11.3244L16.2075 12.7613L18.214 13.8264Z" fill="#22514D"/>
<path opacity="0.4" d="M18.2137 9.9369V12.0716L13.4998 9.56338V7.42871L18.2137 9.9369Z" fill="#252626"/>
<path opacity="0.4" d="M18.2148 13.8262V16.7272H16.2083V14.8906L16.1951 14.8834L14.5033 13.9858V18.5709H13.5005V11.3242L16.2083 12.7612L18.2148 13.8262Z" fill="#252626"/>
<path d="M34.4145 10.788C34.3745 10.856 34.3325 10.906 34.2885 10.938C34.2445 10.97 34.1885 10.986 34.1205 10.986C34.0485 10.986 33.9665 10.954 33.8745 10.89C33.7825 10.822 33.6665 10.748 33.5265 10.668C33.3905 10.584 33.2265 10.51 33.0345 10.446C32.8425 10.378 32.6125 10.344 32.3445 10.344C32.0925 10.344 31.8705 10.378 31.6785 10.446C31.4905 10.51 31.3325 10.6 31.2045 10.716C31.0765 10.828 30.9785 10.962 30.9105 11.118C30.8465 11.27 30.8145 11.436 30.8145 11.616C30.8145 11.848 30.8725 12.04 30.9885 12.192C31.1085 12.344 31.2645 12.474 31.4565 12.582C31.6485 12.69 31.8665 12.784 32.1105 12.864C32.3545 12.944 32.6045 13.028 32.8605 13.116C33.1165 13.2 33.3665 13.298 33.6105 13.41C33.8545 13.522 34.0725 13.664 34.2645 13.836C34.4565 14.004 34.6105 14.212 34.7265 14.46C34.8465 14.704 34.9065 15.004 34.9065 15.36C34.9065 15.74 34.8405 16.096 34.7085 16.428C34.5805 16.76 34.3925 17.05 34.1445 17.298C33.8965 17.546 33.5905 17.742 33.2265 17.886C32.8665 18.026 32.4565 18.096 31.9965 18.096C31.7205 18.096 31.4525 18.068 31.1925 18.012C30.9325 17.96 30.6865 17.886 30.4545 17.79C30.2225 17.69 30.0045 17.572 29.8005 17.436C29.6005 17.296 29.4205 17.14 29.2605 16.968L29.6265 16.356C29.6625 16.308 29.7045 16.268 29.7525 16.236C29.8045 16.204 29.8625 16.188 29.9265 16.188C30.0105 16.188 30.1065 16.232 30.2145 16.32C30.3265 16.408 30.4625 16.506 30.6225 16.614C30.7865 16.718 30.9805 16.814 31.2045 16.902C31.4325 16.99 31.7085 17.034 32.0325 17.034C32.2965 17.034 32.5325 17 32.7405 16.932C32.9485 16.86 33.1225 16.76 33.2625 16.632C33.4065 16.5 33.5165 16.342 33.5925 16.158C33.6685 15.974 33.7065 15.77 33.7065 15.546C33.7065 15.294 33.6485 15.088 33.5325 14.928C33.4165 14.768 33.2625 14.634 33.0705 14.526C32.8785 14.418 32.6605 14.326 32.4165 14.25C32.1725 14.174 31.9225 14.096 31.6665 14.016C31.4105 13.932 31.1605 13.836 30.9165 13.728C30.6725 13.62 30.4545 13.48 30.2625 13.308C30.0705 13.132 29.9165 12.914 29.8005 12.654C29.6845 12.39 29.6265 12.066 29.6265 11.682C29.6265 11.374 29.6865 11.076 29.8065 10.788C29.9265 10.5 30.1005 10.246 30.3285 10.026C30.5605 9.802 30.8445 9.624 31.1805 9.492C31.5165 9.356 31.9005 9.288 32.3325 9.288C32.8165 9.288 33.2605 9.366 33.6645 9.522C34.0725 9.674 34.4265 9.894 34.7265 10.182L34.4145 10.788ZM40.2467 14.274C40.2467 14.042 40.2127 13.828 40.1447 13.632C40.0807 13.436 39.9847 13.266 39.8567 13.122C39.7287 12.978 39.5727 12.866 39.3887 12.786C39.2047 12.706 38.9927 12.666 38.7527 12.666C38.2607 12.666 37.8727 12.808 37.5887 13.092C37.3087 13.376 37.1307 13.77 37.0547 14.274H40.2467ZM41.2127 17.13C41.0687 17.298 40.9027 17.444 40.7147 17.568C40.5267 17.688 40.3267 17.786 40.1147 17.862C39.9027 17.938 39.6827 17.994 39.4547 18.03C39.2307 18.066 39.0087 18.084 38.7887 18.084C38.3687 18.084 37.9787 18.014 37.6187 17.874C37.2627 17.73 36.9527 17.522 36.6887 17.25C36.4287 16.974 36.2247 16.634 36.0767 16.23C35.9327 15.822 35.8607 15.354 35.8607 14.826C35.8607 14.402 35.9267 14.008 36.0587 13.644C36.1907 13.276 36.3787 12.956 36.6227 12.684C36.8707 12.412 37.1727 12.198 37.5287 12.042C37.8847 11.886 38.2847 11.808 38.7287 11.808C39.1007 11.808 39.4427 11.87 39.7547 11.994C40.0707 12.114 40.3427 12.29 40.5707 12.522C40.7987 12.754 40.9767 13.04 41.1047 13.38C41.2367 13.72 41.3027 14.108 41.3027 14.544C41.3027 14.724 41.2827 14.846 41.2427 14.91C41.2027 14.97 41.1287 15 41.0207 15H37.0247C37.0367 15.364 37.0887 15.682 37.1807 15.954C37.2727 16.222 37.3987 16.446 37.5587 16.626C37.7227 16.806 37.9167 16.94 38.1407 17.028C38.3647 17.116 38.6147 17.16 38.8907 17.16C39.1507 17.16 39.3747 17.13 39.5627 17.07C39.7547 17.01 39.9187 16.946 40.0547 16.878C40.1947 16.806 40.3107 16.74 40.4027 16.68C40.4987 16.62 40.5827 16.59 40.6547 16.59C40.7507 16.59 40.8247 16.626 40.8767 16.698L41.2127 17.13ZM43.7603 9.144V18H42.5843V9.144H43.7603ZM49.4694 14.274C49.4694 14.042 49.4354 13.828 49.3674 13.632C49.3034 13.436 49.2074 13.266 49.0794 13.122C48.9514 12.978 48.7954 12.866 48.6114 12.786C48.4274 12.706 48.2154 12.666 47.9754 12.666C47.4834 12.666 47.0954 12.808 46.8114 13.092C46.5314 13.376 46.3534 13.77 46.2774 14.274H49.4694ZM50.4354 17.13C50.2914 17.298 50.1254 17.444 49.9374 17.568C49.7494 17.688 49.5494 17.786 49.3374 17.862C49.1254 17.938 48.9054 17.994 48.6774 18.03C48.4534 18.066 48.2314 18.084 48.0114 18.084C47.5914 18.084 47.2014 18.014 46.8414 17.874C46.4854 17.73 46.1754 17.522 45.9114 17.25C45.6514 16.974 45.4474 16.634 45.2994 16.23C45.1554 15.822 45.0834 15.354 45.0834 14.826C45.0834 14.402 45.1494 14.008 45.2814 13.644C45.4134 13.276 45.6014 12.956 45.8454 12.684C46.0934 12.412 46.3954 12.198 46.7514 12.042C47.1074 11.886 47.5074 11.808 47.9514 11.808C48.3234 11.808 48.6654 11.87 48.9774 11.994C49.2934 12.114 49.5654 12.29 49.7934 12.522C50.0214 12.754 50.1994 13.04 50.3274 13.38C50.4594 13.72 50.5254 14.108 50.5254 14.544C50.5254 14.724 50.5054 14.846 50.4654 14.91C50.4254 14.97 50.3514 15 50.2434 15H46.2474C46.2594 15.364 46.3114 15.682 46.4034 15.954C46.4954 16.222 46.6214 16.446 46.7814 16.626C46.9454 16.806 47.1394 16.94 47.3634 17.028C47.5874 17.116 47.8374 17.16 48.1134 17.16C48.3734 17.16 48.5974 17.13 48.7854 17.07C48.9774 17.01 49.1414 16.946 49.2774 16.878C49.4174 16.806 49.5334 16.74 49.6254 16.68C49.7214 16.62 49.8054 16.59 49.8774 16.59C49.9734 16.59 50.0474 16.626 50.0994 16.698L50.4354 17.13ZM56.0549 13.044C56.0189 13.088 55.9829 13.124 55.9469 13.152C55.9149 13.176 55.8669 13.188 55.8029 13.188C55.7389 13.188 55.6709 13.164 55.5989 13.116C55.5309 13.064 55.4429 13.01 55.3349 12.954C55.2309 12.894 55.1029 12.84 54.9509 12.792C54.8029 12.74 54.6189 12.714 54.3989 12.714C54.1109 12.714 53.8569 12.766 53.6369 12.87C53.4169 12.974 53.2329 13.122 53.0849 13.314C52.9409 13.506 52.8309 13.74 52.7549 14.016C52.6789 14.292 52.6409 14.602 52.6409 14.946C52.6409 15.302 52.6809 15.62 52.7609 15.9C52.8409 16.176 52.9549 16.41 53.1029 16.602C53.2509 16.79 53.4309 16.934 53.6429 17.034C53.8549 17.13 54.0909 17.178 54.3509 17.178C54.6029 17.178 54.8109 17.148 54.9749 17.088C55.1389 17.024 55.2749 16.956 55.3829 16.884C55.4909 16.812 55.5809 16.746 55.6529 16.686C55.7249 16.622 55.7989 16.59 55.8749 16.59C55.9709 16.59 56.0449 16.626 56.0969 16.698L56.4329 17.13C56.2929 17.302 56.1349 17.448 55.9589 17.568C55.7869 17.688 55.6029 17.786 55.4069 17.862C55.2109 17.938 55.0049 17.994 54.7889 18.03C54.5769 18.066 54.3609 18.084 54.1409 18.084C53.7609 18.084 53.4049 18.014 53.0729 17.874C52.7449 17.734 52.4589 17.53 52.2149 17.262C51.9749 16.994 51.7849 16.666 51.6449 16.278C51.5049 15.886 51.4349 15.442 51.4349 14.946C51.4349 14.494 51.4969 14.076 51.6209 13.692C51.7489 13.308 51.9349 12.978 52.1789 12.702C52.4269 12.422 52.7309 12.204 53.0909 12.048C53.4509 11.888 53.8629 11.808 54.3269 11.808C54.7629 11.808 55.1469 11.878 55.4789 12.018C55.8109 12.158 56.1069 12.356 56.3669 12.612L56.0549 13.044ZM59.4331 18.096C58.9411 18.096 58.5611 17.958 58.2931 17.682C58.0291 17.406 57.8971 17.012 57.8971 16.5V12.852H57.1891C57.1211 12.852 57.0631 12.832 57.0151 12.792C56.9711 12.748 56.9491 12.684 56.9491 12.6V12.126L57.9391 11.988L58.2031 10.17C58.2191 10.102 58.2491 10.05 58.2931 10.014C58.3411 9.974 58.4011 9.954 58.4731 9.954H59.0671V12H60.7951V12.852H59.0671V16.422C59.0671 16.662 59.1251 16.842 59.2411 16.962C59.3611 17.078 59.5131 17.136 59.6971 17.136C59.8051 17.136 59.8971 17.122 59.9731 17.094C60.0531 17.066 60.1211 17.036 60.1771 17.004C60.2331 16.968 60.2811 16.936 60.3211 16.908C60.3611 16.88 60.3971 16.866 60.4291 16.866C60.4691 16.866 60.4991 16.876 60.5191 16.896C60.5431 16.912 60.5671 16.94 60.5911 16.98L60.9391 17.544C60.7471 17.72 60.5191 17.856 60.2551 17.952C59.9911 18.048 59.7171 18.096 59.4331 18.096ZM65.8756 14.274C65.8756 14.042 65.8416 13.828 65.7736 13.632C65.7096 13.436 65.6136 13.266 65.4856 13.122C65.3576 12.978 65.2016 12.866 65.0176 12.786C64.8336 12.706 64.6216 12.666 64.3816 12.666C63.8896 12.666 63.5016 12.808 63.2176 13.092C62.9376 13.376 62.7596 13.77 62.6836 14.274H65.8756ZM66.8416 17.13C66.6976 17.298 66.5316 17.444 66.3436 17.568C66.1556 17.688 65.9556 17.786 65.7436 17.862C65.5316 17.938 65.3116 17.994 65.0836 18.03C64.8596 18.066 64.6376 18.084 64.4176 18.084C63.9976 18.084 63.6076 18.014 63.2476 17.874C62.8916 17.73 62.5816 17.522 62.3176 17.25C62.0576 16.974 61.8536 16.634 61.7056 16.23C61.5616 15.822 61.4896 15.354 61.4896 14.826C61.4896 14.402 61.5556 14.008 61.6876 13.644C61.8196 13.276 62.0076 12.956 62.2516 12.684C62.4996 12.412 62.8016 12.198 63.1576 12.042C63.5136 11.886 63.9136 11.808 64.3576 11.808C64.7296 11.808 65.0716 11.87 65.3836 11.994C65.6996 12.114 65.9716 12.29 66.1996 12.522C66.4276 12.754 66.6056 13.04 66.7336 13.38C66.8656 13.72 66.9316 14.108 66.9316 14.544C66.9316 14.724 66.9116 14.846 66.8716 14.91C66.8316 14.97 66.7576 15 66.6496 15H62.6536C62.6656 15.364 62.7176 15.682 62.8096 15.954C62.9016 16.222 63.0276 16.446 63.1876 16.626C63.3516 16.806 63.5456 16.94 63.7696 17.028C63.9936 17.116 64.2436 17.16 64.5196 17.16C64.7796 17.16 65.0036 17.13 65.1916 17.07C65.3836 17.01 65.5476 16.946 65.6836 16.878C65.8236 16.806 65.9396 16.74 66.0316 16.68C66.1276 16.62 66.2116 16.59 66.2836 16.59C66.3796 16.59 66.4536 16.626 66.5056 16.698L66.8416 17.13ZM72.1192 13.38C71.9272 13.128 71.7192 12.952 71.4952 12.852C71.2752 12.752 71.0272 12.702 70.7512 12.702C70.2152 12.702 69.7992 12.896 69.5032 13.284C69.2112 13.668 69.0652 14.23 69.0652 14.97C69.0652 15.358 69.0972 15.69 69.1612 15.966C69.2292 16.238 69.3252 16.462 69.4492 16.638C69.5772 16.81 69.7332 16.938 69.9172 17.022C70.1012 17.102 70.3092 17.142 70.5412 17.142C70.8812 17.142 71.1752 17.066 71.4232 16.914C71.6712 16.762 71.9032 16.548 72.1192 16.272V13.38ZM73.2952 9.144V18H72.5872C72.4232 18 72.3212 17.922 72.2812 17.766L72.1792 17.064C71.9192 17.372 71.6232 17.62 71.2912 17.808C70.9632 17.992 70.5832 18.084 70.1512 18.084C69.8032 18.084 69.4872 18.016 69.2032 17.88C68.9232 17.744 68.6832 17.546 68.4832 17.286C68.2832 17.022 68.1292 16.696 68.0212 16.308C67.9132 15.92 67.8592 15.474 67.8592 14.97C67.8592 14.518 67.9192 14.098 68.0392 13.71C68.1592 13.322 68.3332 12.986 68.5612 12.702C68.7892 12.418 69.0652 12.196 69.3892 12.036C69.7132 11.872 70.0792 11.79 70.4872 11.79C70.8552 11.79 71.1672 11.85 71.4232 11.97C71.6832 12.09 71.9152 12.26 72.1192 12.48V9.144H73.2952Z" fill="white"/>
</svg>
