<svg width="22" height="28" viewBox="0 0 22 28" fill="none" xmlns="http://www.w3.org/2000/svg">
<g id="Layer_1" clip-path="url(#clip0_999_33062)">
<path id="Vector" d="M22 6.29602V11.6468L10.9855 5.35081H10.9837L0 11.6307V6.27811L10.9837 0L22 6.29602Z" fill="#22514D"/>
<path id="Vector_2" d="M22.0019 16.0753V23.3649H17.3202V18.7498L17.2895 18.7319L13.3419 16.4763V27.9978H8.66199V16.4584L4.68188 18.7319V23.3649H0.00195312V16.0574L4.68188 13.3811L10.9839 9.7793L11.002 9.78825L17.3202 13.399L22.0019 16.0753Z" fill="#22514D"/>
<path id="Vector_3" d="M22.0015 6.28707V11.6379L11.0015 5.35081V0L22.0015 6.28707Z" fill="black" fill-opacity="0.2"/>
<path id="Vector_4" d="M22.0015 16.0761V23.3657H17.3197V18.7506L17.289 18.7327L13.3414 16.4771V27.9986H11.0015V9.78906L17.3197 13.3998L22.0015 16.0761Z" fill="black" fill-opacity="0.2"/>
</g>
<defs>
<clipPath id="clip0_999_33062">
<rect width="22" height="28" fill="white"/>
</clipPath>
</defs>
</svg>
