<svg width="18" height="18" viewBox="0 0 18 18" fill="none" xmlns="http://www.w3.org/2000/svg">
<rect width="18" height="18" rx="4" fill="#0A0B0A"/>
<path d="M13.7137 5.93427V8.06367L8.99324 5.55811H8.99247L4.28516 8.05726V5.92715L8.99247 3.42871L13.7137 5.93427Z" fill="#FAFAFA"/>
<path d="M13.7137 9.82685V12.7278H11.7073V10.8912L11.6941 10.8841L10.0023 9.98643V14.5715H7.9966V9.9793L6.29084 10.8841V12.7278H4.28516V9.81972L6.29084 8.75466L8.99169 7.32129L8.99944 7.32485L11.7073 8.76179L13.7137 9.82685Z" fill="#FAFAFA"/>
<path opacity="0.4" d="M13.7135 5.9369V8.07157L8.99951 5.56338V3.42871L13.7135 5.9369Z" fill="#FAFAFA"/>
<path opacity="0.4" d="M13.7148 9.82621V12.7272H11.7083V10.8906L11.6951 10.8834L10.0033 9.9858V14.5709H9.00049V7.32422L11.7083 8.76116L13.7148 9.82621Z" fill="#FAFAFA"/>
</svg>
