<svg width="16" height="17" viewBox="0 0 16 17" fill="none" xmlns="http://www.w3.org/2000/svg">
<rect y="0.5" width="16" height="16" rx="2" fill="#0A0B0A"/>
<path d="M12.2308 5.74864V7.6597L7.99437 5.41106H7.99368L3.76904 7.65395V5.74225L7.99368 3.5L12.2308 5.74864Z" fill="#FAFAFA"/>
<path d="M12.2308 9.24181V11.8453H10.4301V10.197L10.4183 10.1906L8.89995 9.38503V13.5H7.09992V9.37863L5.56907 10.1906V11.8453H3.76904V9.23541L5.56907 8.27956L7.99298 6.99316L7.99994 6.99636L10.4301 8.28596L12.2308 9.24181Z" fill="#FAFAFA"/>
<path opacity="0.4" d="M12.2306 5.751V7.66679L8 5.41579V3.5L12.2306 5.751Z" fill="#FAFAFA"/>
<path opacity="0.4" d="M12.2309 9.24154V11.845H10.4302V10.1968L10.4183 10.1904L8.90001 9.38476V13.4997H8V6.99609L10.4302 8.28569L12.2309 9.24154Z" fill="#FAFAFA"/>
</svg>
