<svg width="182" height="40" viewBox="0 0 182 40" fill="none" xmlns="http://www.w3.org/2000/svg">
<g clip-path="url(#clip0_174_7208)">
<g clip-path="url(#clip1_174_7208)">
<g clip-path="url(#clip2_174_7208)">
<mask id="mask0_174_7208" style="mask-type:luminance" maskUnits="userSpaceOnUse" x="0" y="0" width="31" height="40">
<path d="M30.5772 0.541748H0V39.4582H30.5772V0.541748Z" fill="white"/>
</mask>
<g mask="url(#mask0_174_7208)">
<path d="M30.5772 9.29241V16.7294L15.2685 7.97869H15.2659L0 16.707V9.26753L15.2659 0.541748L30.5772 9.29241Z" fill="#153E3B"/>
<path d="M30.5803 22.8852V33.0168H24.0734V26.6025L24.0306 26.5775L18.544 23.4426V39.4559H12.0396V23.4176L6.50768 26.5775V33.0168H0.00317383V22.8603L6.50768 19.1406L15.2666 14.1345L15.2918 14.147L24.0734 19.1654L30.5803 22.8852Z" fill="#153E3B"/>
<path d="M30.579 9.27997V16.7169L15.2904 7.97869V0.541748L30.579 9.27997Z" fill="black" fill-opacity="0.3"/>
<path d="M30.579 22.8855V33.017H24.072V26.6027L24.0293 26.5778L18.5427 23.4428V39.4563H15.2904V14.1472L24.072 19.1658L30.579 22.8855Z" fill="black" fill-opacity="0.3"/>
</g>
<path d="M180.591 22.1761C180.591 22.231 180.564 22.6157 180.508 23.3303H169.323C169.524 24.2463 170.001 24.9701 170.752 25.5014C171.504 26.0327 172.438 26.2984 173.555 26.2984C174.325 26.2984 175.003 26.1885 175.589 25.9686C176.193 25.7304 176.752 25.364 177.265 24.8693L179.546 27.3427C178.154 28.9366 176.121 29.7336 173.445 29.7336C171.778 29.7336 170.303 29.413 169.021 28.7718C167.738 28.1121 166.748 27.2053 166.052 26.051C165.356 24.8968 165.008 23.5868 165.008 22.121C165.008 20.6737 165.347 19.3728 166.025 18.2186C166.721 17.046 167.665 16.1391 168.856 15.4978C170.065 14.8383 171.412 14.5085 172.896 14.5085C174.343 14.5085 175.653 14.8199 176.825 15.4429C177.998 16.0658 178.914 16.9635 179.573 18.1361C180.251 19.2904 180.591 20.637 180.591 22.1761ZM172.923 17.7514C171.952 17.7514 171.137 18.0262 170.477 18.5759C169.817 19.1255 169.414 19.8767 169.268 20.8293H176.551C176.404 19.895 176.001 19.153 175.341 18.6033C174.682 18.0354 173.875 17.7514 172.923 17.7514Z" fill="#1E2521"/>
<path d="M164.159 28.7905C163.738 29.1019 163.215 29.34 162.593 29.5049C161.989 29.6515 161.346 29.7248 160.669 29.7248C158.91 29.7248 157.546 29.2759 156.574 28.3782C155.621 27.4804 155.145 26.1613 155.145 24.4208V18.3471H152.864V15.0493H155.145V11.4491H159.432V15.0493H163.115V18.3471H159.432V24.3658C159.432 24.9888 159.588 25.4742 159.899 25.8223C160.229 26.1521 160.687 26.317 161.274 26.317C161.952 26.317 162.529 26.1338 163.005 25.7674L164.159 28.7905Z" fill="#1E2521"/>
<path d="M143.623 14.5085C145.914 14.5085 147.673 15.0581 148.9 16.1574C150.128 17.2383 150.742 18.8781 150.742 21.0767V29.5138H146.729V27.6725C145.923 29.0466 144.42 29.7336 142.222 29.7336C141.086 29.7336 140.097 29.5412 139.254 29.1565C138.429 28.7718 137.798 28.2404 137.358 27.5625C136.918 26.8846 136.698 26.1152 136.698 25.254C136.698 23.88 137.211 22.799 138.237 22.0111C139.281 21.2233 140.884 20.8293 143.046 20.8293H146.454C146.454 19.895 146.17 19.1805 145.603 18.6858C145.034 18.1728 144.182 17.9162 143.046 17.9162C142.258 17.9162 141.48 18.0446 140.71 18.3011C139.959 18.5392 139.318 18.869 138.787 19.2904L137.247 16.2948C138.054 15.7269 139.016 15.2871 140.133 14.9757C141.269 14.6642 142.432 14.5085 143.623 14.5085ZM143.294 26.848C144.026 26.848 144.677 26.6831 145.245 26.3533C145.812 26.0052 146.216 25.5014 146.454 24.8418V23.3303H143.513C141.754 23.3303 140.875 23.9074 140.875 25.0616C140.875 25.6113 141.086 26.051 141.508 26.3808C141.947 26.6922 142.542 26.848 143.294 26.848Z" fill="#1E2521"/>
<path d="M135.254 28.7905C134.832 29.1019 134.31 29.34 133.688 29.5049C133.083 29.6515 132.441 29.7248 131.763 29.7248C130.005 29.7248 128.64 29.2759 127.669 28.3782C126.716 27.4804 126.239 26.1613 126.239 24.4208V18.3471H123.959V15.0493H126.239V11.4491H130.527V15.0493H134.21V18.3471H130.527V24.3658C130.527 24.9888 130.682 25.4742 130.994 25.8223C131.323 26.1521 131.782 26.317 132.369 26.317C133.047 26.317 133.624 26.1338 134.1 25.7674L135.254 28.7905Z" fill="#1E2521"/>
<path d="M116.092 29.7336C114.864 29.7336 113.664 29.5871 112.491 29.2939C111.318 28.9824 110.384 28.5977 109.688 28.1397L111.117 25.0616C111.777 25.483 112.573 25.8312 113.508 26.106C114.442 26.3625 115.359 26.4907 116.256 26.4907C118.07 26.4907 118.977 26.0419 118.977 25.1441C118.977 24.7227 118.73 24.4204 118.235 24.2372C117.741 24.054 116.981 23.8982 115.954 23.77C114.745 23.5868 113.746 23.3761 112.958 23.1378C112.171 22.8997 111.484 22.4783 110.898 21.8737C110.329 21.2691 110.046 20.408 110.046 19.2904C110.046 18.356 110.311 17.5315 110.843 16.817C111.392 16.0841 112.18 15.5162 113.206 15.1131C114.25 14.7101 115.478 14.5085 116.889 14.5085C117.933 14.5085 118.967 14.6276 119.994 14.8657C121.039 15.0856 121.899 15.397 122.577 15.8002L121.148 18.8507C119.847 18.1178 118.427 17.7514 116.889 17.7514C115.972 17.7514 115.286 17.8796 114.827 18.1361C114.369 18.3926 114.14 18.7225 114.14 19.1255C114.14 19.5835 114.387 19.9041 114.882 20.0873C115.377 20.2706 116.164 20.4446 117.245 20.6096C118.455 20.8111 119.444 21.031 120.214 21.2691C120.984 21.489 121.652 21.9012 122.22 22.5058C122.788 23.1104 123.072 23.9533 123.072 25.0342C123.072 25.9502 122.798 26.7655 122.247 27.4801C121.698 28.1946 120.892 28.7534 119.829 29.1565C118.785 29.5412 117.538 29.7336 116.092 29.7336Z" fill="#1E2521"/>
<path d="M107.987 25.9358V29.5086H93.0913V10.271H107.629V13.8436H97.5159V18.021H106.448V21.4838H97.5159V25.9358H107.987Z" fill="#1E2521"/>
<path d="M88.8165 14.7302V29.5156H84.7492V27.7568C84.1812 28.3979 83.5033 28.8927 82.7154 29.2408C81.9276 29.5706 81.0757 29.7355 80.1596 29.7355C78.2176 29.7355 76.6785 29.1767 75.5426 28.059C74.4067 26.9414 73.8387 25.2833 73.8387 23.0848V14.7302H78.1259V22.4527C78.1259 24.8345 79.1244 26.0253 81.1215 26.0253C82.1475 26.0253 82.972 25.6956 83.5948 25.036C84.2178 24.3581 84.5293 23.3596 84.5293 22.0404V14.7302H88.8165Z" fill="#1E2521"/>
<path d="M66.1778 16.6796C66.6908 15.965 67.3778 15.4245 68.239 15.0581C69.1184 14.6917 70.1261 14.5085 71.262 14.5085V18.4659C70.7856 18.4293 70.465 18.4109 70.3001 18.4109C69.0726 18.4109 68.1108 18.7591 67.4145 19.4553C66.7183 20.1332 66.3702 21.1592 66.3702 22.5332V29.5138H62.0829V14.7283H66.1778V16.6796Z" fill="#1E2521"/>
<path d="M49.7052 13.8987H43.5492V10.271H60.3134V13.8987H54.1574V29.5086H49.7052V13.8987Z" fill="#1E2521"/>
</g>
</g>
</g>
<defs>
<clipPath id="clip0_174_7208">
<rect width="181.61" height="40" fill="white"/>
</clipPath>
<clipPath id="clip1_174_7208">
<rect width="181.61" height="40" fill="white"/>
</clipPath>
<clipPath id="clip2_174_7208">
<rect width="181.61" height="39.9974" fill="white" transform="translate(0 0.0012207)"/>
</clipPath>
</defs>
</svg>
