<svg width="361" height="65" viewBox="0 0 361 65" fill="none" xmlns="http://www.w3.org/2000/svg">
<g clip-path="url(#clip0_93_1883)">
<path d="M30.8777 42.9696H27.283C27.2565 42.5464 27.2299 42.1628 27.2299 41.766C27.2299 38.9486 27.2299 36.1312 27.2299 33.3138C27.2299 31.462 26.3014 30.4699 24.4443 30.417C22.6271 30.3641 20.7966 30.4303 18.9793 30.3906C17.9977 30.3641 17.6926 30.7874 17.7059 31.7265C17.7457 35.0201 17.7191 38.3269 17.7059 41.6337C17.7059 42.0702 17.6661 42.5067 17.6396 42.9829H13.9652C13.9387 42.5464 13.8989 42.1231 13.8856 41.6998C13.8856 38.393 13.8591 35.0995 13.8989 31.7927C13.9122 30.8139 13.6203 30.3641 12.5857 30.3906C10.2776 30.4303 7.96958 30.4303 5.67479 30.3906C4.70646 30.3774 4.37484 30.7742 4.38811 31.7265C4.4279 34.9936 4.40137 38.2475 4.40137 41.5146C4.40137 41.9511 4.40137 42.4009 4.40137 42.93H0.727051V27.4409H1.96067C9.8399 27.4409 17.7324 27.4409 25.6116 27.4409C29.0207 27.4409 30.9573 29.3589 30.9706 32.7053C30.9706 35.9725 30.9706 39.2263 30.9706 42.4935C30.9706 42.5993 30.9308 42.7051 30.8777 42.9564V42.9696Z" fill="white"/>
<path d="M131.756 27.4669C131.359 28.3134 131.12 29.0277 130.722 29.6229C130.483 29.98 129.966 30.3372 129.568 30.3636C127.711 30.443 125.854 30.3901 123.983 30.4033C121.622 30.4297 120.733 31.3292 120.733 33.6307C120.733 35.3767 120.76 37.1227 120.733 38.8555C120.72 39.6756 120.999 40.1121 121.874 40.1121C125.522 40.1121 129.17 40.0856 132.818 40.1121C133.746 40.1121 133.693 39.5697 133.693 38.9481C133.693 33.7101 133.693 28.4854 133.693 23.2474C133.693 22.8109 133.693 22.3612 133.693 21.8188H137.42V42.9559C136.969 42.9824 136.572 43.0088 136.174 43.0088C130.961 43.0088 125.761 43.0088 120.548 43.0088C118.027 43.0088 116.98 41.9506 116.98 39.4242C116.98 37.0169 116.953 34.5963 116.98 32.189C117.019 29.6758 118.916 27.5594 121.423 27.4801C124.806 27.3743 128.188 27.4536 131.77 27.4536L131.756 27.4669Z" fill="white"/>
<path d="M177.386 43.0219C174.017 43.0219 170.794 43.0219 167.557 43.0219C164.984 43.0219 162.424 43.0219 159.85 43.0219C157.635 43.0219 156.561 41.9373 156.547 39.7416C156.547 38.6305 156.521 37.5194 156.547 36.4083C156.6 34.9004 157.648 33.7761 159.147 33.7497C162.424 33.6968 165.687 33.7364 168.976 33.7364C168.645 35.6279 168.393 35.8528 166.576 35.8528C164.825 35.8528 163.074 35.8793 161.336 35.8528C160.474 35.8396 160.142 36.1835 160.155 37.0432C160.222 40.5088 159.718 40.112 163.127 40.1252C166.284 40.1252 169.454 40.0987 172.611 40.1384C173.433 40.1384 173.725 39.8871 173.699 39.0538C173.646 37.1226 173.699 35.1914 173.672 33.2735C173.659 31.4217 172.664 30.4429 170.727 30.4164C167.305 30.39 163.883 30.4164 160.461 30.4032C160.102 30.4032 159.731 30.4032 159.134 30.4032C159.625 29.3847 159.97 28.5514 160.434 27.7578C160.553 27.5593 161.004 27.4668 161.296 27.4668C165.09 27.4535 168.884 27.4271 172.677 27.4668C175.423 27.5064 177.413 29.5963 177.439 32.3344C177.453 35.5221 177.439 38.7099 177.439 41.9108C177.439 42.2415 177.4 42.559 177.373 43.0352L177.386 43.0219Z" fill="white"/>
<path d="M47.0346 33.7232C46.6632 35.1341 45.8452 35.8395 44.5806 35.8395C42.8297 35.8395 41.0787 35.8528 39.341 35.8395C38.4921 35.8395 38.1207 36.1702 38.134 37.03C38.187 40.4426 37.736 40.1119 41.1318 40.1119C44.2622 40.1119 47.3795 40.0855 50.5099 40.1251C51.4119 40.1251 51.7701 39.9003 51.7303 38.9479C51.664 37.2019 51.717 35.4559 51.717 33.7232C51.717 31.2629 50.8415 30.4032 48.3345 30.3899C45.0979 30.3899 41.8613 30.3899 38.6247 30.3899C38.2268 30.3899 37.8156 30.3899 37.1789 30.3899C37.6432 29.3979 37.988 28.5514 38.4523 27.7709C38.5717 27.5593 39.0094 27.4535 39.3145 27.4535C43.148 27.4403 46.9815 27.4006 50.815 27.4535C53.2159 27.4932 55.325 29.2788 55.4311 31.6201C55.5903 35.3501 55.4709 39.0934 55.4709 42.9293C55.0597 42.9558 54.7016 43.0087 54.3434 43.0087C48.9182 43.0087 43.4796 43.0087 38.0544 43.0087C35.6402 43.0087 34.6055 41.9637 34.6055 39.5431C34.6055 38.4982 34.579 37.4665 34.6055 36.4215C34.6453 34.9004 35.6535 33.7629 37.1656 33.7232C40.4287 33.657 43.7051 33.6967 47.0611 33.6967L47.0346 33.7232Z" fill="white"/>
<path d="M325.833 42.9435V27.5073H340.769V30.6819C340.41 30.7083 340.013 30.748 339.628 30.748C336.842 30.748 334.043 30.8009 331.258 30.7215C330.064 30.6819 330.17 31.3697 330.17 32.1368C330.17 32.904 330.077 33.5786 331.271 33.5389C333.791 33.4596 336.325 33.5125 338.858 33.5125C339.256 33.5125 339.654 33.5125 340.119 33.5125V36.515C339.734 36.5415 339.349 36.5812 338.965 36.5812C336.405 36.5812 333.831 36.6076 331.271 36.5812C330.462 36.568 330.144 36.7796 330.17 37.6394C330.25 40.1525 329.918 39.7292 332.306 39.7557C334.866 39.7822 337.439 39.7557 339.999 39.7557C340.397 39.7557 340.795 39.7557 341.273 39.7557V42.9567H325.833V42.9435Z" fill="white"/>
<path d="M231.746 42.9557V27.5195H246.656V30.6808C246.258 30.6941 245.86 30.7337 245.462 30.7337C242.676 30.7337 239.877 30.7866 237.092 30.7205C235.818 30.6808 236.11 31.4877 236.084 32.1887C236.057 32.9162 235.964 33.5511 237.105 33.5247C239.705 33.4453 242.318 33.5379 244.918 33.485C245.846 33.4585 246.205 33.7628 246.112 34.6887C246.059 35.2707 246.112 35.8527 246.112 36.5934H236.097C236.097 37.5457 236.031 38.3658 236.137 39.1595C236.177 39.3975 236.734 39.7282 237.052 39.7282C240.023 39.7679 243.008 39.7944 245.979 39.7282C246.961 39.715 247.438 39.9266 247.306 41.0113C247.226 41.6197 247.292 42.2546 247.292 42.9689H231.746V42.9557Z" fill="white"/>
<path d="M359.604 28.01C359.313 29.1608 359.087 30.0867 358.875 30.8935C356.474 30.6951 354.179 30.4835 351.898 30.3248C351.234 30.2851 350.518 30.3115 349.921 30.5496C349.377 30.7613 348.953 31.3036 348.475 31.7004C348.913 32.1369 349.298 32.7982 349.815 32.957C351.128 33.3273 352.521 33.4331 353.861 33.7241C355.307 34.0416 356.766 34.3458 358.159 34.8352C359.737 35.3908 360.613 36.6077 360.639 38.314C360.666 39.9938 359.936 41.343 358.397 41.9911C357.044 42.5599 355.585 42.9832 354.126 43.1551C350.585 43.5652 347.069 43.1551 343.621 42.2557C343.488 42.216 343.355 42.1234 343.156 42.0308C343.408 41.052 343.647 40.0997 343.873 39.2267C346.22 39.5573 348.475 39.9674 350.744 40.179C351.991 40.2981 353.277 40.1922 354.511 39.9938C355.015 39.9145 355.426 39.2928 355.877 38.9092C355.466 38.4992 355.108 37.851 354.63 37.732C353.052 37.3219 351.42 37.15 349.815 36.7929C348.555 36.5019 347.282 36.1844 346.088 35.6818C344.509 35.0204 343.7 33.7638 343.74 31.9914C343.78 30.2454 344.562 29.002 346.128 28.301C349.086 26.9651 352.229 27.1238 355.347 27.3751C356.7 27.4809 358.053 27.7984 359.565 28.0365L359.604 28.01Z" fill="white"/>
<path d="M249.786 39.3719C252.916 39.6629 255.901 39.9671 258.885 40.192C259.535 40.2449 260.252 40.1259 260.849 39.8745C261.26 39.7026 261.711 39.2132 261.777 38.8164C261.817 38.5254 261.3 37.9566 260.928 37.8508C259.655 37.4804 258.328 37.282 257.015 36.991C255.503 36.6471 253.951 36.3693 252.479 35.8667C250.568 35.2186 249.627 33.8033 249.64 32.0308C249.653 30.179 250.635 28.7902 252.532 28.0891C255.954 26.8193 259.482 27.0971 262.997 27.5733C263.793 27.6791 264.576 27.8907 265.451 28.0759C265.213 29.1208 264.987 30.0467 264.762 31.0256C263.263 30.8139 261.843 30.5229 260.411 30.4436C258.899 30.3642 257.373 30.4436 255.861 30.5229C255.145 30.5626 254.296 30.8801 254.442 31.7398C254.535 32.2292 255.224 32.8377 255.755 32.9699C257.44 33.38 259.19 33.5652 260.902 33.9091C261.923 34.1075 262.931 34.3853 263.899 34.7556C265.491 35.3508 266.473 36.4619 266.526 38.2476C266.579 40.0994 265.756 41.4618 264.085 42.1099C262.679 42.6523 261.167 43.0358 259.668 43.1813C256.431 43.512 253.208 43.1284 250.038 42.3877C249.308 42.2158 248.99 41.9777 249.268 41.184C249.507 40.4962 249.666 39.7687 249.773 39.3719H249.786Z" fill="white"/>
<path d="M269.245 42.9828V27.6128C269.351 27.5334 269.417 27.4541 269.47 27.4541C273.887 27.2424 278.318 26.7927 282.695 27.6922C285.56 28.2742 286.555 29.6101 286.635 32.5069C286.648 33.0227 286.635 33.5518 286.582 34.0677C286.343 36.5015 285.215 37.9961 282.788 38.34C280.307 38.6972 277.761 38.6443 275.24 38.7633C274.763 38.7898 274.285 38.7633 273.635 38.7633V42.996H269.231L269.245 42.9828ZM273.675 35.7475C275.943 35.6285 278.092 35.6285 280.215 35.3772C281.607 35.2184 282.151 34.3719 282.191 32.9698C282.218 31.6735 281.7 30.7476 280.48 30.6154C278.251 30.3773 275.996 30.3508 273.688 30.245V35.7475H273.675Z" fill="white"/>
<path d="M93.3945 27.507C93.7527 27.4806 94.071 27.4541 94.4027 27.4541C98.8331 27.4541 103.25 27.4409 107.681 27.4541C110.93 27.4541 112.907 29.4382 112.92 32.6392C112.92 36.0386 112.92 39.4512 112.92 42.9432H109.153C109.153 42.2024 109.153 41.4749 109.153 40.7474C109.153 38.2211 109.166 35.7079 109.153 33.1815C109.153 31.6868 108.357 30.5493 107.017 30.5096C103.754 30.4038 100.491 30.4699 97.1087 30.4699V42.9299H93.3945V27.507Z" fill="white"/>
<path d="M305.312 43.049C303.879 43.049 302.5 43.1152 301.133 43.0093C300.762 42.9829 300.298 42.4935 300.125 42.1099C299.051 39.7158 299.78 40.1787 297.114 40.1258C295.854 40.0994 294.581 40.1655 293.32 40.1126C292.591 40.0861 292.074 40.2581 291.928 41.0253C291.609 42.7713 290.575 43.3665 288.85 43.0755C288.134 42.9564 287.378 43.049 286.436 43.049C286.622 42.5596 286.741 42.1893 286.9 41.8454C288.97 37.2952 291.052 32.745 293.095 28.1817C293.387 27.5335 293.718 27.2822 294.421 27.3219C295.496 27.3748 296.584 27.2954 297.645 27.3616C297.976 27.388 298.454 27.6393 298.587 27.9171C300.855 32.8244 303.07 37.7581 305.298 42.6919C305.325 42.758 305.298 42.8374 305.298 43.049H305.312ZM295.96 31.0916C295.854 31.0916 295.748 31.0784 295.642 31.0652C294.912 32.9964 294.169 34.9275 293.4 36.9645H298.202C297.419 34.9275 296.703 33.0096 295.973 31.0916H295.96Z" fill="white"/>
<path d="M322.741 27.9565C322.449 29.0676 322.197 30.0199 321.919 31.0384C320.685 30.8929 319.518 30.6945 318.337 30.6548C316.931 30.6151 315.499 30.5887 314.119 30.7871C311.771 31.131 310.591 32.7976 310.577 35.4298C310.577 37.8901 311.652 39.4641 314.039 39.7022C316.228 39.9138 318.47 39.6625 320.698 39.5832C321.242 39.5567 321.786 39.398 322.41 39.2922C322.688 40.271 322.94 41.1837 323.272 42.3477C321.852 42.599 320.486 42.9296 319.12 43.0751C316.268 43.3661 313.403 43.4852 310.617 42.5593C308.176 41.7524 306.558 40.1255 306.306 37.5594C306.147 35.8928 306.24 34.16 306.532 32.5066C306.877 30.5755 308.177 29.1601 309.967 28.393C314.119 26.5941 318.364 27.0173 322.754 27.9565H322.741Z" fill="white"/>
<path d="M214.368 27.4668H229.158C229.158 28.4456 229.225 29.398 229.105 30.3239C229.079 30.5355 228.469 30.8265 228.124 30.8397C225.444 30.8794 222.765 30.8662 220.085 30.8662C219.687 30.8662 219.276 30.8662 218.785 30.8662V34.7153H227.766V38.0221H218.772V42.9558H214.368V27.4668Z" fill="white"/>
<path d="M189.444 27.5073H193.808V39.4912H203.744V42.9567H189.458V27.5073H189.444Z" fill="white"/>
<path d="M146.904 42.9697H143.19C143.164 42.5596 143.124 42.2025 143.124 41.8454C143.124 38.737 143.111 35.6286 143.124 32.507C143.137 29.5176 145.154 27.4674 148.138 27.441C151.255 27.4145 154.373 27.441 157.715 27.441C157.238 28.4198 156.88 29.2531 156.415 30.0335C156.269 30.2583 155.792 30.3774 155.46 30.3774C153.643 30.4038 151.826 30.3774 149.995 30.3906C147.807 30.4171 146.904 31.343 146.904 33.5387C146.904 36.237 146.904 38.9486 146.904 41.647C146.904 42.0438 146.904 42.4406 146.904 42.9565V42.9697Z" fill="white"/>
<path d="M79.5464 42.9566H75.8456C75.8456 42.1762 75.8456 41.4487 75.8456 40.7212C75.8456 38.2742 75.8456 35.8271 75.8456 33.3801C75.8456 31.4357 74.864 30.4304 72.8875 30.404C70.3672 30.3775 67.8337 30.404 65.0879 30.404C65.5389 29.4252 65.8705 28.5786 66.3215 27.7982C66.4409 27.5866 66.8786 27.4676 67.1704 27.4676C69.7703 27.4411 72.3835 27.4146 74.9834 27.4676C77.4904 27.5337 79.5597 29.5575 79.5995 32.0177C79.6658 35.4965 79.6127 38.9884 79.6127 42.4804C79.6127 42.6259 79.5729 42.7582 79.5332 42.9566H79.5464Z" fill="white"/>
<path d="M59.7153 21.74C60.7632 21.74 61.7979 21.6739 62.8193 21.7929C63.058 21.8194 63.3764 22.4675 63.3897 22.8246C63.4295 26.0917 63.4162 29.3456 63.4162 32.6128C63.4162 36.0254 63.4162 39.4248 63.4162 42.93H59.7153V21.74Z" fill="white"/>
<path d="M210.456 42.9959H206.224V27.4937H210.456V42.9959Z" fill="white"/>
<path d="M88.2619 26.3296V42.9562H84.6539C84.6274 42.6123 84.5876 42.2684 84.5876 41.9112C84.5876 37.7579 84.6008 33.6045 84.561 29.4512C84.561 28.684 84.7865 28.2211 85.4896 27.8904C86.3916 27.4671 87.2272 26.9248 88.2619 26.3428V26.3296Z" fill="white"/>
<path d="M84.5874 26.0516C84.5874 24.7024 84.6007 23.6045 84.5874 22.4935C84.5874 21.9379 84.7731 21.6734 85.3568 21.6998C85.8343 21.7263 86.3251 21.6469 86.8026 21.7263C87.3199 21.8057 88.2087 21.9379 88.2485 22.176C88.4209 23.0226 88.6199 24.0014 87.4128 24.4908C86.4843 24.8744 85.6353 25.4564 84.5874 26.0384V26.0516Z" fill="white"/>
</g>
<defs>
<clipPath id="clip0_93_1883">
<rect width="359.938" height="21.6" fill="white" transform="translate(0.726562 21.7002)"/>
</clipPath>
</defs>
</svg>
