<svg width="32" height="32" viewBox="0 0 32 32" fill="none" xmlns="http://www.w3.org/2000/svg">
<g filter="url(#filter0_b_114_5005)">
<path d="M12.0003 29.3332H20.0003C26.667 29.3332 29.3337 26.6665 29.3337 19.9998V11.9998C29.3337 5.33317 26.667 2.6665 20.0003 2.6665H12.0003C5.33366 2.6665 2.66699 5.33317 2.66699 11.9998V19.9998C2.66699 26.6665 5.33366 29.3332 12.0003 29.3332Z" fill="white" fill-opacity="0.2"/>
<path d="M12.0003 29.3332H20.0003C26.667 29.3332 29.3337 26.6665 29.3337 19.9998V11.9998C29.3337 5.33317 26.667 2.6665 20.0003 2.6665H12.0003C5.33366 2.6665 2.66699 5.33317 2.66699 11.9998V19.9998C2.66699 26.6665 5.33366 29.3332 12.0003 29.3332Z" stroke="#292D32" stroke-width="1.5" stroke-linecap="round" stroke-linejoin="round"/>
</g>
<path d="M12.2266 19.7732L19.7732 12.2266" stroke="#292D32" stroke-width="1.5" stroke-linecap="round" stroke-linejoin="round"/>
<path d="M19.7732 19.7732L12.2266 12.2266" stroke="#292D32" stroke-width="1.5" stroke-linecap="round" stroke-linejoin="round"/>
<defs>
<filter id="filter0_b_114_5005" x="-2.08301" y="-2.0835" width="36.167" height="36.1665" filterUnits="userSpaceOnUse" color-interpolation-filters="sRGB">
<feFlood flood-opacity="0" result="BackgroundImageFix"/>
<feGaussianBlur in="BackgroundImageFix" stdDeviation="2"/>
<feComposite in2="SourceAlpha" operator="in" result="effect1_backgroundBlur_114_5005"/>
<feBlend mode="normal" in="SourceGraphic" in2="effect1_backgroundBlur_114_5005" result="shape"/>
</filter>
</defs>
</svg>
